<?xml version="1.0" encoding="UTF-8"?>
<svg id="Layer_1" data-name="Layer 1" xmlns="http://www.w3.org/2000/svg" viewBox="0 0 313.88 381.8">
  <defs>
    <style>
      .cls-1 {
        stroke-width: 0px;
      }
    </style>
  </defs>
  <g id="Calque_vectoriel-5" data-name="Calque vectoriel-5">
    <path class="cls-1" d="M160.27,380.31c-9.57-2.72-17.85-6.85-26.52-10.49-8.65-3.55-15.8-8.16-22.94-12.77-12.43-6.48-20.69-15.44-29.04-23.87-5.43-5.5-11.93-10.79-13.87-17.27-2.45-7.27-6.53-14.34-7.68-21.76-.11-1.16-.47-3.44,2.36-3.11.86.17,1.44.77,1.19,1.31-.14.86.07,1.74.23,2.6,1.62,6.34,5.11,12.41,7.25,18.66,1.24,3.79,2.9,7.51,6.26,10.79,8.04,7.92,15.24,16.11,24.2,23.63,6.06,4.57,13.67,8.24,20.17,12.56,10,5.89,22.27,9.89,33.95,14.3,2.79,1.32,10.04,1.53,8.4,4.48-.7.93-2.52,1.31-4.01.89l.05.03h0Z"/>
    <path class="cls-1" d="M217.29,381.8c-11.17-.18-22.35-.35-33.49-1.16-6.74-.08-13.5.22-20.23-.22-.6-.05-1.09-.53-1.07-1.15.02-.68.64-1.13,1.29-1.05,5.76.56,11.6.04,17.38,0,6.4.19,12.78.83,19.2.66,10.35.23,20.76.56,31.04-.33,12.27-.64,24.31-3.37,36.24-6.16,5.92-1.48,11.92-2.97,17.52-5.42,2.73-1.48,5.32-3.23,7.95-4.74,5.95-3,9.04-9.32,11.64-15.15,1.89-5.3,2.06-10.91,2.48-16.46.04-2.29,3.59-2.45,3.79-.11-.56,7.43-1.29,15.51-5.22,22.01-2.68,4.84-5.9,9.75-10.97,12.29-2.76,1.62-5.39,3.46-8.16,5.05-7.2,3.44-15.14,4.99-22.85,6.91-6.61,1.41-13.3,2.55-19.98,3.66-8.81,1.01-17.7,1.37-26.56,1.34v.03h0Z"/>
    <path class="cls-1" d="M307.1,330.53c-14.08-6.19-29.58-8.28-44.25-12.7-8.36-2.55-16.87-4.51-25.42-6.3-11.69-2.69-23.36-5.56-35.27-7.09h-.06c-.06-.05-.13-.08-.22-.09-.32-.02-.65-.07-.97-.12h-.02.01-.03.02-.03.01c-.25-.05-.49-.09-.74-.16-.04-.05-.1-.09-.16-.11-.13-.05-.28-.03-.4.05-8.45-1.54-16.72-4.05-25.32-4.77-2.83-.45-5.67-.86-8.51-1.23-.09-.11-.21-.2-.36-.21-.5-.05-1-.11-1.51-.16-.2-.02-.39-.04-.58-.05-.3-.03-.59-.08-.89-.07-.06,0-.12.01-.18.04-16.11-2.01-32.33-3.09-48.55-3.98-1.04-.06-2.07-.11-3.11-.16-.54-.1-1.11-.12-1.66-.15-.1,0-.19.02-.28.06-10.39-.46-20.81-.64-31.16-1.78-5.34-.26-10.93-.9-16.17-.09-.76.09-1.23.96-2.03.55-2.14-1.82,1.86-3,3.3-3.03,5.08-.32,10.21-.07,15.29.29,13.37,1.39,26.85,1.22,40.27,1.91,14.1,1,28.4,1.41,42.39,3.32,12.71,1.48,25.4,3.07,37.8,6.32,16.24,2.23,32.25,5.7,48.28,9.05,12.79,2.68,25.21,6.74,37.92,9.75,6.12,1.42,12.14,3.18,18.13,5.05,2,.65,3.97,1.39,5.97,2.05,1.07.35,1.67,1.53,1.32,2.59-.27.84-1.13,1.43-1.99,1.43-.29,0-.58-.07-.85-.21h.01Z"/>
    <path class="cls-1" d="M200.05,304.03h.03s-.02,0-.03-.01h0Z"/>
    <path class="cls-1" d="M57.79,294.04c-9.15-4.31-17.61-9.8-26.29-14.94-9.8-5.1-19.36-10.9-29.79-14.64-3.1-1.12-1.63-5.75,1.56-4.8,10.76,4.14,21.41,8.76,31.52,14.29,7.3,4.56,14.59,9.16,21.47,14.35,1.55,1.31,3.68,2.14,4.76,3.88.56,2.06-1.66,2.88-3.24,1.88v-.02h0Z"/>
    <path class="cls-1" d="M156.01,339.63c-14.89-2.37-29.2-6.57-43.74-9.99-13.37-3.45-27.57-5.53-40.42-9.83-2.25-1.35.01-3.39,2.8-2.48,9.46,2.63,19.37,4.16,28.96,6.56,14.01,3.18,27.89,6.96,41.62,10.51,3.78.97,7.66,1.69,11.5,2.5,1.19.25,2,1.03,1.9,1.7-.11.74-1.31,1.25-2.63,1.02h.02s0,.01,0,.01Z"/>
    <path class="cls-1" d="M296.8,359.98c-2.88-.22-5.73-.24-8.59-.63-6.1-1.04-11.66-2.19-17.73-2.79-9.19-1.51-18.42-2.72-27.59-4.3-10.74-2.12-21.62-3.41-32.5-4.54-8.33-.9-16.65-1.84-24.97-2.82-6.9-.5-13.83-1.29-20.59-2.78-2.07-.8-9.92-1.23-7.71-4.54.27-.27.66-.41,1.02-.36,3.03,1.33,6.57,1.4,9.82,2.14,5.93.66,11.88,1.39,17.83,1.69,7.26.64,14.48,1.79,21.76,2.22,10.78,1.16,21.58,2.18,32.26,4.12,8.97,1.88,18.1,2.72,27.1,4.46,10.19,1.04,20.16,3.65,30.39,4.2,2.48.32,2.17,4.19-.5,3.93h0Z"/>
    <path class="cls-1" d="M308.26,327.74c-.84-.29-1.12-1.24-.8-2.02,1-5,2.12-9.75,2.85-14.77-25.92-8.77-52.01-17.17-78.45-24.25-13.64-3.54-27.55-5.86-41.43-8.2-15.8-2.37-31.74-3.24-47.61-4.97-14.42-1.86-28.93-1.84-43.43-2.22-8.53.09-17.05-.44-25.59-.6-1.81-.03-3.86-.06-5.3,1.1-.85,1.72-.84,3.75-1.46,5.57-1.33,3.88-3.27,7.55-4.93,11.3-.37,1-1.86,2.4-2.57.91-.23-.87.2-1.77.46-2.6,1.09-3.53,3.31-6.61,4.23-10.18.6-3.51-.41-7.39,3.79-8.94,2.29-1.01,4.84-.86,7.29-.79,3.63.14,7.26.06,10.89.29,7.7.42,15.5.25,23.19.52,14.84-.44,29.48,2.13,44.16,3.81,17.12,1.48,34.26,2.96,51.16,6.17,10.42,1.96,20.95,3.48,31.16,6.41,20.44,5.88,40.93,11.63,61.13,18.3,5.2,1.93,10.87,2.84,15.69,5.64,1.51,1.13,1.25,3.19.97,4.84-.2,1.87-.7,3.69-1.34,5.46-1.18,2.68-1.54,5.56-2.29,8.37-.22.74-1.1,1.11-1.8.86h.03Z"/>
    <path class="cls-1" d="M96.21,290.56c-6.46-2.88-4.56-12.26-1.37-17.04,1.06-1.45,2.45-3.2,4.34-3.45,1.11-.11,1.83,1.38,1.03,2.18-3.06,2.59-4.61,6.75-4.02,10.71.2,1,.1,2.14.64,3.02.4.61,1.08.88,1.6,1.36,1.65,1.52-.21,4.25-2.21,3.21h-.01Z"/>
    <path class="cls-1" d="M108.92,293.25c-.09,0-.18.02-.26.06-.02-.05-.05-.1-.06-.16-.34-1.34-.09-2.79-.12-4.16.15-3.74,0-7.51.48-11.23.27-2.31.69-4.61,1.04-6.91.14-.94.27-2.03.96-2.74,2.16-2.3,5.39,1.12,2.96,3.12-.71,5.66-1.79,11.28-2.6,16.93-.19,1.72.02,3.18-.05,4.75-.04.23-.13.43-.25.6-.68-.19-1.39-.21-2.09-.25h-.01Z"/>
    <path class="cls-1" d="M120.18,293.59c-.59-.02-1.12-.55-1.08-1.16.2-2.64.6-5.26,1-7.88.53-1.89.99-14.33,3.6-13.21.95.3.87,1.31.57,2.08-.81,3.37-1.13,6.83-1.64,10.25-.42,2.7-1.01,5.47-1.28,8.17.08.85-.13,1.76-1.16,1.76h0Z"/>
    <path class="cls-1" d="M126.9,293.96c-.87-.24-1.29-1.37-.79-2.12.18-1.37.31-2.75.49-4.12.61-5.13,1.34-10.24,2.59-15.26.32-1.63,2.77-1.23,2.52.43-.33,1.24-.53,2.31-.66,3.52-.27,4.15-.96,8.24-1.68,12.33-.21,1.22-.4,2.44-.61,3.66.15,1.01-.89,1.89-1.85,1.56h-.01Z"/>
    <path class="cls-1" d="M132.37,293.22c.38-5.22,2.05-10.29,3.28-15.36.73-1.54-.24-5.11,2.24-4.91.83.14,1.44,1.05,1.15,1.87-.69,1.79-.97,3.69-1.26,5.58-.49,4.19-1.78,8.24-2.43,12.4.58,2.24-2.94,2.76-2.98.39v.02h0Z"/>
    <path class="cls-1" d="M139.44,294.62c-.39-.99.14-2.11.22-3.13.5-2.75,1.25-5.7,1.86-8.28.62-3.01,1.49-5.95,2.47-8.85.14-.47.63-.77,1.11-.69.5.09.93.62.81,1.14-.79,6.44-2.03,12.78-3.77,19.03.16,1.51-2.05,2.15-2.71.77h.01Z"/>
    <path class="cls-1" d="M137.49,276.48c-.7-.03-.73-.77-.61-1.29.08-.7-.03-1.94,1.01-1.82,1.11.27.39,1.51.31,2.25.11.44-.27.87-.71.85h0Z"/>
    <path class="cls-1" d="M147.49,295.08c-.48-.72-.27-1.65-.25-2.47.3-3.16,1.02-6.26,1.6-9.38.53-2.57,1.23-5.11,1.62-7.7.14-.65.12-1.22.63-1.67,1.18-1.12,3.12.24,2.55,1.68-.91,3.27-1.5,6.33-2.16,9.61-.57,2.82-1.29,5.6-1.75,8.44-.08.43-.09.93-.29,1.32-.4.77-1.44.86-1.96.16h.01Z"/>
    <path class="cls-1" d="M155.76,296.01c-1.08-.38-.51-1.9-.57-2.77.31-3.33.64-6.69,1.48-9.94.65-2.3,1.32-4.95,1.86-7.18.22-.92.45-1.88,1.16-2.55.86-.85,2.45.02,2.2,1.2-.09.57-.17,1.13-.35,1.68-1.25,4.61-2.14,9.23-3.41,13.82-.34,1.42-.69,2.93-1,4.24-.11.71-.51,1.77-1.41,1.5h.04Z"/>
    <path class="cls-1" d="M163.89,297.63c-.2-.02-.39-.04-.58-.05-.2-.02-.4-.05-.59-.06-.18-.33-.24-.73-.13-1.12.92-3.55,1.84-7.09,2.84-10.62.98-2.94,1.77-5.93,2.67-8.89.25-.77.44-1.82,1.46-1.55,1.32.48.15,2.06.07,2.9-.7,3.41-1.47,7.13-2.25,10.43-.59,2.75-1.49,5.43-2,8.19,0,.34-.13.65-.35.88-.38-.04-.75-.08-1.13-.12h-.01Z"/>
    <path class="cls-1" d="M173.32,299c-1.33-.09-1.45-1.44-1.27-2.44.4-5.29,2.31-10.58,3.34-15.71.43-1.53.67-3.12,1.14-4.61.61-1.33,2.7-.84,2.63.63-.04.48-.09.94-.1,1.42-.37,4.98-1.92,9.49-3.16,14.22-.39,1.64-.7,3.3-1.02,4.95-.09.81-.68,1.6-1.56,1.53h0Z"/>
    <path class="cls-1" d="M182.64,300.44c-.42-.09-.84-.17-1.27-.24-.17-.03-.34-.06-.52-.09-.04,0-.09-.02-.14-.02-.03-.05-.05-.11-.07-.17-.43-2.44.7-4.96,1.27-7.32,1.12-3.43,2.14-6.96,2.88-10.41.4-1.65.75-3.39,1-5.04.57-1.66,3.04-.71,2.34.9-1.04,6.64-2.5,13.23-4.42,19.7-.22.72-.32,1.49-.65,2.17-.08.24-.21.42-.38.56-.02,0-.04-.01-.06-.02l.02-.02h0Z"/>
    <path class="cls-1" d="M192.37,302.49c-2.08-.29-.32-3.69-.21-4.95,1.27-4.82,1.7-9.79,2.92-14.61.6-1.34.26-5.77,2.48-5.06.46.21.75.79.57,1.29-1.73,7.38-2.44,14.96-4.68,22.23.05.6-.48,1.14-1.08,1.11h0Z"/>
    <path class="cls-1" d="M200.91,304.22h.01-.02.01-.03.02-.03.01c-.25-.05-.5-.09-.74-.16-.05-.05-.1-.09-.16-.11-.03,0-.05-.02-.08-.02,0,0,0-.02-.01-.03-.34-.97.16-2.05.36-3.02.81-3.09,1.41-6.24,2.03-9.36.59-3.68,1.22-7.32,2.35-10.88.2-.6.84-.96,1.45-.77s.95.84.77,1.45c-1.16,3.3-1.58,6.77-2.23,10.19-.65,4-1.78,7.96-2.56,11.89,0,.4-.21.7-.49.89-.22-.03-.43-.06-.65-.09v.02h-.01Z"/>
    <path class="cls-1" d="M210.41,305.62c-.89-1.01-.14-2.53-.04-3.71,1.23-6.48,3.55-12.76,5.85-18.88.54-1.07,2.13-.21,1.51.83-.68,1.08-1.03,2.32-1.32,3.54-1.31,5.36-2.04,10.85-3.66,16.14-.26,1.11-.87,3.14-2.34,2.09h0Z"/>
    <path class="cls-1" d="M220.12,306.88c-.2-.13-.32-.32-.36-.52h0c-.06-5.79.96-11.64,2.63-17.19.36-1.25.75-2.48,1.11-3.73.14-.46.62-.75,1.09-.67.5.08.91.6.8,1.12-.63,2.88-1.25,5.64-2.01,8.45-.72,3.51-1.21,7.07-1.75,10.61-.05.86-.28,2.55-1.51,1.92h0Z"/>
    <path class="cls-1" d="M227.08,307.73c-.32-2.17.47-4.46.76-6.62.92-4.61,2.06-8.87,3.3-13.31.08-.65.37-1.46,1.18-1.32.46.08.86.57.75,1.05-1.34,5.62-2.12,11.35-3.32,17-.18,1.01-.38,2.01-.53,3.02-.27.97-1.7,1.1-2.14.19h0Z"/>
    <path class="cls-1" d="M234.27,309.65c-.1-2.51.94-5.02,1.49-7.46,1.19-4.31,2.53-8.57,4.46-12.61.31-1.01,1.9-.64,1.7.4-1.44,6.3-3.17,12.52-5.1,18.69-.27.71-.45,1.66-1.36,1.75-.56.06-1.05-.33-1.21-.82,0,0,.02.05.01.05h.01,0Z"/>
    <path class="cls-1" d="M243.18,310.44c-.28-4.09.96-8.26,1.8-12.26.51-2.07.63-4.23,1.33-6.25.05-.84.69-1.79,1.63-1.49.8.19.96,1.28.66,1.86-.73,1.75-.48,3.66-.64,5.5-.18,2.68-.7,5.32-1.2,7.96-.31,1.47-.52,2.96-.83,4.43-.15.63-.61,1.12-1.28,1.19-.63.06-1.26-.33-1.48-.93h.01Z"/>
    <path class="cls-1" d="M252.1,313.8c-1.58-.1-1.5-1.93-1.43-3.11.15-4.57,1.04-8.83,1.55-13.33.09-1.03.05-2.26.73-3.08.18-.26.19-.45.32-.68.44-.93,1.89-.49,1.71.54-.02.16-.02.32,0,.48.97,4.17-.28,8.53-.75,12.71-.5,1.63.13,6.59-2.14,6.47h.01Z"/>
    <path class="cls-1" d="M258.67,315.94c-2-.77.88-10.5.87-12.79.3-2.72.25-5.55,1.13-8.15.34-.77,1.54-.64,1.71.19.13.47.08,1.1.02,1.49-.38,4.62-.32,9.28-1.48,13.8-.26,1.37-.53,2.71-.68,4.04.35.91-.7,1.86-1.57,1.42h0Z"/>
    <path class="cls-1" d="M266.47,317.3c-.95-.03-1.59-1.03-1.29-1.88.64-5.65,1.42-11.3,2.37-16.9.33-1.64,2.72-1.41,2.7.27-.17,1.88-.07,4.02-.27,5.79-.49,3.74-1.14,7.49-2.03,11.16.08.8-.63,1.59-1.48,1.56h0Z"/>
    <path class="cls-1" d="M271.42,319.35c-.72-.46-.85-1.56-.24-2.15,1.76-5.71,2.58-11.7,3.81-17.55.03-.81.58-1.65,1.48-1.49,1.14.2,1.08,1.48.87,2.36-.29,1.82-.52,3.65-.82,5.47-.48,2.96-1.16,5.89-1.87,8.79-.56,1.54-.76,5.71-3.24,4.56h.01Z"/>
    <path class="cls-1" d="M279.14,319.26c1.55-5.77,2.49-11.69,4-17.43.14-.34.52-.55.88-.54,2.2.29.12,6.08.06,7.65-.57,3.36-1.33,6.73-1.98,10.04.23.86-.46,1.74-1.32,1.82-.84.08-1.72-.65-1.63-1.54h-.01Z"/>
    <path class="cls-1" d="M287.96,322.51c-2.24-.17-.53-4.08-.38-5.42.79-3.03,1.35-6.12,1.95-9.2.18-.87.34-1.73.39-2.62.28-1.56,2.63-1.33,2.58.27-.82,4.5-1.7,9.02-2.93,13.44-.49,1.17.19,3.47-1.61,3.53h0Z"/>
    <path class="cls-1" d="M293.7,324.9c-1.04-.04-1.73-1.17-1.32-2.09.85-3.95,1.67-7.92,2.79-11.8.71-1.42.85-5.07,3.05-4.55.73.23,1.16,1.03.93,1.77-1.48,5.04-2.47,10.15-3.91,15.13.07.83-.71,1.61-1.54,1.55h0Z"/>
    <path class="cls-1" d="M300.01,325.2c-.47-.02-.8-.41-.81-.87.09-2.48.58-4.95.78-7.41v.08c.26-2.45.33-4.92.61-7.38.09-.71.11-1.56.7-2.06.56-.48,1.48-.43,1.9.22.6.94.1,2.1,0,3.12-.64,3.47-1.34,6.94-1.9,10.43-.15,1.01-.38,2.02-.41,3.04,0,.46-.42.82-.87.81v.02h0Z"/>
    <path class="cls-1" d="M303.16,325.11c-1.39-.27.02-3.07-.05-4.11.37-3.18.95-6.32,1.61-9.45.25-1.11.31-2.27.61-3.37.43-1.04,2.14-.52,1.9.59-.77,4.18-1.99,8.27-2.55,12.49-.36.95-.17,4.03-1.52,3.84h0Z"/>
    <path class="cls-1" d="M226.27,284.73c-3.11-6.25-1.16-13.43-2.4-19.95-8.53-1.27-17.04-2.74-25.53-4.35-4.58-.9-8.84-1.26-13.38-1.89-2.85-.36-5.63-1.3-8.49-1.42-2.28.92-3.66,3.24-5.28,4.98-2.21,2.65-5.1,4.62-8.18,6.13-1.59,1.07-3.42,1.17-5.26.95-3.88.24-8.63-.4-11.78,2.28.98,1.94-1.69,3.86-3.23,2.34-.74-.69-.82-1.8-.3-2.64,2.25-5.74,12.46-5.69,17.68-5.24.91-.25,1.59-.66,2.37-1.05,2.35-1.21,4.51-2.74,6.12-4.86,2.13-2.58,4.24-6.15,7.88-6.53,3.71.11,7.66,1.65,11.26,2.02,8.17,1.04,16.16,3.07,24.27,4.47,4.42,1.24,9.18.98,13.51,2.49,3.83,3,2.18,15.39,5.01,19.97,1.73,2.88-2.74,5.38-4.27,2.32v-.02h0Z"/>
    <path class="cls-1" d="M224.04,263.71c-.27-3.44,4.59-2.14,6.48-3.76-5-2.84-10.91-3.39-16.46-4.17-6.91-1.4-13.65-2.02-20.62-2.49-4.91-.35-14.66-4.9-18.27-.62.79.54,2.03,1.18,1.56,2.34-.51,1.26-1.84.78-2.79.4-2.52-.86-2.43-4.18-.49-5.63,1.29-1.13,3.04-1.68,4.71-1.93,5.89-.73,11.49,2.32,17.18,3.18,5.87.57,11.78.88,17.62,1.81,4.97.71,10.07.7,14.76,2.68,1.88.55,4.01.8,5.39,2.33,1.74,1.62,1.35,4.46-.76,5.56-1.83.97-7.64,3.63-8.31.32v-.02h0Z"/>
    <path class="cls-1" d="M199.1,252.58c-1.67-.55-.13-2.96.12-4.09,1.09-3.11,2.24-6.5,3.16-9.53,1.94-7.82,3.35-15.78,5.27-23.61.73-2.68,1.63-5.32,2.6-7.92.5-1.02.69-2.94,2.2-2.68.65.14,1.12.83.96,1.49-.7,2.81-1.75,5.69-2.52,8.46-2.73,10.63-4.28,21.61-8.25,31.87-.47,1.27-1.02,2.54-1.56,3.75-.51.82-.75,2.44-1.97,2.26h-.01Z"/>
    <path class="cls-1" d="M208.49,251.93c-1.71-.44-.02-3.44.02-4.67,1.87-10.79,5.46-21.21,7.11-32.05.66-3.38,1.5-6.73,2.13-10.12.1-.49.61-.81,1.09-.7.51.11.79.6.7,1.1-.96,5.4-2.11,10.76-2.96,16.18-1.56,7.62-3.99,15.04-5.44,22.69-.46,2.27-.96,4.54-1.45,6.8-.12.55-.68.9-1.21.78h.01Z"/>
    <path class="cls-1" d="M208.43,212.07c-.16-.52.03-1.07.44-1.39,2.14-9.53,2.74-19.34,4.04-28.98.81-5.92,2.45-11.66,3.75-17.48,2.48-12.29,5.43-24.54,8.68-36.64,2.07-6.96,2.51-14.25,4.04-21.32,1.35-5.69,3.68-11.12,4.76-16.89.83-4.31,1.41-8.67,2.28-12.97.12-.97.39-2.34,1.67-2.08.66.14,1.05.8.93,1.45-1.24,6.01-2.04,12.13-3.68,18.04-1.86,6.22-4.24,12.25-4.91,18.71-1.25,11.82-4.51,23.29-7.3,34.82-2.6,10.79-4.74,21.98-6.65,32.86-1.27,7.48-1.3,15.01-2.88,22.42-.89,3.2-1.55,6.52-2.8,9.58-.42,1.02-2.05.97-2.36-.14h-.01Z"/>
    <path class="cls-1" d="M302.04,223.51c-2.94-1.64-5.18-4.24-8.1-5.93-3.81-2.43-8.14-3.74-12.3-5.43-8.46-3.4-16.66-7.99-25.73-9.58-6.43-.51-12.58-.26-18.91-.59-5.45-.22-11.5-1.34-16.04,2.45-2.52,2.98-6.92-.19-4.44-3.34,5.12-5.47,11.29-5.78,18.32-5.31,6.83.43,13.69.18,20.51.63,4.82.53,9.43,2.15,13.8,4.2,3.94,1.6,7.87,3.19,11.66,5.14,7.58,3.14,15.72,5.58,21.49,11.76-5.61-13.88-8.38-28.67-11.81-43.15-2.48-10.69-6.18-20.7-10.48-30.59-1.79-4.51-2.45-9.35-3.92-13.96-1.09-3.39-2.62-6.61-4-9.88-3.44-7.24-5.03-15.12-6.86-22.87-3.91-15.87-7.51-31.92-9.28-48.19-.15-5.83-.39-11.69-.04-17.52.36-3.35.75-6.7.92-10.07.52-5.05,1.64-9.54,1.87-14.52-.06-1.34-.09-2.88-1-3.93h.03c-.15-.09-.29-.19-.46-.23-1.85,2.5-2.26,5.72-3.3,8.58-.91,2.7-1.91,5.36-2.7,8.09-1.05,3.49-1.79,7.06-2.6,10.61-1.24,5.14-3.05,9.92-4.28,14.99-2.08,8.74-2.02,17.85-4.59,26.49-.8,3.2-1.64,6.39-2.56,9.55.21,1.94-2.73,2.05-2.67.08.85-3.98,1.96-7.94,2.94-11.89,2.52-8.79,2.57-17.93,5.09-26.68,2.43-7.74,4.76-15.41,6.79-23.25,1.88-5.98,4.04-11.99,6.51-17.71.54-1.34,2.24-1.85,3.49-1.13,1.51.8,2.18,2.56,2.56,4.14.97,6.57-1.6,13.14-1.1,19.78-1.78,18.22.24,36.54,4.79,54.24,2.33,10.07,4.56,20.2,7.91,29.99,2.48,7.83,6.06,15.21,8.21,23.09,2.43,7.69,5.91,15,8.59,22.61,4.99,13.2,7.67,27.01,10.56,40.76,1.77,6.91,3.82,13.76,6.32,20.44.79,2.25,1.87,4.31,1.76,6.71-.49,3.43-4.76,3.06-6.96,1.42h.01,0Z"/>
    <path class="cls-1" d="M207.64,254.13c-2.05-1.42,1.01-13.54,1.3-16.38,1.75-9.99,3.26-20.07,7.11-29.53.62-1.7,1.26-3.4,1.78-5.14.39-1.29,2.4-1.37,2.91-.12.5,1.18-.62,2.37-.97,3.4-1.2,2.71-2.16,5.54-3.01,8.38-3,10.43-4.14,21.45-6,32.09-.19,2.03-.73,3.77-.5,5.72.3,1.42-1.5,2.5-2.62,1.57h0Z"/>
    <path class="cls-1" d="M269.68,145.29c-5.98-.77-11.8-2.49-17.61-4.06-4.5-1.03-9.07-1.69-13.5-2.97-.45-.05-.85-.39-1.01-.8-.34-.84.36-1.77,1.24-1.72,4.97,1.14,10.04,1.91,14.99,3.15,2.74.84,5.99,1.64,8.58,2.15,2.58.64,5.12,1.24,7.74,1.62,1.7.32,1.29,2.87-.44,2.63h.01Z"/>
    <path class="cls-1" d="M266.39,167.14c-1.93.06-3.92-1.02-5.58-1.61-2.47-.91-5.03-1.57-7.57-2.26-6.74-1.44-13.54-2.26-20.35-2.82-3.62-1.26-1.55-5.71-.98-8.35.57-3.87,2.16-7.46,3.14-11.24.7-1.44,1.39-2.91,1.57-4.52.12-.79.95-1.29,1.71-1.05.76.23,1.14,1.09.83,1.81-.24,1.65-.62,3.26-1.15,4.85-.33,2.37-.18,4.78-.62,7.16-.03,2.47.01,4.98-.83,7.35,9.56,2.06,19.37,3.28,28.67,6.35.09-4.63-.28-9.35.94-13.87.66-1.84.24-5.55,3.05-5.29,1.04.17,1.79,1.2,1.61,2.25-.81,3.75-1.77,7.46-1.55,11.34.18,1.97.28,3.95.17,5.94.17,1.98-.63,4.33-3.04,3.99l-.02-.03h0Z"/>
    <path class="cls-1" d="M207.78,212.82c-1.15-.5-1.46-1.71-1.73-2.82-1.5-4.54-2.82-9.18-4.9-13.51-3.48-6.21-7.6-11.59-10.39-18.05-3.17-7.97-6.71-16-8.3-24.47-2.63-16.77,1.41-34.11,9.03-49.07,1.34-2.62,3.13-5.06,5.36-6.99,5.72-4.84,11.79-9.52,18.76-12.4,5.55-2.27,11.33-4.23,17.33-4.82,1.25-.05,2.76-.45,3.82.38,1.35,1.53-.58,2.54-1.96,2.71-2.08.52-4.17,1.04-6.23,1.65-4.67,1.52-9.34,3.11-13.77,5.25-5.61,3.01-10.69,7.03-15.3,11.4-5.46,6.21-7.31,14.73-9.74,22.44-2.3,10.17-2.27,20.93-.18,31.14,1.77,6.46,4.15,12.75,6.22,19.12,2.82,8.85,8.78,15.92,11.83,24.52,1.26,3.41,2.46,6.84,3.71,10.25.83,2.08-1.54,4.3-3.56,3.27h0Z"/>
    <path class="cls-1" d="M197.78,249.84c-3.38-2.4-5.48-6.19-8.48-9.02-3.78-3.75-7.79-7.36-10.75-11.83-3.66-5.42-5.49-11.81-7.57-17.94-2.94-10.25-4.76-20.9-4.23-31.59.39-10.69,1.52-21.33,4.28-31.68,1.78-8.26,3.44-16.59,6.14-24.61,1.9-6.1,5.65-11.4,9.53-16.4,1.63-1.71,3.37-5.88,6.17-3.91,1.26,1.07.82,2.73-.2,3.8-1.39,1.92-2.68,3.91-3.98,5.9-2.47,3.79-4.82,7.72-6.42,11.96-4.71,12.76-8.62,25.96-10.57,39.44-.78,11.05-1.69,22.32.82,33.22,1.36,6.07,2.73,12.17,4.97,17.99,1.75,5,3.63,10,7.01,14.09,3.71,4.71,8.56,8.45,11.88,13.47,1.2,1.84,2.61,3.58,3.64,5.52.46,1.3-1.11,2.33-2.23,1.59h-.01Z"/>
    <path class="cls-1" d="M190.71,116.49c-2.08-2.05,6.34-6.01,7.83-7,8.38-4.59,17.61-7.35,26.78-9.9,2.18-.52,4.34-1.11,6.47-1.82.65-.19,1.37.26,1.59.87.25.69-.11,1.52-.82,1.76-4.79,1.24-9.5,2.74-14.14,4.45-6.03,2.09-12.21,3.79-17.9,6.73-2.35,1.16-4.66,2.41-6.76,3.98-.88.72-1.92,2.1-3.04.93h-.01Z"/>
    <path class="cls-1" d="M207.41,120.39c.23-7.72-.62-15.39-.88-23.08-.04-.98-.03-1.96-.13-2.93-.45-.77-.26-1.87.52-2.41,2.99-1.51,3.25,2.9,3.5,4.85.6,4.8,1.28,9.61,1.55,14.45.24,3.16-.5,5.76-.34,8.73.18,2.76-3.85,3.18-4.23.39h.01Z"/>
    <path class="cls-1" d="M186.96,147.09c-.83-.26-1.41-1.23-1.09-2.07,1.63-4.01,3.72-7.82,5.93-11.54,3.7-5.57,9.11-9.73,14.59-13.42,3.49-2.52,7.56-3.91,11.52-5.49,2.03-.81,4.04-1.69,6.08-2.46,1.05-.4,2.52-.8,3.47.01,1.32,1.09.41,3.47-1.34,3.22-7.89,3.86-16.13,7.12-22.92,12.85-4.38,3.41-8.52,7.22-11.04,12.25-.84,1.57-1.77,3.09-2.66,4.63-.46,1.07-1.16,2.48-2.56,2.02h.02,0Z"/>
    <path class="cls-1" d="M173.08,271.63c-1.71-.25-3.37-.73-5.09-.99-.59-.09-1.11-.35-1.4-.89-.69-1.32.81-2.15,1.38-3.14,1.63-1.77,3.66-3.14,5.67-4.45.45-.28,1.03-.24,1.39.16,1.96.31,1.77,2.57,1.5,4.04-.28,2.03-.49,5.98-3.46,5.27h.01ZM171.25,267.95c.38.01.76.04,1.14.06.05-.26.1-.53.14-.79.05-.49.08-.97.12-1.46-.18.17-.36.34-.55.51-.65.59-1.33,1.13-2.02,1.65.39,0,.77.01,1.16.03h.01Z"/>
    <path class="cls-1" d="M194.98,264.18c-3.05-.62-6.08-1.33-9.14-1.87-1.02-.41-3.68.16-3.57-1.4.1-.57.69-.79,1.21-.65,2.92.23,5.82.65,8.73,1.01,1.39.41,4.38-.26,4.25,1.89-.12.68-.8,1.15-1.47,1.02h-.01Z"/>
    <path class="cls-1" d="M179.06,274.42c-1.8-.72-.31-2.77-.03-4.04.71-2.03,1.12-3.71,1.46-5.74.33-1.18.26-2.44.66-3.59.4-.91,1.77-1.05,2.32-.2.36.57.46,1.25.5,1.91.17,2.93-.83,5.76-2.07,8.36-.75,1.14-1.04,3.7-2.85,3.3h.01Z"/>
    <path class="cls-1" d="M192.11,276.43c-.56-2.63-1.09-14.71,2.88-14.42,1.02.05,1.88.88,1.95,1.9-.15,1.28-.67,2.47-.73,3.79-.22,2.85-.59,5.67-1.05,8.49-.25,1.56-2.57,1.76-3.06.25h.01,0Z"/>
    <path class="cls-1" d="M213.67,267.43c-4.06-.48-8.07-1.31-12.12-1.88-1.13-.02-2.26-1.12-1.56-2.24.36-.58,1.13-.87,1.76-.58,4.17.28,8.43.45,12.51,1.47,1.82.54,1.31,3.36-.58,3.23h-.01Z"/>
    <path class="cls-1" d="M198.91,277.91c-.85-.04-1.64-.82-1.55-1.71.27-2.27.09-4.55.35-6.82.14-1.53.43-3.05.58-4.58-.15-1.59,1.63-2.72,3.03-2.06,1.36.66,1.3,1.9,1.06,3.11-.16,1.62-.46,3.19-.8,4.78-.41,1.9-.87,3.8-.96,5.75-.06.89-.82,1.6-1.71,1.55v-.02Z"/>
    <path class="cls-1" d="M212.92,280.4c-.73-1.3-.37-2.88-.46-4.31-.25-3.01.34-6.05.14-9.04-.5-3.09,4.29-3.21,3.91-.06.1,3.55-.87,7.03-.8,10.53-.03.76.02,1.54-.09,2.29-.2,1.27-2,1.68-2.7.59h0Z"/>
    <path class="cls-1" d="M58.28,295.5c-2.64-1.42-5.4-2.72-8.02-4.25-3.82-2.6-7.86-4.85-11.76-7.31-12.34-6.57-24.47-13.49-36.43-20.73-1.88-.09-2.44-2.86-.59-3.6,1.37-.52,2.53.7,3.71,1.21,8.27,4.2,16.26,8.83,24.43,13.23,6.49,3,12.51,6.82,18.76,10.26,2.67,1.54,5.27,3.22,8.13,4.41,1.61.9,3.71,1.29,4.76,2.91,1.17,1.99-.78,4.5-2.99,3.88h0Z"/>
    <path class="cls-1" d="M203.58,233.99c-7.96-6.72-11.12-17.02-15.79-25.99.03.06.06.13.1.19-2.14-4.2-4.46-8.34-6.12-12.77-3.15-9.04-4.18-18.48-5.27-27.91-1.08-8.44-2.01-16.95-1.24-25.46.16-4.46.86-8.94,2.72-13.03.73-1.57,1.22-4.57,3.55-3.79,2.38,1.15.27,3.8-.2,5.53-4.33,10.79-2.92,22.89-1.5,34.15,1.71,12.06,2.63,24.52,8.31,35.4,4.08,7.6,7.25,15.63,11.13,23.33,1.72,3.33,4.38,6.06,6.33,9.21.38,1.15-1.25,2.08-2.04,1.13l.03.02h-.01Z"/>
  </g>
</svg>