<?xml version="1.0" encoding="UTF-8"?>
<svg id="Layer_1" data-name="Layer 1" xmlns="http://www.w3.org/2000/svg" viewBox="0 0 106.2 98.96">
  <defs>
    <style>
      .cls-1 {
        stroke-width: 0px;
      }
    </style>
  </defs>
  <g id="Calque_vectoriel-4" data-name="Calque vectoriel-4">
    <path class="cls-1" d="M18.46,97.05c-3.17-.56-3.76-3.56-3.07-6.29.39-2.51.83-5.01,1.01-7.55.12-6.05.81-12.49,4.05-17.74,1.26-1.83,3.32-5.54,5.84-3.31,1.08,1.09.79,3.07-.64,3.72-.83,1-1.48,2.12-2.1,3.26-2.2,4.65-2.54,9.86-2.97,14.91-.36,2.89-1.14,5.72-1.35,8.63,1.23-.92,1.48-2.59,1.85-3.99,1.16-8.71-1.83-15.27,8.75-18.93,6.72-.94,6.9-9.74,12.58-12.21,3.72-1.65,7.5.17,10.98,1.56,4.83,1.41,10.14,2.91,15.08,3.4,1.86.12,3.71.04,5.54-.25,1.27-.18,2.47.75,2.64,2.01.7,5.03-12.98,2.51-15.88,2.2-5.14-.92-10.19-2.22-15.3-3.14-.63-.09-.9.54-1.24.94-1.51,2.34-2.63,4.9-4.31,7.14-1.52,1.98-3.72,3.42-6.11,4.13-2.46.59-5.95,1.22-6.4,4.22-.84,5.75-.76,17.7-8.96,17.29h.01,0Z"/>
    <path class="cls-1" d="M94.64,98.85c-3.3-.59-3.87-3.59-3.82-6.46-.53-4.86-.66-9.68-1.62-14.46-.79-7.34-7.17-10.24-13.31-12.62-2.46-.35-1.29-3.97.93-2.79,12.24,3.59,15.19,7.01,16.07,19.73.34,4.11-.02,8.41,1.63,12.3,1.69.72,3.46-.25,5.13-.64-.69-4.67-3.86-9.29-2.23-14.15,1.52-3.42,3.27-6.77,3.29-10.63-.11-4.53-.91-11.2-6.01-12.63-1.7.24-2.54,1.84-3.35,3.14-.88,1.38-2.94,2.35-4.26.98-.7-.7-.88-1.88-.35-2.73.21-.29.68-1.08.7-1.29,2.26-8.14,10.88-8.36,15.42-1.89,2.15,2.64,2.73,6.23,3.14,9.52.71,5.6-.52,11.37-3.56,16.13-1.74,4.73,2.39,9.52,1.22,14.34-.28,1.96-2,3.04-3.84,3.28-1.71.36-3.43,1.27-5.2.88h.02Z"/>
    <path class="cls-1" d="M85.26,59.3c-1.68-.38-.06-2.93.04-4.03.76-2.32,1.25-4.75,1.35-7.2.05-.8-.76-.88-1.34-1.07-3.17-1.8-.23-5.9-.15-8.6-.6-5.38-5.44-9.5-5.78-15-.39-4.02,3.05-6.35,6.6-4.32,1.2.6,2.14,1.56,3.26,2.27,4.55-2.74,6.78-1.05,7.5,3.91h0c1.29-.51,1.42-2.17,1.43-3.37-.34-1.06-1.35-1.72-1.84-2.7-1.19-1.69-1.41-3.69-1.75-5.64-.28-1.23-1.72-1.24-2.65-1.76-2.94-1.71-6.89-3.3-7.31-7.05-2.97,1.71-6.51,1.47-9.63,2.48-.64.87-1.09,2.02-2.21,2.39-.7.24-1.43.25-2.12.5.04.21.06.42.07.63,0,.22,0,.43-.02.63.74,1.05-.1,2.2-1.1,2.67,1.64,2.43-2.09,3.32-3.6,4.32,2.65,2.76-2.38,4-2.66,6.7,1.54-.46,3.78-1.09,4.57.82.41.99,0,2.17-.93,2.7-2.14,1.08-6.73,1.72-7.84-1.03-.36-1.16.58-2.07,1.03-3.05.63-1.62,1.28-3.22,2.55-4.47-2.24-2.11.61-4,2.41-4.98-.53-1.6,1.35-2.48,2.35-3.34.12-.69-.32-1.16-.53-1.78-.56-2.23,1.95-3.32,3.62-4,.55-1.31,2.02-2.48,3.37-2.59,2-.33,3.94-.9,5.94-1.23,2.41-.64,4.77-2.82,7.4-1.88,1.73.6,2,2.49,1.73,4.07,1.31,1.4,2.83,2.66,4.5,3.61,1.35.59,2.89.82,3.79,2.12,1.58,1.59,1.29,3.91,1.81,5.9,1.44,2.98,1.09,6.54-.27,9.43-1.46,3.2-4.23,2.29-4.95-.81-.78-3.56-3.39.16-5.35.06-1.57-.01-2.81-1.02-4.25-1.47.76,4.87,3.9,9.16,4.5,14.07.14,2.23-.62,4.36-1.21,6.47,6.27,2.05,1.64,8.3-.11,11.96-.44.94-.89,1.76-1.2,2.74.01.54-.49.96-1.02.9v.02h0Z"/>
    <path class="cls-1" d="M24.34,43.25c-2.21-2.09.95-5.08,2.88-6.09,6.45-3.57,13.84.24,20.62-.19,2.1.03,3.66-1.48,5.66-1.83,1.76-.31,3.61-.02,5.32-.63,2.25-.77,3.96-2.54,5.8-3.99-1.95-3.36.86-6.15,3.52-2.76,1.53,1.61,2.51,3.97.19,5.4-3.89,4.14-8.97,6.2-14.49,6.88-1.61.33-3.07,1.26-4.76,1.25-4.29.14-8.59-.21-12.87-.51-3.31-.16-7.1-.23-9.43,2.49-.73.53-1.73.54-2.45-.01h.01Z"/>
    <path class="cls-1" d="M7.33,66.16c-.51-.13-.79-.64-.68-1.14.44-1.83.64-3.7.77-5.58.28-6.12.38-14.6,7.08-17.24,1.62-.56,3.31-.87,4.95-1.35,9.95-3.11,7.81,6.64,3.2,3.63-11.53.78-10.8,5.11-12.51,14.83-.39,1.31-1.1,7.37-2.82,6.85h.01,0Z"/>
    <path class="cls-1" d="M3.44,76.22c-2.25-.65-4.12-3.02-3.2-5.38.78-1.86,2.82-2.65,4.25-3.95,1.51-1.3,2.07-3.29,2.45-5.18.09-.47.15-1.03.51-1.37.43-.41,1.14-.39,1.5.1.29.38.24.89.21,1.34-.15,1.72-.59,3.43-1.4,4.96-1.06,2.02-3.1,3.24-4.62,4.87.95,3.46,9.01-1.14,10.09-3.15,3.44-6.19-.67-13.88,2.75-19.99,1.83-2.91,4.57-5.59,8.12-6.08,1.66-.23,3.26.9,3.49,2.59.22,1.65-.96,3.18-2.6,3.41-1.39.23-2.44,1.31-3.35,2.31-1.78,1.71-1.6,4.28-2.06,6.53-.92,4.29-.66,9.03-2.99,12.89-2.8,3.75-8.32,7.43-13.15,6.1h0Z"/>
    <path class="cls-1" d="M23.78,63.9c-1.02-1.28-.79-3.67-1.01-5.17-.21-4.31.05-8.69.92-12.92.18-.72.95-1.16,1.66-.98,1.46.43.92,1.91.66,2.99-.25,1.41-.4,2.89-.47,4.31-.18,3.15-.02,6.49-.1,9.61-.07.78.02,1.8-.75,2.22-.29.15-.66.16-.91-.06h0Z"/>
    <path class="cls-1" d="M83.45,43.72c-4.16-.13-16.12-7.51-15.43-12.13.43-1.76,3.13-1.42,3.11.36,2.98,2.55,6.15,4.89,9.4,7.07,1.26.77,2.48,1.59,3.67,2.46.95.65.37,2.3-.76,2.24h.01Z"/>
    <path class="cls-1" d="M83.46,13.65c-1.11.05-2.31.22-2.82-1.06-.61-1.76.89-2.63,2.45-2.58,0-1.67,2.38-2.43,3.34-1.03.39.6.62,1.29.87,1.96h0c.85,2.53-1.9,3.16-3.83,2.72h-.01Z"/>
    <path class="cls-1" d="M65.7,27.47c-.32-.32-.43-.84-.25-1.25.51-1.52.79-3.09,1.28-4.61,1.94-5.27,4.78-10.4,9.6-13.52,2.89-1.2,6.61-4.9,9.78-3.07,1.35,1.06.19,3.13-1.4,2.8-1.45.17-2.71,1.15-3.99,1.81-2.97,1.26-5.59,3.27-7.54,5.84-1.59,2.49-3.08,5.27-4.06,7.96-.62,1.41-1.13,5.56-3.41,4.04h-.01Z"/>
    <path class="cls-1" d="M62.28,25.77c-.92-1.17-.21-2.56.62-3.54,1.28-1.77,1.95-3.93,3.32-5.61h.09c1.25-1.75,2.32-3.62,3.47-5.43.93-1.49,2.39-2.55,3.15-4.13,1.19-1.63,2.78-2.85,4.34-4.09,1.2-1.24,3.24-1.37,4.59-.31,1.3,1,1.8,3.04.88,4.47-1.37,1.89-3.87,2.57-5.51,4.23-3.84,3.15-6.31,7.6-9.1,11.62-.29,1.28-.83,2.79-2.24,3.16-1.17.51-2.71.86-3.6-.37h-.01Z"/>
    <path class="cls-1" d="M36.53,52.26c-.39-.23-.62-.77-.41-1.2.74-1.56,1.16-3.26,2.05-4.75-1.02-.02-2.01-.24-2.97-.56-1.28,1.57-2.66,3.26-3.21,5.2-.01.66-.56,1.21-1.22,1.22-3.24-.09,1.14-7.54,2.34-8.51,1.46-1.61,3.6-.1,5.4-.31,2.46-.23,3.58.71,2.36,3.11-.65,1.31-2.5,6.64-4.34,5.79h0Z"/>
    <path class="cls-1" d="M62.73,59.25c-4.23-1.42-8.67-3.64-10.65-7.8-1.67-1.1.49-3.3,1.63-1.63.78,1.39,1.92,2.6,3.22,3.52,2.38,1.45,4.96,2.83,7.78,3.02,2.05.08,4.09-.2,6.13-.28.77-.05,1.46.62,1.56,1.36.11.85-.5,1.65-1.34,1.77-2.76.37-5.58.72-8.33.04h0Z"/>
    <path class="cls-1" d="M65,55.18c-4.05.14-7.57-2.83-9.43-6.23-.34-1.14-1.34-2.67.04-3.52.95-.57,2.26.2,2.21,1.3.09.39.26.75.47,1.09,1.66,2.37,4.25,3.86,7.08,4.34,1.69.43,1.38,3.02-.37,3v.02h0Z"/>
    <path class="cls-1" d="M76.99,53.74c-1.29-.36-.6-1.78-.66-2.71-.31-1.56-1.07-3.04-1.91-4.39-1-1.43,1.16-2.87,2.09-1.38,1.28,2.36,3.12,5.13,1.77,7.84-.21.5-.77.79-1.29.64h0Z"/>
    <path class="cls-1" d="M78,63.5c-1.07-1.15.66-2,1.03-3.01.33-1.24-.26-3.12,1.65-3.23,1.8.03,1.83,2.32.91,3.41-.76,1.14-1.84,4.13-3.58,2.83h-.01Z"/>
    <path class="cls-1" d="M93.57,69.72c-1.1-.35-1.22-1.67-1.98-2.41-.62-1.12-1.83-2.03-2-3.34.05-1.28,1.14-2.21,1.87-3.17.52-.51.84-1.41,1.64-1.52.57-.54,1.25-.07,1.77.28,1.68.76,2.96,2.73,2.66,4.59-.01,1.39-1,2.42-1.78,3.46-.59.8-.84,2.49-2.17,2.11h-.01ZM93.93,67.38c.53-.82,1.32-1.45,1.85-2.26.79-1.9-.54-3.65-2.35-4.18h-.03c-.78,1.07-1.74,2.03-2.36,3.21h0c.34.63.91,1.18,1.32,1.67.49.54.95,1.17,1.56,1.56h.01Z"/>
    <path class="cls-1" d="M96.23,72.78c-.37-.18-.35-.65-.79-.87-1.5-.61-.14-1.25.24-2.05.03-.1.09-.19.18-.25.37-.81,1.4-1.1,1.7-.08.41.52.66,1.14.75,1.75,0,.39-.42.46-.66.61-.51.24-.81,1.05-1.42.89h0ZM95.71,71.09c.34.17.71.36.95.67.29-.24.48-.46.78-.66-.19-.32-.46-.59-.71-.86-.14.11-.31.16-.48.12-.1.17-.24.33-.33.44-.08.09-.15.18-.22.27h.02v.02h-.01Z"/>
    <path class="cls-1" d="M25,63.41c-.54-6.01-.94-12.11-.62-18.14.24-1.04,1.83-1.06,2.08-.01.39,5.22.07,10.47.07,15.7-.04.78.03,1.58-.07,2.36-.08.79-1.27.88-1.46.1h0Z"/>
    <path class="cls-1" d="M24.49,69.96c-.36-.21-.53-.73-.29-1.09.71-1.56,2.47-1.5,3.73-2.32,2.05-1.47,3.79-3.42,6.24-4.23,1.34-.47,2.74-.73,4.13-.99.46-.06,1.04.02,1.25.5.29.65-.5,1.32-1.09.94-2.38.42-4.82.97-6.66,2.64-1.57,1.45-3.12,3.14-5.32,3.54-.75.22-1.07,1.53-1.98,1.02h-.01Z"/>
    <path class="cls-1" d="M51.23,46.72c.16-4.4,5.22-6.77,9.15-6.57.38.02.7.3.7.69-.03.87-1.04.69-1.65.76-2.87.24-6.61,1.76-7,4.96.11.78-1.11.94-1.2.16Z"/>
    <path class="cls-1" d="M45.26,57.17c-.48-.87.92-1.3,1.31-1.94,2.36-2.62,2-7.27-.31-9.78-.55-.42.06-1.3.62-.86,3.86,3.18,3.34,9.95-.79,12.7-.25.21-.64.13-.83-.11h0Z"/>
    <path class="cls-1" d="M84.6,58.78c-.87-1.83,1.81-3.17,2.74-1.36,1.6.04,2.21,2.09.69,2.78-1.34.57-2.9-.06-3.42-1.42h-.01Z"/>
    <path class="cls-1" d="M87.36,60.58c-3.63-1.35-2.58-6.16-1.63-9.02.45-.76.37-2.53,1.57-2.34.39.12.58.53.48.91-.53,2.75-2.36,6.51-.07,8.83.34-.1.73.11.95.37.36.06.53.49.37.8-.3.59-1.1.61-1.67.46h0Z"/>
    <path class="cls-1" d="M87.4,61.18c-.3-.11-.57-.27-.84-.44-.53-.32-.31-1.19.3-1.22.55-.01.9.59,1.26.94.33.48-.24.97-.71.72h-.01,0Z"/>
  </g>
</svg>