<?xml version="1.0" encoding="UTF-8"?>
<svg id="Laag_1" data-name="Laag 1" xmlns="http://www.w3.org/2000/svg" viewBox="0 0 232.12 346.43">
  <defs>
    <style>
      .cls-1 {
        fill: none;
        stroke: #1d1d1b;
        stroke-miterlimit: 10;
      }

      .cls-2 {
        fill: #1d1d1b;
        stroke-width: 0px;
      }
    </style>
  </defs>
  <path class="cls-2" d="M109.38,328.36c-.42-14.55-.84-29.11-1.25-43.66-.2-6.99-.53-13.99-.5-20.98.03-6.41.49-12.9,2.43-19.04,3.79-12.01,13.47-20.82,23.76-27.47,5.76-3.72,11.82-6.92,17.79-10.26s11.6-6.73,17.22-10.39c6.36-4.14,12.56-8.53,18.57-13.15,5.28-4.06,10.83-9.23,17.83-9.61,1.55-.08,2.31-2,.32-1.89-6.26.34-11.58,3.88-16.41,7.58-5.45,4.19-10.91,8.33-16.58,12.22-5.75,3.94-11.64,7.67-17.66,11.18-6.02,3.52-12.21,6.73-18.21,10.28-10.73,6.35-21.3,14.28-27.07,25.65-6.2,12.24-4.98,26.45-4.6,39.71.48,16.71.96,33.41,1.44,50.12.04,1.39,2.95.85,2.92-.28h0Z"/>
  <path class="cls-2" d="M119.3,326.59c-1.3-12.46-1.06-25.01-.62-37.51.22-6.16.45-12.32.69-18.49.22-5.8.51-11.75,2.84-17.16,1.99-4.63,5.25-8.54,8.61-12.24,1.71-1.88,3.47-3.72,5.16-5.62s3.22-4.15,5.09-5.95c2.03-1.95,4.66-2.36,7.13-3.52s4.44-2.68,6.61-4.11c4.77-3.15,10.5-3.82,15.56-6.38,3.03-1.53,5.89-3.42,8.77-5.21s5.94-3.69,8.91-5.54c6.08-3.78,12.16-7.56,18.24-11.34.49-.3.35-.48-.15-.54-.61-.07-1.53.23-2.05.55-10.86,6.75-21.62,13.69-32.6,20.24-2.6,1.55-5.25,2.82-8.15,3.71-2.67.82-5.36,1.56-7.86,2.83-2.36,1.19-4.44,2.83-6.67,4.24-2.39,1.51-5.04,2.1-7.53,3.36-2.21,1.12-3.78,2.94-5.31,4.84s-3.28,3.87-5,5.73c-3.5,3.79-7.14,7.54-9.8,11.99-2.87,4.79-4,10.13-4.42,15.64-.46,6.08-.53,12.21-.76,18.3-.54,14.31-1.07,28.67.42,42.94.05.44,2.97-.09,2.9-.78h0Z"/>
  <path class="cls-2" d="M206.3,187.68c-1.05,4.95,3.05,9.06,4.29,13.58,1.47,5.35.89,11.21.85,16.7-.08,11.62-.37,23.25-.23,34.87.03,2.78.31,5.47.98,8.17s1.41,5.48,1.84,8.29c.87,5.75.88,11.57.53,17.36-.17,2.8-.42,5.59-.69,8.37-.13,1.35-.28,2.71-.42,4.06s-.43,2.71-.38,4.03c.08,2.18,2.86,2.16,4.47,2.31,2.07.19,4.22.17,6.23-.42,2.2-.65,4.08-2,5.01-4.14,1.17-2.68,1.49-5.88,1.51-8.77,0-.98.04-2.07-.79-2.75-.96-.8-2.5-.77-3.68-.91-3.17-.37-6.35-.43-9.54-.27-.51.03-1.56.39-1.64,1-.09.68.82.67,1.26.65,2.54-.13,5.1-.06,7.64.18.95.09,3.13,0,3.67.93.48.83.18,2.42.12,3.34-.16,2.3-.44,5.03-1.52,7.1-.91,1.72-2.49,2.35-4.35,2.46-.93.06-1.86,0-2.79-.09-.77-.07-2.29,0-2.63-.85-.2-.49.03-1.28.08-1.78.07-.63.13-1.27.2-1.9.14-1.35.28-2.7.42-4.06.51-5.09.94-10.19.96-15.3s-.34-9.97-1.39-14.85c-.53-2.44-1.31-4.83-1.73-7.29s-.45-5.21-.44-7.82c.07-10.6.15-21.19.23-31.79.04-5.44.56-11.19-.59-16.54-.55-2.55-1.72-4.77-2.89-7.08s-2.19-4.6-1.65-7.16c.24-1.12-2.69-.67-2.9.35h0Z"/>
  <path class="cls-2" d="M107.08,328.49c-1.94,1.06-4.22,1.98-5.87,3.48s-1.96,3.57-1.57,5.6c.78,4.05,4.39,6.65,8.14,7.73,1.88.54,3.84.8,5.79.93,2.12.15,4.34.33,6.45.05,3.94-.52,7.87-3.34,6.58-7.77-.7-2.4-2.53-4.12-4.05-6.01-1.68-2.1-2.64-4.58-2.62-7.28,0-1.4-2.92-.9-2.92.27-.02,3.7,1.46,6.61,3.83,9.36,1.93,2.24,5.18,6.77,1.29,8.94-1.56.87-3.58.68-5.3.61-1.6-.06-3.21-.16-4.8-.39-3.25-.47-6.54-1.72-8.41-4.57-1.04-1.59-1.73-4.05-.79-5.84.45-.86,1.3-1.33,2.11-1.79,1.12-.62,2.25-1.23,3.37-1.84,1.74-.95.16-2.27-1.23-1.52h0Z"/>
  <path class="cls-2" d="M229.88,287.62c1.62-9.52,2.44-18.98,2.21-28.65s-1.22-19.16-2.18-28.71-1.94-19.15-2.13-28.77c-.1-4.84.12-9.71-.44-14.53s-1.69-9.13-1.8-13.79c-.14-5.56.43-11.18.74-16.73.31-5.59.62-11.18.94-16.78.06-1-2.83-.4-2.88.43-.54,9.75-1.17,19.49-1.62,29.24-.22,4.76.27,9.29,1.06,13.98s1.06,9.5,1.06,14.34c.03,19.27,3.28,38.29,4.19,57.51.26,5.47.32,10.96,0,16.43s-1.1,10.99-2.03,16.45c-.16.93,2.73.43,2.88-.43h0Z"/>
  <path class="cls-2" d="M226.88,138.82c2.14-5.06,2.46-10.57,2.54-16,.09-5.91.12-11.83.18-17.74.12-12.08.27-24.15.35-36.23.08-11.14-.09-22.65-3.95-33.24-3.08-8.44-8.59-16.43-16.57-20.86-4.53-2.52-9.62-3.58-14.53-5.1-2.74-.85-5.34-1.94-7.89-3.26-2.33-1.21-4.66-2.45-7.15-3.3-5.19-1.78-10.75-2.16-16.18-2.48-6.05-.36-12.1-.53-18.16-.59-3.01-.03-6.02-.03-9.03-.01-2.46.02-5.18-.21-7.34,1.2-1.89,1.23-3,3.7-4.05,5.62-1.27,2.31-2.4,4.69-3.41,7.12-4,9.62-6.05,19.92-7.44,30.21-1.5,11.09-2.42,22.26-3.48,33.39-.57,5.95-1.16,11.9-1.67,17.86s-.88,11.77-.53,17.66c.17,2.89.52,5.76,1.09,8.61.14.7,3.06.01,2.9-.78-2.24-11.25-.9-22.75.16-34.06s2.11-22.75,3.33-34.11c1.07-10.02,2.43-20.08,5.23-29.79,1.4-4.85,3.16-9.61,5.42-14.13,1.1-2.2,2.23-4.64,3.79-6.55.42-.52.81-.84,1.49-.93s1.39-.03,2.06-.03c1.49-.01,2.99-.02,4.48-.02,5.95,0,11.91.09,17.86.34,5.52.23,11.16.37,16.58,1.45,2.63.52,5.18,1.31,7.6,2.45s4.6,2.42,6.98,3.48c4.76,2.13,9.94,3.02,14.83,4.81,8.75,3.2,15.17,10.25,19.08,18.55,4.49,9.53,5.47,20.21,5.62,30.61.17,11.47-.15,22.95-.26,34.42-.06,5.9-.12,11.79-.17,17.69-.05,5.54.17,11.19-.59,16.7-.36,2.59-.99,5.12-2.01,7.52-.25.58,2.53.32,2.87-.48h0Z"/>
  <path class="cls-2" d="M125.65,120.61c.77-21.38,1.01-42.82,3.42-64.09.6-5.3,1.33-10.58,2.24-15.84.73-4.24,1.5-8.49,2.88-12.58,1.2-3.55,2.86-7.06,5.48-9.78,1.39-1.44,3.04-2.62,4.92-3.31,2.33-.86,4.88-1,7.35-1.12,10.3-.49,20.92-.8,30.93,2.1,8.33,2.41,16.3,7.15,21.06,14.58,4.74,7.41,5.98,16.43,5.94,25.07-.05,10.14-1.66,20.24-2.84,30.29-2.52,21.46-3.16,43.07-3.07,64.66.01,2.63.03,5.26.06,7.9l2.81-.9c-5.55-2.93-11.11-5.86-16.66-8.79-5.13-2.71-10.25-5.51-15.66-7.62s-11.44-3.58-17.23-5.12-11.05-3.18-16.39-5.38c-6.01-2.47-11.78-5.47-17.29-8.93-.52-.33-1.36-.1-1.88.11-.17.07-1.32.62-.84.92,9.57,6.02,19.95,10.57,30.83,13.61,5.77,1.62,11.63,2.94,17.31,4.86s11.1,4.7,16.44,7.53c6.21,3.28,12.42,6.55,18.63,9.83.6.32,2.82.03,2.81-.9-.25-22.56.05-45.17,2.45-67.62,1.12-10.51,2.85-20.99,3.3-31.57.39-8.97-.28-18.44-4.56-26.51s-11.61-13.26-19.91-16.26c-9.68-3.49-20.16-3.69-30.32-3.36-5.07.17-10.43.1-15.17,2.14-3.49,1.5-6.24,4.07-8.26,7.25-2.14,3.36-3.42,7.21-4.36,11.05-1.19,4.85-1.96,9.83-2.68,14.77-3.18,21.69-3.69,43.65-4.39,65.52-.09,2.75-.18,5.5-.28,8.25-.02.56,2.86.16,2.9-.78h0Z"/>
  <path class="cls-2" d="M119.91,123.26c-12.21,9.67-27.03,14.97-40.39,22.72-6.89,4-13.18,8.86-19.69,13.44-3.29,2.32-6.65,4.55-10.2,6.46s-7.25,3.43-10.86,5.17c-6.35,3.06-12.79,7.19-15.78,13.87-1.36,3.03-2.12,6.93-.56,10.03.79,1.56,2.13,2.69,3.46,3.78,1.65,1.35,3.31,2.7,5.02,3.99,5.84,4.4,12.19,7.29,19.25,9.09,6.61,1.68,13.38,2.62,19.98,4.33s12.62,4.29,17.8,8.79c1.42,1.23,2.9,2.37,4.72,2.96s3.84.74,5.78.89c4.34.35,8.69.53,13.04.55,2.2.01,4.39-.02,6.58-.1,1.68-.05,2.2-2.27.23-2.21-4.26.14-8.53.13-12.79-.05-2.11-.09-4.22-.23-6.33-.4-1.89-.16-3.9-.24-5.67-1s-3.15-2.24-4.62-3.45c-1.23-1.02-2.53-1.94-3.9-2.76-2.7-1.62-5.6-2.89-8.58-3.89-12.47-4.18-26.47-4.04-38-10.88-3.41-2.02-6.53-4.5-9.6-7-1.42-1.15-3.07-2.31-3.79-4.06s-.59-3.58-.23-5.33c1.44-6.95,7.73-11.54,13.67-14.56,3.51-1.79,7.16-3.27,10.68-5.03s6.69-3.74,9.86-5.89c6.41-4.32,12.44-9.2,19.01-13.28,12.71-7.89,26.97-12.99,39.34-21.47,1.53-1.05,3.02-2.15,4.48-3.3,1.54-1.22-.77-2.33-1.94-1.4h0Z"/>
  <path class="cls-2" d="M110.31,236.07c-14.37-3.63-28.73-7.26-43.1-10.9-3.49-.88-6.95-1.83-10.3-3.17s-6.71-2.87-10.05-4.32c-6.74-2.94-13.48-5.87-20.23-8.81-1.73-.75-3.74-1.33-5.33-2.33-1.02-.64-.46-1.45.09-2.24.5-.72.99-1.43,1.43-2.19,1.74-3.02,2.65-6.47,2.72-9.94.03-1.51-2.43-1.19-2.87-.11-3.53,8.69-6.8,17.53-5.42,27.05.7,4.81,2.2,9.47,2.81,14.3s.25,9.96-.28,14.89c-.61,5.62-1.33,11.23-2,16.85-.18,1.55,2.78,1.21,2.95-.19.57-4.8,1.15-9.6,1.72-14.4s1.1-9.95.79-14.94c-.29-4.71-1.51-9.22-2.46-13.82s-1.25-9.42-.33-14.22c1-5.23,3.02-10.2,5.02-15.12l-2.87-.11c-.07,3.46-.98,6.86-2.83,9.81-.71,1.13-1.82,2.23-2,3.61-.2,1.56.96,2.39,2.22,2.98,6.89,3.19,13.94,6.07,20.91,9.1s13.58,6.35,20.76,8.35,15,3.83,22.5,5.73c8.39,2.12,16.79,4.24,25.18,6.37,1.49.38,2.87-1.74.97-2.22h0Z"/>
  <path class="cls-2" d="M18.48,258.71c.21,11.31,1.11,22.6,2.74,33.8l2.58-1.17c-3.06-2.31-6.39-4.19-9.95-5.61-1.72-.69-3.48-1.18-5.24-1.72-.8-.24-1.61-.55-2.13-1.24-.59-.8-.62-1.92-.69-2.87-.6-8.62-.91-17.25.71-25.78.76-3.98,1.66-7.92,2.01-11.97s.31-8.1.13-12.14c-.35-8.08-1.28-16.17-.76-24.27.49-7.62,2.55-14.85,6.54-21.38,3.75-6.14,8.83-11.43,14.48-15.86,6.23-4.88,13.13-8.82,20.16-12.43s14.29-6.41,20.18-11.45c2.79-2.39,5.23-5.15,8.64-6.66,3.01-1.33,6.26-2.02,9.15-3.64,1.38-.77,2.64-1.73,3.67-2.93,1.1-1.29,1.93-2.79,3.07-4.04,1.3-1.42,2.97-1.83,4.78-2.25,2.17-.5,4.34-1,6.5-1.5s4.18-.96,6.26-1.44c.52-.12,1.39-.62,1.21-1.28s-1.19-.61-1.69-.5c-4.34,1-8.67,1.99-13.01,2.99-1.86.43-3.74.95-5.26,2.16-1.3,1.03-2.24,2.39-3.19,3.73-1.01,1.42-2.09,2.65-3.6,3.55-1.41.85-2.99,1.4-4.54,1.94-3.42,1.18-6.63,2.4-9.46,4.73-2.98,2.47-5.61,5.21-8.91,7.28s-7.18,3.85-10.82,5.66c-7.3,3.63-14.55,7.44-21.23,12.12-12.09,8.46-22.45,20.28-25.12,35.19-1.46,8.11-.84,16.41-.32,24.58s.8,16.84-.84,25.22c-.84,4.29-1.74,8.54-2.03,12.92s-.17,8.58.05,12.87c.11,2.11.13,4.27.4,6.36.23,1.76,1.14,2.99,2.76,3.7,1.72.75,3.61,1.09,5.37,1.75,1.89.7,3.72,1.55,5.48,2.53s3.37,2.05,4.94,3.24c.76.57,2.74-.08,2.58-1.17-1.6-11.03-2.51-22.15-2.72-33.3-.03-1.4-2.94-.88-2.92.28h0Z"/>
  <path class="cls-2" d="M21.65,294.49c.89,1.78,1.88,3.77,1.62,5.82-.22,1.72-1.17,2.75-2.92,2.87-2.04.13-4.15-.04-6.18-.26s-4-.62-5.84-1.48c-1.52-.71-2.9-1.8-3.85-3.18-1.13-1.64-1.43-3.59-1.42-5.55,0-1.5.12-3.48,1.35-4.55s3.36-.68,4.86-.48,2.92-1.94.97-2.21c-3.51-.49-7.65-.35-9.37,3.34-1.48,3.17-1.01,7.92.96,10.76,2.21,3.19,6.02,4.71,9.72,5.33,2.11.36,4.27.46,6.41.52,1.96.05,4.03.06,5.73-1.06,1.54-1,2.43-2.75,2.56-4.56.17-2.37-.92-4.56-1.95-6.62-.61-1.22-3.35-.11-2.64,1.31h0Z"/>
  <path class="cls-2" d="M202.83,158.75c-.5,2.4-.26,4.86.22,7.24s1.15,4.87,1.75,7.29c.29,1.19,3.2.43,2.9-.78-.58-2.34-1.2-4.67-1.7-7.03s-.74-4.67-.25-7.01c.27-1.28-2.68-.87-2.92.28h0Z"/>
  <line class="cls-1" x1="107.92" y1="328.5" x2="118.54" y2="328"/>
</svg>