<?xml version="1.0" encoding="UTF-8"?>
<svg id="Laag_1" data-name="Laag 1" xmlns="http://www.w3.org/2000/svg" viewBox="0 0 323.73 132.65">
  <defs>
    <style>
      .cls-1 {
        fill: #1d1d1b;
        stroke-width: 0px;
      }
    </style>
  </defs>
  <path class="cls-1" d="M4.07,49.17c33.61-1.91,67.21-3.96,100.83-5.64,33.35-1.66,66.75-2.77,100.14-2.01,18.69.43,37.37,1.45,55.97,3.26,1.24.12,3.03-1.63,1.08-1.83-33.34-3.26-66.87-3.93-100.35-3.29-33.49.63-66.93,2.55-100.37,4.45-18.99,1.08-37.98,2.16-56.97,3.24-1.52.09-2.34,1.92-.34,1.81h0Z"/>
  <path class="cls-1" d="M265.79,50.24c-.35-2.81-.87-5.59-1.57-8.34-.35-1.38-3.25-.61-2.9.78.69,2.75,1.22,5.53,1.57,8.34.04.28.38.52.62.61.33.13.77.13,1.11.03.66-.2,1.27-.67,1.17-1.41h0Z"/>
  <path class="cls-1" d="M261.89,44.19c14.31-9.59,31.3-13.85,46.38-21.95,4.26-2.29,8.37-4.89,12.15-7.91,1.53-1.22-.77-2.35-1.95-1.41-13.49,10.78-30.47,15.36-45.82,22.7-4.39,2.1-8.66,4.45-12.71,7.16-.55.37-.67,1.14-.14,1.57.6.48,1.52.22,2.08-.16h0Z"/>
  <path class="cls-1" d="M2.73,47.95c6.66-7.71,15.9-12.27,25.17-16.08,10.08-4.14,20.24-7.83,29.76-13.22,5.73-3.24,11.22-6.89,16.44-10.9,1.56-1.2-.77-2.25-1.93-1.36-9.36,7.2-19.6,13.13-30.48,17.7-9.44,3.96-19.29,7.12-28.17,12.29-4.93,2.87-9.48,6.34-13.22,10.68-1.2,1.39,1.56,1.9,2.43.88h0Z"/>
  <path class="cls-1" d="M72.99,7.19c32.92-1.26,65.85-2.52,98.77-3.78,32.29-1.24,64.72-3.11,97.02-1.11,8.95.55,17.88,1.41,26.76,2.68,8.05,1.15,16.61,2.27,23.53,6.89.54.36,1.34.18,1.9-.05.21-.08,1.33-.69.81-1.03-5.86-3.91-12.79-5.41-19.64-6.51-8.03-1.29-16.11-2.22-24.22-2.88C261.69.07,245.41-.16,229.14.09s-32.82.96-49.22,1.59c-16.63.64-33.26,1.27-49.88,1.91-18.62.71-37.25,1.43-55.87,2.14-.56.02-1.63.19-1.92.75s.25.73.75.71h0Z"/>
  <path class="cls-1" d="M322.41,23.74c.39-4.65.19-9.33-.62-13.93-.19-1.07-3.1-.36-2.9.78.78,4.46.99,8.98.61,13.48-.11,1.25,2.82.72,2.91-.33h0Z"/>
  <path class="cls-1" d="M265.82,50.24c7.48-4.01,15.71-6.14,23.65-9.01s15.23-6.4,22.28-10.69c3.97-2.42,7.8-5.08,11.47-7.94,1.55-1.21-.83-1.95-1.87-1.14-6.43,5.01-13.34,9.38-20.65,12.99s-15.28,6.19-23.12,8.88c-4.44,1.52-8.83,3.19-12.98,5.41-1.75.94-.16,2.24,1.23,1.5h0Z"/>
  <path class="cls-1" d="M265.05,50.47c-17.23-.88-34.48-1.27-51.73-1.16-17.04.11-34.02.9-51.04,1.72-8.44.4-16.87.58-25.32.25s-16.92-1.01-25.38-1.53-16.99-.76-25.5-.57-17.11.64-25.66,1.01c-19.39.83-38.77,1.67-58.16,2.5l.86.55c.25-2.02.49-4.05.74-6.07.13-1.03-2.78-.49-2.89.41-.25,2.02-.49,4.05-.74,6.07-.06.46.51.56.86.55,17.29-.74,34.58-1.49,51.87-2.23,17.06-.73,34.15-1.85,51.22-1.05s33.75,2.47,50.73,1.88c16.99-.6,33.94-1.69,50.95-1.92,19.34-.26,38.68.11,58,1.1,1.01.05,3.11-1.41,1.16-1.5h0Z"/>
  <path class="cls-1" d="M26.04,54.72c-.43,19.78-.29,39.57.41,59.34.2,5.57.44,11.13.73,16.69.06,1.16,2.96.51,2.9-.78-1.01-19.59-1.46-39.21-1.35-58.83.03-5.57.11-11.14.23-16.71.03-1.39-2.9-.89-2.92.28h0Z"/>
  <path class="cls-1" d="M27.52,132.41c5.65.41,11.32.29,16.95-.33.45-.05,1.56-.33,1.68-.88.12-.58-.91-.47-1.2-.43-5.18.57-10.4.66-15.59.29-.67-.05-1.51.11-2.05.55-.41.34-.41.77.22.81h0Z"/>
  <path class="cls-1" d="M44.75,52.42c.97,5,.75,10.08.24,15.11s-1.15,10.12-1.55,15.2c-.82,10.35-1.07,20.75-.74,31.13.19,5.89.57,11.76,1.12,17.62.04.45,2.96-.07,2.9-.78-.98-10.34-1.39-20.73-1.23-31.12s1.05-20.64,2.19-30.94c.63-5.66,1.05-11.38-.04-17.01-.1-.52-3.02.14-2.9.78h0Z"/>
  <path class="cls-1" d="M47.4,130.03c2.27-.86,4.79-1.92,6.32-3.91,1.81-2.36,1.05-5.53.81-8.26-.15-1.69-.29-3.37-.44-5.06-.07-.84-.2-1.69-.22-2.53-.02-1.2.49-1.25,1.5-1.63,3.21-1.19,6.6-1.86,10.01-2.05.56-.03,1.62-.19,1.92-.76s-.24-.76-.75-.73c-3.48.19-6.92.76-10.24,1.82-1.44.46-3.17.88-4.41,1.78-1.34.97-.92,2.51-.8,3.96.16,1.84.32,3.68.47,5.52s.48,3.61.37,5.38c-.21,3.16-3.05,4.45-5.66,5.44-.36.14-1.18.58-.8,1.06s1.5.12,1.9-.03h0Z"/>
  <path class="cls-1" d="M231.5,85.62c1.44-.31,3.26-.42,4.5-1.29,1.07-.75,1.08-2.18,1.25-3.38.48-3.31.58-6.69.27-10.03-.61-6.7-3.02-13.35-1.71-20.11.2-1.01-2.71-.53-2.89.4-1.14,5.86.43,11.66,1.32,17.44.46,3.02.66,6.07.48,9.12-.09,1.52-.26,3.04-.52,4.54-.06.35-.07.79-.21,1.11-.2.44.57.08-.43.36-.79.22-1.62.35-2.42.52-.39.08-1.42.49-1.27,1.05s1.27.35,1.63.27h0Z"/>
  <path class="cls-1" d="M244.97,52.11l4.41,52.74c.42,4.98.83,9.95,1.25,14.93l1.58-1.43c-4.76.34-9.51.67-14.27,1.01l1.32.65c-.21-3.25-.43-6.49-.64-9.74-.16-2.41.15-5.62-1.28-7.73-1.57-2.3-4.92-1.74-7.3-1.72-3.33.04-6.66.07-9.99.11-13.32.14-26.64.28-39.96.43-26.64.28-53.28.57-79.92.85-7.34.08-14.68.07-22.02.25-6.66.17-13.37.83-19.52,3.58-.53.24-1.09.89-.69,1.47s1.42.45,1.96.2c5.37-2.4,11.26-2.96,17.08-3.14,6.22-.19,12.45-.17,18.67-.23,12.9-.14,25.81-.27,38.71-.41,25.64-.27,51.28-.55,76.92-.82,3.66-.04,7.33-.08,10.99-.12,3.45-.04,6.96-.27,10.41-.11s2.82,4.83,2.97,7.19c.23,3.57.47,7.14.7,10.71.04.55.93.68,1.32.65,4.76-.34,9.51-.67,14.27-1.01.78-.05,1.65-.57,1.58-1.43-1.47-17.58-2.94-35.16-4.41-52.74-.42-4.98-.83-9.95-1.25-14.93-.11-1.29-3.01-.6-2.9.78h0Z"/>
  <path class="cls-1" d="M252.38,119.35c4-.23,7.98-2.09,10.36-5.39.38-.53-.33-.73-.75-.72-.61.02-1.53.22-1.92.76-.42.58-.89,1.13-1.4,1.59-.29.26-.59.5-.9.73-.07.05-.14.1-.21.15-.09.06.05-.03-.11.07s-.33.2-.5.3c-.15.08-.3.17-.46.24-.09.04-.26.12-.08.04-.08.04-.16.07-.24.1-.18.08-.36.15-.54.22-.03.01-.29.11-.12.04.2-.07-.14.04-.18.06-.19.06-.37.11-.56.15-.03,0-.3.07-.12.03s-.09.02-.12.02c-.19.03-.38.06-.57.09-.11.01-.21.02-.32.04-.24.03.32-.02-.09,0-.64.04-1.51.21-1.92.76s.34.75.75.72h0Z"/>
  <path class="cls-1" d="M256.17,53.55c1.53,20.06,2.67,40.15,3.41,60.26.02.59,2.93.11,2.9-.78-.74-20.11-1.88-40.2-3.41-60.26-.05-.62-2.96-.09-2.9.78h0Z"/>
  <path class="cls-1" d="M262.63,65.8c1.1-2.23,3.72-2.64,5.91-3.2,3.02-.77,6.03-1.6,9.02-2.47,6.04-1.76,12.01-3.71,17.93-5.84.45-.16,1.14-.73.75-1.25s-1.44-.25-1.93-.08c-6.42,2.31-12.91,4.39-19.48,6.24-3.03.85-6.13,1.53-9.14,2.46-2.27.7-4.67,1.77-5.78,4.01-.65,1.3,2.26,1.06,2.72.13h0Z"/>
  <path class="cls-1" d="M294.21,40.21c.65,9.04,2.64,17.98,2.79,27.06.07,4.42-.42,8.7-1.43,13-.47,2.01-.91,4.12-.49,6.18.16.79,2.17,4.2,1.41,4.87-.28.25-1.13.13-1.49.16-.66.06-1.32.11-1.98.17-1.24.1-2.48.21-3.72.31-2.73.23-5.45.46-8.18.69l1.3.59c-.1-.98-.2-1.97-.29-2.95-.12-1.21-3.03-.53-2.9.78.1.98.2,1.97.29,2.95.05.53.92.62,1.3.59,5.06-.43,10.19-.65,15.22-1.29,1.66-.21,3.5-1.07,3.47-2.99s-1.5-3.56-1.65-5.52c-.18-2.38.67-4.75,1.15-7.04s.77-4.81.88-7.24c.21-4.83-.23-9.66-.81-14.45-.68-5.55-1.56-11.07-1.96-16.65-.09-1.2-2.99-.53-2.9.78h0Z"/>
  <path class="cls-1" d="M287.54,85.4c-1.72,1.68-4.06,2.04-6.34,2.48-2.73.53-5.42,1.2-8.06,2.06-5.22,1.71-10.21,4.03-14.86,6.95-.44.27-.81.73-.27,1.08.51.34,1.59,0,2.05-.28,4.84-3.04,10.07-5.44,15.56-7.02,2.57-.74,5.18-1.2,7.79-1.78,2.34-.52,4.69-1.36,6.44-3.07,1.19-1.16-1.65-1.07-2.31-.43h0Z"/>
  <path class="cls-1" d="M261.88,86.9c.16-.33,1.12-.44,1.41-.53.61-.18,1.22-.35,1.84-.53,1.3-.38,2.59-.76,3.88-1.17,2.63-.82,5.24-1.72,7.81-2.73,5.02-1.99,9.82-4.54,14.01-7.96l-2.45-.64c.13,3.64.26,7.28.39,10.93.06,1.59,3,1.22,2.95-.18-.13-3.64-.26-7.28-.39-10.93-.04-1.23-1.69-1.26-2.45-.64-4.45,3.63-9.62,6.2-14.98,8.17-2.67.98-5.38,1.83-8.1,2.64-1.34.4-2.7.75-4.03,1.17-1.14.36-2.12.87-2.67,1.98-.75,1.53,2.18,1.65,2.79.41h0Z"/>
  <path class="cls-1" d="M280.37,59.66c.01,2.77.23,5.62.03,8.38-.11,1.48-1.31,2.1-2.42,2.87s-2.32,1.54-3.52,2.25c-4.84,2.86-10.05,5.04-15.22,7.21-.27.11-1.19.44-.85.86.3.37,1.56-.01,1.87-.14,5.72-2.4,11.46-4.81,16.79-8.01,1.25-.75,2.46-1.54,3.65-2.38.98-.69,2.2-1.4,2.5-2.64s.11-2.73.1-4.02l-.02-5.15c0-.51-2.9-.09-2.9.78h0Z"/>
  <path class="cls-1" d="M279.47,71.08c.69.38,1.48.49,2.24.62.71.12,1.38.33,2.05.58,1.53.58,3.06,1.09,4.66,1.42.66.14,1.54-.12,2.05-.55.46-.39.33-.8-.25-.92-1.48-.3-2.87-.8-4.29-1.33-.72-.27-1.45-.5-2.21-.63-.68-.12-1.33-.17-1.94-.51-.56-.32-1.54,0-2.05.3-.41.24-.86.71-.28,1.03h0Z"/>
  <path class="cls-1" d="M261.37,64.69c-.6.1-1.18.25-1.72.52s-.98.57-1.4.98c-.18.17-.33.47-.26.72s.35.43.59.5c.35.09.74.08,1.09-.02s.69-.27.96-.53c.06-.06.13-.12.2-.18l-.26.21c.16-.13.33-.25.51-.35l-.32.18c.16-.09.33-.17.5-.23l-.38.13c.17-.06.33-.1.51-.14l-.39.07s.04,0,.06-.01c.2-.02.4-.06.58-.14.18-.05.35-.14.51-.25.14-.09.26-.2.35-.33.1-.1.16-.22.18-.36v-.24c-.06-.17-.17-.3-.32-.38-.28-.16-.66-.22-.97-.16h0Z"/>
  <path class="cls-1" d="M306.2,32.6c-.08,8.74-.19,17.47-.24,26.21-.03,4.25.03,8.53.72,12.74.34,2.09.94,4.15,1.14,6.27s-.16,4.38-.69,6.49c-.1.42-.22,1.1-.56,1.39s-1.1.25-1.55.33c-1,.17-1.99.43-2.94.77-1.96.7-3.75,1.78-5.29,3.17-.45.41-.31.83.26.97.63.16,1.57-.12,2.05-.55,1.46-1.32,3.16-2.31,5.1-2.75,1.68-.37,3.51-.33,4.8-1.64s1.46-3.77,1.67-5.49c.25-2.12.02-4.17-.4-6.24-.9-4.43-1.36-8.8-1.4-13.33s.06-9.09.1-13.63c.05-5.16.1-10.32.15-15.47,0-.83-2.89-.31-2.9.78h0Z"/>
  <path class="cls-1" d="M55.79,94.11l9.35-4.26c1.6-.73,3.22-1.42,4.8-2.19,1.18-.58,2.11-1.31,2.42-2.64.74-3.2.81-6.74.96-10.02s.14-6.77-.02-10.16c-.03-.63-1.36-.46-1.65-.38-6.72,1.88-13.51,3.5-20.36,4.85-.45.09-1.4.56-1.24,1.15.17.64,1.23.46,1.65.38,6.85-1.35,13.64-2.97,20.36-4.85l-1.65-.38c.29,6.15.04,12.31-.75,18.41-.08.61-.07,1.54-.47,2.04s-1.31.73-1.87.98l-4.23,1.92-8.46,3.85c-.42.19-1.16.68-.76,1.21.38.5,1.48.26,1.93.06h0Z"/>
  <path class="cls-1" d="M55.93,93.08h-1.8c-.19,0-.37.03-.56.08-.2.04-.39.09-.58.16-.17.06-.32.13-.47.23-.12.07-.24.15-.33.25-.1.13-.21.32-.03.46l.18.09c.19.05.38.07.57.06h1.8c.19,0,.37-.03.56-.08.2-.04.39-.09.58-.16.17-.06.32-.13.47-.23.12-.07.24-.15.33-.25.1-.13.21-.32.03-.46l-.18-.09c-.19-.05-.38-.07-.57-.06h0Z"/>
  <path class="cls-1" d="M53.05,67.62c1.7,0,2.18-2.26.22-2.26-1.7,0-2.18,2.26-.22,2.26h0Z"/>
  <path class="cls-1" d="M54.12,70.6c-.39-3.11.65-6.18.42-9.29s-1.65-5.89-1.03-8.92c.22-1.09-2.69-.63-2.9.36-.63,3.08.7,5.97,1,9,.32,3.22-.79,6.39-.39,9.62.12.96,3.03.31,2.9-.78h0Z"/>
  <path class="cls-1" d="M50.94,71.96c.43,3.12.86,6.25,1.07,9.4s.02,6.36-.24,9.56c-.5,6.26.37,12.37,1.41,18.52.16.97,3.08.29,2.9-.78-1.07-6.37-1.87-12.58-1.33-19.05s-.05-12.27-.9-18.44c-.13-.96-3.05-.3-2.9.78h0Z"/>
  <path class="cls-1" d="M55.82,99.6c1.1-1.01,1.99-1.67,3.49-1.87,1.23-.17,2.44-.31,3.63-.7,2.42-.8,4.46-2.36,6.58-3.73,4.8-3.11,9.76-5.95,14.87-8.53.4-.2.84-.57.32-.87s-1.58.11-2.03.34c-5.29,2.68-10.44,5.63-15.41,8.86-1.14.74-2.25,1.55-3.43,2.23-1.24.72-2.41.97-3.82,1.15-2.77.36-4.8,1.38-6.84,3.26-.51.47.44.6.72.59.67-.01,1.44-.27,1.93-.72h0Z"/>
  <path class="cls-1" d="M86.01,82.89c-.08-10.95-.17-21.9-.25-32.85,0-.55-2.9-.11-2.9.78.08,10.95.17,21.9.25,32.85,0,.55,2.9.11,2.9-.78h0Z"/>
  <path class="cls-1" d="M84.42,83.81c-1.02.21-2.03-.13-3-.43-1.05-.32-2.11-.67-3.21-.77-1.26-.11-2.52.03-3.78.13s-2.6.21-3.9.32c-.61.05-1.55.19-1.92.75-.35.52.3.72.74.68,1.3-.11,2.6-.21,3.9-.32s2.6-.3,3.87-.06c2.34.44,4.39,1.56,6.84,1.06.47-.09,1.55-.31,1.67-.9s-.9-.53-1.21-.47h0Z"/>
  <path class="cls-1" d="M60.32,101.59c-.02,1.62.11,3.23.41,4.82.05.24.37.37.57.42.33.08.76.04,1.08-.05s.71-.24.97-.49c.17-.18.33-.38.28-.64-.26-1.37-.4-2.76-.41-4.16v.21c0-.15,0-.3,0-.45,0-.26-.06-.41-.3-.54-.27-.14-.67-.15-.96-.11-.38.05-.78.16-1.1.37-.19.13-.54.36-.55.63h0Z"/>
  <path class="cls-1" d="M63.43,101.78c4.99-3.52,10.58-6.05,16.53-7.46.53-.13,1.37-.62,1.21-1.27s-1.2-.61-1.69-.5c-6.43,1.53-12.53,4.29-17.92,8.1-.48.34-.76.95-.19,1.35s1.56.15,2.07-.21h0Z"/>
  <path class="cls-1" d="M81.2,93.22c.15-.22.32-.42.49-.62l-.19.21c.3-.34.64-.64,1.01-.91l-.26.19c.25-.18.52-.35.8-.5.2-.11.5-.37.55-.61.05-.23-.09-.43-.3-.52-.65-.29-1.46-.04-2.05.27-1.08.57-2.04,1.42-2.75,2.42-.13.18-.15.42,0,.6.17.19.55.25.78.25.38,0,.78-.07,1.14-.23.29-.13.59-.3.78-.56h0Z"/>
  <path class="cls-1" d="M81.77,91.83c18.68.53,37.38.35,56.05-.52,1.51-.07,2.34-1.88.35-1.78-18.42.87-36.87,1.03-55.31.5-.61-.02-1.62.2-1.9.82s.24.96.82.98h0Z"/>
  <path class="cls-1" d="M82.27,85.46c.1.89.2,1.79.29,2.68.02.23.05.46.07.69-.02-.2,0,.08,0,.13,0,.11.01.21.02.32.02.46.02.92-.02,1.39-.06.72.74,1.09,1.36,1.03s1.52-.47,1.58-1.22c.08-1.01,0-2.01-.11-3.02-.09-.93-.19-1.86-.3-2.79-.03-.29-.39-.54-.62-.63-.33-.13-.77-.14-1.11-.04-.68.21-1.25.69-1.17,1.45h0Z"/>
  <path class="cls-1" d="M83.29,83.09v1.8c-.03.12-.01.22.06.31.05.11.13.19.25.24.14.07.28.11.43.12.18.03.35.03.53,0,.38-.05.78-.16,1.1-.38l.26-.2c.14-.12.23-.26.28-.44v-1.8c.03-.12.01-.22-.06-.31-.05-.11-.13-.19-.25-.24-.14-.07-.28-.11-.43-.12-.18-.03-.35-.03-.53,0-.38.05-.78.16-1.1.38l-.26.2c-.14.12-.23.26-.28.44h0Z"/>
  <path class="cls-1" d="M91.52,50.93c-.59,6.74-.5,13.43-.5,20.19s-1.13,13.12.43,19.56c.19.8,3.1.06,2.9-.78-1.52-6.29-.48-12.72-.43-19.09.05-6.8-.11-13.53.48-20.32.08-.94-2.81-.36-2.88.44h0Z"/>
  <path class="cls-1" d="M62.61,102.9c21.91-.55,43.74-2.73,65.65-3.44,6.24-.2,12.48-.27,18.72-.16.64.01,1.59-.19,1.9-.84.28-.6-.24-1.04-.84-1.05-22.13-.4-44.19,1.58-66.27,2.82-6.28.35-12.55.64-18.84.8-1.56.04-2.31,1.93-.32,1.88h0Z"/>
  <path class="cls-1" d="M147.44,99.07c22.85.04,45.7-.56,68.52-1.82,6.4-.35,12.81-.76,19.2-1.21.49-.03,1.57-.37,1.65-.97.09-.65-.84-.62-1.24-.59-22.59,1.6-45.22,2.56-67.87,2.87-6.37.09-12.75.13-19.12.11-.58,0-1.63.2-1.92.78s.24.82.78.82h0Z"/>
  <path class="cls-1" d="M137.81,91.68c12.03-1.14,24.06-2.27,36.12-2.91s24.09-.18,36.08-1.27c6.73-.61,13.47-1.41,20.24-1.04.67.04,1.6-.19,1.89-.88.26-.63-.24-1.17-.88-1.21-6.03-.33-12.04.18-18.04.75s-12.12.95-18.22,1c-12.08.11-24.12.62-36.16,1.59-6.93.56-13.85,1.21-20.77,1.87-.61.06-1.54.44-1.6,1.17s.75,1,1.34.94h0Z"/>
  <path class="cls-1" d="M233.94,82.95c-.56,6.6-.64,13.24-.23,19.86.05.82,2.96.25,2.9-.78-.4-6.49-.33-13,.22-19.49.09-1.05-2.81-.48-2.89.41h0Z"/>
  <path class="cls-1" d="M69.5,51.17c.45,4.83.47,9.7.63,14.55.03.79,2.93.25,2.9-.78-.17-4.84-.19-9.72-.63-14.55-.08-.82-2.99-.23-2.9.78h0Z"/>
  <path class="cls-1" d="M53.59,52.21v-1.08c-.03-.11-.1-.19-.2-.24-.1-.08-.22-.13-.36-.15-.17-.03-.34-.04-.51-.02-.19,0-.39.03-.57.09l-.38.13c-.22.09-.41.2-.59.35l-.19.2c-.1.12-.13.26-.1.41v1.08c.03.11.1.19.2.24.1.08.22.13.36.15.17.03.34.04.51.02.19,0,.39-.03.57-.09l.38-.13c.22-.09.41-.2.59-.35l.19-.2c.1-.12.13-.26.1-.41h0Z"/>
</svg>