<?xml version="1.0" encoding="UTF-8"?>
<svg id="Layer_2" data-name="Layer 2" xmlns="http://www.w3.org/2000/svg" viewBox="0 0 235.87 133.19">
  <defs>
    <style>
      .cls-1 {
        stroke-width: 0px;
      }
    </style>
  </defs>
  <g id="Intro">
    <path class="cls-1" d="m139.98,122.21c-1.61-.09-2.92-1.58-2.78-3.19.27-2.12,1.1-4.15,1.31-6.3.48-4.63.57-9.3.4-13.94-.42-5.68-.27-11.37-.23-17.05,0-3.83-.28-7.66-.32-11.48.05-3.23.61-6.44.58-9.67.08-3.81-.44-7.61-.2-11.42.48-4.99.14-10.11,1.13-15.04,1.23-4.35,7.22-3.81,10.82-3.87,3.08,0,6.16-.12,9.24-.17,6.74-.52,13.49-.47,20.24-.7,8.77-.61,17.56-.06,26.34-.15,2.87.04,5.74.28,8.6.53,1.1.15,2.25.03,3.28.51,1.64.78,2.12,3.1.87,4.44-1.29,1.48-3.43.86-5.15.87-8.55-.28-17.19-.43-25.73-.68-8.56.51-17.13.5-25.68,1.03-5.38.4-10.92.11-16.27.43.03,0,.06,0,.08-.01h.02c-.35.04-.69.09-1.03.16-.34,5.23-.65,10.47-.8,15.71.16,3.9.44,7.8.16,11.69-.8,6.01-.15,12.03-.15,18.07,0,5.03-.18,10.07.16,15.1.27,6.65.38,13.45-1.03,19.99-.63,2.22-.76,5.31-3.84,5.16Z"/>
    <path class="cls-1" d="m222.06,35.97c-3.98.07-7.93-.48-11.9-.46,0,0,.02,0,.03,0,.05,0,.11,0,.16,0-1.36,0-2.58-.02-3.92-.02-1.07.1-2.27.25-3.11-.61-5.63-.17-11.26-.63-16.89-.75-4.7,0-9.39.19-14.09.09-6.39-.05-12.77.65-19.16.49-3.56.04-7.13.17-10.69.37-.46-.01-.92.28-1.31-.09-1.25-1.92,2.26-1.38,3.26-1.61,2.71-.24,5.42-.52,8.13-.74,6.4-.32,12.72-1.47,19.12-1.83,6.49-.27,12.93-.99,19.43-.9,3.61,0,7.23.1,10.83.22.88-.02,1.76-.04,2.63-.05.59-.26,1.25-.39,1.9-.41,5.93-.28,11.82.84,17.74.51,2.99-.22,4.14,4.06,1.37,5.33-1.1.48-2.37.4-3.55.44Z"/>
    <path class="cls-1" d="m225.22,107.51c-1.71-1.54-.74-4.02-.86-6.01-.25-6.57-.25-13.14.56-19.67.4-4.62.3-9.25.23-13.88.07-4.14.5-8.27.57-12.41.21-4.2,0-8.39-.43-12.57-.38-3.21.36-8.15-3.78-9.05-1.45-.17-2.87.17-4.25.56-1.26.26-2.55.27-3.83.3-3.02.15-6.03.41-9.06.16-3.33.25-6.68.37-10.02.17,0,0,0,0,0,0-1.3-.22-2.02-1.82-1.34-2.95.59-1.09,1.85-1.56,2.98-1.85,1.42-.37,2.88-.51,4.34-.66,1.44-.21,2.87-.54,4.33-.52,2.08.04,4.17.06,6.24-.21,1.49-.13,2.99-.1,4.48-.22,3.01-.72,6.3-1.42,9.25-.08,4.67,1.93,6.6,6.99,6.46,11.76,1.13,9.15.55,18.33.05,27.49-.02,3.22.23,6.44.02,9.65-.1,4.71-.87,9.38-.96,14.09-.07,4.62.34,9.25-.02,13.86-.09,2.39-3.23,3.71-4.98,2.03Z"/>
    <path class="cls-1" d="m224.16,37.3s-.07-.06-.1-.09c-10.72-1.21-21.52-.54-32.29-.59-8.49.34-16.65-.4-25.1-.16-5.33.11-10.66-.44-15.98-.18-2.08.02-4.31.55-6.27-.23-.87-.57-.03-1.97.88-1.48,2.68-.21,5.38-.9,8.03-1.28,5.41-.68,10.86-1.01,16.29-1.53,7.05-.61,14.14-.35,21.2-.82,11.14-.26,22.33-.97,33.43.24,2.2-.08,4.65,1.36,4.89,3.69.24,2.58-3.12,4.22-4.99,2.42Z"/>
    <path class="cls-1" d="m175.07,121.08c-4.45-.23-8.9-.44-13.35-.41-3.04.13-6.09.23-9.13-.09-4.37-.09-6.7.12-10.9-1.73-.62-.2-1.43-.83-.94-1.54,1.33-1.1,3.36-.73,4.98-.93,2.31-.19,4.53-1,6.87-1.03,2.74-.04,5.46-.26,8.19-.49,4.98-.21,9.97.01,14.95.26,3.68-.05,7.35-.03,11.03,0,2.61-.26,5.22-.21,7.83.02,1.53.09,3.06-.21,4.59-.16,2.01.03,4,.46,6.01.41,2.94-.29,5.89-.03,8.83-.13,2.76-.45,5.56-.54,8.32-.98.41-.76.95-1.41,1.5-2.06.3-1.79.11-3.99,1.6-5.31,1.63-1.42,4.4-.36,4.67,1.79.19.79.04,1.58-.14,2.35-.14,1.03-.15,2.08-.51,3.06-.34,1.12-1.16,2-1.93,2.85-.92,1.46-2.2,2.75-4.02,2.89-3.05.46-6.14.5-9.19.94-2.16.17-4.32-.2-6.48-.08-2.69.26-5.38.13-8.06-.1-2.05-.04-4.36.39-6.32.18.12,0,.25.01.37.02-2.49-.24-4.97-.06-7.45.23-3.77.06-7.55.14-11.32.07Z"/>
    <path class="cls-1" d="m137.62,37.41c-3.37.06-6.04-2.63-5.54-6.06.5-3.73,3.29-6.67,4.34-10.25,1.03-2.69,2.47-5.21,3.4-7.95,1.51-4.79,4.45-8.36,9.3-10,5.67-2.02,11.77-2.36,17.74-2.47,6.37-.25,12.74-.58,19.12-.68,5.88.06,11.77.04,17.65.41,4.21.45,8.43.73,12.65,1.09,5.55.79,7.21,6.16,10.15,10.06,1.75,2.2,2.92,4.75,4.13,7.27,1.57,2.47,2.63,5.21,3.57,7.97.84,2,2.85,4.21.96,6.26-2.16,2.35-7.09.66-10.01.7-6.01-.44-11.99-.25-17.98.12-4.31.32-8.63.16-12.94.4-4.3.21-8.58.57-12.88.67-5.21.2-10.42-.44-15.62-.08-5.01.58-10.03.97-15.05,1.46-4.3.6-8.64,1.03-12.98,1.08Zm1.98-7.14c6.65.13,13.28-.75,19.91-1.16,5.72-.32,11.42-.47,17.14-.14,6.1.15,12.18-.4,18.27-.64,11.48-.05,22.98-.58,34.43.44-1.18-4.1-3.71-7.56-5.44-11.42-.82-1.44-1.81-2.78-2.76-4.13-1.25-1.68-1.99-3.7-3.41-5.25-1.71-1.98-5.48-1.08-7.93-1.43-3.42-.21-6.83-.57-10.26-.6-9.63-.2-19.27.18-28.89.65-4.65.19-9.32.12-13.93.87-3.53.62-7.69,1.34-9.85,4.52-1.37,2.66-2.14,5.58-3.51,8.25-1.55,3.34-2.73,6.84-4.63,10.02.29,0,.58.02.86.04Z"/>
    <path class="cls-1" d="m185.36,33.67c-.85-.01-1.69-.19-2.49-.49-1.5-.53-1.15-2.86.46-2.89,3.72.04,7.41-.53,11.09-.97,2.4-.14,4.81-.06,7.21-.09,3.81-.31,7.56-.57,11.32-1.18,4.51-.29,9.02-.71,13.54-.71,1.38-.13,2.75-.02,4.12-.05.36-.05.75-.15,1.1,0,.98.33,1.15,1.77.26,2.32-.57.36-1.27.42-1.92.46-5.22.19-10.41.91-15.62,1.16-3.83.46-7.67,1.01-11.53,1.2-2.71.28-5.45.14-8.18.3-3.11.38-6.23.9-9.36.93Z"/>
    <path class="cls-1" d="m151.93,66.15c-1.98-.18-2.4-3.11-.53-3.82,5.82-1.21,11.84-1.07,17.75-1.34,0,0,0,0,0,0,1.46.12,1.91,2.24.6,2.93-2.24.89-4.78.78-7.15,1.03-2.37.16-4.76.28-7.11.66-1.19.13-2.36.56-3.56.54Z"/>
    <path class="cls-1" d="m164.47,64.86c-1.72-1.43-.97-7.13-1.65-9.27-.56-1.36-1.56-2.82-2.95-3.41-1.93-.67-4.03.71-4.53,2.61-.69,2.4-.15,4.95.64,7.26.12.35.23.58.41.87.44.75-.46,1.52-1.2,1.26-1.96-.85-3.11-5.17-3.21-7.18-.93-7.23,7.77-11.88,12.59-5.91-.08-.1-.06-.07-.18-.2.15.17.29.33.44.5-.01-.01-.03-.03-.04-.04,0,0,0,0-.02-.02,2.24,2.29,2.34,5.54,2.43,8.55.07,1.13.39,2.23.47,3.36.07,1.6-1.95,2.62-3.2,1.61Z"/>
    <path class="cls-1" d="m191.07,63.64c-1.36-.73-1.24-2.82.2-3.39.63-.26,1.31-.29,1.98-.39,1.61-.28,3.22-.55,4.85-.66,2.26-.2,4.53-.24,6.8-.3,1.22-.03,2.43-.06,3.64-.11.58,0,1.19-.1,1.74.13,0,0,0,0,0,0,1.05.4,1.25,1.84.35,2.52-.58.47-1.4.46-2.1.58-1.74.2-3.5.26-5.25.35-1.62.08-3.24.18-4.84.37-.91.1-1.81.22-2.71.38-1.16.25-2.3.58-3.47.73-.41.05-.82-.02-1.18-.22Z"/>
    <path class="cls-1" d="m195.33,62.86c-2.07-1.73-2.91-6.16-2.67-8.76.44-5.93,7.25-8.9,11.4-4.26,1.74,1.64,4.19,9.22,3.42,11.42-.54,1.51-2.8,1.67-3.55.26-.45-1.08-.26-2.33-.57-3.48-.6-2.01-.81-4.27-2.14-5.97-1.92-2.31-4.86-.97-5.6,1.63-.72,2.55-.19,5.32.63,7.78.98.57,0,2.05-.91,1.37Z"/>
    <path class="cls-1" d="m153.86,90.53c-2.01.19-2.91-2.69-1.13-3.66,1.92-.7,3.97-.73,5.98-.89,2.58-.19,5.15-.49,7.74-.58,1.34.03,2.85-.26,4.02.52,1.39.99.39,3.35-1.31,2.98-3.07.08-6.12.51-9.18.81-2.07.13-4.11.42-6.14.81Z"/>
    <path class="cls-1" d="m156.36,87.87c-1.76-1.57-2.39-4.06-2.88-6.29-.87-4.35,2.6-9.1,7.29-7.75,1.66.52,3.1,1.65,4.24,2.94,1.93,2.36,1.62,5.58,2.23,8.4-.02-.08-.03-.15-.05-.23,1.11,2.71-2.75,4.37-3.73,1.55-.58-2.24-.28-4.63-.92-6.85-1.97-4.12-6.33-3.92-6.65,1.02,0,1.87.44,3.81,1.33,5.46,1.7,1.07.32,2.78-.85,1.74Z"/>
    <path class="cls-1" d="m191.92,88.14c-2.15.05-2.65-2.99-.6-3.64,3.36-.83,6.81-1.16,10.26-1.37,2.76-.21,5.53-.45,8.3-.5.94.03,1.95-.01,2.81.41,1.14.56,1.17,2.4-.04,2.9-.99.29-2.06,0-3.08.17-3.83.27-7.64.7-11.47.99-2.09.19-4.12.73-6.18,1.03Z"/>
    <path class="cls-1" d="m205.61,86.37c-1.41-.75-.93-1.95-1.05-3.21-.45-2.45-.48-5.04-1.62-7.3-.67-1.09-1.68-2.13-3.03-2.17-.99.08-2.02.67-2.38,1.63-.83,1.89-.37,3.99-.29,5.97.05,1.41.82,2.85.43,4.25-.31.89-1.58,1.07-2.12.28-.59-.9-.87-1.98-1.23-2.98-1-3.87-1.8-9.13,1.92-11.81,1.47-1.06,3.35-1.57,5.13-1.11,2.97.62,5.07,3.29,5.94,6.07.58,1.59.67,3.31.97,4.96.18,1.55.79,3.36-.12,4.78-.56.82-1.69,1.07-2.55.62Z"/>
    <path class="cls-1" d="m175.88,116.28c-.94-.61-.88-1.83-1.09-2.82-.18-1.26-.27-2.52-.4-3.79-.24-1.66-.6-3.31-.55-5.01-.26-3-.08-6.08,1.24-8.83.78-1.51,1.65-3.12,3.04-4.15,1.55-.88,3.37-1.46,5.17-1.25,1.9.23,3.8.82,5.34,1.99,2.14,1.56,3.04,4.24,3.32,6.78.43,1.95.43,3.94.47,5.92.16,1.87.15,3.74.35,5.6.15,1.31.3,2.63.28,3.96-.14,1.9-2.72,2.58-3.72.93-.53-.92-.2-2.08-.4-3.1-.4-3.45-.51-6.93-.6-10.4-.16-1.35-.41-2.69-.64-4.03-.31-1.13-.91-2.23-1.98-2.79-1.13-.57-2.47-1-3.74-.84-.6.22-1.37.29-1.81.78-1.29,1.63-2.14,3.6-2.36,5.68-.14,1.86.06,3.74.12,5.61.18,1.08.4,2.16.46,3.26.09,1.65.33,3.29.33,4.94,0,1.37-1.69,2.41-2.83,1.57Z"/>
    <path class="cls-1" d="m170.67,27.77c-2.96-.1-5.74.45-6.75-3.1-1.24-4.19,1.34-8.27,3.68-11.57,3.33-3.98,9.83-5.36,14.79-4.52,6.3,1.04,12.07,5.01,13.16,11.62.32,2.14,2.66,6.17-.78,6.78-2.8.13-5.65-.26-8.44.08-5.22.19-10.44.4-15.66.71Zm-2.53-4.09c3.07.22,6.12-.22,9.18-.27,4.94-.11,9.87-.61,14.81-.41-.69-2.16-.79-4.6-2.46-6.32-4.22-4.77-11.8-5.54-17.26-2.51-1.54.83-2.4,2.39-3.25,3.85-.93,1.69-2.05,3.68-1.35,5.65.11,0,.22,0,.32,0Z"/>
    <path class="cls-1" d="m152.36,67.56c-2.05.07-3.02-2.41-1.45-3.74.23-.51.83-.6,1.31-.41,1.27.37,2.61-.02,3.92.02,1.42.11,2.82-.19,4.25-.16,1.63-.22,3.22-.35,4.83-.58.88-.15,1.77,0,2.65.03,2.22-1.32,4.32,1.84,2.32,3.43-1.05.74-2.46.6-3.68.49-.55-.04-1.09.08-1.64.15-1.88.15-3.72.53-5.6.51-1.26.2-2.53.15-3.81.14-1.03.12-2.07.1-3.1.12Z"/>
    <path class="cls-1" d="m190.6,64.49c-.88-1.64.33-4.1,2.35-3.07,3.63-.14,7.28-.6,10.87-.93,1.04-.06,2.04-.33,3.08-.36.81-.04,1.62-.21,2.43-.2,2.48.09,2.69,3.61.24,3.99-1.41.13-2.84.19-4.23.45-1.25.13-2.55.25-3.78.38-2.23.23-4.47.41-6.71.59-.49.03-.97.04-1.46.04-1.07.2-2.16.17-2.78-.88Z"/>
    <path class="cls-1" d="m191.61,89.72c-2.49-1.12-1.45-5.28,1.39-3.85,1.13-.27,2.3-.29,3.44-.49.99-.24,2-.31,3-.43,1.46-.29,2.95-.32,4.43-.41.39-.02.77-.01,1.16-.01.51-.06,1.48-.25,1.86-.26,1.1-.03,2.19-.19,3.3-.18.37.02.75.03,1.12,0,2.94.22,2.45,4.34-.47,4.02-.72-.03-1.43-.02-2.14.07-1.04.03-2.06.13-3.08.32-1.97.08-3.95.09-5.9.46-1.24.08-2.44.35-3.67.52-.48.05-.96.07-1.44.14-.98.13-2.05.54-3.01.1Z"/>
    <path class="cls-1" d="m153.04,92.21c-1.31-.74-1.25-2.58-.7-3.78.41-1.06,1.75-.94,2.26-.03.9-.29,1.97-.45,2.88-.48-.03,0-.07,0-.1,0-.02,0-.04,0-.06,0,3.34-.37,6.71-.63,10.07-.63.72-2.02,3.67-1.62,3.93.47.02.64.25,1.31.04,1.94-.29,1.12-1.43,1.76-2.55,1.64-3.85-.17-7.69.22-11.52.55-1.43,0-2.91,1.06-4.27.3Z"/>
    <path class="cls-1" d="m167.26,66.74c-.28-.02-.56-.09-.85-.08-.34,0-.73.02-1.01-.18,0,0,0,0,0,0-.33-.35.33-.81.57-1.03.25-.22.57-.34.89-.41.65-.1,1.27-.34,1.89-.53.19-.07.37-.21.45-.4,0-.35-.04-.7-.1-1.05-.37.05-.76-.13-.96-.45-.42-.7.07-1.43.81-1.6,1.07-.29,1.91.39,2.08,1.44.15.78.31,1.64.03,2.41-.12.29-.29.53-.5.77-.47.54-1.16.79-1.85.92-.47.11-.96.24-1.45.19Z"/>
    <path class="cls-1" d="m207.78,64.05c-.8-.13-1.08-1.25-.44-1.75.22-.2.52-.25.81-.24.56-.05,1.11-.23,1.68-.23.04-.17,0-.35-.02-.53-.01-.32-.04-.62-.21-.9-.31-.09-.59-.25-.92-.3-.32.08-.72-.16-.59-.53.1-.26.37-.35.58-.5.24-.19.52-.31.8-.41.41-.12.88-.1,1.27.07.42.18.56.65.75,1.03.22.36.28,1,.3,1.35.08.45.05.91-.06,1.35-.03.39-.22.75-.51,1.01-.42.36-1.02.33-1.55.36-.63.09-1.27.29-1.91.21Z"/>
    <path class="cls-1" d="m209.79,88.08c-1.07-.38-.74-1.98.4-1.91.25.04.5-.03.76-.05.29,0,.57-.09.86-.14,0-.31-.03-.62,0-.93.05-.21.02-.42-.06-.62-.23-.16-.44-.38-.73-.41-.43.03-.81-.28-.52-.69.07-.09.19-.14.3-.14.14-.05.28-.11.42-.16.75-.4,1.84-.24,2.25.56.3.54.41,1.14.32,1.75,0,.31.03.62.01.92.09.38.03.83-.26,1.12-.41.41-1,.5-1.54.61-.19.06-.4.1-.6.11-.54.04-1.08.19-1.61-.02Z"/>
    <path class="cls-1" d="m153.33,92.08c-1.9-.45-2.89-3.47-1.33-4.81.34-.27.73-.49,1.15-.6.83-.15,1,1.08.16,1.16-.55.42-.12,1.92.4,2.26,1.62-.08,1.55,2.32-.37,1.99Z"/>
    <path class="cls-1" d="m175.48,26.33c-.74-.31-.52-1.27-.67-1.91-.19-1.62-.3-3.24-.46-4.86-.29-1.91-.41-3.83-.3-5.76,0-.36-.06-.77.23-1.04.4-.43,1.2-.23,1.33.35.12,1.03-.03,2.07.04,3.1.11,1.6.41,3.18.5,4.78.09,1.02.2,2.04.3,3.06.05.5.13,1,.16,1.5.03.57-.62,1.01-1.14.78Z"/>
    <path class="cls-1" d="m184.44,26.15c-.96-.25-.76-1.33-.81-2.09-.25-1.8-.46-3.61-.55-5.43-.16-1.44-.31-2.89-.37-4.34,0-.52.02-1.04.08-1.55,0-.59.63-1.06,1.2-.9.49.12.83.66.7,1.15-.03.56,0,1.11.08,1.67.13.81.08,1.63.09,2.44.19,1.24.23,2.49.36,3.74.09,1.19.37,2.36.41,3.56-.01.34.12.69,0,1.03-.13.52-.69.87-1.22.72Z"/>
    <path class="cls-1" d="m158.36,62.88c-.13-1.65.04-3.31,0-4.96,0-1.18-.06-2.37-.08-3.55,0-1.06.03-2.12-.09-3.18-.3-1.27,1.11-1.5,1.3-.53.18,1.45.27,2.89.27,4.35.14,2.18.08,4.36.02,6.55-.02.42.05.85.04,1.26-.11.79-1.28.85-1.46.07Z"/>
    <path class="cls-1" d="m154.15,55.84c-.67-.1-.83-1.07-.21-1.36.53-.25,1.14-.18,1.72-.21,2.44,0,4.9-.15,7.33.04,0,0,0,0,0,0,.63.17.59,1.13-.05,1.25-1.22.12-2.48.04-3.7.11.02,0,.05,0,.07,0-1.27.06-2.53.08-3.8.14-.45,0-.9.1-1.35.02Z"/>
    <path class="cls-1" d="m153.48,59.39c-.77-.03-.95-1.13-.22-1.39.33-.11.67-.08,1.02-.06,1.38.08,2.74-.21,4.12-.24,1.44-.02,2.89.05,4.34.09.61.05,1.77-.12,1.68.81-.2.81-1.23.46-1.84.52-1.54-.01-3.08-.06-4.62.02-1.49.17-2.98.41-4.48.25Z"/>
    <path class="cls-1" d="m199.3,62.3c-.87-.23-.65-1.93-.69-2.64,0-.94-.11-1.88-.16-2.83-.18-1.81-.3-3.64-.24-5.46.02-.43.01-.87,0-1.3-.06-.49.14-1.06.74-.94.44.13.42.54.43.91.06.56.07,1.12.06,1.68-.02.95.13,1.89.14,2.84.05.72.19,1.44.26,2.16.14,1.28.27,2.56.27,3.84.01.32.07.64.11.96.07.5-.44.94-.92.79Z"/>
    <path class="cls-1" d="m194.59,54.88c-.98-.15-1.06-1.42-.16-1.78.55-.19,1.15-.16,1.72-.21,1.05-.07,2.09-.14,3.14-.16.85-.02,1.71,0,2.55-.07.36-.03.8-.11,1.13.08.49.27.45,1.05-.07,1.25,0,0,0,0,0,0-1.33.43-2.75.36-4.12.5-.98.09-1.95.2-2.93.3-.42.03-.84.15-1.26.1Z"/>
    <path class="cls-1" d="m193.55,58.22c-.61-.32-.6-1.25,0-1.59.22-.15.53-.17.79-.2.55-.07,1.09-.12,1.64-.2,1.69-.25,3.32-.36,5-.32.96.02,1.93.03,2.89-.09,0,0,0,0,0,0,.82-.03,1.07,1.16.31,1.46-.94.3-1.95.28-2.94.33-.88.03-1.75.08-2.62.14-1.13.11-2.24.3-3.36.44-.56.02-1.16.29-1.69.03Z"/>
    <path class="cls-1" d="m159.85,87.29c-.55-.21-.51-.61-.53-1.1-.09-.48-.17-.96-.25-1.45-.23-.89-.38-1.81-.5-2.72-.14-.7-.31-1.4-.44-2.1-.16-.74-.26-1.5-.34-2.25-.06-.48-.29-1,.01-1.44.55-.81,1.76-.41,1.8.56.22,2.15.32,4.31.66,6.44.12.83.45,1.61.55,2.44.01.46.14,1-.17,1.4-.19.23-.52.31-.8.22Z"/>
    <path class="cls-1" d="m154.2,80.83c-.07-.43.23-.9.66-1,.29-.06.58-.1.87-.16,1.89-.37,3.81-.49,5.73-.6.52-.02,1.04-.09,1.56-.03.96.15.97,1.52,0,1.67-1.2.11-2.41.18-3.6.3-1.08.1-2.16.23-3.22.44-.76.16-1.78.4-1.98-.64Z"/>
    <path class="cls-1" d="m155.41,84.73c-.32-.17-.43-.61-.25-.92.11-.19.28-.29.49-.33.49-.1.97-.19,1.46-.27,1.36-.22,2.76-.32,4.12-.43.43-.03.78-.05,1.2-.08.34-.02.67-.1,1.01-.06.69.09.69,1.1,0,1.2,0,0,0,0,0,0-1.57.26-3.17.29-4.74.48-.61.06-1.28.15-1.87.28-.46.05-.98.36-1.42.14Z"/>
    <path class="cls-1" d="m200.48,84.6c-.44-1.62-.58-3.28-.66-4.92-.07-1.35-.2-2.69-.23-4.03-.07-.48-.1-.97-.12-1.46,0-.36-.06-.75.07-1.09.31-.76,1.48-.55,1.48.28,0,0,0,0,0,0,0,1.14.13,2.27.2,3.4.05,1.48.29,2.94.41,4.41.05.48.1.96.21,1.43.12.53.31,1.07.24,1.62-.05.89-1.2,1.19-1.59.36Z"/>
    <path class="cls-1" d="m196.03,77.24c-.13-.84.66-.95,1.29-1.03.84-.15,1.7-.23,2.55-.27,1.14-.02,2.3-.11,3.44.01.42.07.67.55.48.93-.15.34-.54.41-.87.38-.75.06-1.51.07-2.27.12-.8.03-1.59.11-2.39.22-.48.07-.96.18-1.44.23-.37.03-.72-.22-.79-.59Z"/>
    <path class="cls-1" d="m195.84,81.3c-.64-.09-.77-1.01-.2-1.29,0,0,0,0,0,0,.42-.18.89-.2,1.33-.27,1.09-.18,2.19-.31,3.3-.38,1.08-.08,2.16-.08,3.24-.08.39.02.79-.12,1.17.03.74.4.32,1.4-.49,1.25-1.97.07-3.95.09-5.91.39-.81.1-1.62.36-2.44.36Z"/>
    <path class="cls-1" d="m186.04,106.4c-.19-.25-.16-.56-.15-.86,0-.77.08-1.55.06-2.32,0-.21.02-.42.13-.61.29-.48,1.08-.39,1.25.14,0,0,0,0,0,0,.13.58.11,1.19.15,1.78-.01.54.16,1.1.06,1.63-.18.66-1.13.81-1.51.23Z"/>
    <path class="cls-1" d="m147.94,44.4c-.24-.27.16-.51.33-.68.16-.14.32-.29.48-.43.76-.66,1.56-1.26,2.38-1.85.36-.26.72-.51,1.09-.75.41-.24.78.37.37.62-1.23.63-2.35,1.44-3.42,2.3-.21.17-.41.36-.62.54-.17.15-.36.47-.6.26Z"/>
    <path class="cls-1" d="m148.62,45.21c-.19-.01-.3-.27-.16-.41.34-.33.73-.63,1.09-.93.29-.22.63.2.35.43-.34.26-.69.49-1.02.77-.04.09-.15.16-.25.15Z"/>
    <path class="cls-1" d="m149.43,46.68c-.3.03-.47-.32-.3-.55.53-.57,1.22-.99,1.84-1.47,1.01-.71,2.02-1.43,3.02-2.16.25-.21.65,0,.61.33-.03.36-1.55,1.12-1.92,1.44-1,.68-2.03,1.32-2.96,2.1,0,.16-.13.32-.29.31Z"/>
    <path class="cls-1" d="m188.56,49.61c-.16-1.1.65-3.59,2.05-3.38.48.17.23.92-.25.79-.81.52-.95,1.62-.88,2.5.04.56-.85.65-.92.09Z"/>
    <path class="cls-1" d="m188.77,52.28c-.26-.19-.31-.6-.07-.84.48-.5,1.04-.99,1.24-1.68-.42-.96,1.22-1.12.99-.09-.06.67-.43,1.26-.83,1.78-.33.39-.71,1.25-1.33.83Z"/>
    <path class="cls-1" d="m217.49,43.83c-.36-.64-.52-1.38-.34-2.1.21-.9.31-2.08,1.13-2.64.18-.07.39.01.44.21.09.28-.21.35-.33.55-.43.86-.72,1.93-.53,2.88.09.23.2.47.33.68.28.45-.44.89-.7.43Z"/>
    <path class="cls-1" d="m211.67,68.22c-.23-.09-.19-.43.05-.47.1-.02.21-.06.3,0,1.24-.16,2.48-.36,3.73-.49,1.54-.16,2.99-.28,4.51-.48.84-.09.87,1.16.03,1.12-1.93-.11-3.87,0-5.79.14-.57.04-1.18.12-1.72.16-.36.01-.75.12-1.11.01Z"/>
    <path class="cls-1" d="m211.82,70.39c-.37.06-.73-.38-.36-.64.17-.19.47-.22.62,0,1.35-.12,2.69-.27,4.04-.44.41-.05.83-.11,1.24-.19.32-.13.72.03.78.39.06.53-.43.66-.85.61-.39,0-.77,0-1.16.03-1.43.05-2.86.23-4.29.24Z"/>
    <path class="cls-1" d="m213.45,70.56c-.32-.41.04-.92-.01-1.38.04-.56-.25-1.27.19-1.72.4-.32.93.29.47.6.07.66.19,1.32.51,1.9.22.67-.73,1.17-1.16.6Z"/>
    <path class="cls-1" d="m215.37,70.1c-.22-.25-.15-.57-.11-.87-.01-.34-.05-.69-.06-1.03-.14-.78.88-1.04,1-.24.02.52.29.99.45,1.47.22.75-.79,1.29-1.28.67Z"/>
    <path class="cls-1" d="m214.16,67.97c-.11-.1-.13-.23-.15-.36-.09-.32-.2-.63-.36-.92-.42-.77.84-1.22,1.02-.37.05.4.15.8.24,1.2.14.43-.44.79-.76.46Z"/>
    <path class="cls-1" d="m214.76,71.92c-.3-.2-.27-.58-.3-.91-.04-.29-.09-.58-.15-.86-.12-.83,1.12-1.03,1.26-.2.05.35.09.69.15,1.04.06.21.14.42.05.63-.14.4-.68.56-1.02.3Z"/>
    <path class="cls-1" d="m149.47,102.05c-.28-.02-.63-.29-.32-.55.06-.04.12-.08.18-.11.13-.07.3.01.34.15,1.87-.28,3.75-.6,5.63-.84,1.79-.24,3.58-.47,5.36-.78.85-.1.85,1.18,0,1.06-2.28.08-4.55.32-6.82.57-1.11.12-2.22.28-3.34.42-.34.04-.68.13-1.03.09Z"/>
    <path class="cls-1" d="m148.78,104.96c-.46.04-.44-.69.02-.61.87.02,1.73-.17,2.59-.24,2.08-.28,4.16-.62,6.22-1,.59.03,1.84-.74,2.11-.11.26.65-.62.81-1.07.86-3.3.32-6.57.96-9.88,1.1Z"/>
    <path class="cls-1" d="m152.07,104.54c-.11-.68-.15-1.36-.28-2.04,0-.42-.38-.92-.11-1.3.89-.62.8,1.12,1.05,1.6.13.49.28.97.42,1.46.24.73-.94,1.04-1.09.28Z"/>
    <path class="cls-1" d="m154.96,104.25c-.18-.81-.2-1.64-.35-2.45-.13-.16-.11-.4.03-.55.63-.51.8.52.87.96.13.62.31,1.23.45,1.85.13.64-.87.83-.99.19Z"/>
    <path class="cls-1" d="m153.22,101.62c-.4-.33-.43-.98-.7-1.43-.27-.57.66-.94.85-.34.05.42.67,1.88-.15,1.76Z"/>
    <path class="cls-1" d="m153.72,105.74c-.12-.45-.19-.91-.31-1.36-.41-.44.09-1.2.66-.98.68.37.48,1.41.72,2.06.14.66-.88.92-1.07.27Z"/>
    <path class="cls-1" d="m176.57,72.77c-.3-.28-.1-.83.31-.86.75-.61,5.35-6.14,6.03-4.94.16.21.14.56-.09.71-1.04.71-1.98,1.57-2.89,2.43-.6.6-1.2,1.21-1.77,1.84-.41.38-.97,1.31-1.59.81Z"/>
    <path class="cls-1" d="m178.31,73.4c-.63-.55.85-1.51,1.23-1.86.41-.2,1.07-1.05,1.49-.52.12.21.01.45-.19.55-.41.29-.82.59-1.21.92-.45.26-.75,1.3-1.32.91Z"/>
    <path class="cls-1" d="m178.44,75.06c-.12-.15-.08-.38.09-.48.06-.03.12-.05.18-.04,2.41-1.73,4.49-3.92,7.06-5.43.43-.26.84.42.4.68-.78.48-1.54.98-2.28,1.5-.92.67-1.82,1.37-2.69,2.09-.47.3-2.37,2.27-2.77,1.69Z"/>
    <path class="cls-1" d="m206.49,102.24c-.64-.75-.8-1.77-.5-2.7.26-.91.59-1.96,1.43-2.48,1.01-.42,1.08,1.04.26.61-.78.76-1.28,2.22-.93,3.28.17.43.87.86.45,1.34-.19.2-.54.18-.71-.04Z"/>
    <path class="cls-1" d="m207.47,105.8c-.43-.46.17-.85.45-1.18.67-.69,1.28-1.8.7-2.72-.88-.35.32-1.38.81.13.21.6.15,1.26-.04,1.85-.25.61-1.12,2.57-1.91,1.91Z"/>
    <path class="cls-1" d="m39.75,81.81c-1.23.27-2.07,1.63-1.74,2.85.09.45.11.91.16,1.36.18,1.62.39,3.24.44,4.86.42,7.53.69,15.06.45,22.6-.34,3.48.25,7.15-.98,10.47-1.58,1.12-3.51,1.36-5.36,1.73-3.83.56-7.67,1.07-11.51,1.57-4.79.59-9.59,1.28-14.29,2.37-1.1.28-2.11.83-3.22,1.06-1.04.26-2.12.36-3.14.69,0,0,0,0,0,0-.77.28-.75,1.5.08,1.7,1.02.14,2.08.02,3.11.11,8.9.14,17.77-1.25,26.58-2.33,14.74-1.71,12.91-5.24,13.55-18.13.13-7.02-.01-14.03-.46-21.03-.05-1.95-.21-3.9-.45-5.83-.09-2-.63-4.54-3.22-4.05Z"/>
    <path class="cls-1" d="m43.76,128.04c-1.44-.21-2.34-1.91-1.69-3.21.72-2.19,8.8-2.5,11.12-3.02,8.29-1.61,16.81-1.85,25.24-2.03,3.91-.04,7.85-.1,11.69-.91-.73-2.98-1-6.03-1.45-9.06-.65-3.5-1.18-7.03-1.43-10.58-.34-3.53-.66-7.06-1.1-10.58-.35-1.96-.57-3.97-1.64-5.67-8.55.08-17.17.11-25.61,1.62-4.13.59-8.28,1.04-12.4,1.66-1.38.22-2.75.47-4.13.7-.99.12-2.06.5-3.02.06-1.12-.51-1.66-1.98-1.07-3.08-.56-1.01,1.16-1.6,1.88-1.31,6.86-1.8,13.93-2.59,20.98-3.28,7.81-.88,15.67-1.14,23.52-1.16,5.32.22,5.83,7.45,6.45,11.5.37,3.56.73,7.13,1.06,10.69.41,4.8,1.47,9.5,2.01,14.28.46,3.33,2.48,7-1.9,8.55-6.99,1.93-14.34.98-21.49,1.57-4.36.33-8.75.42-13.09,1.05-2.86.56-5.75.99-8.63,1.39-1.77.21-3.5.89-5.29.81Z"/>
    <path class="cls-1" d="m91.46,119.65c-.91-1.77-.89-3.84-1.23-5.77-.62-3.5-1.06-7.03-1.41-10.56-.39-4.14.03-8.3-.37-12.44-.32-2.65-.67-5.3-.62-7.98.11-4.73-1.07-9.34-1.26-14.05-.15-3.4.61-6.73,1.08-10.07.6-4.05-1.11-13.38.91-16.21,1.09-1.3,2.99-1.3,4.49-1.87,3.42-.96,6.88-2.01,10.45-2.05,2.36,0,4.72-.01,7.08-.09,5.21-.19,10.41-.62,15.63-.82.6,0,1.2-.02,1.8-.04,1.55-.06,3.11-.12,4.61.26,3.53-1.27,5.2,3.13,5.48,5.91.7,4.27,1.45,8.55,1.53,12.89.11,3.48.69,6.92.94,10.39.16,3.68.05,7.37.47,11.03.56,6.58,1.74,13.06,2.67,19.59,1.09,6.65,1.86,13.91-.92,20.25-1.61,3.59-5.21,4.83-8.93,4.55-2.57.02-5.13.05-7.7.09-8.78-.06-17.54.43-26.31.7-3.07-.13-6.8-.75-8.4-3.7Zm19.03-75.66c-5.89.12-11.78.6-17.45,2.23-.1,4.33.5,8.67.18,13-.24,2.53-.89,5.01-1,7.55-.23,3.94.78,7.81,1.08,11.72.2,2.7.08,5.4.31,8.09.72,4.56.69,9.17.67,13.77.21,4.39.85,8.75,1.57,13.07.62,4.25-.11,3.93,4.57,4.29,9.06-.38,18.11-.71,27.18-.72,2.6-.04,5.2-.06,7.8-.08,1.43.12,2.31-.94,2.69-2.21.43-1.38.69-2.78.84-4.19.02-.1.03-.2.05-.3,0,.03,0,.06-.01.09.03-.18.05-.37.08-.55,0-.03.01-.05.02-.08.04-.17.07-.36,0-.54,0-.02-.02-.04-.03-.07.18-3.82-.42-7.68-1.03-11.45-.44-3.91-1.32-7.75-1.79-11.66-.41-4.41-1.1-8.8-1.15-13.24-.07-2.24,0-4.48-.25-6.7-.98-7.72-.8-15.65-2.73-23.23-.07-.05-.14-.1-.2-.16-7.14.26-14.26,1.01-21.4,1.35Z"/>
    <path class="cls-1" d="m40.74,85.91c-.78-.29-.8-1.25-1.01-1.94-1.05.46-2.38-.37-2.4-1.52,0-.94-.02-1.87.05-2.81.16-2.67.34-5.33.63-7.99.42-3.53.84-7.06,1.53-10.55.11-.81.3-1.68.97-2.22,1.3-1.18,3.58-.38,3.86,1.36.15,1.03-.2,2.05-.29,3.07-.16,1.24-.35,2.48-.51,3.72-.78,5.88-1.9,11.76-1.92,17.71.42.57-.24,1.45-.91,1.18Z"/>
    <path class="cls-1" d="m41.22,61.99c-2.1-.38-2.31-3.48-.25-4.12,1.09-.29,2.26-.2,3.38-.36.99-.1,1.97-.25,2.96-.32,13.27-.99,26.57-.11,39.85-.44,3.31-.04,3.02,4.36-.29,4.18-7.74.37-15.5.39-23.23.99-5.29.07-10.58-.07-15.86.12-1.23.03-2.47-.09-3.69-.17-.96.04-1.92.27-2.87.12Z"/>
    <path class="cls-1" d="m99.52,68.55c-2.89-.31-2.62-2.75-3.02-4.97-.35-2.29-.6-4.59-.88-6.89-.17-2.68,3.07-2.9,5.03-3.17,1.56-.13,4.86-1.22,6.09-.31,2.23-.07,2.38,2.57,2.75,4.19.51,1.91.91,3.85,1.41,5.77.37,1.27.88,2.95-.45,3.85-1.13.64-2.51.51-3.75.83-2.38.31-4.77.93-7.19.69Zm1.05-3.64c2.24-.13,4.45-.58,6.66-.95-.69-2.62-1.21-5.31-1.92-7.92-2.35.35-4.68.98-7.07.93.6,2.66,1.32,5.29,2.02,7.93.11,0,.21,0,.32,0Z"/>
    <path class="cls-1" d="m120.88,86.88c-1.06-.31-1.61-1.31-1.8-2.34-.35-1.2-.54-2.45-.78-3.67-.19-.97-.39-1.94-.65-2.9-.27-1.47-1.41-3.54.1-4.67,2.79-1.79,6.19-1.87,9.38-2.24,1.29-.13,3.36-.66,3.7,1.11,1.29.79,1.09,2.57,1.48,3.86.34,1.94.66,3.89.93,5.84.61,4.2-2.05,4.13-5.31,4.36-2.34.13-4.71,1.13-7.04.64Zm1.56-3.61c2.36-.31,4.68-.82,7.06-.93-.41-2.72-.76-5.47-1.44-8.13-2.92.33-5.83.82-8.77.96.46,1.1,1.05,2.15,1.5,3.26.7,1.57,1.06,3.25,1.65,4.85Z"/>
    <path class="cls-1" d="m105.71,110.55c-4.02-.1-2.83-3.06-3.6-5.69-.55-2.4-2.98-5.91-1.64-8.26.9-1.39,4.89-1.57,6.58-2.06,1.35-.27,2.71-.48,4.08-.66,1-.1,2.27-.53,3,.43,1.28.17,1.66,1.55,1.91,2.63.81,2.92,1.13,5.94,1.47,8.94.71,3.34-1.89,3.62-4.48,3.8-2.43.36-4.83.97-7.31.87Zm-1.19-9.18c.82,1.71,1.58,3.51,1.65,5.43,2.56.03,5.01-.8,7.55-.97-.33-2.92-.66-5.85-1.52-8.67-2.97.45-5.89,1.18-8.87,1.54.31.92.74,1.8,1.19,2.66Z"/>
    <path class="cls-1" d="m53.02,101.52c-2.65-.23-5.89-2.09-5.71-5.09.03-2.08.29-3.8,2.01-5.2,1.87-1.45,4.38-2.73,6.75-1.77,1.59.68,3.36,1.5,4.19,3.1,1.54,3.3.37,7.02-3.2,8.13-1.27.56-2.65.96-4.04.82Zm.47-2.94c1.1-.06,3.78-.93,4.11-2.06.34-.86.15-1.88-.27-2.68-.72-.67-1.67-1.14-2.61-1.45-1.02-.29-1.93.46-2.8.88-.78.47-1.43,1.23-1.38,2.19.06,1.51,1.28,1.59,1.18,2.82.56.21,1.16.32,1.76.31Z"/>
    <path class="cls-1" d="m75.31,100.43c-1.79-.36-3.46-1.72-3.91-3.52-.25-.92-.28-1.89-.17-2.83-.09-1.06.15-2.12.65-3.06,1.42-3.42,5.53-3.73,8.69-2.94,2.27.47,3.58,2.39,4.1,4.53.4,2.15-.73,4.34-2.34,5.73-1.92,1.61-4.57,2.21-7.03,2.09Zm.97-3.07c1.86-.1,3.92-.79,4.89-2.5.35-.67.59-1.47.18-2.17-.28-.85-.82-1.43-1.74-1.57-1.55-.23-3.85-.65-4.72,1.04-.34.58-.59,1.23-.45,1.92.35,1.17.18,3.25,1.83,3.28Z"/>
    <path class="cls-1" d="m72.91,119.95c-.6-2.45-1.24-4.88-1.6-7.38-.36-2-.36-4.15-1.32-5.99-1.16-1.93-2.2-3.34-4.68-2.6-1.9.78-2.58,3.04-3.11,4.85-.8,3.74-.13,7.58.66,11.27.84.28.13,1.35-.53,1.22-.69-.17-.92-.98-1.21-1.55-1.73-3.76-2.63-8.01-1.7-12.1.5-1.91,1.2-3.9,2.69-5.28,2.32-2.44,6.79-2.37,8.95.24,2.56,2.79,2.9,5.7,3.35,9.28.27,1.67.59,3.33,1.01,4.97.2.99.6,1.96.65,2.98-.08,1.96-2.98,2.05-3.18.09Z"/>
    <path class="cls-1" d="m61.37,121.35c-.44-.16-.52-.73-.87-1.01-1.23-1.67-1.52-4.49-1.53-6.52-.07-2.14.15-4.28.59-6.37.17-.93.29-1.89.71-2.75.31-.6.63-1.21.99-1.78.38-.54.9-.95,1.37-1.41.41-.34.89-.6,1.34-.89,1.72-.83,3.9-.55,5.4.61.5.34,1.06.58,1.54.95.87.68.73,2.17-.27,2.65-.68.36-1.4.12-1.95-.31-.56-.3-1.1-.64-1.62-1-.41-.16-.82-.2-1.26-.18-.22,0-.62.25-.73.33-.29.16-.52.39-.75.62-.18.18-.41.33-.53.56-.3.58-.69,1.13-.84,1.78-.5,2.38-.91,4.8-.83,7.24-.03,1.18.08,2.35.19,3.52.06.83.17,1.68-.03,2.5-.08.24-.16.49-.17.75.11.42-.33.83-.74.68Z"/>
    <path class="cls-1" d="m64.33,121.02c-.67-2.51-1.21-5.06-1.55-7.64,0-.85-.34-1.91.36-2.56.3-.28.73-.34,1.11-.45,1.21-.43,2.49-.59,3.77-.7,3.68-.82,2.85,4.17,3.21,6.41.08,1.4.24,2.79.45,4.18-.02,1.09-1.62,1.35-1.98.31-.64-2.75-.8-5.6-1.32-8.38-1.09.07-2.21.04-3.27.35.01,1.12.11,2.23.14,3.35,0,1.29-.06,2.58-.02,3.87,0,.41.03.83.01,1.24-.02.56-.88.59-.93.03Z"/>
    <path class="cls-1" d="m49.48,75.67c-.39-.66-.37-1.47-.46-2.21-.12-1.09.13-2.19.67-3.15.73-1.34,2.63-3.24,4.18-3.46,2.97-.64,6.27,1,7.5,3.79.39.96,1.07,2.04.76,3.09.24.41.06.99-.37,1.18,0,0,0,0,0,0-.51.21-1.08.15-1.61.22-1.3.1-2.61.25-3.91.39-1.7.19-3.39.41-5.09.56-.59.07-1.32.19-1.69-.4Zm1.6-1.46c2.64-.38,5.29-.67,7.95-.88-.33-1.17-.81-2.34-1.73-3.18-1.03-1.05-2.94-1.65-4.15-.58-1.61,1.17-2.37,2.62-2.07,4.63Z"/>
    <path class="cls-1" d="m69.23,74.33c-1.07-.56-.92-2.12-1.2-3.15-.49-3.26,2.55-6.64,5.89-6.28,2.53,0,4.5,1.99,5.69,4.06.55.99,1.56,2.16.99,3.34.15.85-.66,1.54-1.48,1.41-.86.04-1.73.13-2.59.19-1.75.14-3.5.33-5.26.47-.67.01-1.39.22-2.04-.04Zm1.54-2.49c2.16-.29,4.33-.48,6.5-.61-.75-1.26-1.71-3.31-3.27-3.63-1.56-.37-2.62.67-3.23,1.99-.3.72-.11,1.5,0,2.24Z"/>
    <path class="cls-1" d="m99.47,59.09c-.81-.06-.19-1.76.32-1.89.22-.06.47.1.51.33.07.3-.24.49-.33.76-.11.31-.05.81-.51.8Z"/>
    <path class="cls-1" d="m100.12,59.93c-.58-.36.09-.74.02-1.18-.09-.35.36-.63.63-.38.32.32.04,1-.1,1.37-.08.21-.35.29-.54.2Z"/>
    <path class="cls-1" d="m104.53,62.73c-.36-.19-.19-.54,0-.79.19-.27.42-.62.77-.68.53-.04.59.71.05.7-.26.27-.29.97-.81.77Z"/>
    <path class="cls-1" d="m104.68,63.6c-.1-.11-.08-.3.04-.38.19-.13.39-.26.54-.45.03-.05.08-.1.08-.17-.03-.09.03-.2.11-.23.1-.04.2.02.24.11.09.29-.16.56-.32.78-.17.18-.42.61-.7.34Z"/>
    <path class="cls-1" d="m121.06,77.28c-.23,0-.4-.22-.36-.45.09-.52.23-1.07.66-1.42.43-.33.83.35.35.59-.15.13-.2.34-.23.53-.02.32.02.74-.42.75Z"/>
    <path class="cls-1" d="m121.37,78.04c-.43-.32.08-.7.25-1.02.02-.05.04-.09.04-.14-.07-.17,0-.38.17-.47.21-.11.47.02.53.25.1.48-.22.9-.48,1.27-.12.16-.34.22-.51.11Z"/>
    <path class="cls-1" d="m127.29,81.18c-.27-.14-.12-.4,0-.58.2-.3.55-.86.96-.83.09.02.16.11.15.21-.02.09-.1.15-.19.15-.06.03-.1.07-.15.11-.13.14-.23.3-.3.48-.08.22-.15.6-.48.47Z"/>
    <path class="cls-1" d="m127.21,82.11c-.42-.57.51-.74.7-1.16-.14-.39.44-.6.59-.22.16.57-.36,1.04-.72,1.4-.16.15-.42.13-.57-.03Z"/>
    <path class="cls-1" d="m105.56,100.74c-.8-.1.11-1.79.62-1.8.36-.04.43.51.05.51-.16.22-.27.48-.31.75,0,.24-.05.55-.36.54Z"/>
    <path class="cls-1" d="m105.74,101.71c-.46-.44.24-.78.42-1.14-.39-.41.23-.87.58-.47.32.39,0,.89-.22,1.25-.14.31-.45.63-.79.36Z"/>
    <path class="cls-1" d="m111.29,104.57c-.48-.52.26-1.91.89-2.02.59-.05.6.84.02.81-.15.18-.27.41-.29.65,0,.08,0,.15.01.23.04.33-.38.55-.63.33Z"/>
    <path class="cls-1" d="m111.2,105.62c-.11-.15-.07-.39.09-.49.3-.2.66-.38.86-.69,0-.01.01-.02.02-.04,0,0,0-.01,0-.01-.28-.61.74-.75.64.13-.13.57-.66.96-1.16,1.22-.15.08-.35.03-.45-.11Z"/>
    <path class="cls-1" d="m102.21,99.13c-.14-.32-.23-.74.18-.9.24-.09.52.04.6.28.14.32.23.74-.18.9-.23.09-.52-.04-.6-.28Z"/>
    <path class="cls-1" d="m119.28,58.09c-.5-.46.41-.89.7-1.19.53-.44,1.11-.9,1.64-1.31.78-.62,1.55-1.25,2.33-1.88.24-.23.67-.03.64.3,0,.36-1.55,1.28-1.9,1.62-.57.44-1.15.87-1.72,1.31-.39.32-.8.62-1.16.96-.06.22-.35.32-.53.19Z"/>
    <path class="cls-1" d="m119.52,59.96c-.68-.38.29-.95.61-1.21.5-.38.99-.76,1.51-1.12.35-.24.72.3.37.54-.62.44-1.23.88-1.83,1.35-.24.14-.34.54-.67.44Z"/>
    <path class="cls-1" d="m121.63,60.73c-.56-.04-.61-.75-.14-.98.75-.6,1.5-1.21,2.25-1.81.72-.61,1.41-1.24,2.14-1.83.47-.42,1.12.29.65.72-.37.31-.74.63-1.11.94-.73.63-1.48,1.23-2.23,1.84-.46.3-1.05,1.06-1.56,1.13Z"/>
    <path class="cls-1" d="m97.52,81.66c-.59-.59.45-1.12.8-1.53.78-.73,1.57-1.44,2.39-2.11,1.03-1,1.33.17.71.24-.82.69-1.58,1.45-2.31,2.24-.35.39-.62.69-.92,1.08-.16.2-.46.24-.66.08Z"/>
    <path class="cls-1" d="m100.25,80.92c-.18-.18-.17-.47,0-.65.38-.38.77-.76,1.17-1.13.42-.28,1.23-1.51,1.73-1.01.15.16.16.44,0,.59-.38.34-.74.7-1.11,1.05-.39.38-.77.76-1.14,1.15-.17.18-.48.17-.65,0Z"/>
    <path class="cls-1" d="m98.18,85.27c-.58-.56.44-1.13.74-1.57.79-.8,1.55-1.64,2.34-2.44.45-.42,1.07.28.59.67-.53.49-.99,1.05-1.49,1.57-.26.27-.5.53-.74.8-.41.32-.82,1.38-1.44.96Z"/>
    <path class="cls-1" d="m122.51,98.89c-.34-.47,2.64-3.88,3.11-4.47.4-.41,1.04.24.62.64-.53.53-1.04,1.09-1.52,1.68-.4.5-.81,1-1.18,1.53-.17.22-.27.46-.38.71-.18.22-.55.18-.66-.09Z"/>
    <path class="cls-1" d="m123.18,100.65c-.48-.43.45-1.06.66-1.46.24-.3.46-.6.69-.91.1-.22.39-.3.58-.15.47.39-.46,1.08-.65,1.46-.33.3-.75,1.44-1.28,1.06Z"/>
    <path class="cls-1" d="m126.04,99.12c-.4-.34.06-.75.25-1.06.35-.5.73-.98,1.12-1.45.5-.59.95-1.22,1.43-1.83.27-.36.9-.2.94.26.03.52-.82,1.05-1.12,1.48-.38.43-.77.84-1.13,1.29-.25.32-.5.63-.72.97-.14.29-.45.58-.77.33Z"/>
    <path class="cls-1" d="m125.68,111.5c-.04-.16.05-.32.19-.39,0,0,0,0,0,0,2.33-.83,4.65-1.75,7.03-2.42.3-.05.66.14.61.49-.04.29-.33.43-.6.35-.55.09-1.07.29-1.61.43-.95.28-1.95.6-2.87.91-.7.26-1.4.52-2.11.77-.22.12-.57.15-.65-.15Z"/>
    <path class="cls-1" d="m125.94,113.67s0,0,0,0c-.2-.02-.28-.29-.13-.42.05-.06.13-.08.2-.07.23-.09.45-.18.68-.28,1.11-.49,2.23-.95,3.36-1.39.46-.18.91-.37,1.37-.55.5-.17.74.55.24.71-1.21.33-2.42.69-3.58,1.17-.52.2-1.03.42-1.55.63-.19.06-.38.19-.58.19Z"/>
    <path class="cls-1" d="m127.61,112.14c-.1-.29-.16-.59-.3-.86-.36-.18-.06-.73.29-.53.32.25.48.67.76.97.37.52-.5,1-.74.42Z"/>
    <path class="cls-1" d="m129.53,112.17c-.41-.2-.34-.76-.49-1.13-.29-.21-.16-.71.2-.75.36-.05.48.34.61.6.11.22.23.42.32.65.17.38-.26.8-.63.63Z"/>
    <path class="cls-1" d="m127.87,110.74c-.22-.42-1.23-1.25-.71-1.67.53-.38,1.04.77,1.41,1.07.44.47-.3,1.1-.7.6Z"/>
    <path class="cls-1" d="m128.83,113.47c-.11-.54-.78-1.89.2-1.91.31.04.43.34.4.62.07.3.21.57.35.84.35.65-.67,1.14-.95.46Z"/>
    <path class="cls-1" d="m54.65,99.35c-.55-1.49-.83-3.06-1.09-4.62-.17-.87-.45-1.71-.54-2.59,0,0,0,0,0,0-.07-.61.8-.78.97-.19.1.35.14.71.24,1.06.16.56.32,1.12.44,1.7.19.99.43,1.98.67,2.96.07.29.18.57.27.85.08.25.21.5.17.76-.08.62-.97.68-1.14.07Z"/>
    <path class="cls-1" d="m49.51,96.63c-.13-.3,0-.65.28-.81.39-.19.84-.25,1.26-.37,1.22-.33,2.44-.65,3.68-.94.76-.2,1.52-.35,2.28-.52.47-.08,1.11-.38,1.47.08.26.33.07.85-.33.95-.17.04-.35.05-.52.08-.74.18-1.48.35-2.22.54-1.27.3-2.53.64-3.79,1-.4.11-.8.21-1.19.33-.34.15-.78.04-.93-.34Z"/>
    <path class="cls-1" d="m53.02,99.51c-.74-.13-1.69-.35-1.95-1.15-.05-.17-.07-.36-.15-.52-.05-.05-.07-.12-.06-.19.06-.26.34-.16.5-.07.23.1.43.22.68.25.36.06.72.1,1.08.15.86.02,1.71-.25,2.53-.48.58-.18,1.1-.48,1.6-.81.16-.11.29-.28.5-.32.76-.2,1.27.71.8,1.3-.13.17-.32.29-.5.4-.72.49-1.52.87-2.37,1.06-.86.23-1.75.46-2.65.37Z"/>
    <path class="cls-1" d="m77.71,98.13c-.36-1.9-.52-3.87-.69-5.79-.03-.72-.09-1.44-.14-2.17,0-.58.87-.64.94-.06,0,0,0,0,0,0,.15.85.19,1.71.26,2.56.08.81.2,1.62.28,2.43.07.71.19,1.41.31,2.1.04.35.21.73.04,1.06-.23.42-.9.33-1.01-.14Z"/>
    <path class="cls-1" d="m73.7,94.59c-.23-.57.4-.95.89-1,.63-.13,1.26-.21,1.89-.29,1.27-.16,2.54-.29,3.81-.47.41-.04.83-.14,1.25-.13.67.09.74,1.05.08,1.23-.42.08-.85.11-1.27.18-1.27.18-2.56.31-3.83.48-.47.06-.94.13-1.41.21-.48.1-1.16.39-1.42-.22Z"/>
    <path class="cls-1" d="m55.12,74.23c-.19-.08-.31-.26-.33-.46-.05-.26-.12-.51-.17-.77-.14-.56-.27-1.13-.35-1.71-.1-.75-.15-1.51-.4-2.22,0,0,0,0,0,0-.03-.13-.03-.26.02-.38-.03-.16.06-.34.2-.43.17-.09.37-.05.5.08.43.1.49.61.57.97.17.78.22,1.57.32,2.36.07.44.09.9.21,1.33.07.22.14.45.16.67.06.39-.36.72-.73.55Z"/>
    <path class="cls-1" d="m73.76,72.59c-.5-.25-.45-1-.54-1.48-.17-1.21-.24-2.43-.26-3.64,0-.3.26-.59.57-.5.2.05.33.25.32.46.11.81.16,1.62.26,2.43.09.6.22,1.2.36,1.79.03.15.05.29.06.44.01.38-.42.67-.77.51Z"/>
    <path class="cls-1" d="m64.27,108.86c-.45-.1-.63-.59-.61-1.01.02-.35.15-.68.27-1,.09-.23.24-.44.38-.65.16-.25.32-.52.56-.7.68-.58,1.7-.66,2.49-.25.42.24.84.5,1.08.94.18.3.43.58.45.94.45.27.3.99-.23,1.05,0,0,0,0,0,0-1.34.17-2.65.52-3.99.69-.13.02-.28.04-.41,0Zm.83-1.31c.7-.13,1.39-.25,2.09-.38-.08-.1-.12-.23-.23-.32-.17-.1-.32-.25-.5-.31-.45-.17-.75.07-.98.44-.14.18-.3.36-.38.58Z"/>
    <path class="cls-1" d="m66.11,108.02s0,0,0,0c-.23-.28-.28-.69-.41-1.02-.05-.17-.17-.32-.14-.5.04-.19.22-.42.43-.37.15.06.32.21.33.37.03.44.19.86.27,1.29,0,.24-.29.39-.47.23Z"/>
    <path class="cls-1" d="m44.63,66.55c-.14-.25-.05-.58.2-.72.39-.21.79-.42,1.2-.61.6-.29,1.2-.56,1.82-.81.72-.28,1.46-.55,2.19-.8.12-.04.24-.05.36,0,.38.14.38.73,0,.87-.6.23-1.19.45-1.78.69-.78.31-1.54.67-2.29,1.05-.32.17-.65.35-.97.53-.25.14-.58.05-.72-.2Z"/>
    <path class="cls-1" d="m45.09,69.06c-.2-.02-.36-.23-.33-.43.02-.12.09-.22.19-.28.29-.18.59-.37.88-.54.97-.58,1.96-1.1,2.97-1.59.45-.19.77.48.35.72-.86.45-1.76.83-2.6,1.32-.29.16-.56.34-.84.51-.2.11-.38.32-.62.3Z"/>
    <path class="cls-1" d="m81.84,74.52c-.11-.63-.01-1.27.29-1.84.15-.31.3-.64.59-.84.62-.4.96.49.3.52-.33.4-.54.93-.6,1.44,0,.23,0,.46,0,.68,0,.36-.54.39-.58.04Z"/>
    <path class="cls-1" d="m81.83,76.31c-.36-.54.86-.86.95-1.42.04-.13.06-.27.07-.41.07-.52.85-.42.79.1-.06.55-.31,1.09-.77,1.42-.3.17-.71.69-1.04.31Z"/>
    <path class="cls-1" d="m46.71,115.96c-.14-.18-.11-.47.09-.61.42-.28.84-.55,1.27-.82,1.2-.74,2.4-1.49,3.66-2.14.5-.21.85.53.38.79-.67.38-1.37.72-2.03,1.12-.72.41-1.42.85-2.12,1.3-.37.2-.85.82-1.24.36Z"/>
    <path class="cls-1" d="m46.75,118.16c-.04-.1,0-.2.07-.26.24-.16.48-.34.72-.51.62-.44,1.26-.86,1.89-1.29.43-.28.85-.6,1.26-.91.39-.28.79.33.37.58-.95.59-1.93,1.13-2.88,1.74-.37.24-.73.49-1.1.74-.11.09-.29.05-.34-.09Z"/>
    <path class="cls-1" d="m48.15,116.87c-.16-.54-.3-1.08-.53-1.59-.08-.19.02-.42.21-.5.19-.08.42.02.5.21.21.48.3,1.01.62,1.43.39.56-.52,1.07-.79.45Z"/>
    <path class="cls-1" d="m49.67,116.04c-.12-.34-.24-.67-.4-.99-.8-.48-.01-1.66.74-1.1.18.14.28.39.25.62.11.39.27.76.39,1.15.15.61-.74.91-.98.32Z"/>
    <path class="cls-1" d="m48.12,114.45c-.31-.33-.52-.75-.6-1.2-.07-.45.62-.58.73-.14.05.26.13.52.31.72.09.09.19.17.2.31.05.35-.4.56-.64.31Z"/>
    <path class="cls-1" d="m49.62,117.67c-.08-.21-.15-.42-.24-.63-.08-.22-.27-.39-.3-.62-.01-.36.54-.48.67-.14.2.33.43.63.67.93.4.57-.53,1.09-.81.46Z"/>
    <path class="cls-1" d="m81.65,110.42c-.4-.18,1.15-2.04,1.33-2.39.28-.41.51-.76.79-1.16.23-.31.73.07.48.38-.69.86-1.39,1.73-1.99,2.65-.18.18-.26.72-.6.52Z"/>
    <path class="cls-1" d="m82.26,111.89c-.17-.1-.23-.33-.13-.5.31-.5.65-.99,1.01-1.45.4-.56,1.08.27.45.55-.31.4-.57.84-.84,1.27-.1.17-.33.23-.5.13Z"/>
    <path class="cls-1" d="m133.67,108.64c-.54-.48.32-1.04.47-1.54.18-.4.36-.81.52-1.22.24-.57,1.1-.21.87.36-.26.53-1.07,3.04-1.86,2.4Z"/>
    <path class="cls-1" d="m59.63,88.04c.07-.69.18-1.53.75-1.99.46-.24.68.61.16.62-.24.43-.27.93-.33,1.41-.03.36-.6.32-.59-.04Z"/>
    <path class="cls-1" d="m60.72,89.64c-.18-.05-.32-.25-.25-.44.13-.41.27-.83.21-1.27-.06-.45.64-.54.69-.09.04.52-.07,1.04-.21,1.54-.05.19-.25.31-.44.26Z"/>
    <path class="cls-1" d="m74.53,103.43c-.16-.64-.38-1.38-.09-2.01.21-.28.62.08.36.32-.1.53.05,1.06.2,1.57.08.31-.39.44-.48.12Z"/>
    <path class="cls-1" d="m75.4,104.61c-.18-.05-.28-.23-.23-.4.08-.37.22-.74.21-1.13-.27-.54.48-.91.69-.34.13.56-.11,1.11-.26,1.64-.05.17-.23.28-.4.23Z"/>
  </g>
</svg>