<?xml version="1.0" encoding="UTF-8"?>
<svg id="Layer_2" data-name="Layer 2" xmlns="http://www.w3.org/2000/svg" viewBox="0 0 358.25 184.61">
  <defs>
    <style>
      .cls-1 {
        stroke-width: 0px;
      }
    </style>
  </defs>
  <g id="Intro">
    <path class="cls-1" d="m72.29,162.46s0,0,0,0c0,0,0,0,0,.01,0,0,0,0,0,0Z"/>
    <path class="cls-1" d="m72.36,161.94s.02-.01.03-.02c-.01,0-.02.02-.03.03,0,0,0,0,0,0Z"/>
    <path class="cls-1" d="m74.05,160.75s0,0,.01,0h0s0,0,0,.01c0,0,0,0,0,0Z"/>
    <path class="cls-1" d="m74.2,160.71s0,0,0,0c0,0,0,0,0,0,0,0,0,0,0,0,0,0,0,0,0,0Z"/>
    <path class="cls-1" d="m72.29,162.46s0,0,0,0c0,0,0,0,0,.01,0,0,0,0,0-.01Z"/>
    <path class="cls-1" d="m72.36,161.94s.02-.01.03-.02c-.01,0-.02.02-.03.03,0,0,0,0,0,0Z"/>
    <path class="cls-1" d="m74.05,160.75s0,0,.01,0c0,0,0,0,0,0,0,0,0,0,0,0,0,0,0,0,0,0Z"/>
    <path class="cls-1" d="m74.2,160.72s0,0,0,0c0,0,0,0,0,0,0,0,0,0,0,0h0Z"/>
    <path class="cls-1" d="m69.12,181.99c.96-.29,2.03-.44,3.21-.41.02,0,.03,0,.05,0,1.54-.41,2.86-1.48,3.18-3.13.51-2,.19-4.07.03-6.09-.05-2.23-.14-4.47-.18-6.7,0-2.54.25-5.06.43-7.59.11-4.47.41-8.94.45-13.42.32-3.64.3-7.28.49-10.93.09-3.15,1.56-7.85-2.17-9.44-2.54-.96-5.22-.78-7.93-1.07-4.07-.59-8.13.25-12.21.3-2.55.15-5.1.22-7.65.29-3.28.32-6.58.39-9.87.62-3.46.28-6.9.69-10.34,1.14-1.86.15-4.04.13-5.94.39-3.26.46-6.56-.8-9.11,2-3.33,3.92-3.17,9.49-3.63,14.35-.24,3.92-.57,7.84-.9,11.75-.6,6.7-.85,13.42-1.19,20.14-.05,1.56-.14,3.12-.22,4.68-.25,2.34.18,4.39,2.93,4.54,1.8.09,3.57-.33,5.36-.49,1.05-.05,2.1.02,3.15-.03,1.11-.05,2.2-.27,3.3-.36,1.32-.08,2.64.08,3.96,0,3.76-.41,7.48-.42,11.25-.81,2.97-.41,5.97-.07,8.95-.39,1.23-.03,2.45.21,3.68.32.73.4,1.56.56,2.38.62,2.63.03,5.26-.18,7.89-.13,1.68-.07,3.35-.38,5.03-.29,1.86.22,3.74.26,5.61.13Zm-10.43-4.59c-1.15.08-2.31-.02-3.46,0-2.02.09-4.05.17-6.08.09-2.27-.24-4.54-.55-6.82-.25-2.34.16-4.69-.14-7.01.25-2.93.4-5.9.28-8.84.62-1.85.26-3.71.22-5.57.17-1.89.04-3.73.52-5.63.41-1.83-.08-3.63.31-5.45.49.5-10.03.87-20.06,1.87-30.05.29-3.63.43-7.27.8-10.89.22-2.16.51-4.34,1.44-6.32,1.06-2.64,3.68-1.28,5.88-1.64,2.44-.3,4.8-.35,7.26-.52,5.24-.69,10.6-1.29,15.91-1.42,3.23-.35,6.48-.35,9.73-.51,1.54-.09,3.08-.13,4.61-.21,2.26-.12,4.5-.51,6.76-.38,2.9.34,5.86.2,8.74.9.15,1.16-.05,2.33-.14,3.48-.22,2.59-.35,5.19-.32,7.78-.4,5.2-.36,10.42-.7,15.62,0,3.13-.41,6.22-.48,9.35-.05,2.93.08,5.86.21,8.78.08,1.07.25,2.15.19,3.23-1.87-.02-3.69.43-5.53.65-1.05.05-2.1-.18-3.15-.15-1.43.04-2.82.38-4.23.52Z"/>
    <path class="cls-1" d="m4.09,132.15c-2.81-.16-4.47-3.11-4.01-5.72.28-1.96,1.27-3.74,2.34-5.37,1.92-2.78,3.75-5.61,5.54-8.48,2.63-4.09,5.3-8.15,8.09-12.13,1.16-2.03,2.21-3.5,4.62-4.06.2-.05.41-.1.62-.14.03,0,.07,0,.1-.01.12-.02.24-.04.36-.07.11-.02.21-.04.32-.06.04,0,.08-.01.12-.02,3.24-.52,6.58-.27,9.85-.55,4.52,0,9.04-.39,13.56-.17,6.67.38,13.34.64,20.01.9,3.93.29,7.76,2.39,9.82,5.79,1.99,2.93,4.11,5.79,5.53,9.05.84,1.8,2.02,3.41,2.89,5.2.89,1.88,1.34,3.92,2.17,5.82,1,2.52,3.53,5.61-.23,7.16-4.2,1.26-8.59.38-12.82-.18-.54-.02-1.08-.02-1.62-.02-1.26,0-2.53,0-3.78-.19-3.81-.68-7.62-1.26-11.49-1.42-3.02-.34-6.09.3-9.08.47-1.7.11-3.41,0-5.11.15-2.19.22-4.35.62-6.52,1.01-3.54.53-7.11.78-10.66,1.26-2.63.23-5.28-.03-7.92.19-4.1,1.06-8.35,1.72-12.59,1.61-.04,0-.08,0-.12,0Zm30.12-32.44c-2.56.01-5.1.23-7.66.28-1.7.02-3.43.07-5.07.57-1.17.35-1.44,1.77-2.18,2.63-3.16,4.49-6.16,9.08-9.09,13.73-1.38,2.23-2.86,4.4-4.34,6.56-.65,1.04-1.31,2.12-1.59,3.32.53-.23,1.09-.13,1.65-.09,1.04.06,2.07.09,3.11.14,2.32.18,4.61-.12,6.89-.47,3.46-.39,6.97.12,10.41-.47,2.6-.42,5.24-.5,7.84-.9,2.32-.4,4.63-.85,6.98-1.1,1.85-.21,3.76-.08,5.61-.19,1.62-.07,3.21-.34,4.82-.49,2.37-.22,4.74.02,7.1.19,1.74.13,3.48.25,5.19.56,2.89.57,5.8,1.01,8.75.87,3.44.2,6.84,1.24,10.31.71-1.26-2.41-1.87-5.07-2.95-7.55-.55-1.08-1.24-2.09-1.83-3.15-.98-1.72-1.69-3.6-2.75-5.27-.89-1.41-1.83-2.79-2.78-4.17-.84-1.17-1.57-2.51-2.8-3.33-2.36-1.61-4.6-1.73-7.32-1.71-2.43-.02-4.37-.18-6.61-.34-4.05-.15-8.1-.32-12.15-.54-3.18-.04-6.37.23-9.55.2Z"/>
    <path class="cls-1" d="m22.5,98.54c-.66-.5-1-1.31-1.17-2.29.02,0,.04,0,.06,0,.12-.02.24-.04.36-.07.11-.02.21-.04.32-.06.12-.02.24-.04.36-.06.06-.01.12-.02.18-.03,0,0,0,0,.01,0,.11-.02.23-.03.34-.05.11-.02.22-.03.32-.05,0,0,0,0,0,0h.01s0,0,0,0c.17-.02.33-.04.5-.07.03,0,.06,0,.09,0,.01.1.03.2.05.3.75-.18,1.49-.4,2.26-.46,0,0,0-.02,0-.03.13,0,.26,0,.39-.02.17,0,.34,0,.5,0,.03,0,.05,0,.08,0,.06,0,.12,0,.18,0,.08,0,.16,0,.23,0,0,0,0,0,0,0h0s0,0,0,0c.07,0,.14,0,.21,0,.07,0,.14,0,.21,0,0,0-.01,0-.02,0,.05,0,.09,0,.14,0h.08s.08,0,.12-.01c0,0,.02,0,.03,0,.01.2.03.41.04.61.19,1.07-.81,1.75-1.78,1.78-1.04.11-2.13.84-3.18.81-.31,0-.62-.08-.93-.26Z"/>
    <path class="cls-1" d="m23.29,95.91s0,0,0,0c0,0,0,0,0,0,0,0,0,0,0,0,0,0,0,0,0,0,0,0,0,0,0,0Z"/>
    <path class="cls-1" d="m23.29,95.9s0,0,0,0c0,0,0,0,0,0Z"/>
    <path class="cls-1" d="m23.3,95.9s0,0,0,0c0,0,0,0,0,0,0,0,0,0,0,0Z"/>
    <path class="cls-1" d="m23.3,95.9h0s0,0,0,0c0,0,0,0,0,0Z"/>
    <path class="cls-1" d="m23.3,95.9s0,0,0,0h0,0s0,0,0,0h0s0,0,0,0c0,0,0,0,0,0Z"/>
    <path class="cls-1" d="m23.3,95.9s0,0,0,0c0,0,0,0,0,0h0Z"/>
    <path class="cls-1" d="m22.04,95.38s0,0,0,0c0,0,0,0,0,0,0,0,0,0,0,0Z"/>
    <path class="cls-1" d="m26.59,95.63s0,0-.01,0c0,0,0,0,.01,0Z"/>
    <path class="cls-1" d="m27.07,95.6s0,0,0,0c0,0,0,0,0,0Z"/>
    <path class="cls-1" d="m23.23,143.35c-1.76-.17-2.34-2.21-2.83-3.63-.34-1.17-.91-2.26-1.2-3.45-.65-2.11.01-3.54,2.35-3.66,1.5-.22,3.02-.29,4.54-.4,1.21-.28,2.3.39,2.5,1.64.32,1.4.62,2.8,1,4.19.2,1.13,1.13,2.25.62,3.4-.64,1.32-2.32,1.29-3.57,1.49-1.13.16-2.25.5-3.4.42Zm.54-2.81c1.16-.14,2.31-.42,3.47-.54-.14-.4-.26-.81-.37-1.22,0,0,0,0,0,.01,0,.02,0,.04.01.06-.33-1.26-.66-2.53-.92-3.81-1.37.1-2.75.17-4.11.35.18,1.05.68,2.02.97,3.04.57.55.51,1.46.94,2.11Z"/>
    <path class="cls-1" d="m40.5,142.06c-1.32-.05-2.41-1.05-2.59-2.35-.35-1.11-.77-2.2-.88-3.37-.09-.89-.39-1.79-.28-2.69.22-1.3,1.64-1.36,2.69-1.23.77.03,1.54.06,2.31.08.77.01,1.54.04,2.32,0,.5-.14,1.08-.34,1.53.02,1.15-.21,1.71.94,1.79,1.92.26,1.13.5,2.27.85,3.38,1.15,3.02.25,3.75-2.78,3.86-1.65.12-3.3.48-4.96.4Zm.5-2.79c1.54-.06,3.07-.33,4.61-.45-.41-1.31-.71-2.65-1.01-3.99-1.62.3-3.29.24-4.94.26.14,1.44.62,2.79,1.03,4.16.1.01.2.02.31.02Z"/>
    <path class="cls-1" d="m57.69,141.8c-2.16-.1-2.89-1.23-2.8-3.29-.37-1.47-.52-2.97-.5-4.48,0-1.54,1.56-1.72,2.76-1.65,1.65,0,3.29-.06,4.93-.15.82-.71,1.98-.1,2.5.68.58,1.23.69,2.65.85,4,.05,1.17.91,2.35.36,3.5-.31.67-1.06.94-1.76.96-2.09.39-4.23.42-6.35.44Zm.39-2.79c1.61-.09,3.24-.03,4.83-.32-.36-1.42-.34-2.9-.76-4.31-.08-.07-.16-.14-.23-.22-1.67.34-3.39.34-5.09.45.07,1.5.77,2.87.85,4.37.13.01.26.02.39.02Z"/>
    <path class="cls-1" d="m24.14,156.49c-2.3.03-2.23-2.09-2.79-3.74-.37-1.42-1.18-2.69-1.44-4.14-.38-2.29,1.46-2.29,3.16-2.43,1.52-.16,3.05-.28,4.58-.4,1.05-.13,2.98-.22,2.43,1.4.68.72.67,1.83,1.17,2.68.67,1.69,2.23,5.2-.39,5.91-2.24.24-4.47.67-6.72.71Zm-.44-5.55c.25.73.48,1.46.69,2.2.05.18.09.35.14.53,1.64-.09,3.25-.4,4.88-.55-.29-1.43-1.1-2.68-1.47-4.08-.17-.15-.3-.34-.37-.56-.04-.12-.06-.25-.07-.39-1.56.24-3.12.44-4.67.71.28.71.63,1.4.88,2.13Z"/>
    <path class="cls-1" d="m41.33,155.3c-3.21-.44-3.2-6.12-3.38-8.64,0-1.6,1.77-1.77,3-1.86,1.97-.15,3.95-.2,5.91-.46,1.25-.31,2.85.1,3.23,1.47.22,1.21.41,2.37.78,3.52.29,1.17.84,2.5.23,3.66-.63,1.23-2.14,1.42-3.36,1.68-2.11.35-4.26.91-6.41.63Zm.99-2.72c2.1-.08,4.18-.5,6.23-.98-.34-1.61-.89-2.98-1.08-4.52-.01,0-.02,0-.04-.01-.26-.09-.49-.26-.66-.48-.7.13-1.32.19-1.99.28.05,0,.1-.01.15-.02-1.47.19-2.96.22-4.44.41.25,1.77.4,3.58,1.18,5.23.2.1.43.08.65.09Z"/>
    <path class="cls-1" d="m57.59,155.64c-2.2-.19-2.08-1.72-2.41-3.42-.28-.98-.54-1.96-.79-2.95-.16-1.14-1.08-2.54-.45-3.61.83-1.19,4.75-.96,6.18-1.04,1.18.14,4.31-.5,4.54,1.08.54.24.9.81.89,1.39.29,1.57.8,3.09.87,4.69.49,3.81-1.13,3.33-4.15,3.54-1.57.09-3.13.4-4.7.32Zm-.62-7.3c.36,1.51.95,2.97,1.16,4.51,1.84-.09,3.68-.37,5.52-.44-.03-1.54-.48-3.01-.81-4.5-.17-.18-.3-.42-.35-.67-.03-.14-.03-.29-.01-.43-1.94.14-3.9.15-5.81.52.1.34.2.67.29,1.01Z"/>
    <path class="cls-1" d="m25.01,178.57c-1.62.02-2.47-1.14-1.8-2.63-.46-2.52-.88-5.05-1.1-7.6-.29-1.53-.45-3.07-.55-4.62-.11-.74-.04-1.59.59-2.08.94-.75,3.64-.35,4.96-.53,4.53.04,9.04-.61,13.57-.62,1.64-.01,3.28-.02,4.91.1,1.88-.05,1.79.96,2.02,2.46.49,3.88,1.39,7.72,1.65,11.63.38,3.1-1.81,2.86-4.13,2.91-2.91-.07-5.82.05-8.72.13-2.15.07-4.25.58-6.38.78-1.67.11-3.36.11-5.02.08Zm.48-5.95c.16,1.05.41,2.09.53,3.15,2.89.13,5.87-.36,8.69-.77,3.9-.31,7.82-.19,11.72-.29-.29-3.84-1.16-7.61-1.64-11.42-6.81-.04-13.59.54-20.4.69.07,1.29.24,2.58.47,3.85.19,1.6.33,3.2.62,4.78Z"/>
    <path class="cls-1" d="m56.73,181.33c-1.19-.22-1.2-1.53-1.22-2.49-.07-1.15-.18-2.31-.26-3.46-.47-4.65-.99-9.32-.78-14-.09-1.73.66-2.52,2.39-2.61,1.11-.02,2.21-.21,3.32-.25,1.33-.02,2.75-.08,4,.44.95.43.77,1.98-.32,2.02,0,0,0,0,0,0,.03,0,.06,0,.09-.01-1.15.02-2.31-.12-3.46.03-1.09.1-2.15.38-3.23.46-.22,5.21.55,10.38.96,15.56.55.49.39,1.28.35,1.94.04,1.13-.39,2.62-1.81,2.37Z"/>
    <path class="cls-1" d="m65.57,180.12c-.79-1.89-.64-4.07-1-6.07-.93-4.35-.77-8.82-1.52-13.19-1.25-.14-2.42-.04-3.66.04-.66-.05-2.87.45-3.11-.23-.13-.42.58-.66.85-.44,1.68-.19,3.34-.5,5-.81,1.49-.4,2.6-1.25,3.33.76,1.01,3.29.81,6.8,1.32,10.18.55,2.8.75,5.66,1.25,8.47.66,1.53-1.56,2.72-2.47,1.3Z"/>
    <path class="cls-1" d="m23.67,166.59c-.08-.99,1.27-.7,1.9-.84.88-.05,1.75-.04,2.63-.05,3.04-.09,6.08-.38,9.12-.47,1.59-.03,3.17-.06,4.76-.04.84,0,1.69,0,2.53-.04.48,0,1.32-.2,1.37.49,0,.54-.58.56-.99.59-4.32.23-8.63.37-12.95.65-1.14.01-2.28-.04-3.42-.01-.52.03-1.05.06-1.57.09-.52-.02-1.09.17-1.59,0-.6,0-1.61.49-1.8-.38Z"/>
    <path class="cls-1" d="m23.87,169.8c-.37-.34-.11-1.01.39-1.01.37,0,.73-.04,1.1-.06,1.15-.05,2.3-.15,3.46-.18,2.04-.04,4.09.22,6.13.08,2.68-.25,5.37-.25,8.06-.21.7,0,1.4-.02,2.1-.02.3.01.62-.06.88.13.41.28.24.98-.26,1.04,0,0,0,0,0,0-2.33.09-4.66-.08-6.97.06-2.76.26-5.53.29-8.3.12-1.51-.08-3.03.04-4.54.13-.56-.04-1.65.28-2.04-.08Z"/>
    <path class="cls-1" d="m25.06,173.92c-.74-.02-.93-1.08-.23-1.35.37-.11.77-.13,1.15-.18,1.11-.1,2.22-.12,3.32-.31.71-.08,1.43.02,2.14,0,.72-.05,1.45-.08,2.17-.02,1.14.04,2.29-.06,3.43-.02.91-.07,1.82-.11,2.73-.09,1.01-.12,2.03-.17,3.05-.16.88-.06,1.77-.15,2.65-.07.47.05,1.09-.11,1.35.38.3.69-.29,1.07-.93,1.01-.64.01-1.29-.05-1.93.05-1,.15-2,.15-3.01.14-.58.03-1.18.06-1.76.05-.93,0-1.84.09-2.76.12-.96,0-1.92.02-2.89.08-1.57,0-3.14.05-4.71.01-1.26.18-2.54.17-3.8.36Z"/>
    <path class="cls-1" d="m62.19,169.13c-.61-.33-.36-1.32.34-1.32.53-.02.89.66.59,1.09-.19.3-.62.4-.93.23Z"/>
    <path class="cls-1" d="m22.03,138.4c-.32,0-.39-.49-.07-.57.1-.03.21-.02.3-.09.23-.11.49-.06.73-.12.38-.09.76-.14,1.15-.17.89-.14,1.79-.18,2.68-.29.52-.15.81.6.3.83-.31.12-.65.11-.97.15-.76.07-1.5.21-2.26.3-.5,0-1.59.5-1.87-.04Z"/>
    <path class="cls-1" d="m25.4,140.92c-.53-.14-.52-.75-.57-1.19-.08-.31-.2-.62-.24-.94,0-.16-.09-.28-.12-.44-.1-.74.94-1.03,1.24-.35.12.29.06.62.18.91.19.42.22.87.3,1.31,0,0,0,0,0,0,.08.42-.36.83-.79.7Z"/>
    <path class="cls-1" d="m39.9,137.9c-.13-.05-.23-.15-.28-.28-.03-.06-.04-.12-.04-.18-.16-.08-.21-.31-.1-.46.09-.12.26-.16.39-.09.21,0,.42-.04.63-.06.87-.14,1.74-.34,2.62-.44.51-.04,1.03-.07,1.54-.11.32-.01.64-.1.96,0,.56.15.54.97-.04,1.06-1.41.05-2.82.27-4.23.39-.22.02-.44.04-.66.08-.26.04-.52.2-.78.09Z"/>
    <path class="cls-1" d="m42.84,139.75c-.26-.18-.27-.49-.36-.76-.13-.46-.23-.92-.28-1.4-.36-1.04,1.09-1.58,1.36-.47.06.66.25,1.31.41,1.96.11.6-.65,1.05-1.13.67Z"/>
    <path class="cls-1" d="m56.58,137.52c-.53-.18-.6-.97-.11-1.25.3-.17.67-.08,1-.17,1.09-.19,2.21-.25,3.31-.38.52-.05,1.04-.07,1.55-.14.31-.05.68-.08.91.17.39.38.12,1.06-.43,1.06-.22.02-.44.09-.66.11-1.31.12-2.61.32-3.92.45-.55.06-1.11.28-1.66.14Z"/>
    <path class="cls-1" d="m60.52,140.19c-.71-.17-.79-1.55-.94-2.16-.04-.5-.25-1.06-.05-1.54.12-.32.5-.51.83-.42.39.1.62.53.49.91.04.45.1.9.18,1.35.12.43.34.85.3,1.31-.04.38-.44.66-.82.55Z"/>
    <path class="cls-1" d="m56.63,150.86c-.13-.31-.02-.69.27-.86.47-.23,1.16-.26,1.63-.4,1.64-.23,3.31-.44,4.97-.34,0,0,0,0,0,0,.81,0,.9,1.19.09,1.32-.85.01-1.71.01-2.56.12-.71.06-1.42.16-2.13.25-.4.09-.79.18-1.19.24-.39.14-.89.1-1.08-.33Z"/>
    <path class="cls-1" d="m60.58,153.1c-.21-.65-.57-1.28-.54-1.98-.02-.14-.03-.27-.07-.41-.17-.22-.19-.53-.05-.77.46-.69,1.28-.3,1.42.42.14.44.03.92.23,1.33.08.41.34.8.31,1.22-.08.67-1.03.81-1.3.18Z"/>
    <path class="cls-1" d="m39.81,150.09c-.2-.94.96-.94,1.6-1,1.08-.14,2.17-.27,3.26-.35,1.5-.09,3.01-.27,4.5-.11.75.11.65,1.21-.11,1.19-.84-.05-1.59-.04-2.42.03-1.46.08-2.91.24-4.36.42-.36.07-.73.1-1.1.15-.52.14-1.16.33-1.38-.34Z"/>
    <path class="cls-1" d="m45.15,153.17c-.53-.22-.38-.89-.52-1.34-.19-.79-.37-1.59-.53-2.38.04-.89,1.24-.92,1.41-.07.15.74.25,1.49.42,2.22.06.35.16.72.08,1.07-.06.39-.5.65-.87.49Z"/>
    <path class="cls-1" d="m22.91,151.77c-.24-.29-.15-.75.17-.94.17-.1.38-.1.57-.13.54-.08,1.08-.14,1.63-.21,1.27-.11,2.53-.33,3.8-.46.31-.02.75.11.7.5-.02.18-.19.35-.37.36-.99.21-1.97.45-2.97.57-.79.1-1.58.24-2.37.39-.41.09-.82.34-1.15-.07Z"/>
    <path class="cls-1" d="m26.73,153.91c-.52-.29-.71-1.72-.91-2.29-.61-.75.52-1.62,1.12-.87.35.52.34,1.19.55,1.77.07.23.16.46.19.7.11.52-.49.96-.94.69Z"/>
    <path class="cls-1" d="m45.88,125.73c-.49-.09-.62-.8-.19-1.05,1.2-.61,3.15-.15,4.51-.19,1.32.03,2.61-.08,3.92-.03,1.65-.01,3.28-.21,4.92-.3,3.24-.06,6.49-.2,9.73-.12,2.42.12,4.83.42,7.25.52,2.43.25,4.88.31,7.3.73.24.05.51.02.7.21.36.32.18.98-.31,1.05-.45,0-.9-.07-1.36-.07-1.97-.1-3.94-.23-5.89-.5-2.45-.12-4.9-.34-7.35-.52-3.01-.13-6.03.02-9.04-.1-1.72-.04-3.43.17-5.14.25-1.2.02-2.37,0-3.56.05-1.84.06-3.69-.23-5.49.09Z"/>
    <path class="cls-1" d="m15.53,128.44c-3.7-.33-7.43-.34-11.13-.67-.82-.07-1.64-.07-2.46-.15-.84-.19-.63-1.45.23-1.35.51-.52,2.02-.13,2.74-.17,1.08.06,2.17.08,3.24.1-.01,0-.02,0-.04,0-.02,0-.03,0-.05,0,1.85,0,3.7.13,5.53.39.34.08.94-.16,1.11.2.54.17,1.35.09,1.64.67.25.54-.26,1.1-.82.99Z"/>
    <path class="cls-1" d="m50.19,124.76c-.54-.13-.66-.92-.16-1.19.71-.3,1.49-.38,2.25-.45,1.54-.15,3.09-.05,4.64-.12,2.28-.12,4.56-.11,6.84-.02,1.85.15,3.7.28,5.54.41,1.2.11,2.43.14,3.62.21,1.12.07,2.23.22,3.35.28,1.62.1,3.24.26,4.82.61.68.13,1.37.21,2.06.29.09.01.19.02.27.05.18.07.16.37-.05.39,0,0,0,0,0,0-1.13.04-2.27-.07-3.4-.08-1.12-.04-2.24.02-3.36,0-1.18.02-2.35-.09-3.52-.17-1.78-.08-3.41-.15-5.14-.3-1.41-.07-2.82-.2-4.22-.31-2.27-.09-4.55-.1-6.82.02-1.35.06-2.7,0-4.05.07-.41.04-.82.07-1.23.11-.49.05-.98.25-1.47.16Z"/>
    <path class="cls-1" d="m12.36,126.55c-.91,0-.94-1.39,0-1.41,1.82.11,3.65-.04,5.46-.21,2.53-.32,5.08-.26,7.62-.37,1.6-.07,3.18-.33,4.78-.43,1.48-.1,2.96-.09,4.44-.19,1.83-.18,3.65-.47,5.49-.49,1.33,0,2.65-.09,3.98-.11.91,0,1.82.04,2.73-.01,1.78-.18,3.57-.16,5.36-.11.62.02,1.25.05,1.86.15.54.02.37.79-.19.55-.9-.05-1.87.08-2.75.14-1.13.07-2.26.17-3.38.35-1.42.26-2.86.23-4.3.3-1.55.14-3.1.1-4.65.2-1.37.09-2.73.33-4.1.44-1.71.13-3.43.09-5.14.25-1.13.1-2.25.26-3.37.34-2.01.14-4.03.08-6.05.21-2.59.19-5.18.58-7.79.42Z"/>
    <path class="cls-1" d="m2.63,127c-.14-.08-.23-.2-.29-.34,0,0,0-.01,0-.02-.29,0-.6.11-.86-.04-.45-.24-.36-.98.14-1.1,1.82-.34,3.69-.23,5.53-.38,2.65-.06,5.31-.09,7.95.09,0,0,0,0,0,0,.52.04.8.72.46,1.12.07.97-1.13.76-1.77.8-1.17.03-2.33-.05-3.5-.08-1.96-.08-3.91.04-5.87,0-.59-.07-1.23.18-1.79-.06Z"/>
    <path class="cls-1" d="m61.81,169.47c-1.08-.84.21-2.55,1.3-1.67.48.36.46,1.13-.03,1.46-.36.27-.86.51-1.27.21Z"/>
    <path class="cls-1" d="m61.99,169.77c-1.58-.2-1.39-2.51.26-2.4.65-.07,1.06.6,1.13,1.17.03.7-.73,1.26-1.39,1.23Z"/>
    <path class="cls-1" d="m58.11,162.98c-.05-.02-.08-.07-.1-.12-.24-.57-.4-1.18-.41-1.8,0-.12.08-.23.21-.24.12,0,.24.09.24.21,0,.33.04.65.11.96.07.25.14.49.23.74.06.17-.13.33-.28.25Z"/>
    <path class="cls-1" d="m59.75,162.77c.02-.48.09-.96.02-1.44-.1-.04-.13-.17-.08-.26.06-.17.29-.15.37,0,.16.29.14.65.17.97.01.24.03.49.03.73,0,.36-.52.36-.51,0Z"/>
    <path class="cls-1" d="m61.68,163.32c-.39-.22-.03-.66.08-.95.13-.31.24-.64.29-.97.03-.23.03-.45-.06-.66-.02-.25.38-.29.41-.04.19.53.07,1.11-.04,1.64-.11.35-.1,1.17-.66.98Z"/>
    <path class="cls-1" d="m45.59,139.91c0-.09.05-.18.13-.24.07-.06.16-.08.25-.08.19,0,.34.2.32.38,0,.09-.05.18-.13.24-.07.06-.16.08-.25.08-.19,0-.34-.2-.32-.38Z"/>
    <path class="cls-1" d="m22.45,104.17c-.11,0-.36-.12-.22-.25.07-.05.19-.08.2.04,0,0,0,0,0,0,.46,0,.91-.09,1.36-.15.48-.07.99-.13,1.47-.2,1.63-.19,3.26-.38,4.88-.63.29-.02.52.29.42.56-.09.26-.44.37-.66.2-1.52-.06-3.07.12-4.58.21-.58.06-1.17.11-1.75.16-.37.03-.75.08-1.12.06Z"/>
    <path class="cls-1" d="m23.34,106.64c-.43-.12-.15-.58.21-.48.83-.08,1.65-.23,2.47-.33.79-.1,1.58-.18,2.36-.31.36,0,.72-.27,1.07-.12.34.16.37.69.04.88-.23.16-.49.01-.74.03-.77-.01-1.53.04-2.3.1-1.04.05-2.07.26-3.12.24Z"/>
    <path class="cls-1" d="m25.08,106.9c-.55-.43-.05-1.19-.2-1.76-.06-.35-.17-.7-.31-1.02-.13-.1-.17-.29-.09-.44,0,0,0,0,0,0,.12-.27.53-.25.64.01.1.4.32.77.46,1.17.16.47.28.96.47,1.42.11.52-.54.94-.97.62Z"/>
    <path class="cls-1" d="m27.34,106.78c-.72-.35-.18-2.07-.33-2.8-.15-.62.5-.76.56-.25.18.57.25,1.17.45,1.74.06.16.13.3.21.45.27.53-.37,1.15-.89.86Z"/>
    <path class="cls-1" d="m25.48,103.79c-.39-.52-1.22-1.6-.18-1.89.85-.05.65.62.84,1.15.08.21.27.41.22.65-.09.44-.68.45-.88.09Z"/>
    <path class="cls-1" d="m26.5,107.93c-.42-.21-.28-.76-.46-1.12-.38-.21-.19-.88.25-.84.51.1.58.77.9,1.1.39.44-.16,1.14-.68.86Z"/>
    <path class="cls-1" d="m60.15,115.4c-.65-.21-.05-.91.35-.54,2.36-.28,4.72-.55,7.09-.7.98-.07,1.96-.16,2.94-.25.44,0,.97-.21,1.36.06.22.19.21.56-.02.74-.23.21-.52.04-.79.05-2.44.05-4.87.19-7.31.37-1.21.05-2.42.32-3.62.27Z"/>
    <path class="cls-1" d="m59.68,118.58c-.27-.1-.21-.5.07-.54.64-.08,1.29-.13,1.94-.19,2.06-.18,4.13-.29,6.19-.43.85-.07,1.71-.09,2.55-.24.17-.21.51-.23.71-.05.43.41-.06.96-.56.92-3.53.12-7.07.18-10.59.47-.08.08-.21.1-.31.05Z"/>
    <path class="cls-1" d="m62.95,118.75c-.84-.38.07-2.67-.53-3.62-.12-.44.43-.39.57-.07.48.74.51,1.66.77,2.48.03.11.06.23.1.34.27.55-.37,1.17-.91.87Z"/>
    <path class="cls-1" d="m67.06,118.53c-1.03-.43.22-1.84-.5-3.43-.46-.43.33-1.03.62-.46.44.95.65,1.96.7,3,.25.5-.3,1.09-.82.89Z"/>
    <path class="cls-1" d="m64.43,114.67c-.34-.5-.19-1.21-.45-1.76-.83-.71.57-1.67.96-.66.1.55-.02,1.13-.05,1.68-.07.26-.01,1.01-.46.75Z"/>
    <path class="cls-1" d="m65.63,120.39c-1-.16-.61-1.51-.93-2.21-.33-.3.13-.76.46-.5.41.39.44,1.03.77,1.48.73.25.44,1.31-.3,1.23Z"/>
    <path class="cls-1" d="m20.61,120.32c-.24-.08-.21-.35-.1-.53.08-.64.53-1.31.94-1.8.36-.21.42.34.25.55-.24.33-.67,1.99-1.09,1.78Z"/>
    <path class="cls-1" d="m67.25,104c-.51-.08-.24-.91-1.3-1.05-.39-.08-.26-.69.13-.6.59.06,2.43,1.29,1.17,1.64Z"/>
    <path class="cls-1" d="m65.34,104.18c-.22-.22-.45-.45-.74-.58-.33.11-.47-.43-.12-.49.49-.02.9.41,1.26.69.28.26-.15.68-.4.38Z"/>
    <path class="cls-1" d="m21.75,121.36c-.32-.05-.14-.43-.09-.62.07-.17.11-.53.34-.55.13,0,.19.17.09.24-.07.24-.09.5-.12.75-.01.11-.11.2-.22.19Z"/>
    <path class="cls-1" d="m30.55,135.15c-.55-.31.9-1.05,1.1-1.32.36-.18,1.63-1.62,1.9-1.18.18.43-.61.61-.84.88-.66.5-1.29.96-1.92,1.49-.03.1-.14.16-.24.13Z"/>
    <path class="cls-1" d="m31.16,135.94c-.23-.19.49-.79.62-.95.2-.2.39-.39.6-.58.07-.06.18-.06.25.02.06.07.06.19-.02.25-.34.3-.68.61-1.01.93-.08.08-.16.17-.22.27-.02.1-.15.15-.22.08Z"/>
    <path class="cls-1" d="m31.34,137.15c-.52-.35,1.7-1.65,1.99-1.94.27-.18.55.24.28.42-.43.3-.81.61-1.22.92,0,0,.02-.01.03-.02,0,0,0,0,0,0-.34.15-.7.86-1.08.63Z"/>
    <path class="cls-1" d="m49.72,142.11c-.93-.36,2.22-1.89,2.54-2.15,0,0,0,0,0,0,0,0,0,0,0,0,.25-.25.66-.01.35.25-.91.54-1.87,1.02-2.67,1.72-.01.1-.11.18-.21.17Z"/>
    <path class="cls-1" d="m50.48,142.73c-.26-.22.13-.42.31-.5.22-.11.45-.22.68-.31.19-.07.31.22.12.3-.13.06-.26.12-.39.18-.15.08-.3.15-.44.25-.06.09-.18.14-.28.08Z"/>
    <path class="cls-1" d="m50.78,143.75c-.48-.39.53-.63.75-.85.41-.15,2.03-1.54,2.25-1.13.23.41-.97.77-1.23,1.03-.49.29-.97.59-1.46.87-.06.1-.19.14-.3.09Z"/>
    <path class="cls-1" d="m33.21,156.78c-.32-.33,2.09-1.57,2.41-1.88.39-.15,1.89-1.47,2.12-1.11.35.29-2.35,1.65-2.67,1.98-.36.13-1.66,1.39-1.86,1.01Z"/>
    <path class="cls-1" d="m34.15,157.44c-.09-.02-.15-.12-.12-.21.13-.25.4-.41.6-.61.35-.31.71-.62,1.06-.92.16-.13.37.1.21.24-.23.2-.47.4-.7.59-.29.26-.61.5-.88.79-.02.08-.1.13-.18.11Z"/>
    <path class="cls-1" d="m34.48,158.21c-.3-.36,1.03-1.02,1.27-1.3.34-.15,1.47-1.3,1.72-.96.23.31-1.24,1.05-1.46,1.32-.36.17-1.23,1.25-1.53.94Z"/>
    <path class="cls-1" d="m67.5,132.03c-.15-.46-.55-.87-1.02-.98-.65.18-.56-.81.07-.62.7.16,1.3.73,1.53,1.4.13.37-.45.57-.58.2Z"/>
    <path class="cls-1" d="m65.21,143.22c-.06-.17.09-.25.21-.33.61-.53,1.09-1.19,1.56-1.85.06-.09.19-.12.28-.06.26.22-.15.52-.26.73-.29.29-1.41,2.1-1.8,1.5Z"/>
    <path class="cls-1" d="m19.06,144.87c-.37-.08.11-.98.3-1.07.25-.09.41.3.17.41-.14.21-.13.73-.48.66Z"/>
    <path class="cls-1" d="m21.28,157.77c-.22-.03-.43-.14-.56-.33-.06-.07-.1-.17-.07-.26.05-.16.3-.14.32.03.11.14.31.16.48.12.13-.05.29-.01.33.13.08.3-.28.34-.5.31Z"/>
    <path class="cls-1" d="m49.13,161.01c-.05-.07-.02-.15.04-.19.16-.14.31-.3.46-.44.61-.59,1.22-1.18,1.87-1.74.17-.14.4.11.23.26-.28.23-.56.48-.84.72-.37.32-.73.66-1.09.99-.16.14-.31.29-.47.43-.06.05-.16.04-.21-.03Z"/>
    <path class="cls-1" d="m49.51,161.86s0-.03.01-.04c.02-.05.06-.08.11-.08.23-.25.46-.5.69-.75.05-.05.13-.06.19-.01.05.05.06.14.01.19-.13.14-.26.28-.4.42-.1.11-.2.21-.31.31-.05.06-.12.12-.2.11-.07,0-.13-.08-.11-.14Z"/>
    <path class="cls-1" d="m49.6,163.48c-.14-.06-.1-.31.05-.33.76-.83,1.59-1.58,2.45-2.3.16-.11.37-.41.57-.21.12.14.01.28-.11.35-.63.5-1.25,1-1.84,1.54-.2.18-.39.37-.58.56-.12.13-.24.26-.37.37-.04.04-.11.05-.17.02Z"/>
    <path class="cls-1" d="m67.9,163.07c-.29-.05-.16-.51.11-.4.46-.36.69-.96.95-1.48.11-.26.54-.09.44.17-.33.55-.77,1.7-1.5,1.71Z"/>
    <path class="cls-1" d="m52.45,171.7c-.77-.26-1.8-.52-2.06-1.37,0,0,0,.02,0,.02,0,0,0,0,0,0-.02-.15.16-.28.3-.2.18.15.23.42.45.55.45.34,1.04.45,1.51.71.1.13-.04.34-.2.3Z"/>
    <path class="cls-1" d="m136.88,175.81c-.03-1-.04-2,.05-2.99.1-1.62-.12-3.24-.18-4.86-.2-3.11-.56-6.22-.57-9.34.08-3.41-.39-6.82-1.29-10.11-.98-3.43-2.71-4.66-6.26-4.49-1.1-.02-2.3,0-3.5,0-1.4-.06-2.79-.28-4.2-.29-4.97.1-14.81.69-16.61,6.24-.36,1.5.05,3.03.13,4.53.45,3.68,1.67,7.25,1.58,10.99.13,3.3.76,6.58,1.66,9.76.39.99.56,2.05.69,3.1.35,1.68.1,4.2,1.56,5.21.76.06,1.47.19,2.13.39,1.62-.1,3.16-.38,4.86-.45,3.21-.18,6.27-.1,9.52-.12,1.68.04,3.37.14,5.04.35.89.25,1.95.26,2.53-.58,4.37-.76,3.31-4.09,2.87-7.33Zm-6.56,2.9c-2.77-.14-5.53.32-8.3.3-2.88-.02-5.76.05-8.62.34-.17-.51-.31-1.04-.48-1.55-.23-.73-.47-1.45-.72-2.17-.6-2.61-.95-5.27-1.19-7.93-.43-2.92-.89-5.83-1.38-8.74-.36-2.41-2.23-6.74.15-8.49,1.13-.81,2.49-1.22,3.83-1.52,1.54-.32,3.07-.73,4.63-.85,1.76-.06,3.52.04,5.28.18,2.01.18,4.05-.12,6.06.13,1.81,3.41,1.44,8.17,1.87,11.96.3,3.16.7,6.3.89,9.47.22,3.08.28,6.17.81,9.23-.99-.03-1.81-.27-2.83-.35Z"/>
    <path class="cls-1" d="m105.74,163.44c-.98-.6-1-1.78-.95-2.8-.02-.69-.09-1.38-.15-2.08-.12-1.79-.33-3.57-.64-5.33-.33-2.35-.38-4.78-.51-7.13.09-3.16-.28-6.13-.22-9.26.03-1.11.11-2.28-.36-3.33-.53-.4-1.18-.62-1.78-.9-4.52-1.61-9.31-2.25-14.08-2.55-3.79-.36-7.63-.53-11.35.41-1.06,1.09-2.15-.88-.64-1.33,3-1.03,6.14-1.62,9.31-1.8,6.92-.37,14.42-.82,20.72,2.56,2.72,1.72,2.45,5.35,2.38,8.17.11,2.61.29,5.35.24,7.91.15,2.87.24,5.75.77,8.58.3,2.41.55,4.83.53,7.25-.03,1.57-1.99,2.55-3.27,1.64Z"/>
    <path class="cls-1" d="m76.03,133.13c-1.8-.24-2.37-2.82-.83-3.79.6-.42,1.36-.41,2.06-.4,1,.03,2.01-.05,3.01-.13,5.38-.44,10.71-.3,16.07-.24,4.95.17,9.89.81,14.84.34-.43-.79-1-1.49-1.48-2.25-.79-1.3-1.41-2.71-2.45-3.86-1.07-1.42-1.67-3.12-2.69-4.58-3,.21-6,.46-9,.72-1.89.1-3.57.02-5.43.15-1.22.11-2.44.12-3.65.33-1.43.18-2.86.63-4.3.54-1.56-.2-2.34-2.22-1.29-3.4.74-.91,2.01-.87,3.07-1.03,3.48-.57,7.05-.71,10.56-.75,3.47-.25,6.95-.54,10.41-.84,1.76-.16,2.87,1.35,3.62,2.73.51.75.95,1.54,1.33,2.37.4.89,1.06,1.61,1.64,2.38.8,1.08,1.28,2.36,2.06,3.46,1.01,1.31,1.69,2.82,2.62,4.17,1.29,1.95-.38,3.81-2.47,3.89-1.72.24-3.47.19-5.19.37-2.53.15-5.06-.17-7.59-.25-5.39-.42-10.92-.28-16.28-.31-2.87.17-5.75.56-8.63.39Z"/>
    <path class="cls-1" d="m105.96,148.94c-1.57-.17-2.39-2.15-1.39-3.37.71-.98,2.04-.9,3.13-.98-.11,0-.2.01-.31.02,5.23-.7,10.53-.72,15.81-.87,1.5-.06,2.98-.34,4.48-.39,1.52.02,3.04,0,4.55-.18,2.73-.45,5.51-.36,8.26-.69-.81-.95-1.63-1.9-2.41-2.88-.73-1.01-1.37-2.07-2.2-3-1.44-1.83-2.58-3.87-4.02-5.69-2.4.07-4.78.43-7.14.85-4.2.31-8.38.89-12.57,1.19-1.75-.19-2.39-2.64-.94-3.65.99-.59,2.23-.69,3.34-.92,3.85-.43,7.68-.92,11.49-1.11,2.39-.21,4.96-.93,7.33-.38,1.46.59,2.29,2.05,3.16,3.28,1.32,2.13,2.95,4.05,4.36,6.11,1.46,2.09,3.29,3.88,4.8,5.93,1.36,1.27,2.34,3.1.38,4.38-.61.37-1.34.28-2.02.22-.89-.05-1.78-.06-2.67-.11-2.11.11-4.41.35-6.45.4-1.25.11-2.48.36-3.73.4-1.22.11-2.43.1-3.65.09-2.44.29-4.85.46-7.25.44-2.94.13-5.88.21-8.82.38-1.84.14-3.66.54-5.5.54Z"/>
    <path class="cls-1" d="m87.48,143.81c-1.95-.2-3.72-1.69-3.92-3.69-.09-1.33.25-2.72.84-3.91.99-1.89,3.24-2.68,5.27-2.63,2.09.05,3.95,1.57,4.75,3.45.72,1.64.31,3.6-.9,4.89-1.52,1.6-3.89,2.12-6.03,1.89Zm.78-2.71c1.53.02,3.87-.65,3.68-2.56-.18-.91-.91-1.7-1.77-2.04-.69-.22-1.46-.09-2.13.15-.64.37-1.01,1.08-1.43,1.67-.16.46-.1.98-.08,1.46.06.29.15.59.13.89.47.32,1.04.45,1.6.44Z"/>
    <path class="cls-1" d="m94.96,178.92c-.59-1.48-.69-3.09-.67-4.66-.09-1.35-.18-2.71-.29-4.05-.32-1.67-1.21-3.44-3.17-3.34-.8,0-1.53.45-2.13.95-.48.6-.97,1.25-1.17,2-.31,1.24-.1,2.52-.03,3.78.07,1.55.12,3.12-.1,4.66-1.02,1.73-1.96-3.76-2.12-4.33-.43-1.86-.8-3.88-.05-5.71.37-.83.86-1.63,1.46-2.31,1.22-1.2,2.93-1.98,4.66-1.83,2.68.16,4.51,2.15,5.17,4.65.42,1.19.33,2.46.46,3.7.15,1.27.09,2.55.19,3.82.1.65.3,1.28.45,1.92.14,1.51-1.97,2.13-2.66.77Zm-7.75-.45s0,0,.01,0c.01,0,.02-.01.03-.02,0,0,0,0,0,0-.01,0-.03.02-.05.03Z"/>
    <path class="cls-1" d="m86.48,179.37s0,0,0,0c-1.83-1.29-1.53-3.82-1.58-5.79,0-1.95-.58-6.82,1.99-7.27.83-.09,1.6.63,1.54,1.46.02.55-.4.81-.61,1.24-.16,1.06-.18,2.13-.16,3.2.05,1.3.06,2.6.01,3.9.02.97.47,3.68-1.21,3.25Z"/>
    <path class="cls-1" d="m125.94,181.74c-1.17-.5-.98-2.01-1.2-3.05-.17-1.28-.31-2.57-.43-3.85-.19-1.88-.76-3.74-.51-5.65-1.4.21-2.58.32-3.96.3-.45,1,.05,2.09.06,3.13.09,1.1.14,2.2.24,3.29.06,1.16.4,2.37.09,3.5-.46,1.3-2.36,1.48-2.79.07-.35-2.71-.55-5.45-.67-8.18.06-1.55-1.31-4.2,1.05-4.55,1.56-.11,3.22-.14,4.76-.3,1.33-.04,3.14-1.11,4.1.28.36.55.21,1.21.07,1.8.2,1.2.45,2.39.59,3.6.22,2.04.44,4.09.55,6.14.1,1.45.29,4.08-1.95,3.47Z"/>
    <path class="cls-1" d="m117.58,162.45c-1.63-.14-1.83-1.45-2.17-2.76-.59-1.66-.74-3.42-1.15-5.13-.55-2.28,1.63-2.13,3.18-2.4,1.51-.23,3.03-.45,4.55-.54,2.66-.25,2.87,1.01,3.1,3.28.12,1.67.39,3.34.35,5.02.04,1.31-1.42,1.57-2.43,1.75-1.8.29-3.6.83-5.43.78Zm.7-2.98c.02.05.03.11.04.16,1.44-.2,2.87-.48,4.3-.75-.13-1.48-.24-2.97-.43-4.45-1.66.11-3.32.36-4.93.77.28,1.44.53,2.89,1.02,4.27Z"/>
    <path class="cls-1" d="m88.9,141.63c-.33-.2-.3-.64-.36-.97-.12-.91-.2-1.81-.27-2.72-.03-.46-.06-.91-.09-1.37,0-.15-.03-.31.03-.45.09-.2.34-.31.55-.21.13-.14.36-.17.54-.17.4.06.44.51.5.83.13.65.17,1.32.23,1.98.08.77.1,1.54.14,2.31.01.16.05.32.01.47-.08.33-.52.48-.79.28-.14.11-.33.12-.48.03Z"/>
    <path class="cls-1" d="m85.98,139.52c-.45,0-.72-.54-.38-.87.13-.12.3-.16.47-.16.22-.03.44-.06.67-.09.74-.15,1.5-.16,2.25-.24.7-.05,1.4-.08,2.1-.11.33,0,.65,0,.93-.01.28-.05.57,0,.62.34,0,0,0,0,0,0,0,.08,0,.15-.03.22.07.13.09.28.04.42-.14.44-.63.48-1.02.5-.78.05-1.56-.03-2.33-.1-.8-.07-1.6.02-2.39.06-.31.02-.61.06-.92.02Z"/>
    <path class="cls-1" d="m92.72,174.25c-.2-.04-.35-.19-.41-.37,0,0,0,0,0,0-.12-.72-.05-1.46-.04-2.19,0-.24-.03-.5.08-.72.12-.24.42-.35.66-.22.4.2.41,1.08.4,1.48,0,.37-.01.74-.02,1.11.08.44-.14,1-.67.91Z"/>
    <path class="cls-1" d="m123.02,175.47c-.15-.13-.27-.31-.27-.52-.05-.35-.08-.71-.11-1.06,0-.37-.14-.81.11-1.12,0,0,0,0,0,0,.14-.18.46-.23.64-.13.42.19.37.74.44,1.13.02.21.04.42.07.63.03.37.19.86-.19,1.11-.2.13-.5.12-.68-.05Z"/>
    <path class="cls-1" d="m78.53,146.38c-.48-.08.01-1.08,0-1.42.11-.27.15-1.42.46-1.39.45.02,0,.91.02,1.19-.08.47-.15.93-.22,1.4-.02.13-.14.24-.28.22Z"/>
    <path class="cls-1" d="m98.16,150.08c-.42-.15-.06-.63,0-.91.35-1.06.72-2.18.58-3.31-.1-.14.05-.34.22-.29.29.15.16.72.2,1-.02.88-.25,1.74-.46,2.6-.13.3-.07.98-.53.92Z"/>
    <path class="cls-1" d="m98.95,151.47c-.2-.05-.3-.27-.23-.45.25-.77.54-1.48.71-2.26.05-.2-.01-.45.14-.61.22-.23.62-.03.58.28-.05.55-.24,1.08-.41,1.61-.21.37-.25,1.55-.8,1.42Z"/>
    <path class="cls-1" d="m98.14,139.33c-.14-.03-.13-.25.02-.27.23-.01.46-.05.69-.08.73-.1,1.46-.19,2.19-.27.69-.08,1.38-.16,2.06-.27.46-.07.92-.19,1.39-.2.33-.01.51.42.27.65-.07.07-.17.12-.27.11-.19-.01-.38,0-.57,0-.51,0-1.02.04-1.52.07,0,0,0,0,.01,0-.79.05-1.59.11-2.38.16-.43.03-.85.07-1.28.1-.2,0-.41.05-.61,0Z"/>
    <path class="cls-1" d="m97.16,141.17c-.06,0-.12-.03-.19-.04-.18-.04-.12-.32.05-.32.1-.03.25-.08.31.04,1.43-.15,2.86-.36,4.28-.61.19-.03.37-.07.56-.09.51-.05.61.69.1.78-.36.04-.72.02-1.08.03-.55,0-1.11.03-1.65.07-.52.03-1.03.1-1.55.12-.29.02-.56.05-.84.02Z"/>
    <path class="cls-1" d="m98.79,141.24c-.27-.29-.03-.73-.05-1.08.02-.33,0-.67.03-.99.09-.4.56-.16.45.17.05.54.23,1.06.31,1.6.02.38-.49.59-.75.31Z"/>
    <path class="cls-1" d="m100.75,140.92c-.28-.3-.03-.9-.09-1.29.03-.23-.12-.65.19-.73.16-.02.28.13.25.28.04.22.09.44.15.66.08.31.42.58.28.92-.12.31-.55.4-.78.16Z"/>
    <path class="cls-1" d="m99.88,139.07c-.3-.22-.42-.6-.61-.91-.25-.41.3-.9.67-.59.32.25.08.69.23,1.02.04.15.22.27.11.44-.08.15-.3.17-.41.04Z"/>
    <path class="cls-1" d="m99.6,142.37c-.37-.37.1-.82-.04-1.25-.32-.35.32-.73.48-.29.11.34.24.66.43.96.23.52-.48.99-.87.58Z"/>
    <path class="cls-1" d="m101.23,121.54c-.41-.27-.26-1.14-.24-1.57.07-.29.02-.65.28-.85.35-.28.9.08.77.51-.08.4-.14.81-.16,1.22,0,.08,0,.16,0,.25.06.35-.35.63-.66.44Z"/>
    <path class="cls-1" d="m101.75,122.85c-.16-.09-.21-.31-.09-.45.25-.33.62-.66.62-1.11-.28-.34.39-.57.39.07,0,.38-.18.74-.35,1.07-.11.24-.25.59-.57.42Z"/>
    <path class="cls-1" d="m104.1,128.19c-.55-.47.63-1.61.83-2.1.26-.62,1.15-.13.77.42-.43.39-.96.78-1.19,1.34.1.23-.18.47-.4.34Z"/>
    <path class="cls-1" d="m105.33,127.51c-.11-.19,0-.43.21-.49.16-.11.28-.26.39-.42.13-.19.21-.41.25-.64.04-.2.01-.45.21-.58.27-.21.69-.03.72.31.08.42-1.34,2.56-1.78,1.81Z"/>
    <path class="cls-1" d="m126.11,138.3c0-.14.13-.15.25-.15.35-.02.7-.09,1.05-.14,1.15-.2,2.3-.42,3.44-.64.63-.12,1.25-.23,1.88-.36.35-.07.7-.15,1.05-.22.17-.03.34.06.38.23.04.18-.09.36-.27.38-.32.04-.64.07-.96.11-.5.06-1,.12-1.49.19-1.7.22-3.39.57-5.09.73-.11.02-.24-.02-.23-.15Z"/>
    <path class="cls-1" d="m125.89,140.21c-.36-.09-.1-.55.17-.36,1.77-.24,3.53-.66,5.29-.93.33-.06.67-.11,1-.17.31-.05.61-.11.91-.17.09-.02.19,0,.27.04.28.16.18.63-.15.65-1.25.11-2.5.24-3.74.43-1.25.15-2.49.47-3.75.51Z"/>
    <path class="cls-1" d="m128.15,139.63c-.15-.25.09-.49.03-.75-.06-.29-.19-.54-.22-.83-.03-.21.28-.31.39-.13.11.45.38.84.58,1.25.32.53-.47,1-.78.46Z"/>
    <path class="cls-1" d="m130.86,139.47c-.3-.08-.43-.46-.25-.71,0-.35-.13-.67-.15-1.01.02-.14.2-.19.3-.09.04.04.05.09.05.14.09.27.18.54.33.78.57.2.32,1.04-.27.89Z"/>
    <path class="cls-1" d="m129.58,137.93c-.32.02-.42-.35-.47-.6-.05-.28-.25-.63,0-.87.18-.18.51-.12.63.11.06.11.06.23.02.34-.03.18-.05.37-.03.55.27.11.15.52-.14.48Z"/>
    <path class="cls-1" d="m129.89,140.77c-.16-.1-.24-.29-.21-.47-.04-.21-.09-.41-.15-.61-.24-.13-.04-.51.21-.4.25.14.29.49.51.67.65.21.23,1.15-.36.82Z"/>
    <path class="cls-1" d="m109.27,138.14c-.67-.37-.99-1.08-1.08-1.81-.05-.45-.18-.98,0-1.41.25-.33.75.09.49.4.04.68.06,1.57.67,2,.11.08.15.11.25.16.47.22.1.92-.35.66Z"/>
    <path class="cls-1" d="m109.89,136.65c-.05-.36-.03-.8-.29-1.08h0c-.28,0-.27-.44.01-.43.43.05.57.55.67.9.05.27.3.77-.11.85-.14.01-.28-.09-.29-.23Z"/>
    <path class="cls-1" d="m109.91,154.09c-.16-.11-.22-.35-.1-.51.67-.87,1.45-1.65,2.23-2.43.32-.35.86.13.55.49-.38.39-.77.77-1.15,1.16-.33.35-.65.72-.95,1.1-.11.2-.36.34-.57.19Z"/>
    <path class="cls-1" d="m110.39,154.91c-.14-.12-.15-.34-.03-.48.2-.22.4-.44.59-.67.26-.23.62-1,1.02-.67.13.12.14.32.02.45-.38.44-.75.9-1.13,1.35-.12.14-.34.15-.48.03Z"/>
    <path class="cls-1" d="m129.67,163.33c-.68-.76-1.4-1.47-2.31-1.92-.33-.17-.08-.67.25-.5.96.48,1.73,1.25,2.51,1.98.32.31-.15.77-.45.44Z"/>
    <path class="cls-1" d="m128.21,163.92c-.29-.37-.58-.76-1-.99-.63,0-.32-.99.46-.38.28.2,1.04.86,1.06,1.19,0,.25-.36.38-.52.17Z"/>
    <path class="cls-1" d="m127.92,151.63c.01-.2.05-.43-.01-.62-.05-.11-.14-.21-.24-.28-.27-.06-.34-.45-.1-.59.43-.23.87.46,1,.8.07.22.09.46.11.7.02.53-.77.53-.75,0Z"/>
    <path class="cls-1" d="m127.06,151.29c-.64-.02-.91-.74-.87-1.29,0-.18-.02-.4.13-.52.21-.19.59-.01.55.28,0,.32-.15.78.15,1,.4-.07.44.55.04.54Z"/>
    <path class="cls-1" d="m77.64,144.82c-.84-.15.55-2.38.67-2.87.08-.39.68-.41.79-.03.08.23-.07.41-.19.59-.1.19-.19.39-.29.59-.13.26-.26.54-.35.78-.09.23-.16.47-.24.71-.05.16-.23.26-.39.23Z"/>
    <path class="cls-1" d="m112.43,170.93c.01-.73.24-1.45.43-2.15.04-.12.17-.19.29-.16.12.04.19.17.16.29-.19.62-.38,1.24-.45,1.89.15.32-.38.48-.43.13Z"/>
    <path class="cls-1" d="m147.72,184.02c-2.06-1.24-1.75-5.35-2.25-7.54-.21-1.58-.6-3.14-.78-4.72-.19-1.72-.27-3.45-.45-5.18-.28-2.71-.81-5.4-1-8.12-.17-2.55-.09-5.11-.24-7.65-.28-3.99-1.08-7.95-.86-11.96.08-2.07.52-4.13.3-6.2-.5-2.78-1.26-5.54-1.35-8.38-.19-2.41.18-4.83-.09-7.22-.23-1.65-1.01-3.33-.52-5,.72-2.44,3.68-1.99,5.67-2.12,5.81-.62,11.67-.88,17.5-.36-.09,0-.18-.01-.27-.02,5.25.36,10.51.37,15.77.56,6.15.3,12.31.39,18.45-.16,3-.21,10.29-1.13,12.37,1.12.68.71.91,1.69,1.23,2.6.43,1.23.88,2.45,1.24,3.7,1.08,3.24.95,6.85,1.63,10.13.75,3.02,1.63,6.02,1.93,9.13.22,1.84.48,3.67,1.01,5.45,1.76,6.27,3.05,12.67,4.58,19,.46,2.2.46,4.46.67,6.69.14,1.57.28,3.14.26,4.71,0,1.77-.26,3.52-.61,5.25-.4,2-1.07,4.47-3.29,5.08-2.41.46-4.89-.26-7.32-.01-3.45.36-6.91.19-10.36.13-1.72.02-3.44.07-5.16-.04-2.6-.18-5.2-.16-7.8.01-2.6.08-5.2-.06-7.8.1-3.87.13-7.75.19-11.58.83-3.31.36-6.64.29-9.96.44-2.62.08-5.19.22-7.8.33-1.07.04-2.2-.02-3.13-.58Zm2.96-4.49c.07.28.14.57.21.85,5.62-.36,11.27-.3,16.89-.72,4.75-.76,9.55-.79,14.35-.96,3.41.03,6.82-.1,10.23-.19,3.44.19,6.88.21,10.33.2,3.47.28,6.93-.1,10.4-.18,1.4,0,2.78.21,4.18.21,1.43-3.94,1.05-8.18.67-12.28-.08-3.11-.7-5.96-1.5-8.9-1.23-5-2.21-10.07-3.66-15.01-.7-2.48-.87-5.06-1.27-7.59-.39-2.48-1.25-4.85-1.7-7.31-.46-2.31-.47-4.69-.89-7.01-.47-2.26-1.29-4.42-2.04-6.59-3.12-.46-6.31-.15-9.43.15-4.88.31-9.77.55-14.66.26-7.12-.33-14.27-.27-21.38-.83-5.47-.42-10.91.18-16.35.56,1.03,6.14.8,12.44,1.65,18.62.14,2.24-.22,4.47-.29,6.71-.05,1.87.16,3.74.26,5.61.49,3.57.69,7.17.94,10.76.31,2.27.87,4.5,1.12,6.78.38,2.58.37,5.2.66,7.79.19,1.66.52,3.3.72,4.96.17,1.37.24,2.77.58,4.12Z"/>
    <path class="cls-1" d="m156.77,112.39c-1.35-.88-1.29-6.1-1.38-7.77-.03-1.82-.32-3.62-.69-5.4-1.89.03-3.71.59-5.56.93-.05,1.65-.09,3.33.13,4.97.31,1.59.87,3.17.79,4.81.1,1.32-1.07,2.64-2.42,2.04-.8-.31-1.04-1.18-1.11-1.96-.14-.89-.42-1.75-.69-2.61.02.07.05.15.07.22-.67-1.89-.86-3.89-.88-5.89-.04-1.55-.18-3.36,1.01-4.55.55-.57,1.24-.86,1.97-1.05.3-.06.6-.13.9-.19.2-.05.41-.09.61-.13.03,0,.07-.01.1-.02.07-.01.14-.03.21-.04.26-.05.52-.1.78-.15.12-.02.24-.05.36-.07.01,0,.03,0,.04,0-.01,0-.03,0-.04,0h0s0,0,0,0h-.04c.25-.03.5-.06.75-.09-.05,0-.09.01-.14.02.11-.01.21-.03.32-.04.07,0,.14-.02.2-.03.07,0,.15-.02.22-.03,0,0,0,0-.01,0,.11-.01.23-.03.34-.04-.04,0-.08.01-.12.02,0,0-.01,0-.02,0,0,0,.01,0,.02,0,.02,0,.03,0,.05,0,.42-.05.84-.11,1.26-.17.33-.03.65-.06.98-.09.29,0,.58-.02.86-.03.36.02.72.06,1.07.13,1.15.32,1.76,1.48,1.97,2.58.34,1.59.67,3.2.81,4.82.16,2.53.11,5.08.58,7.58.44,1.46-.81,2.78-2.12,2.74-.41-.01-.82-.15-1.2-.46Z"/>
    <path class="cls-1" d="m152.15,95.34s0,0,0,0c0,0,0,0,0,0,0,0,0,0,0,0,0,0,0,0,0,0-.02,0-.05,0-.07,0,.02,0,.05,0,.07,0Z"/>
    <path class="cls-1" d="m171.71,112.2c-.46-.89-.36-1.95-.55-2.92-.38-1.96-.08-3.93-.12-5.9-.85.19-1.76.27-2.55.65-.33.36-.22.99-.32,1.46-.08,1.4-.33,2.78-.49,4.17-.04.43-.02.92-.13,1.34-.26,1.13-1.69.82-2.06-.08-.5-.91-.62-1.96-.72-2.98-.14-1.18-.28-2.37-.3-3.56-.12-3.18,2.46-4.5,5.22-4.98,2.67-.65,5.11-1.24,5.45,2.36.32,2.05-.1,4.12.1,6.17.08,1.27.55,2.58.28,3.84-.44,1.74-3.01,2.01-3.82.41Z"/>
    <path class="cls-1" d="m185.56,112.85c-1.16-.5-1.42-1.89-1.59-3.01-.22-1.07-.42-2.14-.59-3.22-.03,0-.05,0-.08,0-.51-.02-1.02-.06-1.52-.05-.3.95-.52,1.92-.67,2.9-.11.6-.07,1.26-.39,1.8-.27.72-1.3.91-1.82.34-.96-1.93-.51-4.31-.45-6.41.16-1.85,2.14-2.65,3.78-2.58,1.6.07,3.79-.61,4.69,1.16.69,1.62.75,3.65,1.19,5.31.04.66.42,1.24.4,1.9,0,1.45-1.64,2.49-2.95,1.87Z"/>
    <path class="cls-1" d="m156.64,137.3c-1.39-.38-1.18-2.01-1.41-3.13-.48-2.5-1.16-4.95-1.78-7.41-.76-2.57-2.35-5.59,1.73-5.75,3.17-.47,6.42-.93,9.61-.87,1.01-.05,2.37-.57,3.09.4.5.82.7,1.81.75,2.76.04.95-.11,1.9.02,2.84.45,1.87.86,3.75,1.08,5.67.1,1.17.92,2.45.22,3.57-.58.9-1.76.94-2.71,1.13-1.43.23-2.85.55-4.3.57-1.11.05-2.23.02-3.34.09-.99,0-2,.35-2.98.14Zm-.45-11.2c.68,2.77,1.51,5.53,1.93,8.36,1.85-.22,3.71-.11,5.56-.25,1.2-.11,2.38-.38,3.57-.56-.48-2.2-.66-4.46-1.29-6.63-.4-1.5.1-3.07-.3-4.55-2.04.18-4.1.23-6.12.58.01,0,.03,0,.04,0-1.38.22-2.76.44-4.13.7.22.79.51,1.57.74,2.36Z"/>
    <path class="cls-1" d="m161.43,172.19c-2.96.01-2.34-3-2.57-5.03-.18-1.88-.81-3.68-1.24-5.51-.32-1.36-.57-2.74-1.15-4.02-.4-1.32-1.82-3.03-1.23-4.39.41-.89,1.48-.89,2.32-1.02.79-.12,1.58-.23,2.37-.36,1.88-.33,3.76-.72,5.66-.94,1.6-.89,3.57-.88,5.36-1.06.9-.07,1.98-.22,2.64.54.81.97.82,2.35,1.26,3.5.88,2.21,1.3,4.55,1.82,6.86.51,1.56.84,3.16.83,4.81-.02,1.31.24,3.02-1.03,3.85-2.3,1.14-4.93,1.37-7.42,1.84-2.52.38-5.06.92-7.61.93Zm-.08-7.27c.31,1.47.43,2.97.44,4.46,2.72-.17,5.41-.69,8.1-1.13,1.61-.26,3.23-.54,4.77-1.1.05-1.26.03-2.54-.2-3.78-.23-.96-.56-1.89-.76-2.85-.42-2.71-1.43-5.25-2.15-7.88-4.45.48-8.84,1.45-13.25,2.22,1.59,3.16,2.12,6.68,3.04,10.06Z"/>
    <path class="cls-1" d="m147.46,119.7c-.27-.08-.41-.39-.32-.65.16-.55.44-1.05.8-1.49.3-.36.69-.64,1.03-.97,0,0,0,0,0,0,.25-.2.56.04.51.33-.14.39-.48.66-.72.99-.17.23-.31.48-.43.74-.09.23-.16.48-.23.72-.08.26-.4.41-.65.32Z"/>
    <path class="cls-1" d="m148.81,121.84c-.3-.21-.11-.54.09-.74.24-.31.48-.63.59-1.02.03-.1.05-.21.05-.32-.05-.1-.03-.23.05-.32.18-.21.54-.05.51.22.03.5-.18.98-.41,1.42-.21.31-.37,1.05-.87.76Z"/>
    <path class="cls-1" d="m152.07,173.64c-.12-.41,2.37-1.74,2.8-2.09.71-.45,1.42-.9,2.14-1.34.25-.15.48.24.23.39-1.27.77-2.54,1.54-3.79,2.35-.3.11-1.19,1.1-1.38.69Z"/>
    <path class="cls-1" d="m153.11,175.17c-.1-.14.04-.24.15-.31.17-.12.34-.23.51-.34.51-.33,1.02-.66,1.54-.98.12-.08.27-.19.37-.03.05.08.02.18-.06.23-.73.44-1.48.89-2.18,1.37-.1.08-.22.18-.33.06Z"/>
    <path class="cls-1" d="m148.9,97.02c-.16-.03-.2-.22-.25-.35-.08-.21-.14-.43-.21-.65.1-.02.2-.04.29-.06.07.27.15.54.26.81.12.07.06.26-.07.26,0,0-.02,0-.02,0Z"/>
    <path class="cls-1" d="m154.49,96.18c-.1-.03-.15-.13-.12-.23.07-.2.15-.39.24-.58.06-.12.13-.24.2-.35.14,0,.27,0,.41-.01-.14.19-.26.4-.37.61-.06.14-.11.27-.16.42-.02.08-.09.14-.17.14-.01,0-.02,0-.04,0Z"/>
    <path class="cls-1" d="m151.8,95.75c-.23-.04-.37-.15-.46-.3.11-.01.23-.03.34-.04-.05,0-.09.01-.14.02.11-.01.21-.03.32-.04.03,0,.06,0,.08-.01.07.03.12.08.11.19,0,.11-.11.2-.22.19-.01,0-.02,0-.04,0Z"/>
    <path class="cls-1" d="m172.67,141.27c.18-1.14,2.61-3.11,3.51-3.93.33-.28.76.22.43.5-1.21,1-2.51,1.96-3.35,3.3.22.45-.6.63-.59.14Z"/>
    <path class="cls-1" d="m173.65,142.26c-.12-.11-.14-.32-.02-.44.52-.52,1.03-1.05,1.58-1.54.29-.25.67.19.38.44-.08.08-.17.16-.24.23-.24.23-.46.46-.69.7-.28.2-.61.91-1,.61Z"/>
    <path class="cls-1" d="m173.93,144.52c-.32-.1-.28-.58.04-.64.19-.15.37-.32.55-.48.95-.89,1.9-1.78,2.87-2.66.43-.39.86-.8,1.26-1.2.29-.23.55-.73.91-.79.34-.04.58.42.33.67-1.14,1.12-2.39,2.12-3.57,3.2-.47.42-.92.84-1.38,1.26-.3.21-.6.73-1,.64Z"/>
    <path class="cls-1" d="m98.21,117.14c-2.87-.06-5.72-.65-8.59-.6-1.49.02-9.85.31-9.95-1.31-.14-.51.29-1.03.81-1.02,3.74.59,7.56-.26,11.31-.41,1.78-.06,3.64.08,5.41.03,3.13-.17,6.24-.65,9.38-.59,3.2.03,6.37-.45,9.56-.5,7.38.16,14.77-.26,22.13-.78-.72-3.57-2.31-6.87-3.22-10.37-.78-2.89-.75-5.87-.97-8.83-.24-3.39-1.65-6.54-2.07-9.89-.48-4.02-.9-8.05-1.32-12.07-.23-2.78-.66-5.54-.61-8.34.05-2.26.35-4.5.53-6.76.33-4.65.12-9.31-.27-13.95-.21-2.44-.03-4.9-.39-7.33-.16-2.77-5.59-2.39-7.62-2.82-6.11-.59-12.21-1.49-18.33-1.9-5.71-.36-11.43-.03-17.15-.05-8.21.23-16.42.53-24.63.77-5.6.49-11.2.62-16.82.83-4.71.13-9.41.55-14.11.67-2.69.03-5.37-.22-8.06-.16-2.76-.12-2.92,3.45-3.56,5.42-1.08,4.8-.24,9.75-.38,14.62-.22,6.76,1.31,13.39,1.89,20.09.16,3.23-.3,6.45-.17,9.69.39,6.07.45,12.24.03,18.26-.61,1.64-3.21,1.63-3.78-.06-.5-1.25-.34-2.6-.28-3.92.05-1.16.08-2.32.11-3.49.14-3.94-.22-7.88-.33-11.82-.02-2.29.18-4.56.22-6.85.04-1.74-.15-3.48-.42-5.2-.56-3.67-1-7.35-1.37-11.05-.23-3.18-.09-6.37-.17-9.55-.05-2.75-.28-5.51-.02-8.26.18-2.08.66-4.13,1.27-6.13.63-2.27,1.92-4.54,4.18-5.5,2.53-.91,5.32-.38,7.95-.38,4.45.2,8.88-.32,13.32-.46,7.46-.29,14.79-.54,22.25-1.07,12.37-.24,24.74-.95,37.12-.78,4.88.13,9.72.74,14.57,1.29,4.3.53,8.65.74,12.9,1.58,3.87.9,5.65,3.39,5.76,7.33.14,2.94.15,5.89.44,8.82.29,4.12.33,8.27-.01,12.39-.17,2.16-.47,4.31-.46,6.47.2,4.29.74,8.57,1.22,12.84.34,2.9.46,5.85,1.15,8.7.5,1.97,1.14,3.92,1.42,5.94.45,2.8.24,5.68.76,8.46.66,3.54,2.31,6.78,3.16,10.27.37,1.62,1.05,3.37.37,4.99-.87,1.96-3.27,1.68-5.06,1.84-3.79.36-7.6.39-11.41.53-3.6.32-7.21.03-10.81.04-2.49.09-4.97.35-7.47.27-3.14-.13-6.28.01-9.42.05Z"/>
    <path class="cls-1" d="m141.34,32.96c-2.26-.3-4.71-.18-6.96-.2-2.6-.09-5.16-.69-7.78-.6-.75-.02-1.5-.07-2.25-.07-1.82.06-3.8.45-4.07-2,.07-2.21,2.1-2.23,3.8-2.22,2.83.09,5.67.1,8.45.63,3.49.54,7.18-.12,10.55,1.09,0,0,0,0,0,0,2.06,1.34.47,3.9-1.74,3.37Z"/>
    <path class="cls-1" d="m18.27,32.38c-.9-.66-.82-1.95-.9-2.95-.06-1.76-.02-3.53-.27-5.27-.69-4.43-2.2-8.67-3.11-13.05-1.79-6.62,6.97-8.52,11.82-9.14,3.57-.44,7.16-.4,10.74-.62,3.14-.16,6.25-.6,9.4-.67,5.53-.1,11.07.09,16.59-.48,3.77-.25,7.55-.09,11.32-.02,2.48.02,4.95-.16,7.42-.17,5.22-.04,10.41.79,15.63.76,2.27.15,4.64.68,6.87.98,4.23.51,8.48.73,12.66,1.56,4.7.49,9.42.33,14.14.49,1.53-.05,3.21-.14,4.4,1,2.73,2.79,2.88,7.2,3.96,10.78.94,3.71,2.58,7.19,3.68,10.85.45,1.63,1.45,3.24,1.13,4.98-.29,1.64-2.54,2.24-3.6.95-.51-.49-.46-1.19-.6-1.82-.35-1.13-.79-2.24-1.12-3.38-1.24-3.79-2.88-7.45-3.79-11.35-.73-2.59-.93-5.49-2.4-7.8-2.72.03-5.43-.07-8.14-.15-2.57.09-5.13-.07-7.68-.31-1.53-.15-3.03-.52-4.55-.73-2.27-.25-4.54-.4-6.81-.68-3.57-.33-7.07-1.3-10.68-1.23-3.42.01-6.81-.47-10.23-.64-3-.15-6,.09-9.01.12-3.35.03-6.69-.19-10.04-.08-3.47.12-6.92.53-10.39.55-3.1.03-6.21-.09-9.31.06-2.67.11-5.32.44-7.98.61-5.02.35-10.15.07-15.06,1.36-1.46.43-2.97.94-4.14,1.94-.86.57.58,4.19.67,5.16.94,3.5,1.8,7.06,2.05,10.69.04,2.26-.28,4.55-.92,6.71.12.3-.05.69-.36.79-.3.46-.96.5-1.4.21Z"/>
    <path class="cls-1" d="m105.56,115.35c-1.02-.51-.89-1.85-1.1-2.81-.24-1.53-.56-3.04-.73-4.58-.21-3.28-.95-6.5-1.2-9.78-.76-5.09,3.99-6,7.99-5.43,1.31.1,2.6-.18,3.91-.11.77.03,1.53.13,2.3.19.8.1,1.65-.04,2.41.26,1.64.82,1.92,2.84,2.24,4.47.47,2.27.67,4.58.86,6.89.13,1.55.51,3.08.5,4.64-.11,1.67-.02,3.35-.04,5.03-.11,1.12-1.61,1.63-2.38.82-.5-.43-.41-1.17-.42-1.73-.13-1.52.02-3.04.01-4.55-.26-2.3-.57-4.59-.76-6.9-.27-2.02-.41-4.15-1.2-6.04-1.31-.03-2.6-.2-3.9-.26-1.15,0-2.14.19-3.23.14-1.78-.05-3.98-.63-5.42.74-.24.65-.07,1.39-.07,2.08.15,2.25.67,4.46.81,6.71.08,2.9.55,5.76.61,8.66.75.71-.29,1.99-1.17,1.58Z"/>
    <path class="cls-1" d="m80.21,110.91c-.15-.09-.28-.2-.38-.34-.04,0-.08.02-.12.02-.22.04-.43.09-.64.15-.64.68-1.64-.43-.9-.99.45-.28.98-.29,1.48-.41.32-1.22,4.36-1.42,5.47-1.48,3.09-.23,6.12-.95,9.22-1.05,2.36-.26,4.68-.82,7.07-.72.97.05,1.99-.19,2.92.12,1.36.63.65,2.45-.73,2.4-2.21.28-4.33.13-6.52.41-3.07.45-6.17.54-9.23,1.12-1.61.26-3.27.2-4.86.45-.91.14-1.88.77-2.77.32Z"/>
    <path class="cls-1" d="m121.89,107.69c-1.3.08-1.07-1.53.19-1.32.86-.98,4.39-.96,5.72-1,2.21-.04,4.42-.55,6.63-.62-.06,0-.11,0-.17.01.83.03,1.76-.32,2.53.05.99.52.78,2.12-.31,2.37-.42.1-.84.1-1.27.14-3.15.22-6.24.87-9.41.81-1.29-.06-3.18,1.18-3.91-.44Z"/>
    <path class="cls-1" d="m82.59,115.15c-.79-.03-1.35-.81-1.21-1.57-1.13-1.52-1.43-3.72,1.06-3.66.45-.26,1.03-.12,1.36.28.09-.02.17-.04.26-.06.07-.02.13-.04.2-.05.48-.65,1.48-.44,2.19-.6,1.72-.18,3.43-.35,5.15-.51,3.28-.38,6.62-.82,9.92-.52.25-.86,1.35-1.26,2.1-.76.72.44,1.07,1.26,1.47,1.97.24.59.74,1.11.71,1.78-.13.53-.14,1.13-.52,1.55.2,1.96-2.01,2.52-3.09,1-.87.14-1.76.13-2.63.21-.88,1.32-3.76.79-5.22.98-3.91,0-7.83.19-11.74-.02Z"/>
    <path class="cls-1" d="m124.2,113.8c-.81-.05-1.53-.65-1.76-1.42-1.33-1.16-.73-3.11.21-4.31.86-1.08,2.05-.81,3.13-.3.1-.03.21-.06.31-.09,1.89-1.51,5.95-1.65,8.35-1.64,2.32.06,5.39.45,3.62,3.47,1.34.82,1.2,2.33-.22,2.92-1.04.3-2.13.31-3.2.46-2.49.32-5.06.85-7.53.2-.49.34-1.1.51-1.69.51-.39.14-.81.23-1.23.2Z"/>
    <path class="cls-1" d="m116.45,105.47c-1.85-.36-1.11-3.21.64-2.93,2.03.33,1.26,3.32-.64,2.93Z"/>
    <path class="cls-1" d="m89.14,110.09c-2.23-.8-2.79-7.32-3.51-9.53-.58-2-1.26-3.98-1.44-6.07-.22-1.65-.43-3.35-1.14-4.87-2.21.31-4.45.19-6.67.4-4.57.38-9.14.6-13.72.86-2.34.1-4.68-.16-7.02-.04-3.61.2-7.23.35-10.84.56.18,1.32.2,2.69.69,3.95.37,1,1.27,2.02.83,3.14-.52,1.23-2.24.81-2.39-.45-.56-.97-1.13-1.95-1.38-3.06-.23-1.03-.41-2.07-.49-3.1-.43-1.7.54-3.1,2.3-3.25,2.79-.23,5.68-.24,8.43-.47,3.34-.3,6.67-.04,10.01-.11,6.08-.27,12.06-.85,18.11-1.07,1.09,0,2.25-.46,3.3-.01,2.34,1.25,2.48,5.7,2.88,8.08.23,1.81.94,3.5,1.37,5.26.36,1.65.75,3.3,1.11,4.96,1.32,1.16,2.44,5.19-.45,4.81Z"/>
    <path class="cls-1" d="m42.34,80.79c-1.74-.09-2.33-1.41-2.68-2.91-.42-1.44-.85-2.88-1.42-4.26-.41-1-.81-2.01-1.33-2.95-.37-.77-1.2-1.35-1.21-2.26.02-1.42,1.62-1.53,2.7-1.65,1.84-.25,3.67-.48,5.52-.68,1.48-.15,2.93-.22,4.41-.32,1.27-.2,2.93-.12,3.29,1.39,1.23,3.48,2.89,6.87,3.58,10.51.03,2.64-3.31,2-5.08,2.37-2.58.35-5.17.9-7.78.77Zm1.41-2.8c2.83-.16,5.6-.81,8.43-1-.85-2.97-2.07-5.79-3.14-8.68-.08-.05-.16-.11-.24-.19-.02-.02-.05-.05-.07-.07-3.17.36-6.33.69-9.47,1.23,1.53,2.73,2.48,5.73,3.37,8.72.37.03.75.01,1.12,0Z"/>
    <path class="cls-1" d="m104.07,79.4c-1.75,0-2.69-1-2.69-2.73-.15-1.38-.37-2.75-.64-4.11-.19-1.27-.27-2.56-.62-3.8-.23-.94-.73-1.84-.78-2.82-.09-1.3,1.22-1.87,2.34-1.74,1.51-.03,3.03-.04,4.54-.11,1.5-.08,3.01-.09,4.51-.05.88.1,1.91-.12,2.69.35.58.43,1.06,1.09,1.07,1.84.55,2.7,1.36,5.37,1.68,8.12.94,3.86.09,4.89-3.87,4.79-2.75.09-5.49.14-8.23.26Zm-.28-5.63c.17.94.28,1.88.4,2.82,3.25-.18,6.27-.17,9.49-.32-.42-2.12-.68-4.27-1.2-6.36-.26-1.1-.66-2.18-.77-3.32,0,0-.02-.02-.03-.03-.14-.14-.26-.32-.33-.51-3.05.1-6.08.4-9.12.6.95,2.27,1.01,4.75,1.55,7.12Z"/>
    <path class="cls-1" d="m114.69,57.47c-2.55-.45-5.14-.22-7.7-.52-1.6-.2-3.27-.19-4.82-.71-.84-.3-1.27-1.14-1.24-2.01-.42-3.3-.79-6.64-.81-9.97.13-2.63,2.82-1.85,4.62-1.83,2.61.25,5.2.81,7.83.81,2.84-1.05,2.6,4.78,3.15,6.45.37,1.53.8,3.04,1.15,4.57.55,1.69-.09,3.59-2.17,3.21Zm-.85-2.96c.07,0,.13.02.2.03-.51-2.09-1.19-4.15-1.44-6.3-.17-1.1-.3-2.25-.77-3.27-.27.02-.54.05-.8.07.02,0,.04,0,.06,0,.02,0,.03,0,.05,0-2.83.1-5.63-.57-8.46-.33.25,3.02.52,6.05,1,9.05,3.36.56,6.78.49,10.16.76Z"/>
    <path class="cls-1" d="m70.43,55.53c-2.09-.28-2.88-1.15-3.03-3.23-.27-1.26.11-2.56-.23-3.82-.26-.89-.11-1.83-.26-2.74-.36-1.37-.79-3.07.24-4.26.57-.64,1.49-.6,2.26-.78,2.12-.4,4.28-.43,6.42-.67,1.08.02,2.16.07,3.24.04,1.32.07,2.29,1.29,2.55,2.51.14,1.24.5,2.42.81,3.63.18,1.46.83,2.8,1.13,4.23.2.91.63,1.79.68,2.73-.08,2.53-3.93,2.12-5.71,2.13-2.7.06-5.41.56-8.11.22Zm1.43-2.71c1.91.02,3.82-.13,5.72-.31,1.21-.07,2.42.13,3.62-.08-.41-1.57-.9-3.11-1.35-4.66-.14-.95-.39-1.86-.67-2.77-.22-.68-.11-1.47-.44-2.11-.95.07-1.91-.05-2.86-.02-1,.07-1.99.25-2.99.26-.48.02-.95.05-1.42.12-.39.22-.91.23-1.31,0-.29.06-.59.12-.88.18.05.89.45,1.72.49,2.62-.04.99.17,1.94.34,2.91.09,1.22-.11,2.46.2,3.67.5.14,1.03.17,1.55.19Z"/>
    <path class="cls-1" d="m76.78,79.49c-4.37-.29-5.36.07-5.97-4.73-.4-1.41-.8-2.81-1.13-4.23-.28-.75-.65-1.47-.81-2.26-.33-1.57-1.34-3.9,1.04-4.28,1.62-.29,3.23-.63,4.87-.81,1.95-.26,3.91-.44,5.88-.56,1.83-.05,2.76-.8,3.52,1.44.26.73.34,1.5.55,2.24.4,1.18.58,2.4.74,3.63.27,1.39.72,2.38.77,3.74.78,3.01,2.11,5.94-2.46,5.74-1.13.02-2.26-.07-3.39-.05-1.2.01-2.41.17-3.61.12Zm-.34-2.84c1.19.09,2.37-.05,3.55-.08,1.37-.06,2.74.07,4.11.03-.18-.85-.51-1.66-.64-2.52-.04-1-.36-1.93-.6-2.89-.2-.82-.29-1.67-.4-2.51-.28-1.16-.63-2.31-.86-3.48-3.49.24-6.96.61-10.41,1.21.15.52.28,1.06.43,1.58.28.73.67,1.43.85,2.19.27,1.18.6,2.37.97,3.52.23.9.3,1.84.56,2.74.81.11,1.62.17,2.43.22Z"/>
    <path class="cls-1" d="m39.71,58.38c-1.23-.05-2.84-.44-3.13-1.82-.08-.81.09-1.62-.1-2.43-.21-1.78-1.01-3.41-1.25-5.18,0,0,0,.01,0,.02,0,0,0,.06,0,.06-.14-1.76-1.13-3.35-1.13-5.12-.04-1.05.72-2.04,1.83-1.99,1.74-.33,3.5-.36,5.26-.19,1.87,0,3.74-.06,5.61-.03,1.28.1,4.95-.71,4.36,1.54.86,1.25.94,2.89,1.16,4.35.33,1.46.61,2.92.73,4.42.19,1.39.79,2.76.63,4.18-.26,1.83-1.9,2.24-3.44,2.13-3.51.05-7.02.15-10.52.07Zm1.99-2.79c3.06,0,6.12-.07,9.19-.1-.21-1.17-.52-2.32-.69-3.51-.1-.82-.11-1.66-.34-2.46-.27-.98-.39-2-.52-3.01-.09-.84-.6-1.62-.56-2.47-2.35.15-4.7.11-7.05.22-1.6-.03-3.22-.32-4.8.08.46,1.57.98,3.11,1.18,4.75.54,2.12,1.34,4.21,1.31,6.44.76.09,1.52.05,2.28.06Z"/>
    <path class="cls-1" d="m54.75,22.68c-.95-.15-1.67-.94-1.78-1.88-.44-1.64-.47-3.36-.87-5-.32-1.32-1.13-4.21-.5-5.4.8-1.1,2.4-.66,3.57-.88,1.08-.81,2.55-.37,3.81-.56,1.9-.25,3.82-.11,5.73,0,1.51.21,1.54,1.65,1.6,2.86.11.76.28,1.51.37,2.27.09.79.04,1.59.12,2.38.13,1.88,1.65,4.22.17,5.86-.97.83-3.28.42-4.55.47-2.55-.11-5.13.1-7.67-.13Zm1.3-2.73c2.88,0,5.77.05,8.65.06-.32-1.41-.77-2.81-.76-4.27.06-1.37-.35-2.69-.47-4.05-3.09-.14-6.18.1-9.24.51.09,1.31.54,2.55.82,3.82.2,1.31.3,2.64.63,3.93.13,0,.26,0,.39,0,0,0-.01,0-.01,0Z"/>
    <path class="cls-1" d="m91.69,22.22c-1.47.01-3.46-.38-3.55-2.18-.37-1.71-.63-3.41-.74-5.15-.26-1.6-1.74-4.82-.13-5.97,1.05-.55,2.33-.22,3.47-.23,1.85.13,3.7.03,5.54-.06,1.73-.18,3.58-.3,4.11,1.76.36.84.38,1.76.59,2.64.19.64.44,1.26.61,1.9.34,1.47.66,2.93,1.44,4.23.49.89.61,2.23-.46,2.75-1.04.37-2.21.09-3.29.15-2.56.08-5.06.12-7.59.17Zm.18-2.81c2.69-.07,5.37-.14,8.06-.17-.56-1.09-.68-2.17-.98-3.33-.17-.67-.44-1.31-.64-1.98-.28-.84-.23-1.76-.56-2.58-1.41.09-2.83.13-4.24.24-.83.06-1.85.34-2.52-.3-.62-.01-1.01-.02-1.57,0,.16,1.04.52,2.05.73,3.08.16,1.67.33,3.33.71,4.97.33.06.66.06.99.08Z"/>
    <path class="cls-1" d="m46.68,57.68c-1.37-.04-2.7-.17-4.05-.29-2.04-.16-4.11-.19-6.14-.4-.2-.08-.14-.4.08-.4.44-.01.88-.02,1.32-.03,2.68-.03,5.36-.03,8.03.01,2.31-.04,4.62-.13,6.93-.09.57.14.57,1.02,0,1.15-.2.05-.41.06-.62.08-1.84.06-3.69-.02-5.54-.04Z"/>
    <path class="cls-1" d="m36.6,60.23c-.78-.08-1.36-.79-1.37-1.56-.11-.77-.38-1.62.05-2.35.61-1.07,1.96-.77,2.99-.74,1.67.1,3.34.23,5.02.25,1.91.15,3.82,0,5.73.12.53.02,1.06.06,1.59.1.84-.14,1.7-.31,2.48-.69,1.69-.58,2.27,1.25,2.25,2.59.28,1.5-.37,2.47-1.96,2.36.03,0,.07,0,.1,0-2.51.11-5.03.21-7.54.1-3.11-.31-6.21-.28-9.32-.18Z"/>
    <path class="cls-1" d="m67.76,58.42c-1.37-.13-1.39-1.47-1.47-2.55-.31-1.2.3-2.36,1.65-2.29,1.54.02,3.05-.31,4.59-.26,1.62.01,3.2-.39,4.82-.43,1.79-.1,3.53-.54,5.33-.61,1.01-.22,2.19-.04,2.26,1.22.55,1.07,1.2,2.79-.21,3.49-.76.31-1.62.15-2.43.26-1.16.02-2.3.24-3.46.32-1.54.02-3.06.13-4.59.26-.74.02-1.48,0-2.21.07-1.43.13-2.83.57-4.27.52Zm16.77-2.91s.02,0,.02-.01c0,0,.01-.01.02-.02-.01,0-.03.02-.04.03Z"/>
    <path class="cls-1" d="m102.33,59.39c-1.01-.05-2.28-.25-2.33-1.51-.29-.53-.31-1.16-.48-1.74-.24-.87.3-1.92,1.27-1.94,1.12.09,2.21.36,3.33.33,1.14.01,2.28.16,3.42.19,1.3-.1,2.59-.2,3.89-.11,1.14.01,2.29-.03,3.43.01.66.06,1.41-.02,1.98.32,1.03.8.99,1.03,1.07,2.28.43,2.07-1.31,2.42-2.95,2.08-.95-.18-1.91.02-2.87-.03-1.34-.08-2.67-.06-4,.04-1.16.04-2.32-.08-3.47.02-.76.07-1.53.13-2.29.06Z"/>
    <path class="cls-1" d="m40.57,83.36c-.7-.07-1.27-.66-1.3-1.36-.03-.34-.17-.66-.24-1-.33-1.47.16-2.72,1.82-2.76,1.13-.1,2.26-.17,3.4-.23,1.55-.12,3.08-.38,4.63-.5,1.49-.17,3.01-.22,4.48-.43.59-.04,1.18-.19,1.78-.17.72.07,1.25.83,1.07,1.54.14.28.22.57.26.88.1.32.19.64.2.98,0,1.34-1.16,1.76-2.32,1.64-.46-.03-.92.05-1.39.08-.89,0-1.78.11-2.67.2-1.14,0-2.26.24-3.4.36-.73.11-1.44.35-2.18.43-.98.09-1.97.16-2.95.25-.4.02-.79.16-1.19.11Z"/>
    <path class="cls-1" d="m72.3,82.9c-.29-.04-.58-.22-.78-.43-.15-.16-.26-.36-.32-.57-.5-.39-.55-1.05-.77-1.59-.19-.48-.41-.98-.3-1.51.41-1.78,2.59-1.06,3.9-1.12,3.18-.15,6.36-.27,9.54-.56.78-.07,1.56-.1,2.34-.09.71-.06,1.46.28,1.84.9.14.25.18.55.26.83.18.57.48,1.13.36,1.74-.31,1.53-2.18,1.31-3.37,1.34-1.12.02-2.22.23-3.34.31-1.91.05-3.81.3-5.72.34-1.22,0-2.4.5-3.62.41Z"/>
    <path class="cls-1" d="m102.07,82.45c-.58-.08-.97-.58-1.18-1.08-.07-.17-.09-.38-.1-.56-.08-.38-.19-.74-.28-1.11-.55-1.15-.2-2.53,1.19-2.7.94-.09,1.88.01,2.83-.1,1.26-.03,2.48-.06,3.74-.2.77-.02,1.53-.09,2.29-.2,1.18-.13,2.38-.04,3.57-.15.35-.02.69-.01,1.04,0,.46,0,.93-.15,1.39-.08,1.63.42,1.61,2.5,1.41,3.86-.14.81-.9,1.29-1.67,1.41-.89.16-1.79.35-2.7.37-.87,0-1.74-.02-2.61.07-.87.04-1.75.01-2.62.13-.75.09-1.5.03-2.25.12-.89.13-1.79.18-2.7.17-.45,0-.89.12-1.34.06Z"/>
    <path class="cls-1" d="m87.01,81.57c-.68-.15-1.16-.85-1.06-1.54-.04-.59-.1-1.14-.22-1.72-.85-.66-.58-1.91.44-2.2,1.04-.57,2.08.19,2.26,1.28.18.98.36,1.96.32,2.96-.07.83-.93,1.45-1.74,1.23Z"/>
    <path class="cls-1" d="m108.09,55.68c-.22-.05-.38-.25-.39-.47,0,0,0,0,0,0,0-1.98-.33-3.92-.55-5.88-.16-1.02-.19-2.05-.32-3.07-.05-.62-.03-1.25-.22-1.84-.15-.84,1.1-1.15,1.36-.33.26.88.19,1.8.29,2.7.13,1.72.27,3.44.41,5.16.05.93.14,1.86.04,2.79.03.45,0,1.03-.61.94Z"/>
    <path class="cls-1" d="m101.28,49.67c-.09-.78.91-.72,1.45-.75.7-.03,1.41,0,2.12,0,2.02,0,4.05.09,6.07-.02.71-.06,1.42.07,2.14.09.3-.13.67-.01.84.26.22.33.1.82-.27,1-.44.24-.98.08-1.47.07-1.16-.13-2.32.04-3.48-.02-1.21-.04-2.38-.11-3.57-.1-.82-.01-1.64-.05-2.46-.1-.49-.02-1.23.25-1.37-.43Z"/>
    <path class="cls-1" d="m109.09,78.4c-.51-.11-.53-.65-.57-1.08-.05-.55-.16-1.08-.25-1.62-.15-1.15-.39-2.29-.59-3.43-.12-.58-.26-1.16-.34-1.75-.08-.57-.2-1.13-.29-1.69-.09-.64-.14-1.29-.29-1.93-.09-.48-.14-.96-.22-1.45-.03-.26-.12-.54-.02-.79.3-.75,1.4-.52,1.36.29.1.71.19,1.43.34,2.13.1.55.14,1.11.23,1.66.1.57.2,1.14.29,1.71.11.79.32,1.56.44,2.35.19.98.34,1.96.47,2.94.12.69.21,1.39.22,2.09,0,0,0,0,0,0-.02.38-.42.66-.78.57Z"/>
    <path class="cls-1" d="m102.45,72.73c-.2-.69.48-.95,1.04-.99.56-.1,1.12-.17,1.68-.29,1.37-.26,2.73-.55,4.09-.81.77-.04,1.51-.25,2.28-.28.37-.04.74-.12,1.11-.2.35-.14.78-.02.95.34.15.32.04.69-.25.89-.14.09-.31.12-.47.15-.35.06-.69.16-1.04.21-.79.07-1.54.33-2.32.47-1.07.23-2.15.26-3.21.44-.86.18-1.73.36-2.61.46-.48.11-1.03.21-1.24-.38Z"/>
    <path class="cls-1" d="m78.99,78.51c-.69-.07-.53-.88-.61-1.37-.05-.55-.15-1.09-.27-1.62-.37-1.76-.63-3.55-.93-5.33-.13-.92-.46-1.79-.62-2.7-.12-.6-.18-1.21-.31-1.81-.16-.83,1.1-1.14,1.35-.33.22.88.27,1.79.5,2.67.61,2.22.78,4.53,1.19,6.8.17.78.3,1.56.35,2.36.06.52.1,1.38-.65,1.34Z"/>
    <path class="cls-1" d="m72.57,72.76c-.63-.2-.54-1.19.12-1.28.98-.1,1.94-.28,2.92-.42,2.32-.35,4.63-.91,6.96-1.17.42-.02.9-.28,1.25.06.28.25.32.72.06,1-.5.43-1.26.27-1.87.44-1,.15-1.98.33-2.98.47-1.27.27-2.55.48-3.84.65-.86.09-1.74.37-2.61.25Z"/>
    <path class="cls-1" d="m47.35,79c-.58-.28-.56-1.22-.83-1.75-.25-.61-.48-1.23-.67-1.87-.27-.99-.68-1.94-1.03-2.9-.32-1.03-.48-2.1-1.01-3.06-.24-.61-1.04-1.54-.18-2.01.82-.36,1.08.68,1.36,1.23.69,1.22.85,2.62,1.32,3.92.46,1.09.75,2.23,1.11,3.35.25.69.51,1.38.64,2.11.26.53-.07,1.18-.71.98Z"/>
    <path class="cls-1" d="m40.67,74.89c-.55-.11-.68-.88-.2-1.18.21-.13.36-.11.56-.15.34-.1.68-.21,1.02-.31,1.06-.35,2.14-.6,3.25-.72.41-.04.82-.04,1.22-.09,1.01-.14,2.02-.33,3-.63.34-.12.69-.23,1.03-.35.31-.33.89-.24,1.13.14.2.29.13.71-.14.93-.3.22-.68.3-1.02.42-1.59.54-3.31.88-4.98.94-.85.17-1.72.28-2.56.48-.5.15-1,.3-1.5.43-.26.07-.53.15-.81.08Z"/>
    <path class="cls-1" d="m44.71,57.1c-.42-.93-.27-2.04-.48-3.04-.53-2.79-.65-5.64-1.17-8.43-.05-.69-.51-2.15-.2-2.69.33-.5,1.16-.32,1.25.28.6,3.02.94,6.08,1.19,9.15.19,1.19.34,2.38.41,3.58.02.24.07.49.08.73.04.56-.73.87-1.08.42Z"/>
    <path class="cls-1" d="m37.08,50.68c-.1-.69.6-.81,1.13-.86,1.14-.17,2.29-.1,3.43-.25,2.02-.1,4.02-.33,6.02-.57.85-.19,1.73-.33,2.57-.48.6.04.86.85.39,1.23-.52.4-1.24.29-1.85.45-2.32.47-4.71.6-7.08.76-1.05.15-2.09.24-3.15.22-.53.03-1.32.23-1.46-.49Z"/>
    <path class="cls-1" d="m75.49,55.33c-.73-.15-.36-1.25-.46-1.79-.02-.71-.23-1.41-.29-2.12-.29-2.85-.85-5.67-1.18-8.52.03-.66-.5-1.97-.04-2.4.4-.43,1.19-.11,1.17.48.17,1.16.21,2.33.38,3.49.35,2.25.61,4.5.82,6.77-.01.9.98,4.03-.4,4.1Z"/>
    <path class="cls-1" d="m68.63,49.03c-.55-.13-.61-.96-.08-1.16.85-.23,1.77-.16,2.64-.31,1.56-.21,3.11-.42,4.69-.37.95.04,1.87-.19,2.81-.33.7-.07,1.91-.69,2.2.29.37.13.2.59-.15.6-.3.34-.81.26-1.21.37-.36.07-.71.15-1.07.21-1.48.31-2.96.26-4.47.26-1.78.16-3.57.5-5.36.45Z"/>
    <path class="cls-1" d="m38.03,50.6c-.48-.51.11-1.03.35-1.49.38-.73.69-1.5.78-2.32.07-.91.08-1.83-.16-2.72-.13-.22-.22-.5.06-.66.41-.2.54.27.66.57.35,1.01.57,2.1.54,3.17-.01.84-.95,4.6-2.23,3.44Z"/>
    <path class="cls-1" d="m40.34,56.45c-.67-.24-.5-.81-.34-1.34.17-.54.21-1.11.12-1.67-.25-.92-.61-2.08-1.29-2.77-.15-.17-.44-.22-.47-.47-.04-.33.43-.47.58-.18.58.28,1.01.79,1.38,1.31.77,1.03,1.32,2.3,1.1,3.6-.13.62-.16,1.73-1.07,1.51Z"/>
    <path class="cls-1" d="m49.13,49.14c-.64-.38-1.33-.76-1.66-1.46-.83-1.2-.82-2.65-.21-3.95.24-.78,1.02-.25.59.15-.16.83-.17,1.78.28,2.53.46.72.75,1.08,1.55,1.44,1.23.48.45,2.03-.55,1.29Z"/>
    <path class="cls-1" d="m49.45,56.5c-1.29-.9-1.38-2.64-1.39-4.08.02-1.4.63-2.7,1.29-3.9.14-.21.49-.17.57.07.04.11.02.24-.06.33-.1.3-.16.61-.25.91-.35,1.02-.47,2.11-.31,3.18.09.67.19,1.37.54,1.96.12.19.33.3.49.44.69.59-.16,1.64-.88,1.08Z"/>
    <path class="cls-1" d="m71.98,48.72c-.62-.11-.64-.67-.54-1.18.02-.28.03-.56.02-.84-.03-1.28-.47-3.02-1.99-3.14-.3.13-.59-.26-.38-.51.12-.15.36-.16.54-.16.76-.06,1.5.19,2.03.74.59.56.9,1.34,1.04,2.13.12.58.17,1.17.14,1.76,0,.56-.15,1.28-.86,1.19Z"/>
    <path class="cls-1" d="m70.06,53.57c-.13-.34.04-.7.34-.88.17-.14.28-.34.4-.52.15-.23.3-.46.39-.72.18-.51.39-1.02.44-1.57.03-.36,0-.72-.05-1.08-.03-.19-.15-.46.06-.58.29-.11.53.19.71.38.38.42.48,1,.48,1.55,0,.4-.08.79-.2,1.17-.11.4-.22.81-.41,1.17-.28.48-.54,1.01-1,1.35-.36.31-.98.2-1.15-.27Z"/>
    <path class="cls-1" d="m78.72,47.88c-.15-.04-.28-.13-.41-.22-.36-.25-.7-.55-.91-.95-.66-1.26-.31-2.9.73-3.85.2-.15.45-.34.71-.29.1.03.16.15.11.24-.11.17-.26.28-.37.45-.39.57-.53,1.3-.41,1.98.06.32.19.64.38.9.15.17.35.29.54.4.16.09.33.2.41.37.28.52-.22,1.14-.79.97Z"/>
    <path class="cls-1" d="m80.16,53.3c-.48-.29-1.02-.54-1.33-1.04-.48-.62-.89-1.33-.9-2.14,0-1.06.31-2.09.57-3.1.29-.72,1.26-.11.74.48-.14.86-.27,1.74-.17,2.61.1.6.52,1.07.92,1.51.3.27.73.35,1.04.61.69.58-.17,1.64-.87,1.07Z"/>
    <path class="cls-1" d="m41.85,74.23c-1-.23-.34-1.22-.56-1.88-.37-1.03-.98-2.18-2.06-2.59-.35.39-.94-.12-.61-.53-.01.01-.02.03-.03.04,0,.01-.01.03-.02.04.17-.41.71-.35,1.07-.29,1.37.3,2.31,1.52,2.85,2.75.25.53.25,1.12.17,1.69.01.45-.36.85-.82.77Z"/>
    <path class="cls-1" d="m42.63,78.96c-.34-.49.15-1.06.21-1.58.19-1.35.29-2.29-1.01-3.07-.26.02-.36-.36-.13-.48.29-.12.59.1.86.2.51.21.96.55,1.24,1.04.54,1.09.42,2.49.09,3.63-.12.56-.91.74-1.24.26Z"/>
    <path class="cls-1" d="m48.66,73.02c-1.44-.43-2.16-1.7-1.72-3.15.14-.64.37-1.32.89-1.75,1.39-1.21,1.57.37.84.24-.49.4-.61,1.05-.67,1.66-.11.65.05,1.33.72,1.58,1.44.25.95,1.76-.07,1.43Z"/>
    <path class="cls-1" d="m50.88,78.26c-.89-.31-1.77-1.55-2.11-2.41-.3-.96-.6-2.03-.22-3.01.46-1.46,1.65-.42.81-.01-.36.74.01,1.58.29,2.27.22.59.68,1.04,1.11,1.49.18.16.38.29.59.41.63.37.26,1.38-.46,1.26Z"/>
    <path class="cls-1" d="m74.08,71.81c-.14-.36,0-.76-.06-1.14-.06-.57-.27-1.12-.5-1.64-.21-.44-.33-.92-.63-1.31-.3-.67-.83-1.11-1.57-1.2-.31.14-.57-.36-.21-.48.26-.05.53-.05.79-.04.75,0,1.47.34,1.9.96.4.36.65.82.85,1.31.54,1.02.93,2.2.73,3.36-.1.66-1.04.8-1.3.18Z"/>
    <path class="cls-1" d="m75.27,77.84c-.93-.45-.03-1.55.12-2.23.17-.6.22-1.24.13-1.86-.05-.25-.18-.47-.28-.7-.11-.26-.2-.54-.4-.75-.11-.17-.39-.2-.37-.45.01-.11.09-.2.19-.23.54-.02,1.12.85,1.45,1.23.69.8.69,2.07.5,3.06-.08.39-.23.75-.35,1.12-.11.49-.42,1-1,.79Z"/>
    <path class="cls-1" d="m80.52,70.97c-.26-.44-.53-.9-.64-1.4-.23-1.42.18-2.88.88-4.11.9-1.43,1.64-.13.83-.08,0,0,0,0,0,0-.03.03-.05.06-.05.06-.32.45-.41,1.03-.54,1.56-.14.76-.13,1.54.08,2.27.14.37.42.66.59,1.01.32.71-.68,1.31-1.16.69Z"/>
    <path class="cls-1" d="m82.2,77.8c-.42-.19-.64-.61-.86-.99-.52-.82-.88-1.81-.74-2.8.17-1-.07-2.09.4-3.02.45-1.13,1.22-.25.61.01-.39.68-.17,1.46-.11,2.2.05.74.02,1.5.4,2.16.3.54.67,1.03,1.09,1.49.42.52-.21,1.28-.8.95Z"/>
    <path class="cls-1" d="m102.96,50.12c-.87-.77.51-1.44.72-2.16.4-1.25-.22-2.45-1.35-3.04-.41-.06-.19-.6.26-.45.8.23,1.62.67,2.02,1.43.59,1.06.57,2.56-.24,3.5-.36.43-.76,1.17-1.41.72Z"/>
    <path class="cls-1" d="m103.7,55.08c-.3-.16-.43-.53-.31-.85.11-.31.37-.54.56-.8.22-.29.41-.61.55-.95.15-.51.19-1.06.07-1.58-.1-.39-.19-.83-.57-1.05-.11-.07-.22-.12-.34-.18-.09-.04-.18-.1-.2-.2-.01-.07.03-.13.08-.16,0,0,0,0,0,0,.17-.07.37-.02.54,0,.22.03.43.1.62.21.56.36.92,1.16,1.06,1.79.1.64.09,1.33-.16,1.93-.17.38-.36.76-.62,1.09-.15.18-.28.37-.41.55-.2.27-.58.36-.88.2Z"/>
    <path class="cls-1" d="m112.33,49.09c-1.07-.53-1.7-1.9-1.41-3.06.15-.49.54-.84.92-1.15.85-.91,1.38.23.65.35-.33.46-.69,1.04-.43,1.62.21.69.79,1.05,1.44,1.23.91.66-.01,1.83-1.17,1.02Z"/>
    <path class="cls-1" d="m114.08,55.32c-1.15-.1-2.11-.94-2.45-2.03-.45-.99-.68-2.08-.46-3.16.15-.8.81-2.07,1.75-2.01.45.11.29.8-.16.71-1.23,1.06-.35,3.74.59,4.76.3.26.69.33,1.08.36,1.03.18.66,1.63-.34,1.37Z"/>
    <path class="cls-1" d="m103.2,72.29c-.32-.02-.47-.44-.25-.67.09-.11.19-.22.29-.32.38-.37.73-.8.8-1.34.29-1.49-.97-2.8-2.37-3.06-.33-.13-.11-.63.21-.47,1.41.29,2.79,1.36,2.96,2.86.13.81-.1,1.66-.65,2.27-.28.28-.57.7-.99.72Z"/>
    <path class="cls-1" d="m104.27,77.84c-.31-.02-.46-.43-.24-.65.21-.23.48-.39.72-.59.63-.61.86-1.49.63-2.33-.18-.75-.65-1.55-1.36-1.9-.12-.06-.25-.1-.38-.14-.14-.05-.35-.05-.38-.23-.03-.15.19-.23.26-.1.33.07.65.15.94.32.91.56,1.52,1.57,1.65,2.63.12,1.03-.41,2.08-1.24,2.68-.18.13-.37.32-.61.31Z"/>
    <path class="cls-1" d="m112.04,71.29c-.49-.02-.86-.38-1.11-.76-.78-1.03-.92-2.43-.55-3.65.18-.53.52-1.08,1.05-1.3.43-.13.68.5.27.7-.75.69-.67,2.24-.26,3.09.69,1.35.99.61,1.27,1.26.13.41-.3.71-.68.67Z"/>
    <path class="cls-1" d="m113.08,77.14c-.71-.02-1.12-.67-1.49-1.19-.38-.5-.51-1.11-.56-1.73-.09-.61-.1-1.23.04-1.84.07-.37.17-.74.28-1.1.07-.2.09-.43.26-.57.31-.24.65.25.32.46-.28.92-.42,1.91-.19,2.86.07.35.11.72.27,1.05.25.42.54.84.93,1.14.23.14.53.07.76.2.28.19.16.65-.17.7-.15.03-.3.03-.45.02Zm-1.46-5.99s0,0,.01,0c-.01-.01-.03-.02-.04-.03.01.01.02.02.03.03Z"/>
    <path class="cls-1" d="m61.92,18.59c-.15-.21-.11-.54.12-.69.14-.09.28-.19.38-.33.24-.29.21-.75.5-.99.33-.25.82.06.75.47-.02.63-1.05,2.32-1.74,1.54Z"/>
    <path class="cls-1" d="m61.99,19.43c-.14-.31.19-.4.41-.48.23-.08.47-.38.67-.13.18.29-.19.4-.38.52-.21.12-.53.39-.7.09Z"/>
    <path class="cls-1" d="m97.67,18.82c-.14-.11-.05-.36.12-.36.19-.1.39-.26.44-.48-.07-1.1,1.32-.63.67.14-.23.29-.85.9-1.24.7Z"/>
    <path class="cls-1" d="m96.53,18.65c-.14-.49.38-.45.63-.68-.01-.31.44-.41.56-.14.14.34-.22.64-.43.85-.21.24-.61.32-.75-.03Z"/>
    <path class="cls-1" d="m46.55,93.59c-.43-.71.84-1.26,1.34-1.5.41-.26,1.25-.2,1.08.45-.14.35-.4.31-.7.25-.37.12-.75.27-1.03.55,0,.34-.47.51-.69.24Z"/>
    <path class="cls-1" d="m46.77,94.72c-.37-.47.33-.74.61-1.01,0-.37.53-.52.73-.21.23.39-.24.74-.48.99-.22.23-.57.54-.86.22Z"/>
    <path class="cls-1" d="m80.64,91.48s-.07-.1-.09-.16c-.32-.16-.71-.15-1.05-.1-.06.01-.12.03-.17.05-.19.09-.43-.02-.51-.21-.27-.89,1.74-.66,2.21-.53,1.19.11.42,1.73-.39.94Z"/>
    <path class="cls-1" d="m78.4,92.49c-.53-.24-.12-.94.32-1,.27-.07.57-.05.84.01.16,0,.31.14.28.3-.02.17-.21.28-.37.22-.04,0-.08,0-.13,0-.17.02-.39.03-.42.24-.08.21-.33.31-.53.23Z"/>
    <path class="cls-1" d="m80.28,93.15c-.07-.09-.11-.2-.12-.31-.06-.02-.12-.03-.19-.04-.22.13-.5-.04-.53-.27-.04-.24.2-.47.44-.4.37,0,.78,0,1.13.13.31.17.43.6.2.88-.22.3-.71.31-.93,0Z"/>
    <path class="cls-1" d="m79.18,101.03c-.4-.07-2.05-.29-1.87-.88.24-.6,1,.52,2.62.12.56-.09.64.78.08.81-.28,0-.55-.02-.83-.05Z"/>
    <path class="cls-1" d="m78.21,99.45c-.33-.21-.75-.21-1.12-.18-.21.08-.49.15-.6-.11-.16-.66.83-.5,1.23-.52,1.46-.08,1.15,1.05.5.81Z"/>
    <path class="cls-1" d="m79.52,101.96c-.28-.1-.06-.53.19-.37.55.05,1.1-.11,1.63-.27.28-.09.55.23.4.49-.19.31-.63.16-.93.21-.43,0-.87.07-1.28-.06Z"/>
    <path class="cls-1" d="m25.97,16.78c-.03-.36.5-.3.74-.41,1.88-.62,3.8-1.07,5.76-1.3.12-.02.24.06.27.18.09.43-1.13.33-1.4.44-1.25.16-2.48.45-3.68.84-.35.03-1.58.71-1.68.26Z"/>
    <path class="cls-1" d="m128.58,21.48c-1.96-.26-3.94-.34-5.92-.46-.45-.02-.41-.74.04-.71,1.99.14,3.98.23,5.95.52.39.06.31.69-.08.65Z"/>
    <path class="cls-1" d="m125.89,22.23c-.62-.03-1.24-.07-1.86-.11-.12-.03-.64.03-.63-.12,0-.04.03-.06.07-.07.09,0,.17,0,.26,0,.28,0,.58,0,.85,0,.44,0,.88-.01,1.32,0,.2.01.18.31-.02.31Z"/>
    <path class="cls-1" d="m121.9,23.16c0-.5,1.42-.2,1.79-.27,1.17.06,2.34.08,3.51.04.44-.01.89-.03,1.33-.05.14,0,.26.1.27.24-.05.49-.87.21-1.22.31-1.33.05-2.67,0-4-.06-.35-.09-1.68.22-1.68-.2Z"/>
    <path class="cls-1" d="m24.17,38.24c-.07-.13-.01-.29.12-.36,1.13-.59,2.26-1.18,3.4-1.74,1.18-.58,2.37-1.14,3.56-1.7.26-.13.48.27.21.41-1.56.76-3.11,1.52-4.66,2.31-.56.3-1.12.59-1.69.89-.29.1-.7.57-.95.2Z"/>
    <path class="cls-1" d="m24.26,41.16c-.36-.39,1.1-1.16,1.34-1.5.48-.41.97-.83,1.42-1.28.12-.12.32-.1.43.02.39.46-1.17,1.32-1.46,1.68-.37.2-1.4,1.43-1.73,1.07Z"/>
    <path class="cls-1" d="m29.17,39.39c-.13-.18.15-.3.26-.4.3-.22.62-.42.92-.63,1.21-.79,2.42-1.58,3.63-2.36.18-.12.37.15.19.27-.88.56-1.77,1.11-2.65,1.67-.58.37-1.15.74-1.72,1.12-.12.08-.23.17-.33.24-.08.07-.19.19-.3.08Z"/>
    <path class="cls-1" d="m57.79,65.31c-.41-.29,2.12-2.23,2.42-2.67.37-.23,2-2.27,2.24-1.83.39.3-2.14,2.27-2.45,2.71-.37.24-1.96,2.24-2.21,1.79Z"/>
    <path class="cls-1" d="m57.68,68.25c-.08-.07-.09-.19-.02-.27.49-.58.99-1.16,1.48-1.74.2-.23.4-.47.58-.71.06-.18.33-.11.3.08-.12.27-.36.49-.53.73-.36.44-.71.87-1.07,1.31-.16.19-.32.39-.47.58-.06.08-.19.09-.27.02Z"/>
    <path class="cls-1" d="m62.44,64.86s.04-.08.07-.11c.03-.04.07-.05.12-.04.98-.92,1.79-2.01,2.62-3.06.18-.21.51.06.33.28-.78.92-1.56,1.84-2.43,2.68-.18.16-.36.38-.6.45-.09,0-.16-.1-.12-.19Z"/>
    <path class="cls-1" d="m83.49,40.26c-.11-.45-.27-.99-.73-1.19-.16-.04-.35-.1-.33-.3.26-.68,1.18.29,1.3.68.08.28.45.84.04.99-.12.03-.25-.06-.28-.18Z"/>
    <path class="cls-1" d="m99.17,39.64c-.08,0-.14-.08-.14-.16,0-.5.28-.94.57-1.32.32-.42.72-.78,1.13-1.11.07-.06.17-.06.23.01.06.06.06.18-.01.23-.43.34-.85.72-1.17,1.15-.19.26-.34.5-.43.81-.05.14.02.39-.19.39Z"/>
    <path class="cls-1" d="m99.95,40.83c-.3-.52-.01-1.56.52-1.88.31-.2.52.34.15.37-.58.29-.06,1.78-.67,1.5Z"/>
    <path class="cls-1" d="m93.4,91.59c-.36,0-.9-.33-.6-.72.44-.4.43.3,1.32-.13,1.76-.9,2.87-2.69,3.78-4.38.19-.27.23-.63.42-.89.27-.27.8-.04.76.36-.78,1.93-3.39,5.74-5.67,5.75Z"/>
    <path class="cls-1" d="m31.48,86.36c-2.41-1.41-4.81-3.24-5.64-6.03-.17-.65-.29-1.66.44-2,.42-.11.51.46.12.58,0,0,0,0,0,0-.02.03-.04.06-.04.06-.49,1.77,1.61,4.11,2.94,5.12.85.6,1.72,1.01,2.64,1.45.59.28.09,1.18-.45.83Z"/>
    <path class="cls-1" d="m119.43,85.48c-.19,0-.3-.23-.23-.39.11-.19.45-.3.61-.11,2.85-.59,5.69-1.29,8.55-1.87.54-.06,1.22-.39,1.73-.26.29.17.18.63-.15.66-1.97.33-3.94.71-5.9,1.11-1.04.21-2.09.44-3.12.67-.49.1-.98.25-1.48.2Z"/>
    <path class="cls-1" d="m119.59,87.97c-.27-.28.12-.73.43-.51,2.81-.56,5.61-1.22,8.42-1.82.43-.1.59.58.15.67-2.09.4-4.17.78-6.24,1.24-.5.05-2.54.73-2.76.41Z"/>
    <path class="cls-1" d="m122.89,87.3c-.27-.19-.2-.59-.29-.88-.1-.57-.29-1.13-.39-1.71-.1-.39.5-.45.43-.05.2.75.56,1.43.84,2.15.13.34-.28.68-.59.48Z"/>
    <path class="cls-1" d="m126.46,87.06c-.47-.03-.52-.6-.62-.95-.14-.51-.26-1.03-.39-1.54-.31-.27.18-.75.43-.4.19.35.23.77.38,1.14.11.3.25.6.41.88.11.05.19.14.23.25.12.3-.13.64-.45.62Z"/>
    <path class="cls-1" d="m123.94,84.51c-.29-.41-.66-.77-.99-1.15-.15-.16-.14-.42.02-.57.52-.4.77.4,1.03.72.15.23.35.42.49.65.13.33-.32.61-.56.34Z"/>
    <path class="cls-1" d="m124.45,88.06c-.04-.17-.09-.33-.17-.48-.53-.19-.36-1.03.2-1,.45,0,.84.87.95,1.26.15.64-.83.87-.98.22Z"/>
    <path class="cls-1" d="m119.07,43.15c-.67-.31,1.96-3.41,2.32-3.85.51-.5.91-1.21,1.51-1.57.25-.03.43.29.26.48-1.08,1.18-2.14,2.38-3.01,3.73-.3.31-.56,1.47-1.08,1.21Z"/>
    <path class="cls-1" d="m120.7,42.99c-.58-.41,1.07-1.44,1.34-1.81.27-.25.66.17.39.42-.21.19-.41.38-.61.58-.33.19-.72,1.03-1.12.82Z"/>
    <path class="cls-1" d="m122.42,43.01c-.17-.14-.1-.42.09-.5.31-.26.59-.56.85-.87.26-.32.51-.65.76-.99.25-.32.76.09.49.4-.57.7-1.16,1.39-1.85,1.97,0,0,0,0,0,0-.1.07-.24.07-.34-.01Z"/>
    <path class="cls-1" d="m110.89,101.06c-.71-.11-2.41.19-2.71-.57-.15-.58-.15-1.19-.27-1.78-.14-.83-.59-2.16.74-2.1,1.5,0,3,.11,4.49.06.54.06,2-.16,2.18.43.26.2.31.55.31.85.04.28.15.55.23.83.12.5.54.94.42,1.48-.29.9-1.47.58-2.2.69-1.08.07-2.13.16-3.2.12Z"/>
    <path class="cls-1" d="m91.96,148.17c1.94.23,3.69,1.76,3.86,3.76.07,1.33-.3,2.71-.91,3.9-1.02,1.87-3.29,2.62-5.32,2.54-2.09-.09-3.92-1.64-4.68-3.53-.69-1.65-.24-3.6.99-4.88,1.55-1.57,3.93-2.06,6.06-1.78Zm-.83,2.69c-1.53-.05-3.88.59-3.72,2.5.17.92.88,1.71,1.73,2.07.68.24,1.46.12,2.13-.11.65-.36,1.03-1.06,1.46-1.65.16-.46.11-.98.11-1.46-.06-.29-.14-.59-.12-.89-.46-.33-1.03-.46-1.59-.46Z"/>
    <path class="cls-1" d="m90.51,150.33c.33.2.28.64.34.98.1.91.17,1.82.23,2.73.02.46.05.92.06,1.37,0,.15.02.31-.04.45-.09.2-.35.3-.55.2-.13.14-.36.16-.54.16-.4-.06-.43-.52-.49-.84-.12-.65-.14-1.32-.19-1.98-.06-.77-.07-1.54-.1-2.31,0-.16-.05-.32,0-.47.09-.33.53-.48.8-.26.14-.11.33-.11.49-.02Z"/>
    <path class="cls-1" d="m93.39,152.48c.45.02.71.55.36.88-.13.12-.3.16-.48.15-.22.03-.45.06-.67.07-.74.14-1.5.13-2.25.2-.7.04-1.4.05-2.1.07-.33,0-.65,0-.93,0-.28.04-.57-.02-.62-.35,0,0,0,0,0,0,0-.08,0-.15.04-.22-.07-.13-.08-.28-.04-.42.15-.44.64-.47,1.03-.49.78-.04,1.56.06,2.33.14.8.09,1.6.01,2.39-.02.31-.01.62-.05.92,0Z"/>
    <path class="cls-1" d="m190.32,137.88c-.92-.05-1.75-.65-1.93-1.58-.09-.38-.04-.78-.04-1.16-.02-1-.33-1.95-.52-2.93-.37-2.26-.99-4.47-1.32-6.73-.2-1.14-.28-2.46.79-3.19.39-.29.87-.33,1.32-.42.36-.07.71-.14,1.07-.21,1.18-.24,2.39-.3,3.59-.42.79-.08,1.59-.15,2.39-.2.19-.01.37-.02.56-.03.28-.08.55-.16.84-.21,1.19-.2,2.62.19,3.21,1.33.38.77.38,1.66.63,2.48.72,2.19,1.52,4.35,2.28,6.52.27.86.62,1.69.85,2.55.29,1.04.03,2.28-1.04,2.76-.53.24-1.07.27-1.6.34-1.26.17-2.51.34-3.78.47-1.56.21-3.13.3-4.7.46-.87.07-1.73.24-2.61.17Zm-.73-11.14c.28,1.51.68,3,.93,4.51.22,1.27.64,2.51.64,3.8,1.23-.11,2.45-.27,3.69-.34,2.1-.19,4.26-.46,6.34-.74-.24-.67-.47-1.34-.7-2.01-.5-1.45-1.06-2.89-1.53-4.35-.27-.77-.57-1.52-.78-2.31-.16-.56-.25-1.14-.37-1.72-.18-.03-.37.02-.55.06-.35.1-.7.21-1.06.29-1.11.23-2.23.4-3.33.65-.71.15-1.43.3-2.15.45-.55.09-.91.22-1.42.12.09.53.19,1.06.29,1.59Z"/>
    <path class="cls-1" d="m191.54,171.36c-1.48-.11-3.17-.9-3.53-2.47-.19-1.22.08-2.47-.09-3.7-.23-3.02-1.1-6-1.11-9,0,.05,0,.1,0,.16.06-1.31-.15-2.57-.52-3.82-.33-2.09,1.58-2.3,3.16-2.42,1.36-.18,2.62-.39,3.93-.46,2.21-.13,4.43-.25,6.63-.54,1.15-.1,2.31-.51,3.47-.25.84.25.98,1.49.19,1.9.23,1.57,1.04,3.05,1.23,4.65.19,1.04.18,2.1.31,3.15.51,2.31,1.28,4.57,1.44,6.96-.03,1.31.77,2.95-.27,4.02-1.6,1-3.66,1.05-5.5,1.15-3.12.07-6.21.77-9.33.7Zm.62-2.79c2.33-.09,4.65-.43,6.97-.64,1.62-.12,3.29-.02,4.87-.47-.16-2.74-.77-5.39-1.51-8.02-.21-1.05-.2-2.22-.33-3.26-.2-1.67-.98-3.19-1.3-4.82-3.87.73-7.77.7-11.62,1.48.52,1.7.24,3.5.48,5.24.48,3.38,1.28,6.74,1.03,10.15.4.3.93.35,1.41.35Z"/>
    <path class="cls-1" d="m204.76,173.18c-.12-.21-.05-.46.15-.59.81-.51,1.62-1.01,2.44-1.49.58-.22,2.69-1.78,3.02-1.01.08.19,0,.45-.21.52-1.29.5-2.47,1.24-3.64,1.97-.49.19-1.32,1.23-1.77.6Z"/>
    <path class="cls-1" d="m205.12,174.85c-.19-.47.57-.56.85-.75.69-.33,1.39-.65,2.08-.96.14-.06.31,0,.38.15.2.48-1.18.74-1.5.98-.39.18-.79.36-1.17.55-.19.11-.47.3-.63.04Z"/>
    <path class="cls-1" d="m206.46,176.66c-.61-.45.42-.68.75-.84,1.32-.66,2.6-1.38,3.9-2.05.48-.14,1.93-1.37,2.18-.71.07.18,0,.41-.19.48-1.56.61-3.03,1.45-4.52,2.22-.69.29-1.37.85-2.12.9Z"/>
    <path class="cls-1" d="m202.67,123.52c-.48-.06-.31-.57-.33-.9-.14-1.16-.39-2.94-1.8-3.14-.15.23-.53.14-.56-.13.11-.79,1.26-.39,1.65-.03.75.27,2.28,4.24,1.04,4.2Z"/>
    <path class="cls-1" d="m200.53,143.42c-.33-.51,4.18-1.53,4.73-1.76,1.24-.33,2.48-.65,3.73-.94.37-.08.49.5.11.57-2.09.42-4.16.93-6.19,1.57-.48.16-.96.31-1.44.48-.29.05-.76.46-.95.07Z"/>
    <path class="cls-1" d="m201.66,145.38c-.42,0-.17-.65.12-.36,2.18-.64,4.32-1.42,6.49-2.09.15-.05.31.03.36.18.24.51-1.69.68-2.06.88-1.65.39-3.24,1.11-4.91,1.39Z"/>
    <path class="cls-1" d="m204.32,145.17c-.32-.13-.34-.55-.51-.81-.24-.51-.51-1.03-.87-1.47-.49-.14-.05-.81.3-.46.6.66,1.11,1.43,1.57,2.19.16.3-.17.67-.49.55Z"/>
    <path class="cls-1" d="m206.46,143.87c-.22-.47-.39-.97-.74-1.36-.78-.12-.19-1.15.38-.64.49.43.82,1.01,1.23,1.51.38.57-.57,1.12-.87.49Z"/>
    <path class="cls-1" d="m204.22,142.39c-.25-.23-.18-.6-.35-.88-.12-.35-.65-.72-.26-1.08.81-.43.99.99,1.14,1.52.13.32-.25.64-.53.43Z"/>
    <path class="cls-1" d="m205.67,145.82c-.21-.47-1.31-1.06-.9-1.56.48-.49,1.16.63,1.6.87.5.45-.26,1.2-.7.69Z"/>
    <path class="cls-1" d="m109.71,178.37c-2.07-.72-4.45-.63-6.67-.45-4.29.35-8.62.41-12.95.46-4.74-.07-9.48-.3-14.23-.27-3.36-.27-6.95.14-7.61,2.69-.14.5-.09,1,.03,1.49,1.17-.49,2.52-.75,4.05-.71,1.81.05,3.35.5,4.61,1.24,9.75.34,19.48.57,29.16-.2.25.37.44.76.6,1.14.8-.18,1.67-.28,2.6-.26,1.28.03,2.42.27,3.42.67.49-.08.99-.13,1.54-.12-.64-2.37-1.95-4.78-4.57-5.68Z"/>
    <path class="cls-1" d="m320.16,137.74c-2.44-.26-2.2-2.32-2.55-4.19-.29-1.93-.5-3.87-.74-5.81-.15-2.26,2.59-2.45,4.24-2.67,1.31-.11,4.1-1.03,5.13-.26,1.88-.06,2,2.17,2.32,3.54.43,1.61.77,3.25,1.19,4.86.31,1.07.74,2.49-.38,3.25-.95.54-2.12.43-3.16.7-2.01.26-4.02.79-6.06.59Zm.89-3.07c1.89-.11,3.75-.49,5.61-.8-.58-2.21-1.02-4.48-1.62-6.68-1.98.3-3.95.83-5.96.78.51,2.24,1.11,4.46,1.7,6.69.09,0,.18,0,.27,0Z"/>
    <path class="cls-1" d="m320.12,129.76c-.68-.05-.16-1.48.27-1.59.19-.05.39.08.43.27.06.26-.2.41-.28.64-.09.26-.04.68-.43.68Z"/>
    <path class="cls-1" d="m320.67,130.47c-.49-.31.08-.62.01-1-.08-.3.31-.53.53-.32.27.27.03.85-.09,1.15-.07.17-.29.24-.46.17Z"/>
    <path class="cls-1" d="m324.38,132.83c-.3-.16-.16-.45,0-.67.16-.23.35-.52.65-.57.44-.03.5.6.04.59-.22.23-.24.82-.69.65Z"/>
    <path class="cls-1" d="m324.51,133.56c-.09-.1-.07-.25.04-.32.16-.11.33-.22.45-.38.03-.04.06-.09.07-.14-.03-.08.02-.17.1-.19.08-.03.17.02.2.09.07.25-.13.47-.27.65-.14.15-.36.51-.59.29Z"/>
    <path class="cls-1" d="m325.25,164.87c-.67-.08.1-1.51.52-1.52.31-.03.36.43.04.43-.13.19-.23.41-.26.63,0,.2-.04.46-.3.46Z"/>
    <path class="cls-1" d="m325.4,165.69c-.38-.37.2-.65.35-.96-.33-.35.19-.74.49-.39.27.33,0,.75-.18,1.05-.12.26-.38.53-.66.3Z"/>
    <path class="cls-1" d="m330.08,168.1c-.41-.44.22-1.61.75-1.7.49-.04.51.71.01.68-.13.15-.23.35-.24.55,0,.06,0,.13.01.19.03.28-.32.47-.53.28Z"/>
    <path class="cls-1" d="m330,168.98c-.09-.13-.06-.33.08-.41.26-.17.55-.32.73-.58,0-.01,0-.02.01-.03,0,0,0,0,0-.01-.24-.52.63-.63.54.11-.11.48-.55.81-.98,1.03-.13.07-.3.03-.38-.1Z"/>
    <path class="cls-1" d="m322.43,163.51c-.12-.27-.19-.63.15-.76.2-.07.44.03.51.24.12.27.19.63-.15.76-.2.07-.44-.03-.51-.24Z"/>
    <path class="cls-1" d="m318.48,148.79c-.49-.49.38-.94.67-1.29.66-.61,1.32-1.21,2.02-1.78.87-.84,1.12.15.6.2-.69.58-1.33,1.23-1.95,1.89-.29.33-.52.58-.78.91-.13.17-.39.2-.56.07Z"/>
    <path class="cls-1" d="m320.78,148.16c-.15-.15-.14-.4,0-.55.32-.32.65-.64.98-.95.36-.23,1.04-1.27,1.46-.85.13.13.14.37,0,.5-.32.29-.63.59-.94.89-.33.32-.65.64-.96.97-.15.15-.4.14-.55,0Z"/>
    <path class="cls-1" d="m319.03,151.83c-.49-.47.37-.96.62-1.32.67-.67,1.31-1.38,1.97-2.06.38-.35.9.24.49.57-.45.41-.84.88-1.26,1.33-.22.23-.42.45-.62.68-.35.27-.69,1.16-1.21.81Z"/>
    <g>
      <path class="cls-1" d="m313.36,180.81c-.77-1.5-.75-3.24-1.04-4.86-.52-2.95-.9-5.92-1.19-8.91-.33-3.49.03-7-.31-10.49-.27-2.24-.57-4.47-.52-6.72.09-3.99-.9-7.88-1.06-11.84-.13-2.86.51-5.67.91-8.49.51-3.41-.93-11.28.76-13.66.92-1.1,2.52-1.09,3.79-1.57,2.88-.81,5.8-1.7,8.81-1.73,1.99,0,3.98,0,5.97-.08,4.39-.16,8.78-.53,13.17-.69.5,0,1.01-.02,1.52-.04,1.31-.05,2.62-.1,3.88.22,2.97-1.07,4.38,2.64,4.62,4.98.59,3.6,1.22,7.21,1.29,10.86.09,2.93.58,5.83.79,8.76.13,3.1.04,6.21.4,9.3.47,5.55,1.47,11.01,2.25,16.51.92,5.61,1.57,11.73-.77,17.07-1.36,3.02-4.4,4.07-7.53,3.83-2.16.02-4.33.04-6.49.08-7.4-.05-14.78.36-22.18.59-2.59-.11-5.74-.63-7.08-3.12Zm16.04-63.78c-4.97.1-9.93.51-14.71,1.88-.08,3.65.42,7.31.15,10.96-.2,2.13-.75,4.22-.84,6.37-.19,3.32.66,6.59.91,9.88.17,2.27.07,4.55.26,6.82.61,3.84.58,7.73.57,11.61.17,3.7.71,7.37,1.32,11.02.53,3.58-.09,3.32,3.86,3.61,7.63-.32,15.27-.6,22.91-.61,2.19-.04,4.39-.05,6.58-.07,1.2.1,1.95-.8,2.26-1.87.36-1.17.58-2.35.7-3.54.01-.08.03-.17.04-.25,0,.02,0,.05-.01.07.02-.16.05-.31.07-.47,0-.02.01-.04.01-.06.03-.15.06-.31,0-.45,0-.02-.01-.04-.02-.06.15-3.22-.35-6.48-.86-9.65-.37-3.3-1.12-6.53-1.51-9.83-.35-3.72-.93-7.42-.97-11.16-.06-1.89,0-3.77-.21-5.65-.82-6.51-.68-13.2-2.3-19.58-.06-.04-.12-.09-.17-.14-6.02.22-12.02.85-18.04,1.14Z"/>
      <path class="cls-1" d="m338.17,153.19c-.89-.26-1.36-1.11-1.52-1.97-.3-1.02-.46-2.06-.66-3.1-.16-.82-.33-1.64-.55-2.44-.22-1.24-1.19-2.98.08-3.93,2.35-1.51,5.21-1.57,7.91-1.89,1.08-.11,2.84-.56,3.12.93,1.09.67.92,2.16,1.25,3.25.28,1.64.56,3.28.78,4.92.51,3.54-1.73,3.48-4.48,3.68-1.97.11-3.97.95-5.94.54Zm1.32-3.04c1.99-.26,3.95-.69,5.95-.79-.35-2.29-.64-4.61-1.21-6.86-2.46.28-4.92.69-7.39.81.38.93.88,1.81,1.26,2.75.59,1.32.9,2.74,1.39,4.09Z"/>
      <path class="cls-1" d="m325.38,173.14c-3.39-.09-2.39-2.58-3.04-4.8-.46-2.02-2.51-4.98-1.39-6.97.76-1.17,4.12-1.32,5.55-1.74,1.14-.23,2.29-.4,3.44-.55.85-.09,1.92-.44,2.53.36,1.08.15,1.4,1.31,1.61,2.22.68,2.46.95,5.01,1.24,7.54.6,2.81-1.6,3.05-3.78,3.2-2.05.3-4.07.82-6.16.74Zm-1.01-7.74c.69,1.44,1.33,2.96,1.39,4.58,2.16.02,4.22-.67,6.36-.81-.28-2.46-.55-4.93-1.28-7.31-2.5.38-4.96,1-7.48,1.3.26.78.62,1.52,1,2.24Z"/>
      <path class="cls-1" d="m338.32,145.1c-.19,0-.34-.19-.31-.38.08-.44.2-.91.56-1.2.37-.28.7.29.29.5-.13.11-.17.28-.19.44-.02.27.02.63-.35.63Z"/>
      <path class="cls-1" d="m338.58,145.74c-.37-.27.07-.59.21-.86.02-.04.03-.08.03-.12-.06-.14,0-.32.14-.39.18-.09.4.01.45.21.09.4-.19.76-.41,1.07-.1.14-.28.19-.43.09Z"/>
      <path class="cls-1" d="m343.57,148.38c-.23-.12-.1-.33,0-.49.17-.25.47-.73.81-.7.08.02.14.09.12.17-.01.08-.09.13-.16.12-.05.02-.09.06-.12.1-.11.12-.19.26-.25.4-.07.19-.13.51-.4.4Z"/>
      <path class="cls-1" d="m343.5,149.17c-.35-.48.43-.62.59-.98-.12-.33.37-.51.5-.18.14.48-.3.87-.61,1.18-.13.13-.36.11-.48-.02Z"/>
      <path class="cls-1" d="m336.82,128.92c-.42-.39.35-.75.59-1,.45-.37.93-.76,1.38-1.1.66-.52,1.31-1.06,1.97-1.58.2-.19.56-.03.54.25,0,.31-1.3,1.08-1.6,1.37-.48.37-.97.74-1.45,1.1-.32.27-.67.52-.98.81-.05.19-.29.27-.45.16Z"/>
      <path class="cls-1" d="m337.02,130.49c-.58-.32.24-.8.52-1.02.42-.32.84-.64,1.27-.94.29-.21.61.25.32.45-.52.37-1.04.74-1.54,1.14-.2.12-.28.46-.56.37Z"/>
      <path class="cls-1" d="m338.8,131.14c-.47-.03-.51-.63-.12-.83.64-.51,1.27-1.02,1.9-1.53.6-.51,1.19-1.05,1.81-1.54.4-.35.94.25.55.6-.31.26-.63.53-.94.79-.61.53-1.25,1.04-1.88,1.55-.39.25-.89.89-1.32.95Z"/>
      <path class="cls-1" d="m339.54,163.31c-.29-.4,2.22-3.27,2.63-3.76.34-.34.87.2.52.54-.45.45-.88.92-1.28,1.42-.34.42-.69.84-1,1.29-.14.19-.23.39-.32.6-.15.19-.46.15-.55-.08Z"/>
      <path class="cls-1" d="m340.1,164.79c-.4-.36.38-.9.55-1.23.2-.25.39-.51.58-.77.08-.19.33-.26.49-.13.4.33-.38.91-.55,1.23-.28.26-.63,1.21-1.08.89Z"/>
      <path class="cls-1" d="m342.52,163.5c-.34-.28.05-.63.21-.89.29-.42.62-.83.95-1.22.42-.5.8-1.03,1.2-1.55.23-.31.76-.16.79.22.03.44-.69.89-.95,1.25-.32.36-.65.71-.95,1.09-.21.27-.42.53-.61.82-.12.25-.38.49-.65.28Z"/>
      <path class="cls-1" d="m342.21,173.94c-.04-.14.04-.27.16-.32,0,0,0,0,0,0,1.96-.7,3.92-1.48,5.92-2.04.26-.04.55.12.51.41-.03.24-.28.36-.51.3-.46.07-.9.24-1.35.36-.8.23-1.64.51-2.42.77-.59.22-1.18.44-1.78.65-.18.1-.48.13-.55-.13Z"/>
      <path class="cls-1" d="m342.43,175.77s0,0,0,0c-.17-.01-.24-.24-.11-.35.05-.05.11-.06.17-.06.19-.07.38-.16.57-.24.94-.41,1.88-.8,2.83-1.17.39-.15.77-.31,1.16-.46.42-.15.63.47.2.6-1.02.27-2.04.58-3.02.99-.44.17-.87.35-1.31.53-.16.05-.32.16-.49.16Z"/>
      <path class="cls-1" d="m343.84,174.48c-.09-.24-.13-.5-.25-.73-.3-.15-.05-.62.24-.45.27.21.41.56.64.82.31.44-.42.84-.63.35Z"/>
      <path class="cls-1" d="m345.46,174.51c-.35-.17-.28-.64-.42-.95-.25-.18-.14-.6.17-.63.31-.04.41.29.51.5.09.18.19.36.27.55.14.32-.22.67-.53.53Z"/>
      <path class="cls-1" d="m344.06,173.3c-.18-.35-1.04-1.06-.6-1.41.45-.32.87.65,1.19.9.37.4-.25.93-.59.5Z"/>
      <path class="cls-1" d="m344.87,175.6c-.09-.46-.66-1.59.17-1.61.27.03.36.28.34.52.06.25.18.48.3.71.29.55-.57.96-.8.39Z"/>
    </g>
    <path class="cls-1" d="m210.13,124.13c3.02,1.42,6.2,2.06,9.49,2.47,3.54.44,7.1.72,10.66.95,7.06.44,14.14.57,21.22.6s14.33-.06,21.5-.04c6.57.02,13.15.36,19.71.1,6.9-.28,13.81-1.4,19.93-4.76,1.69-.93.18-3.52-1.51-2.59-10.83,5.94-24.03,4.34-35.9,4.26-13.83-.09-27.67.31-41.49-.37-3.78-.19-7.55-.45-11.32-.83s-7.41-.8-10.77-2.37c-1.74-.81-3.26,1.77-1.51,2.59h0Z"/>
  </g>
</svg>