<?xml version="1.0" encoding="UTF-8"?>
<svg id="Layer_1" data-name="Layer 1" xmlns="http://www.w3.org/2000/svg" viewBox="0 0 304.54 255.91">
  <defs>
    <style>
      .cls-1 {
        stroke-width: 0px;
      }
    </style>
  </defs>
  <path class="cls-1" d="M29.7,125.17h0c-.1-.1,0-.2,0-.2,0-.2.1-.3.2-.5.1-.1.1-.2.2-.3.2-.3.5-.7.8-1,0,.2-.1.4-.1.6,0,.3,0,.6-.1.9,0,.2-.1.3-.1.5h-.9Z"/>
  <path class="cls-1" d="M32.5,106.57s0,.1.1.1c-.1,0-.1-.1-.1-.1Z"/>
  <path class="cls-1" d="M32.7,105.97h0c0-.3.1-.6.1-.9h0c.1,0,.3.1.4.1h.4c0,.3-.1.7-.1,1-.3-.1-.5-.2-.8-.2h0Z"/>
  <path class="cls-1" d="M34.4,87.67c-.2-.5-.5-1.1-.7-1.6.3,0,.6,0,1-.1h.7c0,.6-.1,1.2-.1,1.8-.3-.1-.6-.1-.9-.1h0Z"/>
  <path class="cls-1" d="M33.8,73.47c-.5-.1-.9-.1-1.4-.2.1,0,.2,0,.3.1-.3-.1-.6-.2-.9-.2-.1,0-.2-.1-.4-.1-.1,0-.2-.1-.4-.1v-.2h0v-.2c-.1-.4-.4-.8-.8-1-.2-.1-.5-.2-.7-.3-.1-.4-.2-.8-.3-1.2,0-.3-.1-.7-.1-1,.3-.2.6-.3.9-.5.4-.3.8-.5,1.3-.8,1.7,1.8,2.9,3.8,3.7,5.9-.2,0-.5-.1-.7-.1-.1-.1-.3-.1-.5-.1h0Z"/>
  <path class="cls-1" d="M55.1,33.77h0l-.1.1.1-.1h0Z"/>
  <path class="cls-1" d="M167.5,234.47h.3c-.1,0-.1.1-.2.1,0-.1-.1-.1-.1-.1h0Z"/>
  <path class="cls-1" d="M250.1,226.37s.1.1.1.2q-.1-.1-.1-.2Z"/>
  <path class="cls-1" d="M249.4,224.87c1,0,2.1-.1,3.1-.1-.1,0-.1.1-.2.1-.3.2-.6.4-.8.6-.2.1-.4.3-.5.4,0,0-.1,0-.1.1h-.8c-.3-.3-.4-.7-.7-1.1h0Z"/>
  <path class="cls-1" d="M277,224.47c.4,0,.8-.1,1.2-.1.3,0,.6,0,.9-.1-.2.2-.5.3-.8.5,0,0-.1,0-.1.1-.1.1-.3.2-.4.2-.1.1-.3.1-.4.2h-.1c-.1-.3-.2-.6-.3-.8h0Z"/>
  <path class="cls-1" d="M277.7,225.17q-.1,0-.2.1c0-.1.1-.1.2-.1Z"/>
  <path class="cls-1" d="M135.4,10.77c-.3-.1-.7-.1-1-.2.4.1.7.1,1,.2h.3-.3Z"/>
  <path class="cls-1" d="M50.7,74.87h-3c-5.6-.5-11.1-1.6-16.8-2.2v-.2c-.1-.4-.4-.8-.8-1-.2-.1-.5-.2-.7-.3-.1-.4-.2-.8-.3-1.2,0-.3-.1-.7-.1-1,.3-.2.6-.3.9-.5.5-.3,1-.7,1.5-1,5.4-1.1,10.8-1.3,16.3-1.6,6.5-1.1,13-1.6,19.6-1.4,8.1-.5,16.3-.5,24.5,0,4.6-.3,9.3-.1,13.9,0,3.8.1,7.7.2,11.5.1,3.4-.4,6.9-.4,10.3-.3,3.3,0,6.6.1,9.9-.3,6.5-.9,13-.2,19.6,0,4.7-.1,9.3-.6,13.9-.3,4.3.3,8.5.1,12.8-.1,3.7-.2,7.3-.3,11-.2,13.3-.1,26.5-1.7,39.8-1.1,10.3.2,20.6.7,30.9.4,7.8-1.5,15.7-1.3,23.6-1.5,2.4-.1,4.7-.1,7.1-.1-.1.6-.1,1.2-.2,1.8-.1.9-.1,1.7,0,2.6,0,.6.1,1.1.2,1.7-.1,0-.2.1-.3.1-3.9.5-7.8.9-11.7,1.2h-.2c-.5,0-1-.1-1.5,0h-1c-.2,0-.5,0-.7.1-.3,0-.5,0-.8.1s-.7.1-1,.2c-.2,0-.3.1-.5.1-1.8.1-3.6.2-5.4.3-.4.1-.8.2-1.3.2-.6,0-1.2,0-1.8.1-.4,0-.8.1-1.2.2-.2,0-.3.1-.5.1s-.3,0-.5.1c-.2,0-.4,0-.6.1-.7.1-1.5.1-2.2.2h-.3c-.9,0-1.8-.1-2.6-.1-.9,0-1.8.1-2.7.2-.2,0-.4.1-.6.1h-4.7c-6.5,0-13,.2-19.5.1-.4,0-.9,0-1.3-.1-.7,0-1.5-.1-2.2-.1h-2c-.1,0-.3,0-.4.1-8.9.2-17.8.2-26.8.2h-12c-3.5-.1-7,.2-10.5.4-2.3.1-4.7,0-7.1,0h-.2c-.1-.1-.2-.1-.3-.1h-2.6c-2,0-4,0-6,.2-.3,0-.7.1-1,.1h-.5.1-.7c-.5,0-1,.1-1.6.1h-.6c-2.6.1-5.1,0-7.7-.1-3.3-.1-6.7-.2-10,0-3.2.5-6.3.7-9.5.8h-4.1c-.5,0-.9.1-1.4.1-1.9.1-3.7.1-5.6.3-4.5.6-9,.6-13.6.6h-5.2c-13.7.9-27.5,1.4-41.3,1.6h-9.5c.2.2,0,.2-.2.2h0Z"/>
  <path class="cls-1" d="M43.7,73.67c-2.9-.3-5.8-.2-8.6-.2-.2,0-.5-.1-.7,0-.2,0-.3,0-.5.1h0c-.5-.1-.9-.1-1.4-.2.1,0,.2,0,.3.1-.3-.1-.6-.2-.9-.2-.1,0-.2-.1-.4-.1-.1,0-.2-.1-.4-.1v-.2h0v-.2c-.1-.4-.4-.8-.8-1-.2-.1-.5-.2-.7-.3-.1-.4-.2-.8-.3-1.2v-.3h.2c2.8-.5,5.5-1.2,8.3-1.7,4.2-.6,8.4-.7,12.6-1.4,4.6-.4,16.8-4.3,17.6,1.9,0,4.7-6.8,3.9-10.5,4.4-3.3.4-6.6.6-9.9.6-1.3.1-2.6.1-3.9,0h0Z"/>
  <path class="cls-1" d="M130,66.27c-.5-.9-.2-2-.5-2.9-3.2-2.5-2.7-3.7-2-7.1,0-2.1-5.2-.4-6.8-1.3-1.8-.5-2.6-2.3-1.4-3.7-3-.9-9-1.3-7-5.4.4-.9-2.1-1.7-2.9-2.1-2.5-.7-5.2-1.8-6.3-4.1-1.2-2.4.5-5,.1-7.5-.2-1.6-1.6-2.7-2.7-3.9-3-1.3-6.6-1.2-9.4.3-2.2.9-4.2,2.2-6,3.7-1.9,1.3-3,3.2-3.7,5.2-.5,1.3-.6,2.8-1,4.1-1,2.1-2.5,4.3-5,5.3-.6,3.4-4,6.4-7.9,6.9.6,3.7-3.1,7.7-7.5,6.6-2.2,1.2-2.2,3.9-3.3,5.7-.2.3-.6.6-1,.6-3.1.1-2.5-4.8-2.4-6.6.3-2.9,2.3-5.9,5.6-6.9-.2-2.3,1.6-4.5,4-5.4.7-.3,1.3-.4,2.1-.6.8-.2,1.9,0,2.3-.8-1.5-3,1.6-5.9,5-6.1.8-.8,1-1.7,1.1-2.8.3-2.1,1.2-4,2.4-5.8,1-1.6,2.2-3,3.8-4.1,3.3-2.7,7.1-4.7,11.3-6.1,4.7-1.6,10.4-1.4,14.7.9,1.9,1.4,3.5,3.2,4.5,5.2,1.2,2.8.6,5.9-.4,8.7,4.3,1.5,10.2,5.1,8.9,9.8,1.5.3,2.6.4,3.9,1,1.6.7,3,2.3,2.7,3.9,5.5-.9,8.6,2.5,7.4,7.2,2.5,1.2,4,3.4,3.6,5.9.1,1,0,2.1-.9,2.8-1.8,1.6-4.5,1.1-5.3-.6h0Z"/>
  <path class="cls-1" d="M200.1,66.17c-3.4-1.1-5.2-5-4.7-8.1.4-3.3,3.7-5,7-5.8-.3-3.3,2.8-6,6.6-5.9-.7-4.5,3.1-7,7.9-6,1.4-.9,1.2-2.7,2.1-3.9,1.7-2.9,3.1-6.1,6.6-7.8,3.6-1.7,7.8-1.8,11.7-2.6,7.9-1.1,11.8,1.1,11.9,8.3,3.8,0,6.5,2.4,7.3,5.5,2.6.7,4.1,2.8,4.6,5.1,5.6.4,6.4,4.9,5,8.9,2.8,2.4,1.7,5.8,1.5,8.8-.6,4.4-7.8,4.5-8.6.2-.2-1.2-.1-2.4,0-3.6-2.2-1.7-2.6-4.5-2.2-6.8-2.4-1-3.8-3.2-4.3-5.5-2.4-.8-3.6-3-4.4-5.1-5.5-.9-6.6-4.7-6.8-9-4.5-.5-11.9-1.8-14.9,2-1.7,4.8-2.5,11.6-9.9,11.5.7,3.3-2.2,7-6.3,6.5.3,3.7-3.5,6-7,7.1-.6,1.1.2,2.3.1,3.5-.2,1.3-1.6,2.8-3.2,2.7h0Z"/>
  <path class="cls-1" d="M116,200.57c.3-.1.6-.2,1-.3v.3c-.2,0-.3.1-.5.1-.1-.1-.3-.1-.5-.1h0Z"/>
  <path class="cls-1" d="M167.4,234.37h.6c-.1.1-.2.2-.4.2q-.1-.1-.2-.2h0Z"/>
  <path class="cls-1" d="M168,234.37h0s-.1.1-.2.1c.1-.1.2-.1.2-.1Z"/>
  <path class="cls-1" d="M177.8,160.37h.4c-.2,0-.4,0-.5.1,0-.1.1-.1.1-.1h0Z"/>
  <path class="cls-1" d="M155.8,159.17h0c.2-.1.3-.2.4-.2v.2c-.1.1-.3.1-.4,0,0,.1,0,0,0,0h0Z"/>
  <path class="cls-1" d="M104.1,155.97c.1,0,.2-.1.4-.1h0c-.1,0-.2,0-.3.1h-.1Z"/>
  <path class="cls-1" d="M104,155.97c.2,0,.4-.1.5-.2h0c-.1,0-.2,0-.2.1-.1.1-.2.1-.3.1h0Z"/>
  <path class="cls-1" d="M46.3,150.17c0-.1.1-.1.1-.2h.1c-.1.2-.2.3-.3.4,0,0,.1-.1.1-.2Z"/>
  <path class="cls-1" d="M53.3,149.77c.1-.1.2-.2.2-.3.1-.1.2-.2.3-.3h0c0,.1-.1.2-.1.2-.1.1-.2.1-.3.2q0,.1-.1.2c.1,0,0,0,0,0h0Z"/>
  <path class="cls-1" d="M61.7,113.57v.2c-.1.1-.2.1-.3.2.1-.2.2-.3.3-.4h0Z"/>
  <path class="cls-1" d="M66,75.07c-.7,0-1.3,0-2-.1h-1.3c.1-.2.1-.4.2-.5.6-1.2,2.6-1.1,3.1.1.1.1.1.3,0,.5h0Z"/>
  <path class="cls-1" d="M50.7,74.87h-.2c.3-.1.7-.1,1,0h-.8Z"/>
  <path class="cls-1" d="M52.2,74.87c-.5,0-1,0-1.5-.1h-.6v-.4c-.1-.8-.2-1.6.4-2.2.6-.7,1.9-.5,2.4.2.4.8,1,1.8.2,2.4h-.7l-.2.1h0Z"/>
  <path class="cls-1" d="M83.9,83.57h1.3c-.4,0-.8.1-1.2.1q-.1,0-.1-.1h0Z"/>
  <path class="cls-1" d="M84.4,74.77c-.5,0-1,0-1.5-.1,0-1,.1-2,.4-3,.2-.5.9-.8,1.5-.5s.5,1,.7,1.6c.1.4-.1.8-.5,1v1h-.6Z"/>
  <path class="cls-1" d="M98.7,73.17c.3-1,1.8-1.3,2.6-.7.4.3.6.7.6,1.1-.5,0-.9,0-1.4.1-.6,0-1.3,0-1.9.1.1-.2.1-.4.1-.6h0Z"/>
  <path class="cls-1" d="M134.3,72.27h0c-.1-.2,0-.4,0-.6.5-1.3,2.7-1.5,3.3-.3.2.3.2.5.3.8-.5,0-1.1,0-1.6.1h-2Z"/>
  <path class="cls-1" d="M120.6,70.87c-.1-1.5,2.7-2.4,3.4-.8.2.6-.1,1.2-.7,1.5,0,.3.1.7.1,1-.6.1-1.3.2-1.9.2-.3,0-.5.1-.8.1-.1-.6-.1-1.3-.1-2h0Z"/>
  <path class="cls-1" d="M81.6,120.67h0c.1-.2.2-.4.3-.5v.6q-.1,0-.2.1-.1-.1-.1-.2h0Z"/>
  <path class="cls-1" d="M131,116.97c.3,0,.5,0,.8-.1v.1h-.8Z"/>
  <path class="cls-1" d="M116.8,106.97c.4-.1.9-.2,1.3-.2,2-.3,4-.7,6.1-1,.4,0,.7-.1,1.1-.1-.3.1-.6.2-.9.2-.4.1-.9.2-1.3.4-.4.1-.7.3-1.1.4h-1.2c-.6,0-1.2.1-1.7.2-.7.1-1.5.1-2.2.2,0-.1-.1-.1-.1-.1h0Z"/>
  <path class="cls-1" d="M169.2,68.67c1.2,0,1.5,1.1,1.3,2v.1h-1.2c-.4,0-.8,0-1.2.1h-.4c.1-1,.1-2.2,1.5-2.2h0Z"/>
  <path class="cls-1" d="M152.4,78.67h1.7c-.5.1-1.1.1-1.7,0h0Z"/>
  <path class="cls-1" d="M154.2,70.67c-.9-1.5,1.6-2.1,1.7-.4,0,.5-.1,1-.2,1.4-.3,0-.7,0-1,.1-.1,0-.2,0-.3.1h-.5.1-.1c0-.5.1-.8.3-1.2h0Z"/>
  <path class="cls-1" d="M202.2,113.47h.5-.1.2c-.2.1-.4.1-.6,0q0,.1-.1.1l.1-.1Z"/>
  <path class="cls-1" d="M228.5,102.57h1.5c-.7.1-1.4.2-2.2.2-.4,0-.8.1-1.3.1-.2,0-.3,0-.5.1h-.1c.9-.1,1.8-.3,2.6-.4h0Z"/>
  <path class="cls-1" d="M205.4,70.67c-.4,0-.9,0-1.3-.1-.5,0-1,0-1.5-.1,0-.1,0-.2.1-.3.2-1.6,3-2,3.6-.4.1.3.2.6.2.9-.4.1-.8.1-1.1,0h0Z"/>
  <path class="cls-1" d="M190.4,69.37c.1-1,1.7-1,1.7,0,0,.3-.1.7-.1,1.1h-1.7c0-.3,0-.7.1-1.1Z"/>
  <path class="cls-1" d="M190.2,68.97c.3-.5,1.2-.5,1.5,0,.2.5.3,1,.4,1.5h-2.1c-.2-.4.1-1.1.2-1.5h0Z"/>
  <path class="cls-1" d="M243.1,70.87c.2-.1.5-.1.7,0h-.7Z"/>
  <path class="cls-1" d="M231.1,70.37h-1c.1-.3.2-.7.3-1,.1-.4.2-.8.7-1s1,.1,1.3.4c.6.4.2,1.3-.5,1.3,0,.1,0,.2-.1.3h-.7Z"/>
  <path class="cls-1" d="M266.1,70.27c-.4,0-.9-.1-1.3-.1h-.3c.2-.8.4-1.7.8-2.4.6-.8,2-.7,2.3.2.2.7.4,1.5-.2,2-.2,0-.3,0-.5.1-.2,0-.5.1-.8.2h0Z"/>
  <path class="cls-1" d="M279.2,67.17c.9-.8,2.7-.2,2.7.9v.3h-.4c-.2,0-.5,0-.7.1-.3,0-.5,0-.8.1s-.7.1-1,.2c-.2,0-.5.1-.7.2h-.2c.3-.7.6-1.3,1.1-1.8h0Z"/>
  <path class="cls-1" d="M275.3,103.17s.1-.1,0,0h.6c0,.1,0,.2-.1.3h-.5c.1-.1.1-.2,0-.3h0Z"/>
  <path class="cls-1" d="M228.5,102.57c.5,0,1,0,1.5-.1h.6c-.9.1-1.8.2-2.7.3-.4,0-.8.1-1.3.1-.2,0-.3,0-.5.1h-.1c.8-.1,1.7-.3,2.5-.4h0Z"/>
  <path class="cls-1" d="M202.2,113.47h.5-.1.5c-.3.1-.6.1-.9,0q0,.1-.1.1l.1-.1h0Z"/>
  <path class="cls-1" d="M153.9,104.57c.3,0,.6-.1.9-.1.2,0,.4,0,.6-.1-.2,0-.4.1-.6.1s-.4,0-.6.1h-.5c.1,0,.2-.1.2,0h0Z"/>
  <path class="cls-1" d="M177.8,160.37c.2,0,.3,0,.5-.1h.4c-.3,0-.7.1-1,.1,0,0,.1,0,.1,0h0Z"/>
  <path class="cls-1" d="M104.5,155.87h0c0,.1-.1.1-.2.1-.2,0-.3.1-.5.1.3-.1.5-.2.7-.2h0Z"/>
  <path class="cls-1" d="M235.7,163.87c.1,0,.1-.1.2-.2-.1.1-.2.1-.2.2h0Z"/>
  <path class="cls-1" d="M219.4,161.87c.1,0,.2-.1.2-.1.3-.2.7-.4,1-.6h0c-.3.2-.6.5-.9.7h0s-.1,0-.3,0h0Z"/>
  <path class="cls-1" d="M90.8,39.47c-.3-.1-.5-.2-.7-.4-1.4.1-2.7-2.7-2.6-3.7,0-.7.4-1.3.5-1.9,0-.5.3-.9.8-1.1,1.9-2.7,5.8-1.5,7.7.5.9.8,1.8,1.9,1.2,3.1-.2.5-.7.9-1.2,1.3-1.4,1.3-3.4,3-5.7,2.2h0ZM92.2,37.87c.8-.1,1.5-.6,2.1-1,.6-.5,1.6-.9,1.7-1.7h0c0-.1-.1-.2-.1-.2-1-1.4-3.8-3.7-5.3-1.8-.1,1.2-.2,2.4.4,3.5.3.5.6,1.2,1.4,1.1q-.1.1-.2.1h0Z"/>
  <path class="cls-1" d="M79.9,58.87c-1.9-.1-3.7-1-5.3-1.7-1.3-.7-.6-2.6.9-2.5.7-2.7,2.4-5,3.3-7.6.7-3.3,3.9-1.8,5.5,0,1.6,2.5.3,5.5,0,8.1-.1,2.9-1.2,3.8-4.4,3.7h0ZM80.6,56.37h.6c.1,0,.2,0,.4-.1.4-2.6,1.8-5.3,1.2-8-.4-.7-1.2-1.4-2.1-1.6-1.1,2.9-3.2,5.5-4,8.5,1.2.5,2.4,1.2,3.9,1.2h0Z"/>
  <path class="cls-1" d="M88.8,56.87c0-.3.3-.5.5-.5s.5.2.5.5-.3.5-.5.5-.5-.2-.5-.5Z"/>
  <path class="cls-1" d="M74.8,56.67c-2-1.1.5-5.2,1-6.7.5-1.3,1.3-2.6,2-3.9.3-.6.9-1.3,1.7-1.3.5,0,1,.2,1.3.6.4.2.7.5.6,1,0,.7-.7,1.1-1.5,1-1.4,2.3-2.5,4.8-3.2,7.4,1.4,1.2-.4,2.7-1.9,1.9h0Z"/>
  <path class="cls-1" d="M90.2,59.07c-2.9-.6-4,0-3.6-3.3.3-2.4,1.4-4.6,2.5-6.8,1.4-3.7,4.5-5.3,8.1-2.5,2,1.5,2,4,2.1,6.1.1,1.8,0,3.8-.8,5.5-.8.9-2.3.7-3.4.8-1.6.3-3.2.3-4.9.2h0ZM91.8,56.77c1.6,0,3.2-.1,4.8-.2.6-1.4.6-2.9.5-4.4-.1-1.2,0-2.4-.7-3.4-.7-.9-1.9-1.8-3.2-1.6h.1c-.1,0-.3.1-.4.1,0,.4-.4.7-.6,1.1-.4.6-.6,1.3-.8,2-.9,2-2,4.1-2,6.3.7,0,1.5.2,2.3.1h0Z"/>
  <path class="cls-1" d="M104,58.47c-.6,0-1.2-.1-1.8-.4-.3,0-.6-.1-.8-.4-.5-1-.7-2.1-.8-3.2-.1-1.6-.3-3.2,0-4.8.4-2.1,2.2-6.8,5.4-4.5,3.2,3.4,6,8.5,2.9,12.7-.3.3-.7.4-1.1.5-1.2.1-2.5.1-3.8.1h0ZM105.1,56.67h1.7c.3,0,.6,0,.9-.1,1.3-2.3.1-4.8-.7-7-.3-.6-.7-1.1-1.1-1.6-.5-.5-.7-1.2-1.3-1.6l-.1.1c.8,1-.8,1.7-1,2.5-.9,2.3-.9,4.9-.4,7.3.1,0,.2.1.3.2.3,0,.5.1.8.1h1.2-.3v.1Z"/>
  <path class="cls-1" d="M221.2,57.57c-1.1-.1-2.3-.3-3.2-.9-.4-.4-.4-1-.3-1.6.4-1.9.7-3.8,1.2-5.7.4-1.8,1.3-4.3,4-4.2,1.7.1,2.3,1.7,2.8,2.8,1,1.8,1.3,3.8,1.4,5.8.2,1.5-.2,4-2.6,3.5-1.2.2-2.2.5-3.3.3h0ZM222.2,54.77c.6,0,1.1-.1,1.7-.2h.1c.2-2.5-.4-4.9-1.6-7.1-.1,0-.2,0-.2.1.1,0,0,0,.1-.1-1.8,1.9-1.7,4.6-2.5,6.9.8.2,1.5.5,2.4.4h0Z"/>
  <path class="cls-1" d="M218.9,55.77c-.7-.8-.3-1.9,0-2.8.3-.6.2-2.1,1.3-1.9.3.1.5.4.4.7-.3.7-.5,1.5-.7,2.2-.1.4-.2.9,0,1.3.3.5-.6,1-1,.5h0Z"/>
  <path class="cls-1" d="M236.7,57.87c-2.2-.2-4.5-.4-6.6-.9-.8.1-1.7-.1-2-.8-1-2.8-.6-6,.7-8.7.6-2.2,3.7-1.5,5.6-1.8,2.7-.8,5.1-1.2,5.3,2.1.2,2.6.1,5.2-.2,7.8-.2,1.6-.7,2.7-2.8,2.3h0ZM236.3,55.37h.2c.2-2.5.4-5.1.1-7.7-1.8.6-3.8.5-5.7.5-1.2,1.9-1.7,4-1.4,6.2.8,0,1.6.3,2.4.5,1.4.3,2.9.4,4.4.5h0Z"/>
  <path class="cls-1" d="M246.4,57.97c-.9,0-1.9,0-2.5-.7s-.9-1.6-.9-2.5c0-2.6,1.1-5.1,1.5-7.7.3-1.2.5-3,2.2-3.2,2.5-.2,5.5,4.6,6.2,6.4.6,2.1-.6,4.3-1.5,6.2-1.1,1.4-3.3,1.5-5,1.5h0ZM247.1,54.97c.5,0,1.1-.1,1.6-.3.4-1.1,1.1-2.1,1.2-3.2-.4-1.6-1.5-3.1-2.7-4.4-.7,2.4-2,4.7-2.3,7.2h.6c.5.1.9.3,1.2.7h.4Z"/>
  <path class="cls-1" d="M233,42.67c-1.8-.7-2.8-2.4-2.8-4.1,0-1.6.3-3.6,2.1-4.4.9-.3,2.4-.5,3,.4,3.8.9,3.7,3.8,2,6.3-.9,1.4-2.5,2.5-4.3,1.8ZM234.2,40.67c1-.8,1.7-2,1.9-3.2.1-.8-.9-1.1-1.6-1.3-.4.1-.8.1-1.2.1-.6,1.4-1,3.8.9,4.4h0Z"/>
  <path class="cls-1" d="M62.1,183.67l.1-.1c-.1,0-.1.1-.1.1h0Z"/>
  <path class="cls-1" d="M62.2,183.57l-.1.1s0-.1.1-.1Z"/>
  <path class="cls-1" d="M67.5,182.47h0c0,.1-.1.2-.2.2.1,0,.2-.1.2-.2Z"/>
  <path class="cls-1" d="M43.9,143.37h0s0-.1,0,0l.2-.1h-.1q0,.1-.1.1h0Z"/>
  <path class="cls-1" d="M58.6,143.87h0q0,.1-.1.2s-.1,0-.1.1c0-.1.1-.2.2-.3h0Z"/>
  <path class="cls-1" d="M152.9,142.67c-.1,0-.3,0-.4.1h-.1c.2-.1.4-.1.5-.1Z"/>
  <path class="cls-1" d="M156.8,142.07c.5,0,.9-.1,1.4-.2h-.1c-.7.1-1.4.2-2,.3.2,0,.5-.1.7-.1h0Z"/>
  <path class="cls-1" d="M131.1,149.67h1.3l-.9.2h-.2c-.1,0-.2-.1-.2-.2h0Z"/>
  <path class="cls-1" d="M30.6,123.27l.1-.1v.2s0,0-.1-.1h0Z"/>
  <path class="cls-1" d="M277.8,120.97h0l.3-.3c-.1.1-.2.2-.3.3h0Z"/>
  <path class="cls-1" d="M26.1,184.67v-.5c0-.1,0-.2.1-.3v-.1h0c0,.4-.1.8-.1,1.2v-.3h0Z"/>
  <path class="cls-1" d="M62.1,183.67l.1-.1c-.1,0-.1.1-.1.1h0Z"/>
  <path class="cls-1" d="M62.2,183.57l-.1.1s0-.1.1-.1Z"/>
  <path class="cls-1" d="M276.7,224.07h.4c0,.2,0,.4-.1.5,0-.2-.1-.4-.3-.5h0Z"/>
  <path class="cls-1" d="M254.3,38.67c-.6-.1-1.1-.5-1.2-1-1.4.1-3-.8-3.2-2-.1-1,.7-1.6,1.7-1.8.1.2.2.3.3.5.2.3.5.5.8.7.2.2.5.3.8.5.4.2.9.4,1.3.5h0c.4.5.8,1,1.2,1.3-.3.7-.7,1.3-1.6,1.3h-.1Z"/>
  <path class="cls-1" d="M106.2,203.07c.5-.1,1-.2,1.6-.4h0c-.5.2-1,.4-1.6.4h0Z"/>
  <path class="cls-1" d="M232.5,106.07h0c-.1,0-.2,0-.3.1q.2-.1.3-.1Z"/>
  <path class="cls-1" d="M57,74.37c-.4-.3-.2-.7-.2-1.1.1-.5,1-.6,1.2-.2.2.5.3,1.1.3,1.6h-1.4c.1,0,.1-.2.1-.3h0Z"/>
  <path class="cls-1" d="M92.4,72.57c.3-1,1.6-1.4,2.1-.3.2.5.4,1.3,0,1.7h-2.3c0-.4.1-.9.2-1.4h0Z"/>
  <path class="cls-1" d="M128.1,71.97c0-.9,1.4-1.5,2-.7.2.2.3.5.3.8h-2.5c.2,0,.2-.1.2-.1h0Z"/>
  <path class="cls-1" d="M160.6,70.87c.2-.4.5-.7.9-1,1.3-.6,1.9.1,2.2,1.2h-2,.1-1.2c-.1.1,0-.1,0-.2h0Z"/>
  <path class="cls-1" d="M196.6,69.07c.5-.1,1.1.3,1.2.8v.7h-2.1c-.1-.7,0-1.4.9-1.5h0Z"/>
  <path class="cls-1" d="M237.6,70.67c-.4,0-.8,0-1.2-.1.1-.4.3-.8.8-.8.6,0,.9.5.8.9h-.4Z"/>
  <path class="cls-1" d="M270.6,68.97c.4,0,.7.2.8.5-.4,0-.8,0-1.3.1h-.3c.1-.3.3-.6.8-.6h0Z"/>
  <path class="cls-1" d="M56,85.67c-1.1,0-2.2-.1-3.4-.1-1.1.1-2.9.2-2.9-1.2-1-1.3-.2-3.2-.1-4.6-.2-1.5-1-5.2.7-6.2.1-.2.4-.3.7-.2.1,0,.2.1.2.2,1,.2.8,1.2.9,1.9,0,1,.1,2-.2,3,.3,1.3,0,2.7.2,4,.1.3.1.7-.2,1h0c1.5-.1,3,.1,4.5.1,1.4-.2,2.7-.3,4.1-.2.9,0,1.8-.2,2.7-.1-.2-2.8.9-5.3.5-8-.1-.5-.2-1-.2-1.5,0-.8,1-1.3,1.8-1,.5.2.7.7.6,1.1.2.8.3,1.5.3,2.3.2,2.2-.8,4.4-.6,6.6.1,2.1-.8,2.9-3.2,2.5-1.4.2-2.9,0-4.3.1-.7.2-1.4.3-2.1.3h0Z"/>
  <path class="cls-1" d="M83.5,84.87c-1.3-.1-.7-1.7-.9-2.5-.2-2.8.2-5.6.6-8.3-.3-.3-.2-1,.3-.9.2-.2.5-.3.7-.3,1.6.1.8,2.5.8,3.4-.2,2.6-.4,5.1-.2,7.7v-.1c.1.4-.2.9-.8.9-.1,0-.3.1-.5.1h0Z"/>
  <path class="cls-1" d="M99.3,83.57c-.4-2.7.2-5.3.1-8,0-1,.1-1.9.1-2.8,0-.3.5-.3.6,0,0-.4.2-.9.8-.9,1-.1,1.1,1,1.1,1.7,0,1.5-.1,3-.3,4.4-.3,1.8-.5,3.7-.8,5.6-.2.6-1.3.6-1.6,0h0Z"/>
  <path class="cls-1" d="M99.3,82.67c-.3-2.2.2-4.5.3-6.7,0-1.1.3-2.2-.1-3.3-.1-.3.2-.4.5-.4.4-.1.6.3.3.5.7,2.7.6,5.6.7,8.3,0,.4.1.9,0,1.3-.1.9-1.4,1-1.7.3h0Z"/>
  <path class="cls-1" d="M90.1,85.47c-2.2-.2-4.4-.2-6.6-.4-1.3-.2-1-1.5-.7-2.3-.2-1-.1-2-.4-3-.1-1.1.2-2.2.3-3.2.1-.5.2-1,.2-1.4,0-.3,0-.6.3-.9.6-.7,2-.1,1.6.8,0,1.8-.6,3.6-.2,5.4.2,1-.1,2,.6,2.8,2.2.2,4.4.4,6.6.4,2.3-.1,4.5-.5,6.7-.7.6-.2.5-1,1.1-1.2.8-.4,1.9.3,1.6,1.1-.2.4-.2.9-.4,1.3-.6,1.5-2.8.9-4.1,1-2.2,0-4.3.5-6.6.3h0Z"/>
  <path class="cls-1" d="M121.3,83.57c-1-.7-.6-1.9-.6-2.9-.2-1.4-.2-2.8,0-4.2-.1-1.4.2-2.6.4-3.9-.1-.5-.2-1.3.6-1.3,2.1-.6,1.6,1.8,1.4,2.9-.1,1.1.1,2.2-.2,3.2-.1.9,0,1.7,0,2.6,0,.7-.3,1.5-.1,2.2,0,.4.1.8-.1,1.1-.3.4-.9.5-1.4.3h0Z"/>
  <path class="cls-1" d="M135.8,83.27c-.8-.2-1-1-.7-1.5.1-.4,0-1,0-1.4-.2-1.4.4-2.7.2-4.1-.1-1.3.4-2.6.4-4-.2-.2,0-.5,0-.7,0-.3-.1-.7.2-.9.3-.5,1.2-.5,1.6-.1.4.4.3,1,.4,1.5.2,1.6-.1,3.2-.1,4.8-.2,1.2-.4,2.3-.4,3.5-.1.6.1,1.4-.3,2,0,.5-.7,1.1-1.3.9h0Z"/>
  <path class="cls-1" d="M125.3,84.87c-1.3,0-2.8.2-4-.5-.7-.5-.9-1.3-1.1-2-.3-1.4-.2-2.8.2-4.2.4-.8.6-1.5.6-2.3.1-.9.5-1.8.9-2.7.2-.5-.1-1-.1-1.5.1-.5,1-.1.7.3.4.7,0,1.5-.2,2.2-.2.9-.1,1.7,0,2.6-.2,1.4-.8,2.8-.6,4.3.2.6.3,1.4.8,1.9,1.1.2,2.1,0,3.2.1.8.2,1.6-.2,2.4-.3.4,0,.7.1,1.1.1.5-.1,1.1-.2,1.7-.1.6,0,1.1-.2,1.7-.2.7,0,1.4.2,2-.1.5,0,.5-.3.6-.7.2-.5.2-1.1.3-1.6-.2-1.1.1-2.2.2-3.2.1-.6.3-1.1,0-1.7-.3-.7-.2-1.5-.4-2.3,0-.8-.4-1.8.4-2.3,1.3-.6,2.1.5,1.8,1.5.1.7.3,1.4.3,2,.2.5.4,1.1.4,1.6-.1.8-.3,1.5-.4,2.3-.2,1,.1,2-.2,3-.2,1-.3,2.1-1.2,2.8-1.1.7-2.5.9-3.8.7-1.5.1-3.1.4-4.6.1-.9.2-1.8.3-2.7.2h0Z"/>
  <path class="cls-1" d="M152.9,84.07c-1.1-.6-.4-1.9-.5-2.8-.2-1.7.3-3.3.4-5,.1-1.3.4-2.6.7-3.9.1-.2,0-.6-.1-.8-.2-.4-.1-.9.4-1.1.5-.7,1.8-.5,2,.3.5,1.1-.3,2.3-.5,3.4,0,2.3-.8,4.6-.9,6.9,0,.8,0,1.5-.1,2.2,0,.6-.8,1.1-1.4.8h0Z"/>
  <path class="cls-1" d="M169.7,83.77c-.3-1,0-2.1,0-3.2-.2-1.3.1-2.7.1-4-.1-2.1-.1-4.2-.4-6.3.1-.6.9-.9,1.5-.8.4.1.4.4.5.7.2,3.4.1,6.6-.1,10,.2,1,.2,2.2,0,3.2,0,.4-.2.8-.7.8-.5,0-.8-.2-.9-.4h0Z"/>
  <path class="cls-1" d="M156.1,85.37c-3.1-.1-4.2-1.3-3.3-4,.1-.5-.1-.9,0-1.4,0-.4.3-.8.4-1.1-.1-.1,0-.3.2-.4.4-.1.6.3.5.6-.2.7-.2,1.3.1,2,.1.8-.2,1.6.6,2.1,2,.3,3.9,0,5.9,0,.9-.2,1.8-.2,2.8-.2,2-.3,4.1-.4,6.2-.4.4-.1.9-.1,1.3,0,1,.4.7,1.7-.3,1.8-.9.2-1.8.3-2.7.3-1.5.2-3,.3-4.5.4-1.5.1-3,.3-4.5.2-.9.2-1.8.3-2.7.1h0Z"/>
  <path class="cls-1" d="M200.2,83.07c-1.4,0-2.7-.1-4.1-.2-1.2.1-2.4.1-3.5-.1-.6,0-1.3-.1-1.5-.7-.4-1.1-.5-2.2-.6-3.4-.2-1.1-.4-2.1-.4-3.2-.3-1.5-.4-3-.3-4.5,0-.4-.2-.9.2-1.2-.1-.5.5-.6.8-.2.9.4.5,1.7.6,2.4.4,2,.8,4.1,1,6.1.1,1.1-.2,2.2.2,3.3,1.6.1,3.1-.4,4.6-.3,1.7.2,3.5.3,5.2.1.7.1,1.5.1,2.2,0,.3-.2.5-.5.8-.7.1-2.7-.6-5.6-.7-8.4.1-.8-.3-1.8.3-2.4h0c.1-.1.3-.2.5-.2.4-.1.8.1,1,.4.3.4,0,.8.1,1.2.1,1.8.3,3.6.4,5.4.3,1.4.4,3,.2,4.4-.1.5-.4.9-.9,1.1-.3.3-.6.6-1,.8-1,.2-2,.3-3,.2-.5.1-.9.1-1.4.1-.2-.1-.5,0-.7,0h0Z"/>
  <path class="cls-1" d="M231.5,81.27c-1.1-.2-1.5-1-1.3-1.9-.2-2.3.1-4.5,0-6.8,0-.9.2-1.9,0-2.8-.4-.6.3-1.3,1-1,.3.1.4.3.5.6.1.7.1,1.4.1,2,.2,2.7.5,5.5.4,8.2,1.3.4,2.6-.5,3.9-.5,1.3.1,2.5,0,3.8.1,1.5,0,3.1.4,4.7.2,0-2-.3-3.9-.4-5.8.1-1.2-.1-2.4-.2-3.5,0-1.1,1.8-1.5,2.2-.4.4,1.9.1,3.9.3,5.8.1,1.1.1,2.1.1,3.2,0,.7.1,1.4-.4,2-1,.8-2.6.8-3.8.7-1.2,0-2.4-.2-3.6-.2-1,.2-1.9-.1-2.9-.1-1.5.2-2.9.7-4.4.2h0Z"/>
  <path class="cls-1" d="M267.2,80.97c-.5,0-1.2,0-1.5-.5-.6-1.1-.2-2.4,0-3.6h0c.2-.8.1-1.5,0-2.3-.1-1.7.3-3.3-.2-5-.1-.5.5-.8,1-.5.3.3.3.7.4,1,.3,1.3,0,2.8.2,4.1.4,1.7-.1,3.3.1,5,2,.1,4-.4,6-.4,1.8-.1,3.8.2,5.5,0h0c.3-2.1.3-4.3-.2-6.4-.1-1.1.1-2.2-.1-3.3,0-.5,0-1.1.6-1.4.6-.3,1.4.1,1.5.6h0c.3,1.4.1,2.8.2,4.1.5,1.6.3,3.2.2,4.8,0,1.1,0,2.6-1.3,3.1-2,.5-4.1,0-6.1,0-2.3.4-4.2.8-6.3.7h0Z"/>
  <path class="cls-1" d="M59.3,124.07c-1.6-.2-3.2-.1-4.8,0-1.7-.1-3.4-.2-5.1-.2-1.6,0-4.5.1-3.7-2,0-1-.3-2.1-.2-3.1,0-.6.3-1.3.3-1.8.1-2,.4-4,.9-5.9-.3-.3-.3-.7-.1-1,.4-.5,1.1-.4,1.7-.5.3-.1.7-.1,1.1,0,.4,0,.7.1,1,0,3.3-.4,6.7-.5,10-.4l.1-.1c.2,0,.4,0,.6.1.2,0,.5.1.8.1h.1l.1.1h.1v.1h0v.6h0v.4h0v.7h0v.2c.3,2.4-.6,4.8-.3,7.2.1.8.1,1.5,0,2.3,0,.7.1,1.4-.2,2.1-.1,1.1-1.1,1.4-2.1,1.4,0-.3-.2-.3-.3-.3h0ZM59.7,121.97c.1-.8,0-1.7.2-2.5-.1-.9-.2-1.6-.2-2.4.2-2.1.6-4.2.4-6.3-2.1-.1-4.2.1-6.3.2-1.7.1-3.5.2-5.2.2-.4,1.7-.5,3.5-.6,5.3.1.8-.1,1.6-.2,2.3,0,1,.3,1.9.4,2.9,1.2,0,2.5,0,3.7.1,1.8.1,3.6.1,5.4.1.7,0,1.6.1,2.4.1h0Z"/>
  <path class="cls-1" d="M81.7,124.67c-.6-.2-1.1-.6-1.2-1.1-.2-.3-.3-.6-.4-1h0v-.3c-.2-1.2,0-2.4.1-3.5,0-1.1-.3-2.2-.1-3.4-.1-1.5.1-3.1-.7-4.5-.3-.5-.8-1.2-.3-1.7.4-.4,1-.4,1.5-.4.8,0,1.6,0,2.4-.1,1.1-.1,2.2-.2,3.4,0h2.2c3.5-.1,9.2-.2,8.5,2.2-.4,1.2.2,2.3.3,3.4-.1,1.5-.2,3-.1,4.5-.4,1.6.6,3.5-.5,4.8-.8.5-2,.5-2.9.6-1.1.1-2.2.3-3.2.2-2,0-3.4.2-5.5.1-.8,0-1.6.2-2.4.2-.4.1-.8.1-1.1,0h0ZM81.1,110.37c1.3,2.5.5,5.3,1.3,7.9.2,1.5-.5,3.1.3,4.4h.1c1.7-.2,3.4-.2,5.1-.2,1.2-.2,2.3-.2,3.5-.2,1.2-.2,2.5-.1,3.8-.2,0-1.3-.1-2.8,0-4-.1-1.2-.1-2.5,0-3.7-.3-1.2-.8-2.5-.4-3.7,0-.1-.1-.2-.1-.3-.9-.2-1.8-.2-2.7-.1-.6,0-1.2.1-1.9,0-1.2-.1-2.4-.1-3.6-.1-1.8.1-3.6.1-5.4.2h0Z"/>
  <path class="cls-1" d="M123.6,122.77c-2.1-.1-4.3,0-6.4,0-.8.1-2-.1-2-1-.1-.5.3-1,.4-1.5,0-.7-.4-1.2-.5-1.9-.3-1.1,0-2.2-.2-3.4-.1-1,.5-2,.4-3v-.3q0-.1-.1-.2v-.3h0c-.1-.5-.2-1-.2-1.5,0-.8.1-1.6.2-2.3-.4-.5,0-1.2.7-1.3.8-.2,1.6-.5,2.4-.4,2.2.2,4.5.2,6.8.3h4.5c.5,0,1.1-.1,1.5.2.3.2.5.5.4.8h-.2s0,.1-.1.1h-.1c-.1,0-.1.1-.1.1v.4h0c-.2,2.4.1,4.8.4,7.2.2,1.7,2.3,6.6.3,7.4-1.1.3-2.4.3-3.6.3h-1c-1,.1-1.9.4-2.8.4-.5-.1-.6-.1-.7-.1h0ZM116.8,107.37c0,.9-.2,1.8-.1,2.7.2.9.5,1.7.4,2.6,0,.7-.2,1.3-.4,2,.2.7,0,1.5,0,2.2,0,1,.4,1.8.6,2.8.1.4.1.8,0,1.3,1.4-.1,2.8-.1,4.2,0h3.1c1.8-.5,3.7-.2,5.6-.5-.1-2.2-1-4.3-1.3-6.5-.2-2.1-.5-4.2-.3-6.3v-.1c-2,.1-4,0-5.9-.1-1.4-.1-2.8-.1-4.2-.1-.6,0-1.2,0-1.7,0h0Z"/>
  <path class="cls-1" d="M147.2,120.97c-1,0-1.5-1-1-1.8,0-.6-.5-1.2-.6-1.8-.2-.8-.1-1.5,0-2.3.1-1.2-.5-2.4-.4-3.7.1-1.5.1-3,.6-4.4.1-.3-.2-.6,0-.9.1-.2.3-.3.5-.4.2-.3.7-.4,1.1-.3.5-.1,1.2,0,1.7,0,2-.1,4.1.2,6.1.1,2.1-.1,4.3,0,6.4.1.7-.1,1.5.1,1.6.8.1.1.2.1.3.2.3.4.3.9,0,1.3,1.2,1.5,1,3.5,1.2,5.2.3,1.5,1,6.2-1.5,6.5-3,.1-5.9.3-8.9.8-2.5.2-4.8.7-7.1.6h0ZM148.3,118.37c.1.2.1.4.2.5,2.3-.3,4.6-.4,6.9-.7,1-.1,2-.2,2.9-.4,1.3-.1,2.6,0,3.9-.2.2-1.4.2-2.8-.1-4.2-.2-1.2-.1-2.4-.5-3.5-.2-.8-1.2-1.5-.9-2.5-4.4-.1-8.9,0-13.3-.3-.5,2.3-.4,4.7.2,7,.1,1.6-.2,2.9.7,4.3h0Z"/>
  <path class="cls-1" d="M187.6,121.87c-2.2-.1-1.7-2.1-1.7-3.4-1.4-1.9-.7-4.2-1-6.4-.2-1.1.2-2.2.2-3.2-.1-1.4-.3-2.8.1-4.1-.4-.4-.1-1.1.5-1.2.2,0,.4,0,.6-.1.2-.3.8-.3,1.2-.2,3.2.2,6.3-.5,9.5-.3,1,0,2-.1,3-.2.6,0,1.2-.1,1.8.1.3.2.4.4.4.7.2.3.4.6.4.9.4,3.2-.2,6.4-.1,9.7-.1,2.2.6,4.5-.1,6.7-.1.7-.9.9-1.5.7-1.6.1-3.1-.1-4.7,0-2.9-.3-5.7.1-8.6.3h0ZM188.1,120.07c4.2-.6,8.4-.4,12.7-.5.2-2.6-.4-5.2-.2-7.8,0-1.8.1-3.7.1-5.5,0-.7.1-1.5-.4-2.1-2,.2-4,.2-6,.2-2.4.3-4.8.3-7.2.4-.4,1.4,0,2.9.1,4.3-.2,2.2.2,4.3.2,6.5,0,.9.5,1.6.8,2.4.2.7-.1,1.4-.1,2.1h0Z"/>
  <path class="cls-1" d="M224.5,119.67c-1.1-.2-1.1-1.1-1.1-1.9-.1-1.5-.6-2.8-.3-4.4.2-1.5-.4-3.1-.4-4.6.1-2-.1-4,.4-5.9.3-1,2.7-.9,3.7-.9,1-.1,1.8-.3,2.8-.2,2,.1,10.5-1.1,11.3.6,1.2.8.4,2.5.2,3.6-.2.5.1,1.1-.1,1.6-.1.4-.4.7-.4,1.1.2,1,.3,2,.2,3.1.2.9.2,1.8,0,2.8.1,1.1.5,3.8-1.1,4.2-1.1.5-2.3.3-3.5.3-1.3.2-2.5.1-3.8.2-.8.1-1.6-.1-2.3-.1s-1.4.3-2.1.3c-.7.1-1.5,0-2.2.1-.4,0-.8.2-1.3.1h0ZM225.8,117.37c1.4,0,2.7-.2,4.1-.4,2.1.1,4.2.1,6.3-.1.8,0,1.7.2,2.5,0,.1-.9,0-1.8-.1-2.7,0-.5.2-.9.1-1.4-.2-.8-.2-1.6-.1-2.4,0-.7-.3-1.3-.2-2,0-.5.3-.9.5-1.3v-1c.1-.8.4-1.6.4-2.4-.1-.1-.2-.3-.2-.5-2.5-.3-5.1,0-7.7.1-1.5.1-3,0-4.5.2-.7,0-1.5-.2-2.2,0-.2,2.8.1,5.5.8,8.2.1,1,0,2,0,3,0,1,.2,1.9.3,2.7h0Z"/>
  <path class="cls-1" d="M266.2,116.67c-1.6-.2-4.6.3-5-1.5v.1c-.4-1.3-.2-2.7-.7-4.1-.2-.9-.1-1.9-.1-2.8-.2-1.4-.3-2.8-.3-4.2,0-1.6-1.2-4.2,1-5.1,4.8-.5,9.6.3,14.4-.1,1.2,0,1.8.7,1.8,1.7.2,1,.3,2.1.5,3.1.2.9-.2,1.8-.2,2.8.2,1.2.8,2.5.8,3.7,0,.8-.4,1.6,0,2.4.4,1,.2,2.1,0,3.2-.4,1.2-1.9.7-2.9.7-.8-.1-1.6,0-2.5-.1-2.3-.3-4.5.3-6.9.2h.1ZM267,114.67c3-.5,6.1-.3,9.1-.1.2-1-.5-1.9-.4-2.8.3-1.3.1-2.5-.3-3.7-.5-1.2-.1-2.4,0-3.6-.2-1.2-.4-2.3-.5-3.5-4.4.2-8.7,0-13.1,0-.1,1.3.5,2.6.5,3.8,0,1.8.5,3.5.4,5.3.1,1,.5,2,.6,3,0,.5-.1,1,.1,1.4,1,.2,2.5.1,3.6.2h0Z"/>
  <path class="cls-1" d="M49.1,171.87c-.8-.2-1.7,0-2.5.2-2.6-.1-5.4-.7-8-.8-2.5-.6-8.6.3-8.2-3.1.9-2.1.4-4.3.4-6.5,0-.8.5-1.5.7-2.2.3-1.6.4-3.2.5-4.8,0-1.5,1-2.8,1.1-4.2,0-.2-.2-.2-.3-.3-.5-.5,0-1.4.8-1.4.7.1,1.4,0,2,0,2.5.1,5-.1,7.5,0,2.4,0,4.8.2,7.2.3,1.2-.5,2.8-.4,3.7.5.5.4.5,1,.6,1.5.2.9,0,1.7-.1,2.5.2,1-.1,2.1.1,3.1.1,1.1-.1,2.2-.1,3.3-.3,1.5-.4,2.6-.1,4.1,0,2-.6,4-1.2,6-.1.5-.1,1.2-.6,1.6-.9.5-2.4.4-3.5.2h0ZM50.6,169.97h.2c.4-1.8,1-3.5,1.2-5.3.1-1.2-.3-2.3-.2-3.5.4-1.2.2-2.5.4-3.7,0-1-.3-1.9-.1-2.8-.2-1.4.2-2.6,0-3.9-.7-.2-1.5.3-2.1-.2-2.2,0-4.4-.1-6.6-.2-2.8,0-5.6.2-8.4.1,0,1.5-.9,2.8-1,4.3-.1,2.3-.2,4.6-1,6.9.1,2.3.5,4.6-.4,6.8,1.5.6,3.2.4,4.9.6,2.3.2,4.5.5,6.8.7.7,0,1.3.3,2,.3.6-.1,1.2-.2,1.8-.2.8-.2,1.7,0,2.5.1h0Z"/>
  <path class="cls-1" d="M70.9,171.17c-.7-.5-.6-1.3-.8-1.9-.4-1.4.4-2.8.4-4.2.4-1.3,0-2.6-.2-3.9.1-2.8-.1-5.6.5-8.4.4-2.6.5-4,4-3.7,4.1-.3,8.2-.1,12.2.1.5-.2,1.1-.1,1.6.1.9-.1,1.8.5,1,1.2-.2,1.2-.4,2.4-.5,3.5.2,1.5-.1,2.9.2,4.3.1,1.5-.6,3-.1,4.5.4,1.8-.2,3.8-.4,5.7-.1.8.3,1.8-.5,2.5-.5.4-1.2.3-1.8.3-2.5,0-4.9,0-7.4-.2-1.9,0-3.8.3-5.8.3-.6.1-1.6.3-2.4-.2h0ZM72.5,169.37c2,0,3.9-.1,5.9-.3,2.7.1,5.4.2,8.1.2,0-1.8.5-3.6.5-5.5-.2-.9-.5-1.8-.4-2.7,0-.7.2-1.4.3-2.1,0-.8-.2-1.6-.2-2.4.1-1.1,0-2.3,0-3.4.1-.8.3-1.5.3-2.2-.2-.1-.4-.3-.5-.5-3.8-.1-7.6-.2-11.3,0h-1.9c-.3,0-.5.2-.5.4-.6,2.8-.8,5.6-.4,8.4-.3,1.5.5,2.9.5,4.3-.1,1.1-.2,2.2-.4,3.4-.2.9-.2,1.7,0,2.4h0Z"/>
  <path class="cls-1" d="M103.5,169.67c-.3-.3-.4-.7-.3-1.1.2-1.2.8-2.5.4-3.8-.5-1.1-.8-2.3-.8-3.5-.1-.8-.4-1.6-.5-2.4-.1-2.6.1-5.2.8-7.8.2-.7.1-1.5.5-2.1.5-.5,1.3-.5,2-.5.9,0,1.5,0,2.4-.1,4,.1,8.1.4,12.1.5.7-.5,1.7-.1,2,.6,0,.5,0,.9.2,1.4.5,1.2.1,2.4-.1,3.6,0,.7,0,1.6-.1,2.2,0,.8.3,1.7.3,2.5.1.9-.2,1.9.1,2.8.4.9.6,1.8.5,2.8.2.8.1,1.7-.1,2.5.1.6-.1,1.2-.7,1.5-.4.8-1.4.8-2.4.8h-.6c-1.3-.1-2.6,0-3.9.1-1.3-.1-2.6,0-3.9.3h-2.2c-.9,0-1.7-.1-2.6,0-.8,0-1.5,0-2.2.1h-.1c-.2-.1-.6-.1-.8-.4h0ZM110.9,167.87c1.5-.2,3.1-.4,4.6-.3,1-.1,2-.1,3-.1h1.8c0-.1.1-.1.2-.2,0-.8.3-1.5.1-2.3.1-1-.3-2-.6-3-.2-1.1,0-2.3-.1-3.4-.4-1.7-.3-3.5-.1-5.2.3-1,.1-2.1-.2-3.1-2,0-3.9-.1-5.9-.1-2.6-.1-5.2-.2-7.7-.1-.2.2-.4.2-.6,0h-.1c-.3,1.8-.8,3.6-.8,5.5h0v.4c-.1,1.4-.1,2.8.4,4.2.2,1,0,1.8.4,2.8.8,1.5.9,3.2.4,4.8h2.9c.8,0,1.6,0,2.3.1h0Z"/>
  <path class="cls-1" d="M138.7,168.97c-1,0-1.3-.9-1.6-1.6-.3-1.3.6-2.6-.1-3.8-.5-1.2-.3-2.6-.5-3.9-.3-1.2-.4-2.5-.5-3.7-.1-2.1.7-4.2.6-6.3.1-1.1,1.4-1.7,2.5-1.8.3,0,.5,0,.7.1.8.2,1.6,0,2.3.1,4.5.1,9.1-.1,13.6-.2,1.7-.2,2.1.8,2.1,2.1.4,1.2.6,2.6.4,3.9,0,.9-.3,1.8-.3,2.7,0,.7.3,1.3.2,2-.2,1.1-.2,2.2-.1,3.4.1,1.6.9,3.2.4,4.8-1.5,2.5-5.1,1.2-7.6,1.4-2,.3-4,.1-6,.5-1.9.1-4,.1-6.1.3h0ZM139.4,166.87c1.8-.2,3.5-.2,5.3-.3,1.9-.4,4-.2,5.9-.5,1.2-.1,2.3,0,3.5,0,.7,0,1.5.2,2.2-.1h0v-.1h0c0-1.8-.7-3.5-.6-5.3-.1-.8.2-1.6.2-2.4-.1-.8-.4-1.7-.2-2.5.5-2,.4-3.8-.1-5.8-1.6,0-3.3.1-4.9.2-.4.2-1,0-1.3-.3-3.4.1-6.8.4-10.2,0q-.1,0-.2.1c-.1,0-.1.1-.2.1.2,1.5-.3,3.1-.5,4.5-.1,1.1,0,2.2.1,3.3.4,1.5.4,3,.6,4.5.2.9.7,1.8.6,2.7.1.6-.2,1.3-.2,1.9h0Z"/>
  <path class="cls-1" d="M195.5,167.17c-2.3-.5-4.8-.5-7.1-.3-1.8.1-3.6-.2-5.5-.2-1.1.1-2.2.2-3.4.3-.8,0-1.8.1-2.5-.4-.8-.8-.4-1.9-.2-2.8-.1-1.4-.5-2.8,0-4.2-.2-1.7-.4-3.3-.6-5,.1-1.9.3-3.8.7-5.6.2-.7.7-1.3,1.3-1.8.7-.5,1.6-.4,2.4-.5,2.4-.2,4.9-.2,7.3-.2,2.2-.1,4.4.1,6.6-.1,1-.5,2.1.4,1.5,1.3.6,1.2.8,2.4.8,3.7.7,1.7.7,3.6.3,5.4,0,.8.3,1.5.3,2.2.1.8-.2,1.5-.2,2.3.1,1.6.7,3.2.7,4.8.2,1-1.4,1.2-2.4,1.1h0ZM195.5,165.07c-.3-1.9-.9-3.9-.4-5.8,0-1-.5-2-.3-3.1.3-1.6.2-3.2-.4-4.7-.1-1-.1-2-.6-3-.2-.1-.3-.2-.4-.3-4.7.1-9.4.1-14,.5-.9.8-.6,2.2-.8,3.2-.1,1.3-.3,2.6.1,3.9.2.9,0,1.9.4,2.8.2.8,0,1.6-.2,2.4.1,1.3.5,2.6.1,3.9,1.5,0,2.9-.3,4.3-.3,1.6.1,3.2.2,4.9.2,2.4-.2,4.9-.3,7.3.3h0Z"/>
  <path class="cls-1" d="M220.5,165.37c-1.4.1-2.3-1.3-2.1-2.4-.6-1.9-.4-3.9-.3-5.8,0-1-.7-1.8-.8-2.7-.1-.7,0-1.5,0-2.2-.1-1-.4-1.9-.4-2.8,0-1,.4-1.9.5-2.8.1-.9-.7-2,.4-2.6.4-.3,1-.2,1.5-.2,1.6.1,3.2.2,4.9.1,3.5,0,7-.5,10.5,0,1.2.1,2.5-.2,3.6.2.7.3.7,1.1.5,1.7.3,1.5-.2,2.9-.2,4.3,0,1.1-.4,2.2,0,3.3.2.9-.1,1.8-.2,2.7,0,1.7,0,3.5-.1,5.2,0,.7.5,1.4.2,2-.1.4-.5.8-.8,1-.8.8-2.1.8-3.2.7-1-.1-2,.1-3,.1-2-.1-3.8-.2-5.8-.2-1.7.2-3.4.4-5.2.4h0ZM220.8,162.67v.6c2.5-.1,5-.7,7.5-.4,2.4.2,4.3,0,6.5.1.5,0,1,.1,1.3-.2-.6-1.5-.1-3.2-.2-4.8-.2-1.5.3-2.9.2-4.4-.4-1.3.1-2.6,0-3.9.1-1.3.5-2.5.3-3.8-1.3,0-2.7-.2-4,0-.6.2-1.3,0-1.5-.5-3.9.2-7.8.4-11.7.2.4,1.5-.6,2.9-.2,4.4.4,1.4.4,2.8.5,4.2.2.8.8,1.6.9,2.4.1,2.1-.3,4.2.4,6.1h0Z"/>
  <path class="cls-1" d="M275.9,164.77c-1.8-.2-3.3-.1-5-.1-2.2-.1-4.4-.3-6.6-.5-2-.3-4.3.3-6.1-.7-.9-.4-1.4-1.4-1.2-2.2.1-.4.3-.8.3-1.2-.5-1.7,0-3.3.3-5,0-1-.2-2.1,0-3.1.3-1.1.3-2.2,0-3.3-.3-1.4.5-2.8.3-4.2-.4-1,.5-1.3,1.4-1.6,2.2-.8,4.4.5,6.6.5h0c2.5.1,4.8,0,7.3,0,1.1.1,3.7-.5,3.3,1.2h0c1.8,3.8.9,8.1.5,12.2-.1,1.6,2.2,8.4-1.1,8h0ZM275.3,162.57c.1-2.2-.7-4.5-.4-6.7.5-3.5,1-7.3-.4-10.7-2.7,0-5.5.1-8.2,0-2.1.2-4.1-1.1-6.2-.6.1,1.3-.5,2.5-.3,3.8.5,1.6.2,3.2,0,4.7.3,1.7,0,3.4-.3,5.1.1,1.2.4,2.4-.1,3.5,1.3.6,2.9.2,4.3.3,3.8.3,7.7.6,11.6.6h0Z"/>
  <path class="cls-1" d="M42.6,247.17c-.4-.2-.8-.2-1.2-.3,0-.2-.1-.4-.2-.6-.1-.2-.2-.5-.4-.7.1-1.3.3-2.5.6-3.7,0-1.4.3-2.7.7-4,.5-1.3.4-2.8.7-4.1.4-1.6.7-3.2,1.1-4.8,1.2-4.6,2.5-9.2,3.1-14,0-1.7.7-3.5.1-5.1-1.2,0-2.3.1-3.4.2-1,.1-1.9.1-2.9.2-1,.2-2,.5-3.1.5h-1.4c-1.3,0-2.5,0-3.8.2-2.9.3-5.8.4-8.7.8,0,1.2.1,2.3-.3,3.4,0,.7.1,1.5,0,2.2-.2,2.5-1.1,4.8-1.2,7.3-.1,1-.6,2-1,3-.2.8-.1,1.6-.5,2.4-.7,1.1-.7,2.4-1,3.6,0,3.2-.4,6.3-.7,9.4-.1.8-.7,1.5-.7,2.4v.2s0,.1-.1.1c0,.1-.1.2-.1.2v.1-.1h0c-.1.3-.2.5-.3.8v.3h-.6c-.1-.6-.5-1.2-.6-1.9-.1-.9.4-1.7.4-2.5-.1-1.7.2-3.4.3-5,.1-1.6-.1-3,.1-4.6.2-.8.1-1.6.4-2.4.2-.5.5-1,.7-1.6.1-1.3.5-2.6,1.1-3.9.3-1,.3-2,.4-3,.2-1.4.6-2.7.9-4.1.1-1.6-.1-3.1.3-4.7-.5-4,1.7-3.8,5.4-4,2.4-.3,4.9-.4,7.3-.7.6-.1,1.3,0,1.9,0h2c2.5-.6,5.4-.6,8-.9,5-.7,3.6,4.5,3.4,7.3-.8,7.3-3.8,14.3-4.5,21.6-.3,1.8-1,3.5-1,5.3-.2,1.2-.6,2.3-.6,3.5v1.3h0c-.1.2-.3.4-.4.6-.1-.1-.2-.1-.2-.2h0Z"/>
  <path class="cls-1" d="M35.8,203.87c-1.5,0-3-.2-4.4-.6-1.5-.1-3.4-.7-4.4-1.8-.5-1-1.4-1.8-1.7-2.9-.4-1.1-.7-2.3-.5-3.5.4-1.8,1.5-3.5,2.9-4.8,1.1-.8,2.4-1.2,3.8-1.5.7-.1,1.3-.3,1.9-.5,1.4-.2,2.8,0,4.2-.3,1,0,1.9.3,2.9.5.9.2,1.8.3,2.6.8,2.3,1,3.3,3.1,5.3,4.4,1.6,1.7.4,4-.4,5.8-.8,2.1-2.9,3.2-5.4,3.3-2.2.7-4.6,1.1-6.8,1.1h0ZM39,201.27c.9-.1,1.7-.6,2.6-.8s2-.2,2.8-.6c1.4-1.1,1.9-2.8,1.6-4.4-.8-1.4-2.1-2.5-3.3-3.6-1.5-.9-3.2-1.5-5.1-1.5-1,.1-2.3.4-3.2-.1-.9,0-1.7.5-2.6.7-1,.4-2.3.5-3,1.2-.9,1.5-1.5,3.4-1.3,5.1.5.9,1.2,2.3,1.9,3,1,.9,2.5.8,3.8.7,2,.1,4,0,6,.2l-.2.1h0Z"/>
  <path class="cls-1" d="M79.9,222.97c-2.1-.3-4.3-.2-6.4-.2-.7,0-1.3.1-2,.1-1.1.1-2.2-.3-3.3-.3-1.2,0-2.4.4-3.5.2-1.2-.2-2.5-1-2.2-2.1.3-1.5-.2-3.1.5-4.6-.1-.9-.1-1.8,0-2.7,0-.9-.3-1.7-.1-2.6.6-2.2.6-4.4.6-6.6,0-1.3.2-2.6.5-3.8,0-.4-.2-.8-.2-1.2,0-1.7,2.5-1.3,3.9-1.3s2.8.1,4.2.2c3.1,0,6.1-.1,9.3.1.8-.4,1.7.1,1.8.9,0,.2,0,.4-.1.5-.1.4,0,.9,0,1.3-.1,3-.1,6-.4,9.1-.2,2.1-.2,4.1,0,6.2.3,1.6,0,3.1-.2,4.7-.3.8-.9,2.3-2.4,2.1h0ZM79.7,220.87c.3-1.2.4-2.4.5-3.6-.2-1.7-.4-3.5-.2-5.2-.1-1.7.2-3.2.3-4.8,0-2.5.2-5,.1-7.5-2.5,0-5,0-7.6.1-2.2,0-4.5-.2-6.7-.2.2,1.4-.4,2.8-.4,4.2-.1,1.5.1,3,0,4.5-.1,1-.5,2-.5,3.1.1,1.1.2,2.2.1,3.3.1.9.1,1.8-.3,2.7-.1,1,.1,2-.1,3.2,1,.2,2.1-.2,3.2-.2.9,0,1.8.2,2.7.3,2.9-.1,5.9-.3,8.9.1h0Z"/>
  <path class="cls-1" d="M98.2,224.37c-1.5-.3-.8-1.5-.9-2.4-.4-2.5-.4-5.1-.8-7.7,0-1.7-.4-3.5-1-5.1-.6-2.3-.6-4.8-.2-7.1,0-.4.1-.5,0-.8-.2-.4-.7-.9-.3-1.3-.2-.6.3-.8.9-.8.5,0,1.2-.2,1.5.2,2.3-.5,4.7-.3,7-.6,3.5-.3,7.1,0,10.6,0,1.5-.2,1.7,1.7.2,1.8.3,1.6.4,3.3.1,4.9-.1.8.2,1.5.3,2.3.6,2,.7,4.2.8,6.3.7,2.4.8,5.1.5,7.5.3,1.1,0,1.8-1.3,2.2-1.5.7-3.1,0-4.7.2-1,.1-2,.1-3,.1s-2,.3-3.1.2c-1.8-.3-3.6.2-5.4.1-.3-.3-.7.1-1.2,0h0ZM99.7,222.07c1.1.1,2.1-.1,3.2-.2,1-.1,2.1.1,3.1,0,2-.3,4.1-.2,6.2-.3.9-.1,1.8.2,2.6,0,.1-2.3.3-4.6-.4-6.8-.4-2.5-.3-5-1.1-7.5-.6-2.2.4-4.3-.4-6.5-.1-.1-.2-.2-.3-.3h0c-3.1-.2-6.1-.1-9.2.2-2.1,0-4.1,0-6.2.4.2,1.7-.3,3.3-.1,5,0,1.9.9,3.6,1.3,5.4.6,3.5.8,7.1,1.3,10.6h0Z"/>
  <path class="cls-1" d="M139.8,222.67c-1.3-.1-2.8-.2-3.6-1.3-.5-.2-.9-.5-1.1-1-.6-.7-1-1.5-.9-2.4-.2-1.4.1-2.8,0-4.2-.5-1.9-.8-3.9-1-5.8-.2-.9-.7-1.8-.8-2.7-.1-1.2.2-2.4.1-3.6,0-.8-.3-1.5,0-2.3h0c-.1-.3,0-.6.3-.7.6-1.6,3-1.2,4.5-1.5,4.4-1.1,9.1-.6,13.5-.9h0c.3,0,.7.1.9.3,1.2.4.7,1.5.5,2.3.1.7,0,1.3.4,2,.3.8.3,1.7.3,2.5-.4,3.4.1,6.8.4,10.2,0,1.4-.2,2.9,0,4.3.2.8.4,1.6.4,2.4.2.3.3.7.1,1-.8,1.2-2.7.5-4,.6-1.3.3-2.5.3-3.8.2-1.4.2-2.7.3-4.1.3-.6.3-1.3.4-2.1.3h0ZM140.7,220.67c1.2-.2,2.5-.2,3.7-.3,1.2-.3,2.4-.2,3.6-.1,1.2-.2,2.3-.4,3.5-.2-.5-2-.6-4.1-.4-6.1-.3-2.5-.4-5-.6-7.4,0-1.5.4-2.9.1-4.4-.1-.6-.5-1.1-.5-1.7s-.1-1.2,0-1.8c0-.1-.1-.2-.1-.3-5.1.2-10.2.7-15.2,1.2-.2.3-.3.7-.2,1.1.3,1.3.1,2.7.1,4s.9,2.4,1,3.7c.1,1.2.3,2.3.5,3.4.3,1.1.7,2.5.5,3.6-.2,1,0,1.9,0,2.9-.1.5.4.9.7,1.3h0c.5.2.8.5,1.1.8.6.2,1.4.2,2.2.3h0Z"/>
  <path class="cls-1" d="M168.1,234.27h0c-.4-2.3-.7-4.6-1.1-6.9-.1-1.8-.9-3.4-.9-5.2,0-1.3.2-2.7-.2-4-.3-1-.3-2.1-.4-3.1-.3-1.1.1-2.2.2-3.4-.2-1.7-.9-3.3-1.3-5-1.2-3.4,1.8-3.4,4.8-3.5,2.1-.1,4.1-.5,6.2-.5,1.1,0,2.2.2,3.3.2,4.1-.4,8.2-.4,12.2-.2,2.7-.1,5.4-.2,8.1.3,1.2.2.8,1.2.9,1.9.4,1.9,1,3.7.8,5.7,0,1.4.7,2.6,1.1,4,.6,1.6.4,3.3.3,5,0,2,1.5,3.8,1.3,5.9,0,1.1.5,2,1,3v.1c-.4.2-.8.4-1.2.7l-.5.5h-.4v-.1c-.3-.9-.9-1.7-1.1-2.7-.2-.9-.1-1.9-.2-2.8-.3-1.3-1-2.5-1.1-3.8-.2-1.5.2-2.9,0-4.4-.2-1.3-.9-2.6-1.2-3.9-.3-1.3,0-2.7-.2-4-.2-1.2-.6-2.3-.7-3.4-1.7-.3-3.4-.2-5.1-.1-.9,0-1.8.1-2.7,0-3.4-.1-6.8-.1-10.2.2-1.6.2-3.2-.1-4.8-.1-1.5,0-2.9.2-4.4.5-1.3.2-2.8.1-4.1.3.3,1.7.8,3.3,1.3,4.9.4,1.2,0,2.4-.2,3.6.1,1,.2,2,.3,3,.2,1,.6,2,.5,3,0,1.1-.2,2.2,0,3.2.8,3.2.9,6.6,1.1,9.9v.5c-.5.3-1,.5-1.4.7h0Z"/>
  <path class="cls-1" d="M249.8,224.87v-1.1c-.2-.9,0-1.9-.2-2.8-.3-1-.2-2-.4-3-.7-1.5-.7-3.1-1-4.7.2-2.5.4-5,.4-7.5,0-1,.3-1.9.3-2.8-.2-1.5.2-2.5,2.1-2.3,3.3-1.8,7.4-1,11-1.6,4.8,0,9.7-.3,14.5.3.6.1,1.4.1,1.8.6,1.2.8,1.2,2.3,1.6,3.5.4,2,.7,4.1.4,6.2.2,1.1,0,2.1-.1,3.2.1,1.4.3,2.8,0,4.1,0,1.5-.1,3-.2,4.5,0,.7.1,1.4,0,2.1-.6.4-1.2.8-1.8,1.2h0c-.1.1-.3.2-.4.2-.1.1-.3.1-.4.2h-.1c0-.2-.1-.3-.1-.5.1-1-.1-1.9-.2-2.8,0-2-.1-4.1.1-6.1.2-2.6.9-5.1.8-7.7,0-2.1-.3-4.3-1.1-6.4-4.8-.5-9.7-.5-14.6-.2-3.3.3-6.5.8-9.8,1-.4,2.1,0,4.1-.1,6.2-.4,1.9.1,3.8.2,5.7,0,2.6,0,5.2.2,7.7.1.7.2,1.5.3,2.2l-.2.2s0,.1-.1.1c-.1.1-.2.1-.4.2-.3.2-.6.4-.8.6-.1.1-.3.2-.4.3h-.1c-.6.2-1.2-.2-1.2-.8h0Z"/>
  <path class="cls-1" d="M277.6,225.17q-.1,0-.2.1c.1-.1.2-.1.2-.1Z"/>
  <path class="cls-1" d="M278.5,224.67c-.1,0-.2.1-.2.2.1-.1.1-.2.2-.2Z"/>
  <path class="cls-1" d="M264,198.07c-1.8-.5-4.1-.5-5.3-1.8-.6-.9-1.4-1.8-1.8-2.8-.5-1.3-.7-2.7-.9-4-.1-.9-.5-1.8-.6-2.7-.2-.7.1-1.3.9-1.5,1.4-.5,2.8-.5,4.3-.4,1.6.1,3.2.1,4.8.1,2.8-.1,5.6,0,8.4-.2.6,0,1.3-.3,1.7.1,1.5,0,1.6,1.1,1.7,2.1.2.5.2,1,.1,1.5-.1,1.1-.4,2.3-1,3.3-1.1,3-1.9,5.4-6,5.7-2.2.3-4.3,1.2-6.3.6h0ZM265.6,196.17c1.9-.3,3.7-.6,5.6-.9,1.1-.4,1.6-1.3,2-2.3.2-1,.7-2,1.2-2.9.4-1.1.5-2.2.3-3.3-.2-.1-.4-.2-.5-.5v-.1c-4,.5-8.1.4-12.1.4-1.8.1-3.3-.5-4.9.1.7,1.9.8,4,1.6,5.9.5.9,1.2,1.7,1.8,2.5,1.7.5,3.3.9,5,1.1h0Z"/>
  <path class="cls-1" d="M231.5,216.77c-1.5-.2-3,0-4.6-.1-1.5-.1-2.9-.2-4.4-.1-1.8.1-3.5.4-5.3,0-.7-.1-1.5-.1-1.9-.7-.6-.9-.3-2.1-.3-3.1.3-2.3.9-4.5,1-6.8.4-4.1-.2-8.4.8-12.5-.4-.8.6-1.3,1.4-1.4,1.6-.3,3.2.3,4.8.3,3.5.3,7.1-.2,10.5.3.7.1,1.2.8,1.1,1.4.9,1.4.2,3.1.3,4.6.1.9-.1,1.9-.2,2.8.2,1,.3,2,.3,3,.1,2.5-.8,4.8-.5,7.3-.1,1,0,2-.1,3,.2,1.6-1.4,2.4-2.9,2h0ZM230.4,214.67c.3,0,.6,0,1,.1.3,0,.6.1,1,.1.1-.7-.1-1.5,0-2.2.1-.9-.2-1.8,0-2.8.3-2.4.8-4.8.3-7.2-.2-.8-.1-1.6,0-2.4.1-1.2,0-2.3.1-3.5,0-.4.1-.9,0-1.3-.3-.4-.4-.8-.5-1.2-2.7-.1-5.3,0-7.9,0-1.8,0-3.6-.4-5.3-.5-.7,3.8-.2,7.7-.6,11.5.1,3.1-1.1,6.2-1.2,9.2,1.6.3,3.2.1,4.7,0,2.9,0,5.6.3,8.4.2h0Z"/>
  <path class="cls-1" d="M225.3,215.67c-.7-.5-.3-1.4-.5-2.1-.1-1.8,0-3.4,0-5.1.1-1.9-.1-3.8-.1-5.7,0-2.7.3-5.3.1-8-.9-.9.5-2.1,1.6-1.3.4.3.4.8.4,1.2.3,2.1-.1,4.3-.1,6.5.1,2.7-.2,5.4.1,8,.1,1,.1,2.1.1,3.1.1.8,0,1.6-.1,2.4.1.7-.7,1.4-1.5,1h0Z"/>
  <path class="cls-1" d="M231.9,203.67c-3.5-.2-7.2-.3-10.7-.4-1.1.1-2.2-.1-3.2-.1-.6,0-1.3,0-1.7-.5-.3-.4-.2-1,.3-1.3,1.3-.6,2.7-.1,4-.1,3.1-.3,6.2,0,9.2.2.7,0,1.3.1,2,.1.4-.1.8,0,1,.2,2,.6.7,2.8-.9,1.9h0Z"/>
  <path class="cls-1" d="M144.4,221.87c-.1-.2,0-.3,0-.5-.2-.6-.3-1.2-.4-1.8-.4-1.4-.9-2.8-1-4.3-.2-2.7-.9-5.3-1-8-.2-1.7-.5-3.3-.6-5-.2-1.4.1-2.8-.5-4.1-.1-.3,0-.6.3-.8,1.2-.5,1.5,1.1,1.7,1.9.1,3.4.8,6.7.9,10.1.2.8.4,1.7.6,2.5.4,1.4.2,2.7.4,4.1.2,1.9.9,3.9.8,5.8,0,.6-1,.7-1.2.1h0Z"/>
  <path class="cls-1" d="M134.6,209.67h0c-.3-.1-.6-.4-.7-.8-.8.1-.9-1-.1-1.1h0c.8,0,1.8-.2,2.7-.3,1.4-.1,2.7-.3,4-.5,1.9-.3,3.8-.2,5.7-.5,1.2-.2,2.4-.3,3.5-.5.5-.1,1-.2,1.5.1,1,.6.4,1.8-.7,1.8-2.5.4-5.1.8-7.7.8-2,.2-4,.7-6.1.8-.7.3-1.4.5-2.1.2h0Z"/>
  <path class="cls-1" d="M107.1,222.87c-.4-.2-.6-.6-.6-1-.2-2.7-1.3-5.3-1.2-8,0-2.6-.5-5.2-.8-7.8-.2-2.1-.2-4.2-.8-6.3-.2-.5.3-1,.8-1,1.7.3,1.7,4.4,1.8,5.7,0,1.6.3,3.2.5,4.8.4,2.2.2,4.5.8,6.7.5,1.6.7,3.2.7,4.9,0,.6.3,1.3-.2,1.8-.3.2-.6.3-1,.2h0Z"/>
  <path class="cls-1" d="M96.7,210.87h0c0-.1-.1-.2-.1-.2-.6.2-1-.7-.3-.8.4-.1.7-.1,1-.3,2-.1,3.8-.8,5.8-.9,1.2-.1,2.4-.3,3.7-.4,2.5-.3,5-1,7.6-1.1.5-.1,1,.2,1.1.6.4,1.6-2.2,1.1-3.2,1.4-2.4.4-4.8,1-7.3,1.2-1.7.1-3.4.2-5,.6-.8.2-1.6.3-2.4.3-.4,0-.7-.2-.9-.4h0Z"/>
  <path class="cls-1" d="M73.3,220.97c-.3-.3-.2-.7-.2-1-.1-1.8-.1-3.6-.3-5.4-.4-1.9-.1-3.8-.1-5.8.1-1.6-.2-3.3-.2-4.9,0-1.2.1-2.4-.1-3.6-.2-.6-.5-2.1.7-1.7,1.2-.4,1.4.7,1.2,1.5,0,.8-.1,1.7-.1,2.5-.1,2.1,0,4.3,0,6.4-.2,2.3-.2,4.6,0,6.9.1,1.4.2,2.9.1,4.3.1.6-.4,1.2-1,.8h0Z"/>
  <path class="cls-1" d="M79.6,210.47c-2.8-.1-5.5-.4-8.3-.7-1.9.2-3.9-.2-5.8-.1-.4,0-.7,0-1,.2-.5.2-1.2-.2-1.1-.7.3-1.2,2.7-.8,3.8-1,1.5,0,3,.1,4.5,0,1.6.2,3,.3,4.7.4,1.1.1,2.2.2,3.3.2.5,0,1,0,1.4.3.5.4.5,1.2-.1,1.4-.5.2-.9.1-1.4,0h0Z"/>
  <path class="cls-1" d="M32.1,202.57c-.9-2-.3-4.1-.8-6.1-.4-1.7,0-3.5-.3-5.2-.1-.3-.3-.7,0-.9.4-.2.8,0,.9.4.6,1.3.3,2.8.4,4.2-.1,1.2.3,2.3.3,3.5,0,.7-.1,1.4,0,2,.1.7.2,1.3.5,2-.1.4-.8.5-1,.1h0Z"/>
  <path class="cls-1" d="M36.9,202.47c-.6-2.1-.5-4.3-.7-6.4-.3-1.5-.4-2.9-.4-4.4,0-.5-.8-.9-.4-1.5-.1-.3.3-.7.7-.4.4.4.6.9.9,1.3.2.8,0,1.7.1,2.5.1,1.2.3,2.4.3,3.7,0,1.6.1,3.2.4,4.8v.5c-.2.2-.8.2-.9-.1h0Z"/>
  <path class="cls-1" d="M41.5,201.57c-.6-1.3-.8-2.8-.9-4.2-.2-1.3-.5-2.7-.5-4.1-.1-.7-.3-1.3-.5-1.9-.1-.4-.4-.8-.2-1.2.2-.4,1-.4,1.2,0s.2.9.4,1.3c.4,1.6.3,3.3.7,5,.1,1.3-.1,2.6.4,3.8.1.4.4.7.3,1.1-.1.4-.7.5-.9.2h0Z"/>
  <path class="cls-1" d="M32.2,194.37c-.5,0-1.1.1-1.6.1-.6,0-1.2-.1-1.7-.1-.4,0-.8.2-1.2,0-.5.3-.7-.3-.2-.5.3-.8,2.1-.5,2.9-.5,1-.1,2-.2,3,0,2.3-.2,4.7-.3,7-.3,1.3-.1,2.6.2,3.8,0,.5-.1,1,.3.8.8-.6.9-2.6.3-3.7.5-2.2,0-4.3.2-6.5.2-.9,0-1.7-.1-2.6-.2h0Z"/>
  <path class="cls-1" d="M47.5,197.27c-4.9-.3-9.9-.2-14.8-.2h-2.1c-.1-.1-.2-.1-.4-.1-.1,0-.2,0-.3.1-.2,0-.5,0-.7-.1-.8-.1-1.5-.1-2.2,0-.5,0-.7-.7-.1-.8,1-.2,2.1-.1,3.1-.1.8,0,1.6.1,2.4,0h3.7c1.6,0,3.2-.1,4.9,0,2.3.1,4.6.1,6.8.2.5.2.4,1-.3,1h0Z"/>
  <path class="cls-1" d="M44.5,200.37c-4.2-.2-8.4-.1-12.6-.4-1.2-.1-2.4-.1-3.6-.2-.2,0-.3-.2-.3-.3-.2,0-.3-.1-.3-.2,0-.6,1.4-.2,1.9-.3,3.3-.1,6.5,0,9.8.3,1.4-.1,2.8.1,4.2,0,.8,0,1.5.3,2.3.1.7-.2,1.1.6.4.8h0c-.7.2-1.3.3-1.8.2h0Z"/>
  <path class="cls-1" d="M262.5,196.77c-.1-.1-.2-.2-.2-.3-.2-1.3-.6-2.3-.7-3.7-.5-1.3-.3-2.7-.7-4.1-.2-.9,0-1.8-.2-2.6-.3-.6.7-1,.9-.3.3.6.4,1.2.4,1.8.3,1.5.4,2.9.6,4.4.2.8.1,1.6.3,2.3.1.7.4,1.3.4,2,0,.2-.1.3-.2.4-.1.2-.4.3-.6.1h0Z"/>
  <path class="cls-1" d="M267.6,197.17c-.2-.1-.3-.3-.3-.4-.4-1-.5-2-.7-3-.7-2.4-.8-4.9-1-7.4-.3-.5.4-.7.7-.3.5,1.6.6,3.4.9,5.1,0,.9.3,1.8.5,2.7.1.5,0,1.2.1,1.7.1.4.2.8.3,1.3,0,.2-.3.4-.5.3Z"/>
  <path class="cls-1" d="M270.9,196.47c-.3-1.2-.5-2.4-.8-3.6-.3-1-.3-2.1-.6-3.2-.2-.8,0-1.6-.1-2.4-.1-.4-.1-1.8.7-1.2h.3c.1.1.2.2.1.4.3,2.5.6,4.9.8,7.4,0,.8.4,1.5.4,2.3,0,.2-.1.3-.3.4-.1.1-.3.1-.5-.1h0Z"/>
  <path class="cls-1" d="M257.5,189.77c-.3,0-.6,0-.6-.3s.4-.4.7-.4c.8-.2,1.7-.2,2.6-.3,4.8-.7,9.6-.6,14.4-.8.3,0,.7-.1.9.1.3.2.3.7-.1.9-.8.3-1.9.1-2.8.1-1.5.1-3,.1-4.5.2-1.9,0-3.8.4-5.8.3-1.5,0-3.2,0-4.8.2h0Z"/>
  <path class="cls-1" d="M256.8,192.67c-.1-.6,1-.5,1.4-.6,5.2-.7,10.6-.7,15.9-.7.3,0,.6.3.6.5-.1.9-2.2.4-2.9.5-4-.1-8,0-12,.2-.8.2-1.6.1-2.4.2-.2.2-.5.1-.6-.1h0Z"/>
  <path class="cls-1" d="M88.5,88.57c-3.8-.7-7.5-.5-11.3-.4-1.8.1-3.6.1-5.4.1-3,0-5.9-.4-8.8-.8-1.8-.2-3.6,0-5.4.1-1.6.1-3.3.2-4.9.2-2.2,0-4.4,0-6.6-.1-2-.1-3.8-.8-5.7-1-1.2-.1-2.4,0-3.5,0h-2.7c-.1-.2-.2-.5-.3-.8.3,0,.6,0,1-.1.8,0,1.6-.2,2.2-.7,1.5-.1,3-.3,4.5-.2,2,.3,4.3.7,6.2.5,2.7-.1,5.5-.1,8.2-.3,2.3-.2,4.6-.6,6.9-.4,2.8.2,5.5.6,8.2.6,2.1,0,4.1-.1,6.1-.2,2.4-.1,4.8-.2,7.3-.1,3,.1,5.9.9,8.8.8,3.2-.2,6-.8,9-.6,3,.1,6,0,9,0,2.2.1,4.4.4,6.6,0,3.4-.7,6.8-1.1,10.3-.7,1.3.1,2.7.1,4,.1s2.6,0,3.8.1c2.1.2,4.2-.1,6.3-.3,2.4-.3,4.9-.6,7.3-.2,4.5.8,9.1.6,13.6.3,2.8-.1,5.6-.3,8.4-.2,2.3,0,4.5.5,6.8.5,3.9-.4,7.6-1.2,11.5-1h7.3c1.7.1,3.1.1,4.8-.1,2.4-.3,4.5-.8,6.8-1,2.8-.2,5.6,0,8.4-.3,2.1-.1,4.4.1,6.5.1,2.8-.1,5.6-.5,8.4-.6,5.1.1,10.2.2,15.4,0,2.9-.2,5.8-.9,8.7-.8,3.4,0,6.9-.1,10.3,0,5.8-.5,11.4-.8,17.2-.3,2.6.1,5.2-.1,7.7-.4,1.1-.1,2.2-.1,3.3-.2,0,.1,0,.2.1.3.1.4.2.7.3,1.1,0,.2.1.3.1.5-1.5.1-3,.2-4.4.3-3.2.5-6.5.3-9.8.2-1.8-.1-3.5-.1-5.2-.1-3.7,0-7.4.7-11.1.6-3.8,0-7.6-.1-11.4.2-2,.2-3.9.6-5.9.7-5.1.2-10.2.1-15.3,0-2.4.1-4.7.5-7.1.6-1.3.1-2.6,0-3.9,0-1.2,0-2.4-.1-3.6,0-2.9.3-5.8.2-8.7.3-3.9.6-7.8,1.5-11.8,1.1h-3.2c-2.8,0-5.6,0-8.4.2-3.2.3-6.4,1.3-9.7.8-4.2-.6-8.4-.3-12.6-.1-3.5.2-7,.3-10.4.1-1.9-.2-3.7-.5-5.6-.6-2.2-.1-4.4.4-6.6.7-1.8.2-3.5.2-5.3.1-1.2,0-2.4-.1-3.5,0-1.3,0-2.6,0-3.9-.1-1.5-.1-2.9-.1-4.4,0-3.7.4-7.3,1.6-11,1-1.4-.1-2.8,0-4.1,0-1,0-2.1.1-3.1.1h-2c-1.3,0-2.6,0-3.9.1-2.4.3-4.8.7-7.2.7-1.3-.1-2.5-.2-3.6-.4h0Z"/>
  <path class="cls-1" d="M101.1,125.87c-2.2-.2-4.4-.4-6.5-.5-1.8-.1-3.6,0-5.4.1-1.5.1-3,.2-4.5.1-3.8,0-7.5-.8-11.2-.7-4.8.2-9.5,1-14.3.8-3.3-.3-6.5-1.4-9.8-.9-1.7.2-3.5.4-5.2.4-2,0-3.9-.4-5.9-.4-2.5,0-4.8.2-7.2.4-.4-.1-.9-.1-1.3-.1h-.2v-.2c0-.2.1-.3.2-.5,0-.1.1-.1.1-.2,1.9-.1,3.7-.4,5.5-.5,1.9-.2,3.7-.1,5.5-.1,1,0,2,.1,3.1.1,2.5-.1,4.9-.7,7.4-.8,1.6-.1,3.1.1,4.6.3,1.4.2,2.7.4,4.1.3,2.5-.1,5.1-.4,7.6-.7h2.6c.3,0,.6,0,.9.1h5c.4,0,.7.1,1,.1h1.5c.2,0,.3,0,.5-.1.1,0,.2,0,.4-.1h.2q.1,0,.2-.1l.1-.1v-.3h0v-.1c2.9.2,5.7.1,8.6,0,2.2-.1,4.4-.2,6.5-.1,3.4.1,6.8.8,10.3.8,2.1-.1,4.1-.5,6.2-.5,2.5-.2,5,.3,7.5.4,5.6.2,11.2,0,16.7-.6,1.6-.1,3.2,0,4.7.2,1.4.1,2.8.3,4.2.2,6.1-.4,12.2-1.7,18.3-1.1,2.3.2,4.7.4,7,.3,3.3-.4,6.6-.7,9.9-.7,3.8-.2,7.6.4,11.5.4,1.9,0,3.7-.5,5.6-.6,1.6,0,3.3,0,4.9.1,1.6.1,3.3.1,4.9.1,2.7,0,5.5.1,8.2-.2,2.5-.2,5-.8,7.5-1.1,7,.3,14.2.3,21.1-1,2.5-.4,5-.2,7.5-.2,5-.2,10-.3,14.9-1,2.2-.2,4.5-.2,6.7-.2h3.6c5.3-.3,10.7-.8,16-1.2h.5c.1.1.1.2.2.3l.1.1v.3c0,.3,0,.5-.1.8l-.1.5c-5.8.6-11.5,1-17.3,1.3h-2.9c-2,0-3.9,0-5.8.1-2.7.3-5.4.8-8.1.8-3.1.1-6.1.5-9.2.4-2.9-.1-5.7.1-8.5.7-6.1.9-12.3.9-18.5.6-4.2.6-8.4,1.4-12.7,1.3-4.1,0-8.2-.1-12.4-.3-2.6.1-5.1.8-7.7.6-6.6-.5-13.3-.7-19.9.3-2.1.2-4.2,0-6.2-.1-2.3-.2-4.6-.3-6.9-.1-5.8.4-11.7,1.8-17.5,1-2.6-.3-5.2.2-7.8.4-5.3.3-10.8.6-16.1,0-2.3-.3-4.5,0-6.8.2-1.5.2-3,.3-4.5.3-1,.5-2.1.4-3.1.2h0Z"/>
  <path class="cls-1" d="M52.8,107.97c-4-.8-8-.8-12.1-.4-1.8,0-3.8.3-5.6.1-.1-.4-.4-.8-.7-1.1,1,.2,2.2.1,3.2.1,2.1-.1,4.2-.4,6.3-.5,2.3-.2,4.5-.3,6.8,0,1.7.2,3.4.5,5.2.4,2.8-.1,5.4-.7,8.2-.9,4.4,0,8.8.3,13.2.3,3.1.1,6.2-.5,9.3-.7,3.1-.3,6.2,0,9.4.2,5.2.3,10.4-.5,15.7-.5,2.8,0,5.5.3,8.2.3,2.6-.1,5.2-.6,7.9-.6,2.9,0,5.8-.2,8.8-.1,1.9,0,3.8.3,5.7.3,1.7-.1,3.4-.4,5.1-.6,3.4-.3,6.8-.2,10.2-.2,1.9,0,3.8.1,5.8.1,2.7,0,5.2-.6,7.9-.8,2.5-.1,5.1.3,7.6.5,3.1.2,6.3.1,9.4-.2,2.6-.3,5.2-.6,7.9-.5,3.2.1,6.4.7,9.7.6,3.8-.3,7.5-.7,11.2-.9,3.5-.3,6.9.1,10.4.1,2.5,0,5-.6,7.5-.7,4.3-.1,8.6-.2,12.9-.3,3.3-.1,6.3-1.1,9.5-1.7,2.8-.4,5.8-.5,8.6-.7,2.9-.2,5.8.5,8.7.5,2-.1,3.9-.6,5.8-.8,3.3-.3,6.7-.3,9.9-.5,1.5,0,3-.1,4.5-.1h.5v.1c0,.1,0,.3.1.4v.9h-3.8c-.2,0-.5,0-.7.1-.2,0-.4.1-.7.1h-8.6c-.2,0-.4,0-.6.1-.2,0-.4,0-.5.1h-1.4c-.2,0-.3,0-.5.1h-.8c-.1,0-.2,0-.2.1s0,.2.1.2h0c-1.7.3-3.5.6-5.2.3-2.2-.2-4.3-.6-6.5-.5-2.8.2-5.6.3-8.4.7-2.7.5-5.4,1.4-8.2,1.6-5.2.4-10.4.2-15.6.5-2.2.2-4.3.6-6.5.7-2.1,0-4.3-.1-6.4-.1-3.8,0-7.5.3-11.2.7-2.3.3-4.7.5-7,.3-3.3-.2-6.7-.7-10-.4-4.3.3-8.6,1.1-12.9.8-2.8-.1-5.6-.5-8.4-.5-2.8.1-5.6.8-8.4.8-4.5,0-9-.1-13.5-.1-3.3.3-6.6,1-10,.7-4.6-.4-9.2-.2-13.8,0-2.8.3-5.6.7-8.5.5-5.1-.5-10.1-.1-15.2.2-3.7.3-7.3-.1-11-.3-3.6-.2-7.2.4-10.7.6-4.8.1-9.5-.2-14.3-.5-1.9-.1-3.7.1-5.5.3-1.5.2-3.1.3-4.6.3-1.3.7-2.3.6-3.2.5h0Z"/>
  <path class="cls-1" d="M32.5,106.57s0,.1.1.1c-.1,0-.1-.1-.1-.1Z"/>
  <path class="cls-1" d="M66.2,150.87c-3,0-6-.6-9-1.1-1.4,0-2.9.1-4.3.2-1.9.2-3.9.3-5.8.2-3.3,0-6.5-.5-9.7-1-2.2-.2-4.4.2-6.6.3h-4.4v-1.1c3.5.2,7-.7,10.5-.8,5.8.5,11.7.9,17.5-.1,2.1-.3,4.1,0,6.2.3,1.6.2,3.3.5,5,.4,2.7,0,5.5-.2,8.2-.4,3.3-.2,6.6-.5,9.9-.3,2.1.1,4.3.2,6.4.2,3.8-.3,7.6-1,11.5-.7,1.6,0,3.3,0,4.9.1,2.5.1,5,.2,7.4,0,4.9-.5,9.8-.2,14.7-.1,3.9.3,7.9-.1,11.8-.3,2.8,0,5.5.6,8.3.8,2.7.2,5.3-.3,8-.4,4.8-.2,9.6.1,14.4.3,3.6-.2,7.1-1.2,10.7-1.2,4.3-.1,8.6-.4,12.9-.6,2.7-.2,5.2-.9,7.8-1.2,3.4-.4,6.9-.6,10.3-.7h2.2c1.4,0,2.8.1,4.2-.1,4.6-.7,9.2-1.4,13.8-1.2,2.9,0,5.7.4,8.6.2,2.9-.2,5.7-1,8.6-.9,3.1.2,6.1.6,9.2.8,3.5.3,7.1-.1,10.6-.4,2.9-.2,5.8.4,8.7.7,1.9.1,3.9-.1,5.8-.2,2.2-.2,4.4-.3,6.6-.2v2.7c-2.8-.2-5.6,0-8.4.3-3.2.4-6.4-.2-9.6-.5-2.1-.2-4,0-6,.2-1.4.1-2.8.3-4.3.3-4,0-8-.4-12-.8-3.5-.2-6.8.8-10.3.9-1.8.1-3.6,0-5.3-.1-1.9-.1-3.8-.2-5.6-.1-3.3.1-6.5.7-9.7,1.1-1.7.2-3.5.2-5.2.2h-3.5c-3.1.2-6.1.3-9.2.8-2.5.4-4.9,1-7.4,1.2-4.6.2-9.2.5-13.8.6-2.6.1-5.1.8-7.7,1-2.3.3-4.7,0-7-.1-2.2-.1-4.5-.1-6.7-.1-1.7,0-3.3.1-5,.3-1.9.2-3.7.3-5.6.2-2.6-.1-5.1-.6-7.7-.7-2.3,0-4.5.3-6.8.3-4.4.1-8.8-.2-13.2-.3-3-.1-6,.3-9.1.5-1.6.1-3.3,0-4.9-.1-1.2-.1-2.5-.1-3.7-.1-2.3,0-4.6-.2-6.9,0-2.9.3-5.8.8-8.7.6-2.8,0-5.7-.3-8.5-.2-4.2.1-8.4.5-12.7.5l-.4-.1h0Z"/>
  <path class="cls-1" d="M114.5,187.57c-4.2-.4-8.5-.8-12.8-.6-2.1.1-4.2.2-6.3.1-2-.1-4-.5-6-.7-2.8-.2-5.5.1-8.2.3-1.8.1-3.5,0-5.3,0h-3.5c-1.2,0-2.5-.1-3.7-.2-1.3-.1-2.7-.2-4-.2-2,.1-4.1.5-6.1.6-3.2.1-6.4,0-9.6-.2-2.5-.2-5.1-.3-7.6-.3-2.1.1-4.3.4-6.5.2-1.9-.2-4-.6-5.9-.7-1.6-.1-3.3-.1-4.9,0-1.2,0-2.4.1-3.6,0v-.2c0-.4.1-.7.1-1.1h.2c3.4-.1,6.8-.6,10.2-.3,1.8.2,3.6.4,5.5.3,2.3-.1,4.5-.7,6.9-.6,2.4,0,4.9,0,7.3.1,2.9.1,5.8.3,8.7-.1,3.1-.5,6.2-.9,9.3-.4,3.9.3,7.9.2,11.8.2,3.6-.2,7.2-.7,10.8-.2,3.3.7,6.5.5,9.9.4,1.7-.1,3.4-.1,5.1-.1,3.7,0,7.3.8,10.9.7,3-.2,5.9-.7,8.9-.6,2.5,0,5,.3,7.5.5,4.2.2,8.5-.1,12.7-.1,1.9-.1,3.8,0,5.7.2,1.6.1,3.2.2,4.9.2,3.7-.2,7.4-.8,11.2-.8,3.5-.2,7,0,10.6,0,3-.1,5.9-.8,8.8-.9,3.1-.1,6.1-.2,9.2-.2,2,.1,4.1.2,6.1,0,2.5-.2,4.9-.9,7.5-.9,4.2.1,8.5.6,12.7.4,4.3-.3,8.5-1.6,12.9-1.5h3c2.9,0,5.9,0,8.8-.2,2.6-.2,5.2-1,7.8-1.1,2.4,0,4.8.1,7.2.2,2.4.1,4.9.3,7.3.2,4.1-.2,8.1-1.4,12.3-.7,2.1.2,4.3.6,6.3.4v2.4c-1.7.1-3.5-.1-5.2-.3-2.2-.2-4.4-.5-6.6-.1-6.8,1.4-13.7.5-20.6.4-4.1.2-8,1.5-12.2,1.4h-4.6c-2.4,0-4.8,0-7.2.2-2.1.2-4.1.8-6.1,1-5.2.8-10.5.1-15.8,0-2.9.2-5.7,1-8.6,1.1-5,0-10.1-.1-15.2.2-3.1.3-6.2,1-9.3.9-5.8-.2-11.7-.1-17.5.6-4,.5-8-.2-12-.2-4.4,0-8.8.2-13.2.2-3.1-.1-6.2-.5-9.4-.5-3,.1-6,.7-9,.7-.5-.1-1.1-.1-1.6-.1h0Z"/>
  <path class="cls-1" d="M104.7,187.97c-3.8-.6-7.5-.4-11.3-.2-5.2,0-10.5-.5-15.6-.8-1.7,0-3.4.1-5,.2-1.6.1-3.1.3-4.7.2-3.8.2-7.5-.5-11.3-.8-2,0-4,0-6,.2-2.6.1-5.2.3-7.9,0-3.1-.2-6.1-.8-9.3-.7-1.5,0-3,.1-4.4.3-1.9.2-3.7.4-5.6.2h-2.4c-.1-.2-.3-.3-.5-.4-.1-.1-.2-.2-.3-.2v-.4c0-.5.1-1,.1-1.4,0-.2.1-.4.1-.7h0c.2,0,.4.1.6.1.6.1,1.3.2,1.9.2.2.1.4.1.6.1h.2c.1.1.3.1.4.1h.1c.2,0,.3-.1.4-.2,1.5,0,3-.2,4.4-.3,1.9-.2,3.9-.4,5.8-.3,4.5.2,9.1.6,13.6.7h0c.5,0,.9.1,1.2.3,3-.2,5.9-.5,8.9-.1,3.9.6,7.8.7,11.7.4,3.2-.3,6.4-.6,9.6-.3s6.4.2,9.5.5c2,.1,3.9,0,5.9-.1,1.4-.1,2.9-.1,4.3-.1,2.2,0,4.4.6,6.6.5,2.4-.3,4.8-.3,7.2-.4,2.9-.2,5.9-.7,8.8-.6,2.4.1,4.7.5,7.1.2,1.7-.1,3.4.2,5.2.3,3.2-.1,6.5-.4,9.7-1,1.7-.2,2.3,2.1.6,2.5-1.8.5-3.6.7-5.5.8-2.8.4-5.5.5-8.3.1-2.7.1-5.4.3-8.1-.1-2.7-.2-5.4.3-8,.5-2,.2-3.9.2-5.9.3-1.1.1-2.3.2-3.4.2-.1.3-.6.2-1,.2h0Z"/>
  <path class="cls-1" d="M156.6,187.77c-2-.1-4-.5-6-.9-1.5-.2-3,.1-4.6.1s-2.9-.8-4.4-.9c-1.2-.1-2.3-.1-3.5,0h-2.5c-.2.3-.5.2-.8,0-.2-.1-.4-.1-.5-.1-.2,0-.3-.2-.3-.3,0-.2.2-.3.4-.3,2.5,0,4.9-.4,7.4-.5,1.2,0,2.3.3,3.4.4.9,0,1.6-.2,2.4-.3,2-.4,4-.2,6,0,1.9.2,3.7.3,5.6,0,8.2-1.5,16.6-1,24.9-1.4,3.8-.1,7.5-.8,11.3-1.2,3.5-.3,7-.5,10.5-.7,4.4-.1,8.9-.4,13.3-.5,4.6-.6,9.2-1.1,13.9-1.6h7c4.9.1,9.9.2,14.7-.5,2.3-.2,4.5-.2,6.8-.2,2.8-.2,5.6-.1,8.4-.1,2.9-.2,5.7-.4,8.6-.4,2.4-.1,4.7-.5,7.1-.5.9,0,1.8-.1,2.8-.2v.2c0,.4.1.8.2,1.2v1.5c-3.1.3-6.2.5-9.4.8-3.4.1-6.7.3-10.1.5-2-.1-4.1,0-6.1,0-1.5.1-3,.1-4.4.1-1.8,0-3.6.2-5.3.4-1.8.2-3.7.4-5.6.4-4.8,0-9.6-.1-14.4-.1-4.5.4-9,1-13.5,1.5-7.4.4-14.8.6-22.2,1.2-4.3.3-8.4,1.2-12.7,1.4-5.5.3-11.1.1-16.6.3-1.8,0-3.6.2-5.3.4s-3.5.4-5.2.4c-.6-.1-.9-.1-1.3-.1h0Z"/>
  <path class="cls-1" d="M34.6,149.87c-1.2,0-2.3-.2-3.5-.3h-.9c-1.2-.1-2.4-.2-3.5-.2,0-.8.1-1.6.1-2.4h.8s.1,0,.1-.1h1.2c2.2.2,4.3.7,6.4,1h0c1.5.4,1,2-.4,2h-.3Z"/>
  <path class="cls-1" d="M51.3,125.97c-4.9-.2-9.8-.9-14.8-.8-1.6.1-3.2.3-4.8.4-.2-.1-.3-.2-.5-.3-.5-.2-1-.2-1.5-.2h-.1v-.2c0-.2.1-.3.2-.5.1-.1.1-.2.2-.3.2-.2.3-.5.5-.7.8-.1,1.7-.2,2.5-.3,6.5-1,13.1.2,19.7.5,1.1.3,1.1,1.7,0,2.1-.3.1-.7.2-1,.2-.1.1-.3.1-.4.1h0Z"/>
  <path class="cls-1" d="M76.5,126.67c-2.3-.4-4.6-.4-7-.6-3.1-.4-6.3-.3-9.4-.3-4.6.2-9.1-.3-13.7-.5-1.3-.2-2.5-.3-3.6-.9-.5-.2-.6-.9-.1-1.2s1.2-.1,1.1.5c2.1.6,4.5.5,6.7.5h2c5.2-.2,10.5-1.2,15.8-.9,3.6.1,7,.3,10.6.7,4-.2,7.9-.5,11.9-.7,3.2-.1,6.3.1,9.5.3,2.9.2,5.7.4,8.5.4,2.6-.1,5.3-.5,7.9-.4,2.7.1,5.4.4,8.1.4,1.9-.1,3.8-.1,5.7-.1,5.3-.3,10.5-1,15.7-1.5,4.9,0,9.7,0,14.6.1,5.3.1,10.5-.4,15.8-.5,5.5,0,11,.7,16.5.2,1.2-.1,2.5-.3,3.7-.4,2.6-.2,5.2.2,7.8.2,2.2-.1,4.3,0,6.5.1,2-.1,4-.4,6.1-.4s4.2.3,6.4.2c2.1-.1,4.1-.4,6.2-.4h3c1.9,0,3.8,0,5.6-.2,2.8-.3,5.5-.2,8.3-.2,3.6-.2,7.2-.6,10.8-.9,2-.2,3.9-.7,5.9-.9,2.9-.2,5.7-.6,8.6-.3,3.6.1,7.3-.2,10.9-.5,1.8-.3,3.7-.6,5.6-.8,1.5-.2,3-.4,4.5-.5l.1.1v.3c0,.3,0,.5-.1.8v.3h-.5c-4,.3-7.9,1.3-11.9,1.6-3.8.4-7.6.5-11.5.3-1.9.1-3.8.3-5.8.5-5.2,1-10.4,1.5-15.7,1.9h-2.9c-1.7,0-3.5-.1-5.2.1-4,.5-7.9.1-11.9.4-2.6.4-5.2.3-7.7.2-1.4,0-2.7-.1-4.1-.1-1.7.1-3.3.4-4.9.4-1.6-.1-3.3-.1-4.9-.1h-3.1c-2.3-.2-4.7-.3-7-.1-5.5.8-11.2.5-16.7.3-4.2-.1-8.4.3-12.6.5-3.9.1-7.8.1-11.8.1h-7.5c-4.5.4-9,1.1-13.5,1.5-2.9.4-5.8.2-8.7.4-1.5,0-3.1-.1-4.6-.2-2.5-.2-4.9-.3-7.4,0-5,.6-10.1.2-15.2-.1-2-.1-4-.2-6.1-.2s-4.2.4-6.3.4-4.5.4-6.7.4c-.6,0-1.5-.1-2.3-.2h0Z"/>
  <path class="cls-1" d="M70.5,108.87c-2.8,0-5.5-.5-8.2-.6-4.5-.1-8.9.2-13.3.2-3.9-.3-7.7-.7-11.6-.8-.8,0-1.6-.1-2.5-.2-.2-.4-.5-.8-.9-1.1-.4-.2-.9-.4-1.3-.4v-.5c1.1-.4,2.4-.3,3.6-.2.6,0,1.1.1,1.6.1,2.6-.2,5.1,0,7.7.2,1.9.1,3.8.3,5.7.3,1.3.1,3.3,0,5.5-.2,3.9-.3,8.3-.6,9.9.9,3.3.3,6.6.1,9.9-.2,3.1.1,6.1-.4,9.1-.5,2.2,0,4.5.2,6.7.3,1.5,0,3.1,0,4.6.1,1.3,0,2.6.1,3.8.1,5.6-.7,11.2-1.1,16.8-1.7,3.1-.1,6.1-.3,9.2-.2.8,0,1.5,0,2.3.1.9.1,1.8.2,2.7.1,1.1.1,2.1.3,3.2.4.7,0,1.4-.2,2,.1s.6,1,.1,1.4c-.4.3-.9.3-1.3.3-1.3.2-2.7-.2-4-.2-.6.2-1.2.2-1.9.1-3.9-.5-8,0-11.9.2-4.1.5-8.2,1-12.3,1.3-1.6.2-3.1.4-4.7.5-1.8.1-3.5-.2-5.2-.2-3.3.1-6.6-.3-9.9-.4-3.1.1-6.1.5-9.2.4-1.5,0-3.1.2-4.6.2-.6.1-1.1.1-1.6.1h0Z"/>
  <path class="cls-1" d="M32.5,106.57s0,.1.1.1c-.1,0-.1-.1-.1-.1Z"/>
  <path class="cls-1" d="M150.6,98.57c-3.2-.1-5-3.4-4.9-5.9.3-1.2,1.3-2.2,2.2-3,1.4-.8,2.9.1,4.4.2,1.4.2,2.9-.1,4.3,0,1.1-.8,2.6-1,4-1.3,1.2-.2,2.4.1,3.6.2,1.7,0,3.2.8,4.1,2.1.7,1.1.9,2.5,0,3.6-1.3,1.6-4.5,2.3-6.5,1.3-.6,1.3-3.6,2.6-5.2,2.6-1-.2-1.8-.9-2.7-1.3-.4.5-1.1.8-1.7,1.1-.3.2-.9.4-1.6.4h0ZM150.6,96.57c.5-.2,1.1-.6,1.5-.9.1-.8-.3-1.7,0-2.5.3-.9,1.6-1,2.2-.3.8.6.7,1.7,1.1,2.5.5.3,1.1.5,1.6.8.8-.3,1.7-.5,2.4-1.1.4-.2.4-.6.5-.9.1-.5.3-1,.4-1.5.2-1.3,2.2-1,2.2.2,0,.2.1.4.1.7.7.6,1.6.6,2.4.3.7-.2,1.4-.5,1.5-1.2-.1-.8-.7-1.7-1.7-1.9-1.2-.1-2.4-.3-3.6-.3-1,.2-2,.3-2.8.7-.5.3-.9.7-1.5.7-.8-.1-1.6,0-2.4.1-1.9.2-3.9-.6-5.8-.3-.3.4-.7.7-.8,1.1,0,.6.1,1.2.4,1.8.6.8,1.1,1.9,2.3,2h0Z"/>
  <path class="cls-1" d="M150.2,95.87c-.6,0-1.3-.4-1.4-.9-.5-.6-1.2-2-.1-2.4.1-.1.2-.2.4-.2s.4.1.5.3c.2.1.3.3.4.5v.5c.1.7,1.1.7,1.3,1.3s-.4,1.1-1.1,1h0v-.1h0Z"/>
  <path class="cls-1" d="M163.3,93.27c-.3-.3-.2-.7.2-.8.3-.2.3-.6.7-.8.4-.3,1,0,1,.4-.1.7-1,1.8-1.9,1.2h0Z"/>
  <path class="cls-1" d="M151.4,100.87c-1.5-.1-3.1-.1-4.6-.3-.8.1-1.5.1-2.3-.1-.5.3-1.2-.1-1.2-.6,0-.4,0-.8-.1-1.2-.3-4.2,0-8.3.2-12.5-.4-.4-.1-1,.5-1.1.1-.3.6-.2.5.1.4.3.6.8.6,1.2,0,1-.1,1.9-.1,2.9,0,3.3.2,6.6.5,9.8.4.1.8-.1,1.2-.1.8-.1,1.8.2,2.6.1,3.2,0,6.3,0,9.5-.1,2.6.2,5.2,0,7.8.1.7,0,1.1-.2,1.8-.2s1.4,0,2-.1h0c1.1-4,.4-8.1.6-12.1h0c0-1.3,2.1-1.2,1.9.1.2,2.3.2,4.5.3,6.8,0,1.3-.1,2.4-.3,3.6-.2,1.1-.2,2.4-1.2,3.2-.9.5-2,.4-3,.5-.8.1-1.5.2-2.3.2-.9,0-1.8-.2-2.8,0-1.9,0-3.8-.1-5.6-.1-2.1-.2-4.3-.1-6.5-.1h0Z"/>
  <path class="cls-1" d="M102.9,89.67c-1.9-.2-3.8-.2-5.7-.4-2.3.2-4.6.3-6.9.2-3.2-.4-6.4-.3-9.5-.4-3.7-.5-7.4-.3-11-.4-.2.3-.6.3-1,.3-1.3,0-2.6-.2-3.8-.2-3.4-.1-6.8-.2-10.2-.5-.6.2-1.3,0-1.9,0-.9-.1-1.8,0-2.6,0h-1.1c-.8.1-1.7.2-2.3-.3-2-.2-4.1-.1-6.1.1-1.3.1-2.6.2-3.9.2-.3-.1-.6-.3-1-.4-.4-.2-.8-.2-1.3-.2-.1-.3-.3-.6-.4-.9h.7c-.1-.1-.2-.2-.2-.4s.2-.3.4-.3c1.9.2,3.9.3,5.8.2,2.9,0,5.7.3,8.5.4,3.5.1,7,.1,10.5.3,2.7-.1,5.4-.3,8,0,3,.2,5.9.1,8.9.1,1.4,0,2.7.3,4.1.4h.7c.4,0,.9-.1,1.2.1,2.7-.1,5.4.1,8.1.2,2.3.1,4.5-.3,6.8-.3,1.9.2,3.8.3,5.7.5,1.5-.2,3-.3,4.5-.4,4.6-.8,9.4-.7,14.1-1,3.2-.7,6.5-.5,9.8-.5,3.9-.2,7.8-.5,11.8-.7,1-.1,1.2,1.2.2,1.4-4,.1-7.9.4-11.9.6h-2.6c-1.7,0-3.4,0-5,.2-3.9.7-7.8.6-11.7.9-1.9.1-3.7.7-5.5.7-1.3,0-2.5.4-3.8.4l-.4.1h0Z"/>
  <path class="cls-1" d="M174.4,203.87c-.2-.1-.2-.2-.3-.4v-.2c-1,0-.8-2-1-2.6-.6-3.3-.4-6.7-.5-10-.1-1.5-.3-3-.5-4.5,0-.2.2-.5.5-.5.7-.1.7.7.8,1.1.5,3,.4,6,.8,9,.3,2.5.9,5,.8,7.5.2.2-.2.8-.6.6h0Z"/>
  <path class="cls-1" d="M179.3,204.17c-.3-.4-.1-1-.2-1.4-.1-.1-.2-.2-.2-.4.2-.5,0-1.1.1-1.6.1-1.8-.4-3.6-.5-5.4-.3-3-.3-5.9-.1-8.9,0-.3-.1-.9.4-.9.4,0,.4.4.4.7.2.2.1.5.1.7-.1,1.4.1,2.9.1,4.3.2,3.9.4,7.8.4,11.7,0,.4,0,.7.1,1.1,0,.1-.4.3-.6.1h0Z"/>
  <path class="cls-1" d="M184.9,203.47c-.7-2.3-.1-4.7-.3-7.1,0-2.6-.6-5.2-.7-7.8.1-1-.3-2.1,0-3,.2-.2.7-.3.8.1,0,.7,0,1.4.1,2.1.1,1.7.8,3.2.8,4.8,0,3.4-.4,6.9-.1,10.3.4.4-.1,1-.6.6h0Z"/>
  <path class="cls-1" d="M190.2,203.67c-.3,0-.5-.3-.4-.5,0-.5-.1-1-.2-1.5-.2-.8-.2-1.7-.1-2.6,0-3.3,0-6.5-.4-9.8h0c-.1-1.1-.1-2.1-.2-3.2,0-.4-.2-1,.4-1.2,1-.1.5,1.5.7,2.1.1,2.4.5,4.7.7,7.1,0,2,.2,4.1.1,6.1-.1.9-.3,1.9,0,2.8.1.4-.2.8-.6.7h0Z"/>
  <path class="cls-1" d="M196.1,203.37s0-.1,0,0c-.2.1-.6.1-.7-.2-.1-.3-.2-.7.3-.7.1-.7-.3-1.5-.3-2.2,0-1.4-.4-2.8-.5-4.3,0-3.7,0-7.4-.2-11.1.1-.7,1.2-.5,1.1.2,1.1,5.3,0,10.7.7,16,.1.7.3,1.4.5,2.1,0,.4-.6.5-.9.2h0Z"/>
  <path class="cls-1" d="M177.9,175.97c-.5-.6-.4-1.4-.3-2.1,0-1.7.3-3.5.5-5.2.1-.9.2-1.8.3-2.7,0-.4.1-.9.7-.8.2,0,.4.3.3.5-.3,3.1-.6,6.2-.7,9.3,0,.2.1.4.2.6.3.5-.7,1-1,.4h0Z"/>
  <path class="cls-1" d="M182.2,175.77c-.8-.4-.4-1.4-.4-2,0-1.4.1-2.8.2-4.2v-2.3c0-.5-.2-1.3.6-1.3.4,0,.5.4.5.7,0,2.8,0,5.5-.3,8.3,0,.2.2.5,0,.7-.2.1-.4.2-.6.1h0Z"/>
  <path class="cls-1" d="M185.3,175.77c-.1,0-.2-.1-.3-.2v-.1c-.3-.2-.2-.5-.2-.8.3-1.3,0-2.5-.1-3.8-.1-1.7-.1-3.3-.2-5-.1-.8,1.2-.8,1,0,.1,3.1.8,6.2.3,9.3.3.3-.1.7-.5.6h0Z"/>
  <path class="cls-1" d="M188.5,176.37c-.5-3.5-1-7-.7-10.5,0-.6,1-.6,1,0-.3,3.5.4,7,.6,10.5h0c0,.3-.7.4-.9,0h0Z"/>
  <path class="cls-1" d="M193.9,175.47c-.2-.1-.2-.4-.2-.6s0-.3-.1-.4c-.8-.7-.7-2.2-.6-3.2.1-1.8-.2-3.7-.2-5.6,0-.4.7-.4.7,0,.2,2.2.2,4.4.7,6.6.2.9.3,1.8.4,2.7.1.4-.3.8-.7.5h0Z"/>
  <path class="cls-1" d="M217.7,180.37c0-.2.2-.3.3-.3s.3.1.3.3-.2.3-.3.3-.3-.1-.3-.3Z"/>
  <path class="cls-1" d="M217.3,181.77c-.6-2.3-.1-4.8,0-7.1.1-2.7.4-5.2.6-7.9,0-.8-.2-1.7.1-2.5.2-.6,1.2-.5,1.2.2,0,2.1,0,4.1-.2,6.2-.2,2.4-.3,4.8-.6,7.1-.1,1.2.1,2.5-.2,3.8,0,.4-.6.6-.9.2h0Z"/>
  <path class="cls-1" d="M221.9,182.17c-.3,0-.5-.2-.4-.5v-1.8c-.1-1.5,0-2.9.3-4.3.4-3.1.4-6.1.4-9.2.1-.6.1-1.2.3-1.8.1-.2.3-.3.6-.3s.5.2.6.4c-.1,1.4-.2,2.8-.3,4.2v-.1c-.1,1.9-.1,3.8-.2,5.7-.3,2-.6,3.9-.5,5.9.2,0,.3.2.3.4-.1.2-.1.7-.5.7,0,.3-.1.8-.6.7h0Z"/>
  <path class="cls-1" d="M226.2,181.37c-.3-2.8.1-5.5.2-8.3.2-2.8-.2-5.7,0-8.5.2-.6,1.2-.5,1.2.2.1,5,.2,10-.4,15-.1.6.5,2-.4,2.1-.3-.1-.6-.3-.6-.5h0Z"/>
  <path class="cls-1" d="M230.8,181.87c-.4-.1-.5-.5-.5-.8-.1-.8,0-1.6-.1-2.4.1-4.3-.2-8.6-.4-12.8.1-.7-.4-2.3.8-2.4,1,.2.4,1.6.6,2.2-.1,2.2.3,4.5.3,6.7,0,2.7-.1,5.5-.1,8.2,0,.3.3.7.1,1-.1.3-.5.4-.7.3h0Z"/>
  <path class="cls-1" d="M234.7,181.37c-.5-1.6-.1-3.3-.2-4.9-.1-2.3-.5-4.5-.5-6.8-.1-1.6,0-3.1,0-4.7.1-.6-.2-1.5.6-1.7,1.2-.2.9,1.1.9,1.8-.3,2.1.2,4,.5,6,.2,2.9.1,5.8-.1,8.7.1.1.1.2.2.2,0,.1,0,.2-.1.3,0,.3.2.5.1.8-.1.6-1.1.8-1.4.3h0Z"/>
  <path class="cls-1" d="M259.6,179.27c-.7-3.5-.4-7.2-.2-10.7-.1-1.3,0-2.6-.1-3.9,0-.5-.2-1.2.1-1.7.5-.6,1.4-.1,1.2.5.3,4.4-.3,8.7,0,13.1.1.8.2,1.6.2,2.4-.1.4-.8.8-1.2.3h0Z"/>
  <path class="cls-1" d="M263.6,179.77c-1.3-3-.5-6.2-.4-9.3,0-1.4-.3-2.8-.5-4.2-.1-1.1-.1-2.2-.3-3.3,0-.1.2-.2.3-.2.2-.2.8-.2.9.1.2.7.2,1.6.2,2.3.4,2.9.8,5.7.7,8.7,0,1.9-.1,3.9.2,5.8.1.5-.9.7-1.1.1h0Z"/>
  <path class="cls-1" d="M267.2,179.47c-.4-.1-.5-.4-.4-.7-.1-2.2-.1-4.5-.1-6.7-.2-2.3-.9-4.5-.9-6.8-.2-.5-.2-.9-.2-1.4-.2-.3,0-.8.5-.8s.7.4.7.8c-.1.6.2,1.2.2,1.8,0,.8,0,1.7.2,2.5.7,2.7.8,5.5.7,8.2,0,.8.1,1.7,0,2.5.1.4-.2.7-.7.6h0Z"/>
  <path class="cls-1" d="M269.9,178.87c-.1-1.7-.3-3.4-.5-5.1-.1-1.8-.1-3.5-.3-5.3-.1-1.4.2-2.8,0-4.1.1-.9,1.4-.6,1.3.2.2,1.2,0,2.3,0,3.5.2,1.9.2,3.8.3,5.8.1,1.1.3,2.2.4,3.3,0,.7.5,2-.5,2.2-.3,0-.6-.2-.7-.5h0Z"/>
  <path class="cls-1" d="M274.3,179.17c-.2-.2-.2-.4-.3-.7,0-.7-.2-1.3-.2-2-.1-1.4-.3-2.8-.5-4.2-.4-2.7.4-5.5-.4-8.1-.5-.7.7-1.3,1.2-.6.1.2.3.4.2.6.4,1.6.2,3.3.2,4.9.1,1.5.2,3.1.3,4.6.2,1.3.1,2.6.2,3.9,0,.5.5,1.3-.2,1.6-.1.2-.4.1-.5,0h0Z"/>
  <path class="cls-1" d="M171,184.07c-1.4-.4.8-3.2.9-4.1.7-1.7,2.7-2.6,4.5-3.3,1.6-.8,3.5-.9,5.4-1.2,1.1-.2,2.2-.5,3.3-.7,2.5-.4,5.3-.8,7.8,0,1.1.5,2.1,1.1,3,1.8.4.3.6.8,1,1.1,1,.6,1.8,1.5,2.3,2.4.2.6.7,1,.7,1.6.2.8-.3,1.8-1.4,1.6-.7-.1-.9-.7-.9-1.3-.3-.6-.5-1.2-1-1.8-.3-.5-.9-.8-1.4-1.1-.4-.3-.6-.7-.9-1-.5-.3-.9-.6-1.3-.9-.6-.2-1-.6-1.6-.7-.5-.1-1.2-.1-1.6-.1-2.5-.2-4.8.4-7.2.9-3.1.3-6.2.8-8.8,2.6-.6.5-.9,1.2-1.3,1.8-.4.7-1,1.3-1.3,2,.3.1.1.5-.2.4h0Z"/>
  <path class="cls-1" d="M170.2,184.97c-.4-2.9.7-5.1,3.8-6.4.8-.5,1.7-1.2,2.6-1.5.5-.3.8-.5,1.4-.6.9-.3,1.9.4,1.6,1.2-.1.6-.8.8-1.4.9-.5.3-1,.4-1.5.6-.6.3-1,.6-1.6.9-2.8,1-3.4,2.1-3.8,4.6.2.6-.9,1-1.1.3h0Z"/>
  <path class="cls-1" d="M136.9,184.67c-.1-2.1.3-4.3.2-6.4-.2-2.9-.2-5.8-.4-8.8-.5-.1-.2-.5-.2-.8,0-.2.3-.3.4-.2.8-.7,1.8.1,1.9.9.1.6,0,1.2,0,1.8.1,2.5.1,4.9-.1,7.4,0,1.8-.3,3.6-.3,5.3-.1.4.1.9-.3,1.2-.3.4-1.2.1-1.2-.4h0Z"/>
  <path class="cls-1" d="M141.9,185.27c-.1-.1-.2-.2-.2-.3-.1-.7-.1-1.5-.1-2.2-.1-3-.2-6-.1-9.1,0-1.4.1-2.8.1-4.2.1-.7-.2-2.3,1.1-2.2.2.1.5.2.5.5v2.4c.1,2.3.5,4.6.3,7-.1,1.8-.5,3.6-.4,5.4,0,.7,0,1.4.1,2.2.1.2,0,.5-.2.7-.5,0-.9,0-1.1-.2h0Z"/>
  <path class="cls-1" d="M145.9,185.37c-.3-.2-.3-.5-.3-.8-.3-1.6-.1-3.2-.3-4.9-.1-4.2-.2-8.5.1-12.7.1-.6,1.2-.6,1.2.1,0,2.4-.2,4.7-.1,7.1.1,3.2.3,6.4.4,9.6,0,.3.2.6.2,1,.1.6-.7,1-1.2.6h0Z"/>
  <path class="cls-1" d="M191.2,175.17l-.1-.1c-.5.2-.9-.6-.6-.9-.3-2.7,0-5.5-.5-8.2-.2-1,1.4-1.3,1.5-.2.2,1,.6,2,.5,3-.2,1.4-.2,2.7,0,4,.1.6.1,1.2.4,1.7.4.7-.7,1.3-1.2.7h0Z"/>
  <path class="cls-1" d="M149.9,185.67c-.3-.3-.2-.7-.3-1.1-.3-.2-.3-.5-.3-.8.1-2.1-.2-4.2-.1-6.3-.3-3.2-1.1-6.5-.6-9.7.1-.7,1.3-.7,1.3.1.1,4.6.9,9.2.9,13.8.2,1.2.2,2.5.5,3.7.1.5-1,.8-1.4.3h0Z"/>
  <path class="cls-1" d="M154.1,185.27h0c-.2,0-.3-.1-.4-.3h0c-.5-3-.5-6.1-.3-9.2,0-2.4-.4-4.8-.5-7.2.1-.6,0-1.4.6-1.8.6-.3,1.3.2,1.2.7v.3c-.1,2.5.2,4.9.3,7.3,0,1.7-.2,3.5-.1,5.2.2,1.4.3,2.8.5,4.2.1.3-.3.7-.7.6-.1.2-.3.3-.6.2h0Z"/>
  <path class="cls-1" d="M103.3,185.27c-.5-.1-.6-.5-.5-.9-.1-.6-.1-1.3-.1-2,0-1.7-.1-3.4-.1-5.1.1-2.5,0-5,.3-7.5,0-.5.3-1.2,1-1,1,.3.3,1.5.4,2.2-.4,4.2-.1,8.5-.1,12.7.4.2.1.8,0,1.1-.1.3-.5.6-.9.5h0Z"/>
  <path class="cls-1" d="M106.2,185.47c-.4-2.7-.4-5.5-.6-8.2-.1-2.5.1-5.1.3-7.5h0c0-.5.8-.7,1.1-.3.2.2.2.4.1.6,0,1.5-.1,3.1-.2,4.7-.1,1.8.2,3.5.2,5.3,0,1.7.2,3.5.2,5.2.2.5-.9.8-1.1.2h0Z"/>
  <path class="cls-1" d="M110.3,184.87c-.1-1.2,0-2.4-.3-3.6-.4-2.8-.5-5.7-.5-8.6,0-1.1.1-2.2,0-3.3,0-.2,0-.4.1-.5.3-.4,1-.2,1.1.2.1,3.2,0,6.4.1,9.6.1,2,.3,3.9.3,5.9.5.2.2.8-.3.7-.2-.1-.5-.2-.5-.4h0Z"/>
  <path class="cls-1" d="M113.9,185.87c-.6-1.6-.2-3.4-.4-5-.3-2.5-.6-5-.5-7.5,0-1.2.1-2.4-.1-3.6,0-.6,1-.7,1.3-.2.5,1.8.1,3.8.2,5.7.5,3.1.6,6.3.7,9.5h0c.1.2,0,.3-.2.4.1.4.2.9-.3,1-.2,0-.5-.1-.7-.3h0Z"/>
  <path class="cls-1" d="M116.9,185.17c-.3-.8,0-1.7-.1-2.5,0-1.5-.4-3-.6-4.5-.2-3,.1-5.9-.1-8.9-.1-.7,1-1.1,1.3-.3.1,1.6.1,3.3,0,5-.1,2,0,4,.4,6,.3,1.5.5,3,.3,4.5,0,.2-.2.3-.3.4v.1c.1.4-.7.7-.9.2h0Z"/>
  <path class="cls-1" d="M120.1,184.47c-.2-.4-.5-.7-.5-1.2-.2-1.8-.4-3.5-.2-5.3,0-2.8-.4-5.6-.2-8.3v-.1c-.1-.2,0-.5.3-.6,0-.2,0-.6.4-.6.2,0,.3.3.2.4v.2c.3.3.1.7.1,1.1.4,3.5-.1,7.1.2,10.7.1,1.1.2,2.3.5,3.4.2.5-.6.7-.8.3h0Z"/>
  <path class="cls-1" d="M69.7,183.77c-.1-4.6,0-9.3.9-13.8.2-1,1.7-.5,1.1.3v.3h0c.2.2.2.5.2.7-.3,2.6-.7,5.1-.7,7.7-.1,1.4,0,2.7,0,4.1-.1.3,0,.7-.4,1-.4.2-1,.1-1.1-.3h0Z"/>
  <path class="cls-1" d="M73.9,184.47c-.3-1.3-.3-2.8-.4-4.1,0-1.7.3-3.4,0-5.2-.1-1.3.1-2.6,0-3.9-.1-.2-.1-.4,0-.6.3-.5,1.1-.3,1.3.2.2,3.4,0,6.8,0,10.2,0,.9.1,1.8.2,2.7,0,.2,0,.7-.4.6-.2.3-.6.3-.7.1Z"/>
  <path class="cls-1" d="M77.4,184.57c0-2.4-.6-4.8-.6-7.3-.1-1.8.5-3.7.3-5.5,0-.4-.1-1.1.5-1.2h0c1.7-.2.1,5.6.4,6.7,0,2.4.5,4.8.4,7.2.1.5-.9.6-1,.1h0Z"/>
  <path class="cls-1" d="M81,184.47c-.6-2.6,0-5.3,0-7.9,0-1.9.2-3.8.1-5.7,0-.3,0-.6.2-.9.4-.4,1.2-.2,1.3.4v.9c.2,3.4-.5,6.8-.6,10.3h0c-.1.9-.1,1.9,0,2.8.1.5-.8.6-1,.1h0Z"/>
  <path class="cls-1" d="M85.1,184.07h0c-.1-.2-.1-.4,0-.6.1-3.4-.5-6.9-.1-10.4.1-.8.1-1.5.1-2.3,0-.2,0-.4.2-.5.3-.3.9,0,.9.4,0,2.8-.5,5.5-.2,8.3,0,1.6.2,3.1.1,4.7.2.6-.7.9-1,.4h0Z"/>
  <path class="cls-1" d="M32.1,184.67c0-.4.1-.9,0-1.3,0-.1,0-.2.1-.3-.4-2.6-.3-5.2-.1-7.7.1-2-.1-4.2.4-6.2.4-.3.8.1.6.5-.1,1.9-.1,3.8-.2,5.7-.1,1.7-.5,3.5-.3,5.2.2,1.5.3,2.8.2,4.2.2.5-.7.5-.7-.1h0Z"/>
  <path class="cls-1" d="M36.2,184.47v-.8c-.3-.1-.1-.5-.1-.7-.5-3-.2-5.9-.3-8.9-.1-1.2-.1-2.3,0-3.5,0-.2.1-.4.3-.4.5-.1.6.4.5.7-.1,1.7.1,3.4.2,5.1,0,1.4-.2,2.9-.1,4.3,0,.9.4,1.8.3,2.7,0,.5.5,1.7-.3,1.8-.3.1-.5-.1-.5-.3h0Z"/>
  <path class="cls-1" d="M40.7,184.87c-.1-1.2-.1-2.3-.1-3.5-.5-1.8-.4-3.7-.2-5.6,0-1.6,0-3.1-.1-4.7,0-.2,0-.4.1-.6.2-.2.5,0,.6.3.3,2.4-.1,4.7-.1,7.1,0,1.3.3,2.5.4,3.7-.1,1.1,0,2.2.1,3.2,0,.5-.7.5-.7.1h0Z"/>
  <path class="cls-1" d="M44.9,185.87c-.6-.8-.2-1.8-.3-2.7,0-1.4-.4-2.7-.4-4.1-.1-2,0-3.9,0-5.9.1-1.1-.6-2.4,0-3.3.2-.2.6,0,.6.2.3,2.8.3,5.7.2,8.6.1,1.9.4,3.8.5,5.7,0,.1,0,.2-.1.2,0,.3,0,.6.1.9.1.1.1.2,0,.3-.2.2-.5.2-.6.1h0Z"/>
  <path class="cls-1" d="M170.6,184.27c-.8-.8,1.5-2.4,2-3,2.6-3.1,6.6-5.2,11-5.6,4.7-1,10.5-1,13.4,2.9.8,1.1,1.1,2.4,1.8,3.5.6,1.6-2.1,2-2.4.4-.5-.8-.8-1.7-1.3-2.6-2.2-3.1-6.7-3-10.3-2.4-1.8.3-3.7.5-5.5,1.1-3,1.2-5.5,3-7.8,5,.2.6-.5,1-.9.7h0Z"/>
  <path class="cls-1" d="M48.2,184.67c-.2-.1-.3-.3-.3-.5,0-1,0-2-.1-3.1.1-3.2,0-6.3.1-9.5,0-.3.6-.4.8-.1.2.5,0,1.1,0,1.7,0,2.3.2,4.7-.2,7v3.3c0,.3.1.7-.2.9.2.1,0,.3-.1.3h0Z"/>
  <path class="cls-1" d="M245.9,39.57c-3.7-2.9,6.3-8.7,8.2-11.1,5.6-8.4,12.8-15.7,20.4-22.7,1.5-1.5,2.8-3.2,4.1-4.8,1.7-2.2,5.8-.3,4.7,2.2-.7,1.1-1.6,2.1-2.3,3.2-2.9,3-5.5,6.1-8.2,9.2-2.4,2.7-6,4.4-8.1,7.2-2.2,2.4-4,5.1-6,7.6-1.4,1.8-3.8,2.8-5.1,4.7-.2.9-1.1,1.7-2.2,1.5-1.6,1.3-2.9,4.5-5.5,3h0Z"/>
  <path class="cls-1" d="M24.7,83.77c-1.8-2.3-.4-5.3-1.1-7.8-.3-2.3-2.2-3.8-3.8-5.5-2.1-2-3.4-5.5-.5-7.4,2.3-1.5,4.6-3.1,6.8-4.8,1.4-1.2,2.5-2.6,4-3.8,4.8-3.9,9-8.3,13.8-12.1,1.9-1.4,2.4-3.6,3.3-5.6,2-4,4.1-7.9,7-11.3,2.2-3.5,3-7.8,7.1-10.1,3.2-2.4,7.4-3.7,11.5-3.9,1.7-.1,3.3.4,5,.4,3,0,6-.6,8.9-1.4,2.1-.5,4.3-.7,6.4-.2,3.2.5,6.3,1,9.5,1.2,2.8.1,5.5-.7,8.2-.5,4,.2,8,.5,12,.8,4.5.1,9.1.1,13.6.6,4.5.2,9,1,13.5,1.3,3.9.2,7.9-.4,11.8-.3,4.2,0,8.3.7,12.5.8,5.5.1,11.1.6,16.7,0,4.9-.6,9.8-1.2,14.8-1.2,3.8-.6,7.5-1.5,11.5-1.6,4.9-.6,9.9-.9,14.9-.9,3.3,0,6.5-.7,9.8-.5,2.4.2,4.7.8,7,1.2,2.1.4,4.3.8,6.2,1.8,2.5,1.2,3.8,3.5,5.6,5.2,1,.4,2.4,0,3.1,1,.4.6.3,1.3-.2,1.8-.2.2-.4.5-.5.8-.4,1.4-2.7,1.2-2.8-.2-3,.2-4.5-2.4-6.8-3.7-1.3-.7-2.8-.8-4.2-1-2.7-.3-5.4-.8-8.1-1-3.1.1-6.2.7-9.2.8-6.1,0-12.2.7-18.2,1.3-2.8.3-5.5,1.3-8.4,1.3-5.6-.1-11.1,1-16.6,1.3-3.9.3-7.8-.1-11.7-.2-4.4.1-8.7-.5-13.1-.8-5.3-.2-10.6.6-15.9.2-6.1-.7-12.3-1.4-18.4-1.7-6.6,0-13.1-.5-19.6-.9-2.1,0-4.2.5-6.4.5-2,0-4-.2-6.1-.5s-4.3-.7-6.4-1c-2.2-.2-4.3.8-6.5,1.2-1.2.2-2.5.4-3.7.5-2.8.4-5.6-.3-8.4-.3-3.4.4-6.8,1.7-9,4.1-1.2,1.9-1.9,4-3,5.9-1,1.7-2.3,3.1-3.4,4.7-1.6,2.5-2.9,5.1-4.1,7.7-.6,1.5-1.2,3-2.1,4.3-1.1,1.7-2.8,2.9-4.4,4.2-2.7,2.4-5.3,4.9-8,7.3-2.2,2-3.9,3.2-5.8,5.1-2.4,2.5-5.6,4.3-8.7,6.1,1.5,1.5,3.2,2.9,4.4,4.7,5-7,11.7.5,5.5,2.6-1.2,1.3-1.7,3-2.3,4.6-.7,1.6-1.1,3.4-2.1,5-1.3,1.1-3.7,1.3-4.9-.1h0Z"/>
  <path class="cls-1" d="M39.1,50.87c-5.1-2.7,1.6-17.2-.8-22-1-4.9-.2-12.2,3.6-16.1,7.2-7.5,15.2-5.7,20.9,2,2.8-.5,5.2,2.3,3.8,4.5-1.7,2.6-6.7,2.2-8.8.1-1.3-1.4-2-3.2-4-4-.9-.4-1.6-1.6-2.7-1.2-7.1,2.7-6.9,10.7-6.2,16.5-.5,6.1-3.2,11.9-4,18,1.3.9-.3,2.9-1.8,2.2h0Z"/>
  <path class="cls-1" d="M1.1,252.87c-.9-.8-1.3-1.9-1-3,.4-2,1-4,1.3-6,.4-4.5,1-9,2.2-13.4.3-1.9.3-3.8.5-5.7s.7-3.9.7-5.8c.1-2.7.6-5.4.7-8.1.4-3.2,1.4-6.6,1.9-9.9,1.1-7.4,1.7-14.8,3.1-22.2.5-4.2,1-8.4,1.7-12.5.5-4.3,1.2-8.5,2.4-12.6,1.5-6,1.8-12.2,3.1-18.3,1-3.7,1.2-7.5,1.4-11.3.2-2.5.6-5,.7-7.4.1-2.9.1-5.8.5-8.7.4-2.4.9-4.8,1.1-7.2.3-2.6.8-5.2,1.3-7.7,0-.9,0-1.8.1-2.8.7-3.6,2.8-6.9,3.7-10.5-.6,0-1-.6-.8-1s.4-.8.5-1.2c.3-.9,1.8-.9,2.3-.1,2.2,4.1.4,8.7.3,13,.6,3.2,0,6.3-.4,9.4-.2,2.6-.5,5.2-1,7.8-.7,4.8-.2,9.8-1,14.6-.4,3-.3,6-.7,9-.4,2.2-.9,4.3-1.2,6.1-.5,2.4-.8,4.8-1.1,7.3h0c-.7.1-1.4.3-2.1.6-.7.2-1,1-.7,1.5.2.5.7.7,1.2.7.2,0,.3,0,.5-.1s.3-.1.5-.2c.1,0,.2,0,.2-.1-.1.9-.3,1.8-.5,2.7-.7,4-1.8,7.9-2.6,11.9-.4,3.4-.9,6.8-1.4,10.2-.6,3.6-.7,7.2-1.5,10.8-.9,6.1-1.6,12.1-2.4,18.2-.7,4.6-2.1,9-2.3,13.6-.3,2.1-.4,4.2-.5,6.3-.2,2.1-.7,4.1-.8,6.2,0,3.2-.9,6.2-1.5,9.3-.6,2.7-.7,5.5-1.1,8.3-.4,2.2-1,4.4-1.5,6.6h0c-.3,1.5-1.9,2.4-3.6,2.4-.7.2-1.5-.1-2.2-.7h0Z"/>
  <path class="cls-1" d="M21.6,254.07c-4.9-.7-15.7-.9-18.1-5.2-.4-.6-.6-1.3-.5-2.1.1-.9.8-1.6,1.1-2.4-.7.9-2,0-1.2-.8.7-.6,2-1.7,3-.9.9.9.8,2.3.8,3.4-.1.5.2.9.6,1.1l-.1-.1-.1-.1c.2.2.8.5,1.1.6,2,.6,4.1.8,6.2,1.1,2.8.2,5.5.5,8.3.5,4.5-.3,9-1,13.5-.7,4,.2,8,.9,12,.9,3.1-.1,6.2-.6,9.3-.6,6.1,0,12.2,1.5,18.3.5,3.7-.6,7.4-1.3,11.2-1.2,5,0,9.8,1.2,14.8,1.2,2.2-.1,4.4-.4,6.6-.7,4.9-.6,9.8-.1,14.6.5,3.3.4,6.6.2,9.9-.2,2.6-.3,5.1-.6,7.7-.5,5.4-.1,10.6,2,16,1.2,4.7-.8,9.4-1.8,14.2-1.1,3.7.4,7.4,1.1,11.2,1.1,5-.2,9.9-1,14.9-.8,4.1.2,8.2.8,12.3.7,3.1-.1,6.2-.5,9.3-.9,3.2-.4,6.5-.2,9.8.2,2.6.2,5.2.5,7.8.5,3.8-.2,7.6-.9,11.5-.9,6.7-.2,13.4,1.3,20.1.3,2.1-.3,4.1-1,6.2-1.2,3.1-.3,6.2.2,9.3.6,3.1.2,6.2.4,9.2.8,1.6,0,3.1,1.2,3.2,2.7.1,1.6-1.2,3.1-3,3.2-1.4.1-3,.2-4.3-.5-1.3-.2-2.5-.2-3.8-.2-3.1-.2-5.7-.7-8.7-.7-2.2,0-4.2.9-6.3,1.2-6.5,1.2-13.1.1-19.7-.1-4.6-.1-9.1.8-13.7,1-4.7.1-9.3-.9-14-1-5.2.3-10.4,1.4-15.7,1.1-4.4-.2-8.8-.8-13.2-.7-5.2.3-10.5,1.2-15.7.6-3.5-.3-7-1.1-10.6-1.1-3.5.1-7,1-10.4,1.4-5.8.7-11.3-1.4-17.1-1.3-3.7.1-7.3.8-11,1-5.2.2-10.4-1.1-15.6-1-4.7.1-9.4,1.3-14.1.8-4.2-.3-8.4-1.2-12.7-1.1-3.5.1-6.9.8-10.3,1.2-5.2.7-10.3-.3-15.4-.7-3.4-.3-6.7,0-10.1.3-4.1.2-8.2-.5-12.3-1-2.1-.2-4.2-.3-6.4-.3-3.5.2-6.7.7-9.9.4h0Z"/>
  <path class="cls-1" d="M286.2,179.37c-1,0-1-1.3,0-1.3,3.3-.3,6.5-.5,9.8-.7.6-.5,1.9-.2,1.8.7-.1,1.1-2.4.7-3.4.8-2.7,0-5.5.4-8.2.5h0Z"/>
  <path class="cls-1" d="M285.7,180.47c-1.2-.7,0-1.5,1-1.5,3-.5,6-.6,9-.7.3-.2.7-.1,1-.1.5,0,1,0,1.2.5.5,1.2-1.4,1.4-2.2,1-3-.1-6.1.2-9.1.6-.1.2-.5.3-.9.2h0Z"/>
  <path class="cls-1" d="M169.5,249.87c-.7-.1-.4-1.4-.4-2-.2-4.9-1.2-9.6-1.7-14.4-.2-1.7-.5-3.3-.7-4.9-.1-.9-.5-2.5.5-2.8,1-.1.8,1.5,1,2.3.4,3.1.5,6.2.8,9.3,0,1.6,1.9,12.7.5,12.5h0Z"/>
  <path class="cls-1" d="M205.1,250.57c-.6.2-.8-1-.7-1.7-.8-3.5-.8-7.2-1.3-10.8-.7-4.9-1.7-9.7-2.2-14.6-.1-1.7,1.6-2,1.8-.3.9,8.2,2.8,16.1,3.2,24.4.1.5.3,1,.5,1.5.3,1.1-.7,2.3-1.3,1.5h0Z"/>
  <path class="cls-1" d="M251.8,249.07c-.8-1.3-.5-4-.7-5.8-.4-6.8-1-13.7-1-20.6h0c0-2.1,1.7-2.2,1.8-.1,0,.9,0,1.8.1,2.7.5.5.6,1.5.7,2.4.1,1.6.1,3.2.2,4.8.1,3.4.2,6.8.5,10.1.1,2,.4,4.1.2,6.1-.2,1.4-1.4,1.7-1.8.4h0Z"/>
  <path class="cls-1" d="M278.2,250.67c-.9-7.6-1.2-15.6-1.3-23.4,0-1.4-.2-2.9.1-4.2.3-.8.8-1.2,1.2-.7.3-2.1,1.8-1.8,1.9.4.2,3.8.2,7.7.3,11.6,0,3,.1,5.9.3,8.9,0,2.3.9,6.6-.6,7.4-.3,1.5-1.5,1.6-1.9,0h0Z"/>
  <path class="cls-1" d="M42.3,251.57c-.4-.2-.5-.5-.6-.9-.2-1.1-.2-2.2-.2-3.2.1-1.2-.2-2.4.1-3.5,0-.7-.1-1.4,0-2,.2-.7,1.5-.6,1.6.2h0c.3,2.8,0,5.8.4,8.5.3.2.2.7,0,.9-.5.1-1,.1-1.3,0h0Z"/>
  <path class="cls-1" d="M36.4,88.37c-2.4-.3-4.9-.3-7.3-.5-.9-.1-2-.1-2.4-1-.3-.7.2-1.6,1-1.7.2-.3.6-.3,1-.2h0c2.3.2,4.7.4,7,.4,1.4.1,3-.1,4.2.5,1.1.5.6,2-.7,1.9-.4.9-1.8.6-2.8.6h0Z"/>
  <path class="cls-1" d="M36,108.07c-1.8-.1-3.6-.4-5.5-.5-1.5-.3-4.5.2-4.6-1.7-.1-.1,0-.3.1-.4h0c.3-.5.9-.7,1.5-.6.8,0,1.5-.2,2.2,0,2.2.2,4.4.5,6.6.6,1,0,2.2.8,1.5,1.7-.2.6-1,1.1-1.8.9h0Z"/>
  <path class="cls-1" d="M30.8,125.97c-1.2-.2-2.4-.1-3.6-.2-.7-.1-1.4-.2-2-.2-1.2-.1-1.4-1.8-.3-2.2.5-1,1.9-.5,2.8-.4,2.2.1,4.4,0,6.6.4h0c.7.2.8,1.2,0,1.4,0,1.6-2.3,1.3-3.5,1.2h0Z"/>
  <path class="cls-1" d="M30.2,149.47h-7.9c-.7,0-1.7.2-2.2-.5-.5-.6-.2-1.4.4-1.8.3.3.7.5,1.1.5.2,0,.3,0,.5-.1s.3-.1.5-.2c.4-.1.7-.2,1.1-.3s.8-.1,1.2-.2h2.2s.1,0,.1-.1c.9.2,1.7.3,2.5.7,1.2.4,1.2,1.5.5,2h0Z"/>
  <path class="cls-1" d="M20.7,186.67c-1.6-.1-3.1-.1-4.6-.3-1.3.6-3.1-.7-2.1-1.9v-.3c.1-.3.3-.6.5-.7-.1-1.3,1.7-1.2,2.7-1,.6,0,2.2.1,3.5.4,0,0,.1.1.2.1h.2c.1,0,.2.1.3.1h.2c.6.2,1,.5,1.1.8.3.1.6.4.7.7,1,.5.7,1.9-.4,2.1-.3,0-.5.1-.8.1-.4,0-.9-.1-1.5-.1h0Z"/>
  <path class="cls-1" d="M57.2,84.97c-.3-4-.3-8-.1-11.9.4-.6,1.4-.2,1.3.4.2,3-.1,6,.1,8.9,0,.8.1,1.7.1,2.6,0,.3-.4.5-.7.5-.3.1-.6-.2-.7-.5h0Z"/>
  <path class="cls-1" d="M63.6,79.77c-2.9-.2-5.7-.4-8.6-.3-1.2-.1-2.3-.2-3.5-.1-.3.1-.6,0-.8-.2-1-1.7,3.2-1.1,4.1-1,3.3-.1,6.6.2,10,.5h0c.9.1.8,1.2,0,1.2-.5-.1-.8-.1-1.2-.1h0Z"/>
  <path class="cls-1" d="M91.4,84.07c-.2-.2-.3-.3-.3-.6.2-.8,0-1.6.1-2.4.1-2.7.2-5.3.2-8,.2-.6,1.3-.4,1.1.3.1,1.2.2,2.4.1,3.7h0c-.1,1.3-.3,2.6-.2,4,.1.9.2,1.7.2,2.6,0,.2-.1.4-.4.4-.2.1-.6.2-.8,0h0Z"/>
  <path class="cls-1" d="M83.3,78.97c-.4-.3-.1-1,.5-1,.1-.2.4-.3.6-.2,4.2-.2,8.4-.5,12.5-.5,1,0,2-.1,3,0,.1,0,.2.1.3.2.4.5-.2.9-.8.7-3.5.2-7.1.2-10.7.5-1.6.1-3.2.2-4.8.3-.2.1-.5.1-.6,0h0Z"/>
  <path class="cls-1" d="M129,83.57s0-.1,0,0c-.2-.3-.4-.5-.3-.8.1-1.2-.1-2.3-.1-3.5-.2-2.7-.9-5.8.2-8.4.3-.4,1-.1,1,.3-.4,3.5,0,7.1,0,10.7,0,.5.1.9.3,1.4.1.2-.1.5-.4.6s-.6-.1-.7-.3h0Z"/>
  <path class="cls-1" d="M121.6,78.47c-.7-.4-.2-1.4.6-1.2,1.9,0,3.8-.4,5.8-.6,2.8-.1,5.7-.7,8.4-.4.6.3.5,1.1-.2,1.2h0c-.9.1-1.8,0-2.6,0-1.4,0-2.8.4-4.2.5-2,0-4,.3-6,.5-.7-.1-1.3.2-1.8,0h0Z"/>
  <path class="cls-1" d="M161.6,83.77c-.2-.1-.2-.3-.2-.5-.2-2.5-.4-5.1-.4-7.7,0-1.3.3-2.7.3-4,0-.3-.1-.5-.2-.8-.2-.7.9-1.1,1.3-.5.6,1.2.2,2.5.2,3.7-.1,2.7.2,5.3.2,8h0c0,.5.2,1,.2,1.5-.2.5-1,.7-1.4.3h0Z"/>
  <path class="cls-1" d="M153.4,78.17c-.3-.1-.5-.4-.4-.7.1-.2.2-.3.4-.4h0c2-.4,4-.4,6-.7,2.6-.3,5.2-.8,7.9-.7.8.1,1.8-.2,2.5.3.5.4,0,1.2-.7,1.1-5.3-.5-10.5.9-15.7,1.1h0Z"/>
  <path class="cls-1" d="M199.3,82.17c-.2,0-.3-.1-.3-.2s0-.1.1-.2v-.3c-.2.5-1.1.3-1-.2-.3-2.7-.5-5.4-.2-8.1.1-.9.1-1.9,0-2.8.1-.4.8-.5.9-.1h0c.6,3,0,6.1.4,9.1-.2.7.9,2.8.1,2.8h0Z"/>
  <path class="cls-1" d="M191.7,76.17c-.1,0-.2-.1-.2-.2-.5-.1-.4-.7.1-.7.1-.1.3-.2.5-.1,1.1-.1,2.2-.3,3.4-.3,3.4-.2,6.8-.4,10.2-.6,1,.1.8,1.3-.2,1.2-4.7-.1-9.3.5-13.8.7h0Z"/>
  <path class="cls-1" d="M238.2,80.17q-.1,0-.2-.1l-.3-.3c-.1-.1-.2-.2-.2-.3s.1-.2.2-.3c-.4-3.1-.7-6.2-.9-9.3-.1-.4.4-.7.8-.5.2.1.3.2.3.4.2,1.1.4,2.2.5,3.3.1,1.6.2,3.2.4,4.8,0,.6.8,2.4-.6,2.3h0Z"/>
  <path class="cls-1" d="M232.4,76.27h-.4c-.2-.1-.3-.2-.4-.4v-.2c-.1-.2,0-.3.1-.4h.2c1.1-.3,2.8-.5,4-.6,2.4-.1,4.7-.4,7.1-.5.7-.1,1.3-.1,1.9-.2.3-.1.7,0,.9.3s0,.7-.4.8c-2,.5-4.2.3-6.3.6-2.3.2-4.6.1-6.7.6h0Z"/>
  <path class="cls-1" d="M272.5,79.87c-.4,0-.8-.5-.6-.9-.2-2.6,0-5.2-.1-7.8.1-.7-.7-3,.7-2.7.4.1.4.5.4.9.1,2.3.2,4.7.2,7v2.2c.1.6.3,1.3-.6,1.3h0Z"/>
  <path class="cls-1" d="M266.9,75.17c-.4,0-.7-.3-.7-.6-.7-.1-.3-1,.2-.6h0c.2-.1.4-.2.6-.2h-.1c.4-.1.8-.2,1.3-.2,1.3-.1,2.5-.5,3.8-.6,2.3-.3,4.5-.3,6.8-.6,1.2-.2,1.4,1.2.2,1.4-2.2.2-4.4.3-6.6.5-1.9.2-3.7.7-5.5.9h0Z"/>
  <path class="cls-1" d="M54,122.67c-.4-1.3-.1-2.8-.2-4.1-.1-2.5-.2-5-.1-7.6,0-.5-.3-1.2.4-1.4.5-.2,1.1.4.8.8.3,2.4-.3,4.8-.1,7.3.1,1.6.3,3.2.1,4.8-.1.4-.7.5-.9.2h0Z"/>
  <path class="cls-1" d="M46.4,116.67c-.1-1,1.3-.6,2-.8,2-.3,4.1-.6,6.1-.6,2.1,0,4.4-.2,6.5,0,.6.2.7,1,.1,1.3-1.1.2-2.3,0-3.4,0-2.1-.1-4.3-.1-6.5.1-1.1.1-2.3.2-3.5.2-.5.1-1.1.3-1.3-.2h0Z"/>
  <path class="cls-1" d="M89,123.77c-.3,0-.6-.3-.5-.6-.2-1.9-.2-3.9-.3-5.8-.2-2.4-.5-4.8-.3-7.2,0-.2.1-.4.3-.5.6-.3,1.1.3,1.1.8.1,4.2.1,8.4.2,12.6.3.2-.1.7-.5.7h0Z"/>
  <path class="cls-1" d="M81.6,118.27c-.4,0-.6-.3-.6-.7s.4-.6.7-.5c.8-.1,1.5-.1,2.3-.2,2.5-.3,5-.3,7.5-.4,1.5-.1,3-.1,4.5.2.4,0,.8.4.5.8-.3.5-1,.3-1.5.3-.7,0-1.3-.2-2-.1-3.8,0-7.6.2-11.4.6h0Z"/>
  <path class="cls-1" d="M123.1,122.17c-.5-.2-.5-.7-.4-1.1-.2-3.1-.7-6.3-.5-9.5.1-1.6,0-3.1.2-4.7,0-.6,1-.8,1.2-.1-.3,5-.1,10,.3,14.9-.1.4-.5.7-.8.5h0Z"/>
  <path class="cls-1" d="M115.5,114.97c-.5-.9.6-1.3,1.5-1.2,2.4-.3,4.8-.4,7.2-.4,1.3,0,2.6-.1,3.9,0,.7,0,1.6,0,2.1.6.5.8-.5,1.4-1.3,1.1-3.4-.1-6.8,0-10.2.2-.7.1-1.4.1-2.1.1-.5.1-.9-.1-1.1-.4h0Z"/>
  <path class="cls-1" d="M154.2,118.77c.2-1.5-.2-3-.3-4.5-.3-2.5-.2-5.1-.4-7.6-.1-.6,1-.9,1.3-.3.4,1,.1,2,.3,3.1.2,3.1.3,6.2,1.2,9.1.2,1.2-2,1.5-2.1.2h0Z"/>
  <path class="cls-1" d="M146.9,114.27s-.1,0,0,0c-.5,0-1.2.2-1.4-.4-.1-.5.6-.6,1-.6,2.5-.2,5-.8,7.5-1,2.8-.2,5.7-.3,8.5-.3.5,0,1.2,0,1.2.6,0,.3-.3.6-.7.5-2.8-.1-5.6.5-8.4.5-2.5.1-4.9.7-7.3.7-.1.1-.3.1-.4,0h0Z"/>
  <path class="cls-1" d="M194.2,120.67c-.1,0-.2-.1-.2-.2s-.1-.3-.1-.4c-.5.1-.9-.4-.8-.8-.2-1.3,0-2.6-.2-3.8-.7-3.5.3-6.9,0-10.4-.1-.3-.1-.7.3-.8,1.5-.2.7,4.2.7,5.1-.1,1.9.1,3.8.2,5.8.2,1.4,0,2.8.3,4.2.1.3,0,.6-.3.8.1,0,.5.5.1.5h0Z"/>
  <path class="cls-1" d="M186.9,114.27c-.1,0-.2-.1-.3-.2-.4.1-.7-.4-.4-.7.2-.2.8-.3,1.1-.3.9-.3,1.8-.3,2.7-.4,3-.3,6-.6,9-.7,1,0,2.2-.3,3.1.2.5.3.3,1.1-.4,1.2-3.8-.2-7.7.2-11.5.6-.7.1-1.3.2-2,.2-.4.1-.9.3-1.3.1h0Z"/>
  <path class="cls-1" d="M232.2,118.17c-.3-.1-.3-.4-.4-.6-.4-1-.5-2-.5-3.1-.1-1.5-.3-2.9-.2-4.4-.3-2-.2-3.9-.3-5.9-.2-.3-.2-.8.2-1,2.3-1,1.2,3.7,1.5,4.7.1,2.7.4,5.4.6,8.1.1.7.1,1.3.1,2-.1.2-.6.4-1,.2h0Z"/>
  <path class="cls-1" d="M224.8,112.47c-.8-.2-.8-1.1.1-1.2,1.1,0,2.2-.2,3.2-.2,3.6-.3,7.2-1.3,10.9-1,.8.1,1.1,1.1.2,1.4-4.6.3-9.3.4-13.8,1-.2.1-.4.1-.6,0h0Z"/>
  <path class="cls-1" d="M270.2,115.67c-.5-.1-.4-.7-.6-1-.9-.1-.6-1.3-.8-1.8-.4-2-.4-4-.5-6.1-.3-1.8-.4-3.7-.6-5.6.1-.6.9-.9,1.4-.4.4.4.2,1,.2,1.5.5,4.2.4,8.4,1.3,12.5.3.2.2.9-.4.9h0Z"/>
  <path class="cls-1" d="M261.9,108.47c-.3-1,1.2-.6,1.8-.8,4-.5,8.1-.4,12.2-.4.7.1.6,1-.1,1-2.4,0-4.8-.1-7.2,0-1.5,0-2.9,0-4.4.2-.5,0-1,.2-1.5.2-.2.1-.6,0-.8-.2h0Z"/>
  <path class="cls-1" d="M218.3,146.37c0-.2.1-.3.2-.3,1.1-.2,2.3-.4,3.4-.6,3.8-.4,7.5-1.1,11.2-1.4.9,0,1.8-.4,2.6-.2.9.2.6,1.4-.3,1.4-3.5.3-7.1.5-10.7.8-1.8,0-3.6.1-5.3.3-.3.1-.9.5-1.1,0h0Z"/>
  <path class="cls-1" d="M227.9,163.87c-.2-.1-.3-.2-.5-.3h0c-.3-.6-.1-1.2-.1-1.8,0-.7-.2-1.3-.2-2-.2-4-.2-8,0-12.1,0-1.1.1-2.2,0-3.3-.1-.4.4-1,.9-.8.3.1.5.4.5.7,0,1.1.2,2.2-.1,3.3-.2,2.4.1,4.9.1,7.3,0,1.8-.2,3.6.1,5.3.2.8.3,1.6.3,2.4.3.8-.2,1.5-1,1.3h0Z"/>
  <path class="cls-1" d="M218.6,155.67c-.2-.3-.2-.9.2-1.2.6-.3,1.4-.1,2-.2,3.8-.3,7.7-.5,11.5-.5,1.1,0,2.3,0,3.3.1.9,0,2.6-.1,2.4,1.1-.3.7-1,.6-1.6.5-4.6-.3-9.2,0-13.8.3-.9.1-1.7.3-2.6.3-.5.2-1.1,0-1.4-.4h0Z"/>
  <path class="cls-1" d="M266.7,163.27c-.3-.2-.4-.6-.3-.9-.1-1-.1-2-.1-3-.1-4.9.2-9.8.9-14.6h0c.5-1,2-.4,1.8.6-.2,2.7-.7,5.4-.7,8.1-.1,2.4,0,4.8.1,7.2.1.6.1,1.3.2,1.9.1.8-1.2,1.3-1.9.7h0Z"/>
  <path class="cls-1" d="M275.4,155.27c-3.5-.6-7-.7-10.6-.7-1.4,0-2.8.1-4.2.2-.4.1-.8.1-1.2-.1-.7-.4-.4-1.5.4-1.5h.6c4.9-.3,9.8,0,14.6.5.3.1.8.2,1,.4.6.4.2,1.2-.6,1.2h0Z"/>
  <path class="cls-1" d="M195.2,158.17c-3.2-.3-6.3-.1-9.5-.2-2.3-.2-4.4.1-6.7.1-1.3.1-1.8-1.4-.4-1.7.9.1,1.8,0,2.8-.1,1.8,0,3.6-.1,5.4-.2,3-.1,6,0,8.9.3.8-.3,1.5.5,1.2,1.1-.3.7-1.1.8-1.7.7h0Z"/>
  <path class="cls-1" d="M187.8,165.17c-.3-.4-.2-.9-.3-1.4-.2-1-.3-2.7-.4-3.8-.5-2.5-.5-5.1-.6-7.7-.1-1.2-.1-2.5.2-3.7.2-1,1.7-.8,1.7.2-.1,2.1,0,4.1.1,6.2,0,1.9,0,3.8.3,5.7.3,1.3.2,2.7.5,4.1-.1.5-1.2,1.1-1.5.4h0Z"/>
  <path class="cls-1" d="M146.3,167.17c-.2-3.4-.5-6.7-.4-10.1-.1-2.3.3-4.7.1-7-.2-1,1.3-1.7,1.8-.6.1.5.1,1,.2,1.5.2,5.3-.3,10.6.4,15.9.6,1.8-2.4,2.2-2.1.3h0Z"/>
  <path class="cls-1" d="M138.5,159.97c-.2-.1-.4-.2-.4-.4-.8-.5-.3-1,.5-.9.7-.1,1.5-.2,2.2-.3,4.7-.4,9.3-.7,14-.6.5,0,1.1.1,1.6,0,.4-.1.8,0,1,.2s.2.6,0,.8c-.2.3-.7.3-1,.3-.7.1-1.3.1-2,.1-3.2,0-6.3-.1-9.5.1-2.1.3-4.3.8-6.4.7Z"/>
  <path class="cls-1" d="M113.2,169.07c-.5,0-.8-.4-.8-.8-.1-1.2-.3-2.5-.2-3.7,0-2.5-.2-5-.1-7.5.2-2.5.2-4.9.6-7.4.1-.5,0-1.1.6-1.3.9-.3,1.4.5,1.3,1.2-.3,5.2-.9,10.3-.7,15.5,0,.9.1,1.8.2,2.7.2.6-.1,1.4-.9,1.3h0Z"/>
  <path class="cls-1" d="M104.3,160.17c-.1-.1-.2-.2-.2-.4-.6.2-.9-.7-.2-.8h.6c5.4-.1,10.8-.8,16.1-.3,1-.7,2.1.7,1,1.2-.4.2-.8.2-1.2.3-3.2-.1-6.4-.4-9.6-.3-2,.1-4,0-5.9.3-.2.2-.5.2-.6,0h0Z"/>
  <path class="cls-1" d="M79.8,170.27c-.5-.1-.7-.6-.6-1,0-.6-.1-1.2,0-1.7-.1-2.6-.2-5.1-.2-7.7.2-3.1.8-6.2.7-9.3-.1-.8,1-1.5,1.5-.6,0,1,.2,1.9.1,2.9,0,4.4-1,8.7-.7,13.1.1.8.1,1.6,0,2.3.1.8.5,2.2-.8,2h0Z"/>
  <path class="cls-1" d="M72.5,162.17c-.3,0-.6-.1-.8-.3-.1-.1-.1-.3-.1-.4-.2-.2,0-.5.3-.5,3-.5,6.2-.8,9.3-.8,2.1-.1,4.2.3,6.3.2,1.2,0,1.1,1.6-.1,1.4h0c-2.5.2-5-.2-7.5-.1-2.4,0-4.9.3-7.4.5h0Z"/>
  <path class="cls-1" d="M40.7,170.47c-.2-.2-.1-.6-.1-.8-.1-1.9-.5-3.7-.2-5.6.1-4,.5-7.9,1.1-11.9,0-.7.2-1.4.3-2.1-.1-.5.2-1,.8-1,1.8,0,.8,2.3.8,3.3-.4,2-.5,3.9-.6,5.9-.2,2.9-.2,5.8-.3,8.7,0,1.1-.2,2.2-.3,3.3-.3.5-1.1.7-1.5.2h0Z"/>
  <path class="cls-1" d="M53.1,161.07c-3.3-.5-6.6-.5-9.9-.5-3.3-.3-6.6,0-9.9.1-1.3.1-1.3-1.6,0-1.6,2,.2,4-.1,5.9-.1,4.3.2,8.6.1,12.8.3.6.1,1.4.2,1.9.6.7.5,0,1.4-.8,1.2h0Z"/>
  <path class="cls-1" d="M299.2,85.57c-2-1.8-1.5-12-1.4-14.8.1-4.7-.3-9.4-.2-14.2.1-1.6.3-3.2.3-4.8-1.2-1.3-1.5-3-2.1-4.6-.7-2.3-1.4-4.7-2-7-.8-2.5-2.8-4.2-3.8-6.5-.8-2.2-2.2-4.3-3.2-6.4-.9-2.2-2-4.3-3.2-6.4-1.6-2.7-2.6-5.5-3.5-8.3-.8-1.8-1.5-3.6-1.5-5.6.1-4,3-7.8,8.3-5,2.9-.5,3.4,3,.6,3.3-1.3.1-2.5-.5-3.7-.9-1.5,2.5,0,5.2.9,7.7.9,3.2,2.1,5.8,3.8,8.7,1.5,2.6,2.3,5.4,3.7,8,1,1.6,1.3,3.2,2.1,4.8,1.6,2.3,3.2,4.6,3.8,7.2.7,2.5,2,5,2.5,7.6.8.5,1.2,1.3,1.2,2.1,1.3.3.2,1.9.3,2.7-.3,1.7-.5,3.4-.6,5.2,1.3,5.8,2.8,11.7,1.8,17.5-.2.8-.4,1.6-.7,2.4-.1.3-.3.5-.6.7-.1.8.1,1.7.2,2.5.1.4-.1.8-.5,1.1-.1.7-.2,1.4-.4,2.1-.1.4-.2.8-.6,1-.6.1-1.1.1-1.5-.1h0ZM300,84.27c.1-.2.1-.3.2-.5.1-.4.2-.8.3-1.2-.3-.1-.6-.3-.8-.5v-.1c0,.5.1,1,.2,1.4-.1.3,0,.6.1.9h0Z"/>
  <path class="cls-1" d="M22.9,75.87h0c-3.5-.4-6.9-1.2-10.1-2.3-2-.5-4.2-.6-6-1.5-1.1-.8-1.1-2.6.3-3.2,1.1-.5,2.4-.2,3.6-.2.3-.2.6-.3,1-.2h0c1.8.3,3.7-.4,5.6-.1,2.5.2,7.1-.2,7,3,3.3.9,2,5.3-1.4,4.5h0Z"/>
  <path class="cls-1" d="M139.1,40.97c-.7-1,1.6-1.7,2.3-2.3,1.5-.8,2.9-1.6,4.4-2.5,1.4-.8,2.8-1.5,4.2-2.3.7-.3,1.6-1.1,2.2-.3.2.3.1.8-.3,1-3.3,1.7-6.5,3.6-9.7,5.4-1,.4-2.2,2-3.1,1h0Z"/>
  <path class="cls-1" d="M139.5,46.67c-.4-.7.7-.9,1.1-1.3,1.5-.9,3-1.8,4.5-2.8h-.1c1.7-1,3.3-2.2,5-3.3.7-.4,1.3.5.7.9-2.5,1.5-4.9,3.2-7.4,4.7-1,.6-2,1.2-3,1.8-.3.3-.6.2-.8,0h0Z"/>
  <path class="cls-1" d="M143.9,43.17c-.5-.9-1.3-1.7-2.1-2.4-.8.1-1-1-.2-1.1.3,0,.5.1.7.2,1,.8,1.8,1.8,2.6,2.7.5.7-.6,1.3-1,.6h0Z"/>
  <path class="cls-1" d="M147.4,41.07l-2.4-2.4c-.2-.2,0-.6.3-.6.2,0,.4.1.5.2.6.6,1.2,1.2,1.9,1.8.4.2,1,.5.6,1-.2.3-.6.3-.9,0h0Z"/>
  <path class="cls-1" d="M143.3,39.17c-.2,0-.3-.1-.4-.2-.7-.3-1.3-.8-1.9-1.3-1.1-.5.3-1.8.9-.7.5.7,1.2,1,1.9,1.5.4.3,0,.9-.5.7h0Z"/>
  <path class="cls-1" d="M147.8,43.77c-.4-.4-1.1-.7-1.7-.9-.3,0-.6-.2-.5-.5.4-1,2.4.4,2.9.8.6.4-.3,1.1-.7.6h0Z"/>
  <path class="cls-1" d="M273.9,39.07c-.2-.3,0-.7.3-.8,3.3-1.6,6.9-2.6,10.3-3.8.8-.4,1.5.7.8,1.1-.3.2-.7.5-1.1.3-2.1.7-4.2,1.3-6.3,2.1-1,.4-2,.9-3.1,1.3-.4.2-.8.1-.9-.2h0Z"/>
  <path class="cls-1" d="M273.1,42.47c-.2-.2,0-.5.2-.6.6-.2,1.2-.5,1.8-.8,2.3-1,4.8-2,7.1-3,.4-.3.9-.8,1.4-.4.3.2.2.7-.1.8-1.1.7-2.6,1.1-3.8,1.5-2.1.8-4.1,1.7-6.2,2.5h0c-.1.2-.3.1-.4,0h0Z"/>
  <path class="cls-1" d="M277.6,40.57c-.4-.3-.5-.8-.9-1.2-.2-.4-.7-.8-.7-1.3.1-.6,1.2-.3,1,.2.3.5.7,1,1.1,1.3.2.1.3.2.4.4.1.5-.5.9-.9.6h0Z"/>
  <path class="cls-1" d="M280.1,39.27c-.4-.5-.7-1-1.2-1.5-.5-.6.4-1.5,1.1-1,.6.4.8,1.2,1.3,1.6.8.8-.5,1.7-1.2.9h0Z"/>
  <path class="cls-1" d="M277.3,37.67c-4.6-1.7-1.1-3.4-1-1.8.5.5,2.2.5,1.8,1.5-.1.3-.5.4-.8.3h0Z"/>
  <path class="cls-1" d="M279.8,41.47c-.6-.6-2-1.5-1-2.3.8-.5,1.4.4,1.8.9h0c.4.4.9,1,.3,1.4-.3.3-.8.3-1.1,0h0Z"/>
  <path class="cls-1" d="M202.4,26.27c-.5-.6.6-1,1-1.4,1-.6,1.9-1.4,3.1-1.6.3-.1.6.1.6.4.1.5-.6.6-1,.7-.7.3-1.4.8-2,1.2-.5.3-1.1,1.2-1.7.7h0Z"/>
  <path class="cls-1" d="M202.5,28.17c-.6-.5,1.6-1.5,2-1.8.4-.2.7.4.3.5-.1.1-.3.1-.4.2-.5.3-1,.6-1.5,1,0,.1-.3.1-.4.1h0Z"/>
  <path class="cls-1" d="M206.7,27.87c-.5,0-.8-.6-.4-.9.9-.6,2-1,2.9-1.5.4-.2.9-.6,1.2-.2.2.2.1.5-.1.7l-3,1.5c0,.3-.3.5-.6.4h0Z"/>
  <path class="cls-1" d="M35.5,96.77c-1.5-.1-1.4-2-1.6-3,0-.8-.2-2.1.9-2.4.6-.2,1.4.2,1.3.8-.1.3-.4.6-.8.6-.1.9,0,1.9.4,2.8.8.2.6,1.2-.2,1.2h0Z"/>
  <path class="cls-1" d="M36.7,98.17c-.5-.3,0-.8.2-1.1.3-.5.4-1.2-.1-1.7h0c-.2-.2-.7-.3-.6-.7.3-.6,1,0,1.3.3.5.6.5,1.3.3,2,0,.5-.3,1.5-1.1,1.2h0Z"/>
  <path class="cls-1" d="M120.3,96.37c.6-1.3,2.2-2.1,3.4-3,.6-.4,1.2-.9,1.8-1.4.3-.3.8-.2,1.1,0,.7.9-1,1.5-1.6,2.1-1.1.8-2.2,1.5-3.1,2.4-.1,1.2-1.9,1-1.6-.1h0Z"/>
  <path class="cls-1" d="M121.1,99.57c-1.4-.5,1.7-3,2.5-3.3.6-.3,1.1.6.5.9-.9.4-1.6,1.1-2.1,1.8-.2.3-.5.7-.9.6h0Z"/>
  <path class="cls-1" d="M125.3,98.77c-1.6-.5.2-1.9.8-2.5.7-.4,1.8-2,2.7-1.3.3.2.2.7,0,.9-.9.7-1.8,1.3-2.5,2.1,0,.5-.5.9-1,.8h0Z"/>
  <path class="cls-1" d="M216.3,93.97c-2.9-.3-2.3-3.8-1.5-5.5.4-.5,1.6-.7,1.7.2,0,.3-.3.5-.7.5-.3.8-1,3.3.3,3.6,1.1,0,1.3,1.3.2,1.2h0Z"/>
  <path class="cls-1" d="M217.8,95.47c-.7-.5.2-1,.4-1.5.3-.6,0-1.4-.7-1.7-.3,0-.6-.2-.7-.5,0-.3.2-.5.5-.6,1,0,1.7.8,2,1.5.4.8-.4,3.3-1.5,2.8h0Z"/>
  <path class="cls-1" d="M45.1,138.07c-.5-.4,0-1.2.6-1.2,1.1-.5,2.1-1.1,3.2-1.6,1.2-.6,2.4-1.1,3.7-1.6.4-.1.8,0,.9.3s0,.7-.4.8c-.7.2-1.4.6-2.1.9-1.2.5-2.4,1.1-3.5,1.7-.7.2-1.6,1.2-2.4.7h0Z"/>
  <path class="cls-1" d="M45.5,140.57c-.5-.8,1.9-1.4,2.5-1.8.7-.3,1.4-.6,2-.9.3-.1.6,0,.8.3.4.8-1.6,1.1-2.1,1.4-.8.4-1.6.7-2.3,1.1-.4.3-.8.2-.9-.1h0Z"/>
  <path class="cls-1" d="M49.5,141.57c-.6,0-.9-.7-.3-1,1.5-.6,2.9-1.2,4.3-1.8.8-.3,1.2.8.4,1-1.3.4-2.5,1-3.8,1.5-.1.2-.4.3-.6.3h0Z"/>
  <path class="cls-1" d="M124.8,135.87c-1.1-.5-2.6-1.3-2.2-2.6,0-1,3.9-4.2,4.4-2.6,0,.3-.5.4-.5,0-1.2.1-3.7,2.1-3.1,3.3h0c.4.5,1.1.8,1.8,1,.8.2.3,1.2-.4.9h0Z"/>
  <path class="cls-1" d="M126.1,138.27c-.5-.6.4-.8.8-1.2.9-.8.9-2.2-.1-3-.5-.2-.1-.9.4-.6,1.5,1,1.7,3.1.3,4.3-.4.3-.9.9-1.4.5h0Z"/>
  <path class="cls-1" d="M260.5,131.67c-1.8-1-.6-3,.1-4.3.6-1,1.3-2.1,2.5-2.7.5-.3,1.8-.1,1.6.6-.1.2-.4.3-.7.2-.1,0-.3-.1-.4,0-1.4.8-3.2,3.6-2.9,5v-.1h0c.1.2.3.3.5.4.6.5-.1,1.4-.7.9h0Z"/>
  <path class="cls-1" d="M261.2,135.27c-.2-.3-.1-.7.3-.8.8-.3,1.5-.7,2.1-1.2.8-.7,1.6-2.8.1-3.1-.9-.3-.4-1.5.5-1.2.7.2,1.3.5,1.5,1.2.7,1.8-.5,3.9-2.4,4.8-.7.2-1.6,1-2.1.3h0Z"/>
  <path class="cls-1" d="M200.9,162.47c-.2-.4.2-.7.5-.8,1.8-1,3.6-2.2,5.6-2.9,1-.4,1.4,1.1.3,1.1-1.6.4-2.9,1.3-4.3,2.1-.6.2-1.5,1.2-2.1.5h0Z"/>
  <path class="cls-1" d="M200.8,165.37c-1-.8,3-2.5,3.6-3,.2-.1.5-.1.6.1.4.7-1.1,1-1.5,1.3-.8.4-1.5.9-2.1,1.5-.1.2-.4.3-.6.1h0Z"/>
  <path class="cls-1" d="M204.8,164.97c-.8-1.1,1.6-1.7,2.4-2.3.7-.3,1.9-1.2,2.5-.4.5.9-.8,1.2-1.5,1.5-.8.4-1.5.9-2.2,1.3-.3.3-.9.3-1.2-.1h0Z"/>
  <path class="cls-1" d="M286.4,156.77c-1.5-.3-2-1.7-1.7-2.9.2-.9.9-2.2,2.2-2.1.4,0,.9.1.8.5-.2.4-.7.2-1,.2-.9.3-1.1,1.4-1.1,2.1,0,.5.4,1,1.1,1.1.7.3.5,1.3-.3,1.1h0Z"/>
  <path class="cls-1" d="M286.1,158.87c-1-1.1,2.2-1.5,1.2-3.2-.5-.2-.4-.9.1-1.1.8-.2,1.1.6,1.3,1.1.5,1.3-.5,2.5-1.6,3.2-.2.2-.7.2-1,0h0Z"/>
  <path class="cls-1" d="M90.5,172.37c-.1-.1-.1-.3.1-.4,1-.6,2-1.2,3-1.8.5-.2,3.5-2.6,3.2-1-2,1-3.9,2.2-5.8,3.3-.1.1-.4.1-.5-.1h0Z"/>
  <path class="cls-1" d="M91.1,174.97c-.2-.2-.3-.5-.1-.6.8-.7,1.5-1.4,2.5-1.9.4-.1.7.1.7.5s-.6.5-.9.8c-.5.4-1.1.8-1.5,1.3-.2,0-.5,0-.7-.1h0Z"/>
  <path class="cls-1" d="M94.4,174.57c-.5-.8,1.1-1.2,1.7-1.7.6-.2,2-1.5,2.5-.7.4.7-.8.9-1.2,1.2-.7.4-1.5.8-2.2,1.3-.2.2-.6.1-.8-.1h0Z"/>
  <path class="cls-1" d="M55.5,239.67c-.6-.9,1.1-1.5,1.7-2,1.6-1.1,3.3-2.1,4.9-3.1.8-.3,2.6-1.8,3.2-.7.2.3,0,.7-.4.9-3.1,1.3-5.7,3.3-8.4,5.1-.3.1-.8.1-1-.2h0Z"/>
  <path class="cls-1" d="M55.9,242.37c-.5-.6.7-.9,1.1-1.3,1-.6,1.9-1.2,2.8-1.8.2-.1.5-.1.7.1.1.2.1.5-.1.6-.4.3-.8.6-1.2.8-.8.5-1.7,1.1-2.5,1.7-.3.1-.7.1-.8-.1h0Z"/>
  <path class="cls-1" d="M61.7,241.17c-.4-.6.6-.9,1-1.2,1.3-.8,2.5-1.9,3.9-2.6.5-.3,1.2.2,1,.7-.1.2-.2.3-.5.4-1.3.6-2.3,1.5-3.5,2.2-.2.4-.8.5-1.2.7-.1.2-.5.1-.7-.2h0Z"/>
  <path class="cls-1" d="M238.1,218.57c-.7-1.4.4-3,.9-4.3.4-.8.8-1.7,1.5-2.3,1-.5,1.4.8.5,1.2-.4.6-2.4,4.7-1.1,4.8,1-.3,1.9.8,1.3,1.5-.9.9-2.6.1-3.1-.9h0Z"/>
  <path class="cls-1" d="M241.7,223.37c-.1-.5.3-.9.9-.9.3,0,.5-.1.7-.3,1.7-1.5.4-4.8-1.4-5.7-.2.4-1,.1-.8-.3.5-1,1.9-.2,2.3.4,1.7,1.8,2.9,4.8.8,6.8-.5.6-2.2,1.1-2.5,0Z"/>
  <path class="cls-1" d="M151.2,230.17c-.2-.3-.2-.7.1-.8,1-.7,2-1.5,2.9-2.2.7-.4,2.1-2.4,3-1.7.3.3.3.7-.1.9-1.6,1.2-3.1,2.6-4.8,3.7-.2.4-.8.5-1.1.1h0Z"/>
  <path class="cls-1" d="M152.6,231.67v-.4c.4-.6,1.1-1,1.6-1.6.2-.2.5-.2.7,0s.2.5,0,.7c-.5.4-.9.7-1.3,1.1.2.6-.8.8-1,.2h0Z"/>
  <path class="cls-1" d="M155.3,232.07c-1.2-.8,2.3-2.4,2.9-2.9,1-.5,1.5.7.5,1.1-.9.5-1.8,1.1-2.5,1.7-.2.2-.6.2-.9.1h0Z"/>
  <path class="cls-1" d="M291.8,251.67c-1.6-.6-1.8-2.5-2.2-4-1.8-4.9-.3-10.2-.5-15.3-.1-2.6-.1-5.1-.5-7.7-.3-3.2-.1-6.4-.2-9.6,0-4.8.7-9.3,1-14,.1-3.1,0-6.2,0-9.2-.1-1.4-.4-2.8-.4-4.2-.1-1.6.2-3.2.4-4.8.2-4.5,1.1-9,1.2-13.5.5-4.1.1-8.2.1-12.4,0-1.6.3-3.2.5-4.7-.1-1.3-.4-2.5-.4-3.8,0-4.8.4-9.2.7-14,.4-2.4.7-4.8.7-7.2.1-2.9.5-5.9.7-8.8.4-2.8.8-5.7.9-8.5.6-5.3.6-10.7.6-16.1,0-2,0-4.1-.1-6.1,0-3.2.7-6.2.9-9.4.7-3.8.3-7.6.3-11.5-.2-3,.3-5.7,1.3-8.5.2-.8.2-1.7.5-2.5.6-2,2.7-3.2,4.7-2.6,4.2,1.5,2.2,6.6,1,9.7-.5,1.3-.3,2.7-.4,4.1-.1,2.9.1,5.7,0,8.6-.5,3.8-1.1,7.5-1.7,11.3-.3,5.9,0,11.9-.1,17.8-.3,3.7-.5,7.3-.7,11-.8,5.4-.9,10.8-1.2,16.2-.6,3.2-.7,6.4-1.1,9.6,0,3.3-.5,6.6.1,9.8.2,1.7-.2,3.2-.4,4.9-.1,1.1,0,2.3,0,3.4.2,5.5-.1,11-.6,16.5-.5,3.5-.7,7-1.2,10.4-.2,2.1.5,4.2.3,6.3-.2,3-.1,6-.4,8.9-.4,4-1,8.1-1.7,12.1-.2,2.8-.3,5.6-.6,8.3-.1,1.9,0,3.7.1,5.6-.1,2.5-.4,5.1-.6,7.6-.5,4.1-2.1,8.1-1.1,12.2.2,1.1-.2,2.9,1.2,3h2c.4,0,.7.4.7.7,0,.4-.3.7-.7.7-1.3-.2-2.2-.1-3.1-.3h0Z"/>
</svg>