<?xml version="1.0" encoding="UTF-8"?>
<svg id="Layer_2" data-name="Layer 2" xmlns="http://www.w3.org/2000/svg" viewBox="0 0 41.98 35.97">
  <defs>
    <style>
      .cls-1 {
        fill: none;
        stroke: #46495a;
        stroke-miterlimit: 10;
        stroke-width: 1.5px;
      }

      .cls-2 {
        fill: #ff4040;
        stroke-width: 0px;
      }
    </style>
  </defs>
  <g id="Intro">
    <g id="Logo">
      <path class="cls-2" d="m11.58,34.05c-1.38.81-1.64-.13-2.79-1.44-.83-.95-3.05-1.51-4.15-3.65-.78-1.52-.52-4.71-1.18-5.68-.9-1.32-.68-3.27-.37-3.46,1.68-1.03,2.23.21,4.5,1.86,1.05.76,2.22,1.86,3.03,3.16,1.15,1.88.79,4.14,1.81,6.03,1.14,2.1-.02,2.7-.86,3.19Z"/>
      <path class="cls-2" d="m34.43,24.05c-4.29,7.67-5.57-7.01-11.9-11.71-3.53-2.62-13.39,8.19-14.06,1.44-.56-5.59,4.03-12.39,10.94-12.72,17.75-.84,21.13-.69,22.27,1.03,1,1.5-.32,9.56-7.25,21.95Z"/>
      <path class="cls-1" d="m3.36,19.06c-.14.12-1.34,1.51-1.39,2.1-.04.41.46,1.11.76,1.35.28.23,1,.53,1.39.49.55-.06,1.67-.72,1.97-1.21.28-.46.22-1.56.08-2.02-.17-.54-1.1-1.4-1.68-1.41-.31,0-.74.35-1.13.7Z"/>
      <path class="cls-1" d="m3.58,26.45c.23.5,1.1,1.39,1.68,1.41.35.02,1.03-.39,1.35-.58.53-.33,1.5-1.13,1.91-1.61.22-.26.69-.82.75-1.14.09-.46-.24-1.35-.49-1.68-.33-.43-.67-.76-1.04-.79-.19-.02-1.28.12-1.49.28s-1.12.97-1.24,1.1-1.09,1.02-1.28,1.25-.33,1.38-.15,1.76Z"/>
      <path class="cls-1" d="m10.84,27.14c.15.24.59,1.48.4,2-.15.41-.99,1.01-1.31,1.25s-1.48.94-2.01.96c-.49.01-1.4-.36-1.71-.69-.29-.32-.43-1.44-.39-1.73s1.23-1.62,1.77-2.01c.4-.29,1.33-.66,1.79-.66s1.23.52,1.46.89Z"/>
      <path class="cls-1" d="m12.6,31.04c-.33-.5-1.32-.72-1.94-.49-.32.12-.68.34-1.1.73-.93.87-.76,1.94-.74,2.02.1.59.14.91.74,1.4.66.53,1.08.51,1.19.52s.51.1,1.66-.72c.73-.52,1.03-.69,1-1.52,0-.22-.42-1.36-.8-1.94Z"/>
      <path class="cls-1" d="m22.57,31.65c-.34.26-.81,1-1.1,1.32-.21.23-.61.71-.87.87-.53.33-1.02.32-2.23-.44-1.88-1.18-5.05-3.37-3.74-4.37"/>
      <path class="cls-1" d="m27.04,29.25c-.34.26-.54,1.16-.81,1.5s-.92.96-1.31,1.14c-.22.1-.71.12-.94.11s-.67-.14-.89-.18c-.61-.13-1.14-.42-1.56-.85-.53-.55-1.33-1.45-1.78-2.04-.19-.25-1.18-3.23-1.93-2.66"/>
      <path class="cls-1" d="m2.44,20.21c-.23-1.42-1.75-2.68-1.69-4.75.04-1.2,2.32-3.57,3.34-4.37l5.97-4.65"/>
      <path class="cls-1" d="m40.67,7.15l-.45,3.38c-.38,2.86-1.54,5.67-3.35,8.12l-3.58,4.85c-.17.24-.4.43-.65.58-.76.44-1.87,1-2.42,1.42"/>
      <ellipse class="cls-1" cx="17.91" cy="26.42" rx=".06" ry=".59" transform="translate(-13.35 19.95) rotate(-44.17)"/>
      <ellipse class="cls-1" cx="20.78" cy="22.65" rx=".06" ry=".59" transform="translate(-9.91 20.88) rotate(-44.17)"/>
      <path class="cls-1" d="m14.33,28.76s.16.34.37.63.36.8.34.82-.22-.45-.43-.75-.3-.69-.28-.71Z"/>
      <path class="cls-1" d="m20.57,22.56c1.27-.97,2.4,3.44,3.36,4.44.51.53,1.42,1.47,2.2,1.96.62.39,1.74.63,2.35.42.35-.12.97-.61,1.2-.91.25-.33.49-1.11.58-1.5.09-.4.32-1.27.13-1.59-.33-.53-1.87-.49-2.37-.86-.96-.71-2.16-2.87-2.86-3.83-.73-1.01-2.19-3.09-2.56-4.31-.34-1.11-.39-3.56-.33-4.78.03-.57.44-2.24.4-2.27-.05-.04-2.26,1-3.04,1.1-1.11.14-3.36-1.17-4.32-.47-.89.65-.54,3.15-1.05,4.12-.29.55-1.15,1.53-1.65,1.91-.52.4-1.71,1.06-2.32,1.1-.44.03-1.29-.31-1.58-.6-.26-.27-.47-1.07-.49-1.47-.11-2.17.12-7.28,2-8.7l8.1-4.17c1.97-.82,3.65-1.32,4.81-1.37,5.14-.24,14.79,2.25,16.49,3.95.45.44,1.03,1.66,1.05,2.33,0,.11,0,.22,0,.34"/>
    </g>
  </g>
</svg>