<?xml version="1.0" encoding="UTF-8"?>
<svg id="Layer_2" data-name="Layer 2" xmlns="http://www.w3.org/2000/svg" viewBox="0 0 18.32 15.31">
  <defs>
    <style>
      .cls-1 {
        stroke-width: 0px;
      }
    </style>
  </defs>
  <g id="Intro">
    <path class="cls-1" d="m17.06,7.37c1.01,1.52-8.64,4.66-10.03,5.51-1.88.82-3.52,1.55-5.36,2.34-1.53.59-2.42-1.87-.86-2.39,4.37-1.51,8.76-3.01,12.96-4.94,1.02-.25,2.54-1.96,3.28-.51Z"/>
    <path class="cls-1" d="m18.16.81c.38.72.1,1.68-.65,2.05-2.22,1.08-4.49,2.05-6.81,2.88-2.68,1.09-3.23-3.38-.37-2.94,1.98-.75,3.89-1.7,5.79-2.63.74-.38,1.67-.08,2.05.65Z"/>
  </g>
</svg>