<?xml version="1.0" encoding="UTF-8"?>
<svg id="Layer_2" data-name="Layer 2" xmlns="http://www.w3.org/2000/svg" viewBox="0 0 15.84 22.88">
  <defs>
    <style>
      .cls-1 {
        stroke-width: 0px;
      }
    </style>
  </defs>
  <g id="Intro">
    <path class="cls-1" d="m.67,13.89c-.52-.16-.77-.7-.64-1.21.78-3.06,3.15-5.43,5.54-7.35C8.21,3.19,11.22,1.57,14.27.12c.52-.25,1.15-.1,1.44.42.27.49.1,1.19-.42,1.44-3.16,1.49-6.35,3.21-8.98,5.41-1.57,1.32-2.89,2.61-3.86,4.36-.52.78-.46,2.46-1.78,2.13Z"/>
    <path class="cls-1" d="m3.75,22.44c-1.06-3.7,2.26-9.7,6.04-10.88,2.2-.79,2.72,2.87.38,2.54-4.06.93-3.02,11-6.42,8.34Z"/>
  </g>
</svg>