<?xml version="1.0" encoding="UTF-8"?>
<svg id="Layer_2" data-name="Layer 2" xmlns="http://www.w3.org/2000/svg" viewBox="0 0 15.25 8.54">
  <defs>
    <style>
      .cls-1 {
        stroke-width: 0px;
      }
    </style>
  </defs>
  <g id="Intro">
    <path class="cls-1" d="m0,4.77C-.16,3.72,7.59.61,8.86.05c1-.34,1.5,1.26.48,1.56-1.33.43-2.63.92-3.9,1.5-1.08.49-2.18.96-3.22,1.52-.46.22-.83.53-1.21.85-.48.22-1.05-.17-1-.7Z"/>
    <path class="cls-1" d="m5.62,8.1c-.38-.89.72-1.18,1.29-1.52.99-.54,2.02-1,3.06-1.43,1.32-.55,2.59-1.21,3.88-1.82.75-.37,1.64.43,1.33,1.22-.39.88-2.23,1.04-3.08,1.49-.99.39-1.98.73-2.94,1.17-.68.31-1.35.62-2,.99-.48.37-1.23.57-1.55-.1Z"/>
  </g>
</svg>