<?xml version="1.0" encoding="UTF-8"?>
<svg id="Layer_2" data-name="Layer 2" xmlns="http://www.w3.org/2000/svg" viewBox="0 0 22.82 13.64">
  <defs>
    <style>
      .cls-1 {
        stroke-width: 0px;
      }
    </style>
  </defs>
  <g id="Intro">
    <path class="cls-1" d="m16.74.79c-.45-.75-1.47-1.03-2.23-.56-1.18.73-2.35,1.47-3.48,2.26-1.69,1.16-3.35,2.36-4.96,3.62-1.87,1.5-3.71,3.05-5.51,4.63-.29.25-.49.57-.54.96-.2,1.24,1.37,2.14,2.34,1.33,1.52-1.24,3.04-2.5,4.58-3.72,2.03-1.62,4.16-3.1,6.33-4.52.96-.6,1.94-1.18,2.91-1.77.75-.44,1.02-1.47.56-2.23Z"/>
    <path class="cls-1" d="m22.73,5.86c.25-.58-.05-1.31-.64-1.54-.35-.15-.73-.1-1.05.08-.94.51-1.89,1-2.81,1.53-3.03,1.7-5.96,3.56-8.83,5.51-1.19.92.09,2.81,1.39,2.03,2.54-1.6,4.92-3.44,7.53-4.93.87-.53,1.76-.99,2.66-1.46.59-.37,1.45-.52,1.76-1.21Z"/>
  </g>
</svg>