<?xml version="1.0" encoding="UTF-8"?>
<svg id="Laag_1" data-name="Laag 1" xmlns="http://www.w3.org/2000/svg" viewBox="0 0 273.85 250.63">
  <defs>
    <style>
      .cls-1 {
        fill: #010101;
        stroke-width: 0px;
      }
    </style>
  </defs>
  <path class="cls-1" d="M10.55,12.07c84.9,1.07,169.81,1.09,254.71,1.71,7.72.06,7.73-11.94,0-12C180.36,1.16,95.45,1.14,10.55.07c-7.72-.1-7.73,11.9,0,12h0Z"/>
  <path class="cls-1" d="M260.13,7.04c-3.56,78.18-1.57,156.45,1.71,234.6.32,7.69,12.33,7.73,12,0-3.29-78.15-5.27-156.42-1.71-234.6.35-7.72-11.65-7.7-12,0h0Z"/>
  <path class="cls-1" d="M8.67,250.55c66.51-2.53,133.07-1.36,199.6-.98,18.41.11,36.81.14,55.22.03,7.72-.05,7.74-12.05,0-12-66.04.4-132.07-1.23-198.1-.43-18.91.23-37.82.66-56.72,1.38-7.7.29-7.74,12.29,0,12h0Z"/>
  <path class="cls-1" d="M12.01,239.87c1.46-38.24,2.44-76.55.76-114.8-1.68-38.11,1.73-76.24,1.26-114.36-.09-7.72-12.09-7.74-12,0,.47,38.12-2.94,76.25-1.26,114.36S1.47,201.63,0,239.87c-.29,7.72,11.71,7.71,12,0h0Z"/>
  <path class="cls-1" d="M9.69,12.11C17.41,12.11,17.42.11,9.69.11s-7.73,12,0,12h0Z"/>
  <path class="cls-1" d="M8.73,12c7.72,0,7.73-12,0-12s-7.73,12,0,12h0Z"/>
  <path class="cls-1" d="M7.36,250.63c7.72,0,7.73-12,0-12s-7.73,12,0,12h0Z"/>
  <path class="cls-1" d="M6.51,250.63c7.72,0,7.73-12,0-12s-7.73,12,0,12h0Z"/>
  <path class="cls-1" d="M265.14,249.46c7.72,0,7.73-12,0-12s-7.73,12,0,12h0Z"/>
  <path class="cls-1" d="M266.1,249.46c7.72,0,7.73-12,0-12s-7.73,12,0,12h0Z"/>
</svg>